<?xml version="1.0" encoding="UTF-8" standalone="no"?>
<!-- Created with Inkscape (http://www.inkscape.org/) -->

<svg
   width="2438.3999mm"
   height="1219.2mm"
   viewBox="0 0 3004.9206 1502.4603"
   version="1.1"
   id="svg30173"
   inkscape:version="1.2.1 (9c6d41e, 2022-07-14)"
   sodipodi:docname="2022-09-22 - 2.8mm White.svg"
   xmlns:inkscape="http://www.inkscape.org/namespaces/inkscape"
   xmlns:sodipodi="http://sodipodi.sourceforge.net/DTD/sodipodi-0.dtd"
   xmlns="http://www.w3.org/2000/svg"
   xmlns:svg="http://www.w3.org/2000/svg">
  <sodipodi:namedview
     id="namedview30175"
     pagecolor="#505050"
     bordercolor="#eeeeee"
     borderopacity="1"
     inkscape:showpageshadow="0"
     inkscape:pageopacity="0"
     inkscape:pagecheckerboard="0"
     inkscape:deskcolor="#505050"
     inkscape:document-units="mm"
     showgrid="false"
     inkscape:zoom="0.61936325"
     inkscape:cx="297.88658"
     inkscape:cy="1319.904"
     inkscape:window-width="1280"
     inkscape:window-height="747"
     inkscape:window-x="0"
     inkscape:window-y="25"
     inkscape:window-maximized="0"
     inkscape:current-layer="layer1" />
  <defs
     id="defs30170" />
  <g
     inkscape:label="Layer 1"
     inkscape:groupmode="layer"
     id="layer1">
    <g
       id="g8184"
       inkscape:label="Middle"
       transform="matrix(-1.0010761,0,0,0.99964049,607.49287,-128.70375)">
      <path
         fill="none"
         stroke-width="0.074"
         stroke-linecap="round"
         stroke-linejoin="round"
         stroke="#000000"
         stroke-opacity="1"
         stroke-miterlimit="10"
         d="m 501.41016,160.77754 h 0.16015 l 0.0781,0.0117 0.0703,0.008 0.082,0.0117 0.0781,0.008 0.0703,0.0195 0.082,0.0195 0.0703,0.0234 0.0703,0.0195 0.0664,0.0195 0.0703,0.0274 0.21094,0.0937 0.0586,0.0391 0.0703,0.0273 0.0625,0.043 0.0586,0.0391 0.0703,0.0391 0.0508,0.0508 0.0586,0.0391 0.0625,0.0508 0.0469,0.0508 0.0625,0.0508 0.0508,0.0469 0.0469,0.0508 0.0508,0.0625 0.0508,0.0469 0.0391,0.0625 0.0508,0.0586 0.0391,0.0586 0.0391,0.0625 0.043,0.0703 0.0391,0.0586 0.0312,0.0703 0.0274,0.0586 0.043,0.0703 0.0195,0.0703 0.0273,0.0703 0.0312,0.0703 0.0195,0.082 0.0195,0.0664 0.0195,0.0703 0.0117,0.082 0.0195,0.0703 0.0117,0.0781 0.008,0.082 v 0.0703 l 0.0117,0.0781 v 0.24219 l -0.0117,0.0781 -0.008,0.082 -0.0117,0.0664 -0.0117,0.082 -0.0195,0.0703 -0.008,0.0781 -0.0391,0.14063 -0.0312,0.0703 -0.0195,0.082 -0.0312,0.0586 -0.0312,0.0703 -0.0391,0.0703 -0.0312,0.0703 -0.0391,0.0586 -0.0273,0.0703 -0.043,0.0586 -0.0391,0.0625 -0.0508,0.0586 -0.0391,0.0586 -0.0508,0.0508 -0.0508,0.0625 -0.0469,0.0469 -0.0508,0.0625 -0.0508,0.0508 -0.0586,0.0469 -0.0508,0.043 -0.0586,0.0469 -0.0625,0.0508 -0.0586,0.0391 -0.0625,0.043 -0.0664,0.0391 -0.0625,0.0391 -0.0703,0.0312 -0.0586,0.0274 -0.0703,0.043 -0.0703,0.0195 -0.0703,0.0312 -0.0703,0.0273 -0.14063,0.0391 -0.0781,0.0234 -0.0703,0.0195 -0.082,0.008 -0.0664,0.0117 -0.082,0.008 -0.0781,0.0117 h -0.082 l -0.0781,0.008 h -0.082 l -0.0703,-0.008 h -0.0781 l -0.082,-0.0117 -0.0781,-0.008 -0.0703,-0.0117 -0.082,-0.0195 -0.0703,-0.008 -0.0781,-0.0234 -0.0703,-0.0195 -0.0703,-0.0273 -0.0703,-0.0195 -0.21094,-0.0937 -0.0586,-0.0391 -0.0703,-0.0273 -0.0586,-0.043 -0.0703,-0.0391 -0.0586,-0.0391 -0.0625,-0.0391 -0.0586,-0.0508 -0.0508,-0.0391 -0.0586,-0.0508 -0.0508,-0.0508 -0.0586,-0.0508 -0.0508,-0.0586 -0.0508,-0.0508 -0.0508,-0.0586 -0.0391,-0.0508 -0.0508,-0.0625 -0.0781,-0.11719 -0.043,-0.0703 -0.0391,-0.0625 -0.0312,-0.0664 -0.0391,-0.0625 -0.0274,-0.0703 -0.0625,-0.14063 -0.0195,-0.0664 -0.0312,-0.0703 -0.0195,-0.0703 -0.0195,-0.082 -0.008,-0.0703 -0.0234,-0.0781 -0.008,-0.0703 -0.0117,-0.082 -0.008,-0.0781 v -0.082 l -0.0117,-0.0664 v -0.15235 l 0.0117,-0.0781 0.008,-0.0703 v -0.082 l 0.0195,-0.0781 0.0117,-0.0703 0.0195,-0.082 0.0117,-0.0703 0.0195,-0.0664 0.0508,-0.15235 0.0274,-0.0703 0.0625,-0.14063 0.0273,-0.0586 0.043,-0.0703 0.0273,-0.0586 0.0391,-0.0703 0.043,-0.0625 0.0508,-0.0586 0.0391,-0.0586 0.0508,-0.0625 0.0391,-0.0469 0.0508,-0.0625 0.0469,-0.0508 0.0508,-0.0469 0.0625,-0.0508 0.0469,-0.0508 0.0625,-0.0508 0.0586,-0.0391 0.0586,-0.0508 0.0625,-0.0391 0.0586,-0.0391 0.0625,-0.043 0.0664,-0.0273 0.0703,-0.0391 0.0625,-0.0312 0.14063,-0.0625 0.0664,-0.0274 0.14063,-0.0391 0.082,-0.0234 0.0703,-0.0195 0.0781,-0.0195 0.0703,-0.008 0.082,-0.0117 0.0781,-0.008 0.0703,-0.0117 h 0.16016"
         id="path3857"
         style="stroke-width:0.5239;stroke-dasharray:none" />
      <path
         fill="none"
         stroke-width="0.074"
         stroke-linecap="round"
         stroke-linejoin="round"
         stroke="#000000"
         stroke-opacity="1"
         stroke-miterlimit="10"
         d="m 588.35937,147.64844 h 0.0898 l 0.082,0.0117 0.17969,0.0391 0.0781,0.0312 0.082,0.0312 0.0781,0.0391 0.0703,0.0508 0.0703,0.0469 0.0703,0.0508 0.0703,0.0625 0.0586,0.0664 0.0508,0.0625 0.0508,0.0781 0.0508,0.0703 0.0391,0.082 0.0312,0.0781 0.0273,0.082 0.0195,0.0898 0.0195,0.0781 v 0.0898 l 0.0117,0.0899 v 5.51953 l -0.0117,0.082 v 0.0898 l -0.0195,0.0899 -0.0195,0.0781 -0.0273,0.082 -0.0312,0.0781 -0.0391,0.082 -0.0508,0.0781 -0.0391,0.0703 -0.0625,0.0703 -0.0586,0.0625 -0.0586,0.0586 -0.0703,0.0586 -0.0703,0.0508 -0.082,0.0391 -0.0781,0.043 -0.082,0.0391 -0.0781,0.0274 -0.082,0.0234 -0.0899,0.008 -0.0898,0.0117 -0.0898,0.008 h -3.37109 l -0.37891,0.0312 -0.3789,0.0391 -0.37891,0.0625 -0.37109,0.0781 -0.3711,0.10157 -0.35937,0.10937 -0.35156,0.12891 -0.34766,0.14844 -0.33984,0.16015 -0.33203,0.1836 -0.32032,0.1875 -0.30859,0.21093 -0.30859,0.23047 -0.29297,0.23047 -0.27735,0.25781 -0.26953,0.26172 -0.26172,0.27735 -0.23828,0.29296 -0.24219,0.3086 -0.21875,0.30859 -0.19921,0.33203 -0.19141,0.33985 -0.17188,0.35156 -0.14843,0.34766 -0.14063,0.35156 -0.10937,0.36719 -0.10157,0.36328 -0.0898,0.36718 -0.0586,0.3711 -0.0508,0.3789 -0.0274,0.3711 -0.0117,0.3789 0.0117,0.3711 0.0195,0.3789 0.0391,0.3711 0.0586,0.37109 0.082,0.3711 0.0898,0.36718 0.10938,0.35938 0.12891,0.36328 0.15234,0.35937 0.16797,0.33985 0.17969,0.33984 0.19921,0.33985 0.21094,0.32031 0.23047,0.30859 0.24219,0.28906 0.25,0.29297 0.26953,0.26953 0.27734,0.25 0.29297,0.23829 0.29688,0.23046 0.3125,0.21094 0.32031,0.19922 0.32031,0.19141 0.33985,0.16015 0.34765,0.16016 0.35156,0.12891 0.35938,0.12109 0.35937,0.0977 0.3711,0.0898 0.3789,0.0625 0.37891,0.0469 0.38281,0.0312 0.39063,0.0195 h 3.17969 l 0.0898,0.0117 0.0781,0.008 0.0898,0.0312 0.082,0.0195 0.0781,0.0391 0.082,0.0312 0.0703,0.0508 0.0781,0.0508 0.0703,0.0469 0.0586,0.0625 0.0625,0.0703 0.0586,0.0586 0.0508,0.082 0.0391,0.0664 0.0391,0.082 0.043,0.0781 0.0273,0.082 0.0195,0.0781 0.0117,0.0899 0.008,0.0898 0.0117,0.0899 v 63.61328 l -0.0117,0.0898 -0.0195,0.0898 -0.0195,0.0781 -0.0273,0.082 -0.0312,0.0781 -0.0391,0.082 -0.043,0.0781 -0.0469,0.0703 -0.0508,0.0703 -0.0625,0.0703 -0.0664,0.0586 -0.21093,0.15235 -0.082,0.0391 -0.0781,0.0312 -0.082,0.0273 -0.0898,0.0195 -0.0781,0.0195 -0.0898,0.0117 h -3.19141 l -0.19141,0.0117 -0.38671,0.0195 -0.38282,0.0391 -0.3789,0.0586 -0.3711,0.0703 -0.36718,0.10157 -0.36329,0.10937 -0.35937,0.12109 -0.33984,0.14844 -0.34766,0.15235 -0.33203,0.17968 -0.32031,0.1875 -0.32032,0.19922 -0.29687,0.22266 -0.30078,0.23828 -0.28125,0.25 -0.26953,0.26172 -0.26954,0.27734 -0.24218,0.28125 -0.23828,0.3086 -0.21875,0.3125 -0.21094,0.32812 -0.19141,0.33984 -0.16797,0.33985 -0.16015,0.35156 -0.14063,0.35938 -0.12109,0.35937 -0.0977,0.35938 -0.0898,0.37109 -0.0703,0.37109 -0.0508,0.3711 -0.0312,0.3789 -0.0195,0.3711 v 0.3789 l 0.0195,0.37891 0.0391,0.37109 0.0625,0.3711 0.0703,0.36718 0.0898,0.3711 0.10938,0.35937 0.12109,0.35938 0.14844,0.36328 0.16016,0.34766 0.17968,0.33984 0.19141,0.33984 0.20703,0.32032 0.23047,0.3125 0.24219,0.29687 0.25,0.28125 0.25781,0.28125 0.28125,0.25781 0.28125,0.24219 0.29687,0.23047 0.3125,0.21875 0.32032,0.19922 0.32031,0.1914 0.33984,0.16797 0.33985,0.15235 0.34765,0.13672 0.36328,0.12109 0.35938,0.10937 0.36719,0.0899 0.37109,0.0703 0.37891,0.0508 0.39062,0.0391 0.38281,0.0117 0.0977,0.008 h 3.16016 l 0.0898,0.0117 0.082,0.0117 0.0899,0.0195 0.0781,0.0274 0.082,0.0312 0.0781,0.0391 0.082,0.043 0.0664,0.0469 0.0703,0.0508 0.0625,0.0625 0.0703,0.0664 0.0469,0.0625 0.0508,0.0781 0.0508,0.0703 0.0391,0.082 0.0312,0.0781 0.0312,0.082 0.0273,0.0781 0.0117,0.0899 0.008,0.0898 0.0117,0.082 v 87.03906 l -0.0117,0.0899 -0.0195,0.0781 -0.0195,0.0899 -0.0195,0.082 -0.0312,0.0781 -0.0391,0.082 -0.0508,0.0781 -0.0391,0.0703 -0.0586,0.0703 -0.0625,0.0703 -0.0586,0.0625 -0.0703,0.0469 -0.0703,0.0625 -0.0703,0.0391 -0.0781,0.0391 -0.082,0.0391 -0.0781,0.0312 -0.0898,0.0195 -0.082,0.0195 -0.0898,0.0117 h -3.30859 l -0.39107,0.0197 -0.37891,0.0391 -0.3789,0.0508 -0.3711,0.0703 -0.37109,0.0898 -0.35937,0.10938 -0.35938,0.12109 -0.35156,0.14062 -0.33985,0.16016 -0.33984,0.16797 -0.32031,0.17969 -0.32031,0.21093 -0.3086,0.21094 -0.30078,0.23828 -0.28125,0.24219 -0.27734,0.25781 -0.26172,0.26953 -0.25,0.29297 -0.23828,0.29688 -0.22266,0.3125 -0.20703,0.32031 -0.20313,0.33984 -0.17968,0.33985 -0.16016,0.34765 -0.13672,0.36329 -0.13281,0.35937 -0.0977,0.35938 -0.0898,0.37109 -0.082,0.36719 -0.0508,0.37109 -0.0391,0.37891 -0.0195,0.37109 v 0.37891 l 0.0195,0.37109 0.0312,0.37891 0.0508,0.37109 0.0703,0.37109 0.0898,0.36719 0.0977,0.36328 0.1289,0.35938 0.13282,0.35937 0.16015,0.35157 0.17969,0.33984 0.1875,0.33984 0.21094,0.32813 0.22265,0.30859 0.22657,0.30078 0.25,0.28907 0.26172,0.28125 0.28125,0.26171 0.27734,0.25 0.30078,0.23047 0.30078,0.21875 0.32031,0.21094 0.32032,0.17969 0.33984,0.17969 0.33984,0.16015 0.34766,0.14063 0.35156,0.1289 0.35938,0.10938 0.37109,0.0898 0.3711,0.0703 0.3789,0.0586 0.37891,0.043 0.39062,0.0195 h 3.28125 l 0.0508,0.008 h 0.0898 l 0.0781,0.0195 0.0899,0.0234 0.082,0.0195 0.0781,0.0273 0.082,0.043 0.0781,0.0391 0.0703,0.0508 0.0703,0.0586 0.0703,0.0508 0.0586,0.0703 0.0586,0.0586 0.0508,0.082 0.043,0.0664 0.0391,0.082 0.0391,0.0781 0.0312,0.082 0.0195,0.0781 0.0195,0.0898 0.008,0.082 0.0117,0.0898 v 63.62109 l -0.0117,0.0898 -0.008,0.0781 -0.0195,0.0898 -0.0312,0.082 -0.0312,0.0781 -0.0391,0.082 -0.0391,0.0781 -0.10157,0.14062 -0.0586,0.0703 -0.0586,0.0586 -0.0703,0.0625 -0.0703,0.0469 -0.082,0.043 -0.0703,0.0469 -0.0781,0.0312 -0.082,0.0312 -0.0898,0.0195 -0.0781,0.0195 -0.0898,0.0117 -0.0898,0.008 h -3.15234 l -0.37891,0.0117 -0.39062,0.0391 -0.37891,0.0508 -0.37109,0.0586 -0.36719,0.0898 -0.37109,0.10156 -0.35156,0.1211 -0.35938,0.13671 -0.33984,0.15235 -0.33985,0.16797 -0.32031,0.17968 -0.32031,0.20313 -0.3086,0.20703 -0.30078,0.23047 -0.28906,0.24219 -0.28125,0.25781 -0.25781,0.26953 -0.26172,0.28125 -0.23828,0.30078 -0.23047,0.3086 -0.21094,0.32031 -0.19922,0.33203 -0.17968,0.34766 -0.16016,0.33984 -0.15234,0.35937 -0.12891,0.36329 -0.10938,0.35937 -0.10156,0.36719 -0.0703,0.37109 -0.0586,0.3711 -0.0391,0.37109 -0.0195,0.37891 -0.0117,0.37109 0.0117,0.37891 0.0274,0.37109 0.0508,0.37891 0.0703,0.37109 0.0781,0.36719 0.10157,0.35937 0.12109,0.36328 0.12891,0.35938 0.16015,0.34765 0.17188,0.35157 0.1875,0.33984 0.19922,0.32813 0.22265,0.3125 0.23047,0.30859 0.25,0.28906 0.25781,0.28125 0.26954,0.26172 0.28125,0.25 0.28906,0.23828 0.3125,0.21875 0.30859,0.21094 0.32031,0.19141 0.32813,0.17968 0.33984,0.16016 0.35157,0.14844 0.35156,0.13281 0.35937,0.10937 0.36719,0.0977 0.37109,0.082 0.37891,0.0586 0.38281,0.0391 0.39063,0.0312 h 3.39844 l 0.0898,0.0117 0.0781,0.008 0.0937,0.0195 0.15625,0.0625 0.082,0.0273 0.0781,0.0508 0.0703,0.0391 0.0703,0.0625 0.0703,0.0586 0.0625,0.0586 0.0586,0.0703 0.10156,0.14062 0.0391,0.082 0.0391,0.0781 0.0312,0.082 0.0195,0.0781 0.0195,0.0898 0.008,0.082 0.0117,0.0898 v 5.60938 l -0.0117,0.0781 -0.008,0.0898 -0.0195,0.0898 -0.0312,0.082 -0.0312,0.0781 -0.0273,0.082 -0.0508,0.0781 -0.0391,0.0703 -0.0625,0.0703 -0.0469,0.0703 -0.0703,0.0586 -0.0625,0.0625 -0.0703,0.0508 -0.0781,0.0469 -0.0703,0.043 -0.082,0.0273 -0.0781,0.0312 -0.0898,0.0312 -0.082,0.0195 -0.0898,0.008 -0.0898,0.0117 H 414.42187 l -0.0937,-0.0117 -0.0898,-0.008 -0.0781,-0.0195 -0.082,-0.0312 -0.0898,-0.0312 -0.0781,-0.0273 -0.0703,-0.043 -0.0781,-0.0469 -0.0703,-0.0508 -0.0625,-0.0625 -0.0703,-0.0664 -0.0469,-0.0625 -0.0625,-0.0703 -0.0391,-0.0781 -0.0391,-0.0703 -0.043,-0.082 -0.0273,-0.0781 -0.0312,-0.0898 -0.008,-0.082 -0.0234,-0.0898 v -5.77734 l 0.0117,-0.0898 0.0195,-0.082 0.0312,-0.0898 0.0273,-0.0781 0.0312,-0.082 0.0508,-0.0703 0.0391,-0.0781 0.0625,-0.0703 0.0469,-0.0625 0.0703,-0.0664 0.0625,-0.0508 0.0703,-0.0625 0.0781,-0.0469 0.0703,-0.043 0.0781,-0.0273 0.082,-0.0312 0.0899,-0.0312 0.0781,-0.0195 0.0898,-0.008 0.0937,-0.0117 h 3.21875 l 0.1875,-0.008 0.39063,-0.0234 0.38281,-0.0469 0.37891,-0.0625 0.37109,-0.0781 0.35938,-0.0898 0.35937,-0.12109 0.35938,-0.12891 0.35156,-0.14062 0.32812,-0.17188 0.33985,-0.16796 0.32031,-0.19922 0.30859,-0.21094 0.30079,-0.21875 0.30078,-0.24219 0.28125,-0.25 0.26953,-0.26953 0.25781,-0.26953 0.24219,-0.30078 0.23047,-0.30078 0.21875,-0.32032 0.19922,-0.32812 0.1914,-0.33984 0.16797,-0.33985 0.16016,-0.35156 0.13281,-0.35938 0.11719,-0.35937 0.10156,-0.37109 0.0781,-0.3711 0.0703,-0.36719 0.043,-0.37109 0.0273,-0.37891 0.0117,-0.37109 v -0.37891 l -0.0312,-0.37109 -0.0391,-0.37891 -0.0586,-0.37109 -0.0703,-0.37109 -0.10156,-0.36719 -0.10938,-0.36328 -0.1289,-0.35938 -0.15235,-0.34765 -0.16015,-0.35157 -0.1875,-0.33984 -0.20313,-0.32812 -0.20703,-0.32032 -0.23047,-0.3125 -0.24219,-0.30078 -0.25,-0.27734 -0.26953,-0.26953 -0.27734,-0.26172 -0.29297,-0.23828 -0.29688,-0.23047 -0.3125,-0.21094 -0.32031,-0.19922 -0.32812,-0.17969 -0.33203,-0.17187 -0.34766,-0.14844 -0.35156,-0.1289 -0.35938,-0.1211 -0.35937,-0.10156 -0.3711,-0.0898 -0.3789,-0.0703 -0.38282,-0.0508 -0.3789,-0.0273 -0.39063,-0.0117 h -3.1289 l -0.0899,-0.008 -0.0898,-0.0117 -0.0781,-0.0195 -0.0937,-0.0195 -0.0781,-0.0312 -0.0781,-0.0391 -0.0703,-0.0391 -0.082,-0.043 -0.0703,-0.0586 -0.0703,-0.0508 -0.0586,-0.0703 -0.0586,-0.0586 -0.10156,-0.14062 -0.0391,-0.0781 -0.043,-0.082 -0.0273,-0.0781 -0.0195,-0.082 -0.0195,-0.0898 -0.0234,-0.0898 v -63.78907 l 0.0117,-0.082 0.0195,-0.0898 0.0195,-0.0781 0.0312,-0.0898 0.0391,-0.082 0.0391,-0.0703 0.0508,-0.0781 0.0508,-0.0703 0.0586,-0.0703 0.0625,-0.0586 0.0586,-0.0625 0.0703,-0.0469 0.0781,-0.0508 0.0703,-0.0391 0.082,-0.043 0.0781,-0.0273 0.0899,-0.0195 0.082,-0.0234 0.0898,-0.0195 h 0.0899 l 0.0391,-0.008 H 417.75 l 0.39062,-0.0195 0.37891,-0.043 0.37891,-0.0586 0.37109,-0.0781 0.37109,-0.0898 0.35938,-0.11329 0.35156,-0.1289 0.34766,-0.14063 0.33984,-0.16015 0.33203,-0.16797 0.32813,-0.19141 0.3125,-0.21094 0.30859,-0.21875 0.28906,-0.23046 0.28907,-0.25 0.27343,-0.25782 0.25782,-0.28125 0.25,-0.28906 0.23047,-0.30078 0.23046,-0.32031 0.19922,-0.32032 0.19141,-0.33984 0.17969,-0.33984 0.14843,-0.35938 0.14063,-0.35156 0.12891,-0.35938 0.10156,-0.37109 0.0781,-0.36719 0.0703,-0.37109 0.0508,-0.37109 0.0391,-0.3711 0.0117,-0.3789 v -0.37891 l -0.0195,-0.37109 -0.0391,-0.37891 -0.0508,-0.37109 -0.082,-0.3711 -0.0898,-0.36719 -0.10938,-0.35937 -0.12109,-0.36328 -0.14844,-0.34766 -0.16015,-0.35156 -0.17969,-0.34766 -0.19141,-0.33203 -0.21094,-0.32031 -0.22656,-0.30859 -0.24219,-0.30079 -0.25,-0.28906 -0.25781,-0.26953 -0.28125,-0.26172 -0.28125,-0.25 -0.30078,-0.23047 -0.30859,-0.21093 -0.32032,-0.19922 -0.32031,-0.1875 -0.33984,-0.17188 -0.33985,-0.16015 -0.34765,-0.12891 -0.36328,-0.12891 -0.35938,-0.10156 -0.36719,-0.0898 -0.38281,-0.0703 -0.36719,-0.0508 -0.39062,-0.0391 -0.38281,-0.0195 h -3.29688 l -0.0898,-0.0117 -0.082,-0.0195 -0.0899,-0.0273 -0.0781,-0.0234 -0.082,-0.0391 -0.0781,-0.0391 -0.14062,-0.10156 -0.0703,-0.0469 -0.0625,-0.0703 -0.0586,-0.0625 -0.0508,-0.0703 -0.0469,-0.0703 -0.0508,-0.0781 -0.0312,-0.082 -0.0391,-0.0781 -0.0195,-0.082 -0.0195,-0.0899 -0.0234,-0.0781 v -87.21875 l 0.0117,-0.082 0.0195,-0.0899 0.0195,-0.0781 0.0312,-0.0899 0.0391,-0.0703 0.0391,-0.082 0.043,-0.0781 0.0469,-0.0703 0.0625,-0.0703 0.0586,-0.0586 0.0703,-0.0625 0.0703,-0.0508 0.0703,-0.0469 0.0781,-0.043 0.0703,-0.0391 0.082,-0.0312 0.0898,-0.0274 0.0781,-0.0195 0.17969,-0.0234 h 3.17187 l 0.10156,-0.008 0.37891,-0.0117 0.39063,-0.0391 0.36718,-0.0508 0.38282,-0.0781 0.36718,-0.0899 0.36328,-0.10156 0.35938,-0.12109 0.34766,-0.13672 0.33984,-0.16016 0.33203,-0.17187 0.32813,-0.1875 0.32031,-0.20313 L 422.25,252 l 0.30078,-0.23047 0.28906,-0.25 0.26953,-0.25 0.26954,-0.28125 0.25,-0.27734 0.23046,-0.30078 0.23047,-0.32032 0.21094,-0.32031 0.1875,-0.32812 0.18359,-0.35157 0.15625,-0.35156 0.15235,-0.34765 0.12109,-0.35938 0.10938,-0.37109 0.0898,-0.35938 0.0703,-0.37109 0.0508,-0.37891 0.0391,-0.37109 0.0195,-0.37891 v -0.37109 l -0.0117,-0.37891 -0.0391,-0.37109 -0.0508,-0.37891 -0.0703,-0.37109 -0.0898,-0.35938 -0.0977,-0.37109 -0.12109,-0.35938 -0.14063,-0.35937 -0.16015,-0.35156 -0.17969,-0.33985 -0.19141,-0.33984 -0.20703,-0.32031 -0.22265,-0.32032 -0.22657,-0.29687 -0.25,-0.29297 -0.26171,-0.26953 -0.28125,-0.25781 -0.27735,-0.25 -0.30078,-0.23047 -0.30078,-0.22266 -0.32031,-0.20703 -0.32032,-0.19141 -0.33984,-0.16796 -0.33984,-0.16016 -0.35157,-0.14063 -0.34765,-0.13281 -0.35938,-0.10937 -0.37109,-0.0899 -0.37109,-0.0781 -0.37891,-0.0508 -0.37891,-0.0391 -0.39062,-0.0195 -0.19141,-0.0117 h -3.17969 l -0.0898,-0.0117 -0.0781,-0.0195 -0.0899,-0.0195 -0.082,-0.0273 -0.0781,-0.0312 -0.082,-0.0391 -0.14062,-0.10157 -0.0703,-0.0586 -0.0703,-0.0625 -0.0586,-0.0586 -0.0508,-0.0703 -0.0469,-0.0703 -0.043,-0.0781 -0.0391,-0.082 -0.0312,-0.0781 -0.0273,-0.082 -0.0195,-0.0898 -0.0117,-0.0781 -0.0117,-0.0898 v -63.70313 l 0.0117,-0.0898 0.0195,-0.0899 0.0195,-0.0781 0.0312,-0.082 0.0312,-0.0781 0.0391,-0.082 0.0508,-0.0781 0.0469,-0.0703 0.0508,-0.0703 0.0703,-0.0586 0.0625,-0.0625 0.0664,-0.0469 0.0703,-0.0508 0.082,-0.0508 0.0781,-0.0391 0.082,-0.0312 0.0781,-0.0312 0.082,-0.0195 0.0898,-0.008 0.0898,-0.0117 h 3.1875 l 0.39063,-0.0195 0.38281,-0.0312 0.37891,-0.0469 0.3789,-0.0703 0.3711,-0.082 0.71875,-0.21875 0.35156,-0.14063 0.34766,-0.14844 0.33203,-0.17187 0.32812,-0.19141 0.32032,-0.1875 0.3125,-0.22265 0.29687,-0.22657 0.29297,-0.24218 0.26953,-0.25782 0.26953,-0.27343 0.25,-0.27735 0.23828,-0.30078 0.23047,-0.30078 0.22266,-0.32813 0.1875,-0.33203 0.1914,-0.33984 0.16016,-0.34766 0.14844,-0.35156 0.1289,-0.35937 0.11329,-0.35938 0.0898,-0.37109 0.0781,-0.3711 0.0508,-0.36718 0.0391,-0.38282 0.0312,-0.36718 v -0.38282 l -0.0117,-0.3789 -0.0273,-0.3711 -0.0508,-0.36718 -0.0625,-0.3711 -0.0898,-0.37109 -0.0977,-0.3711 -0.12109,-0.35937 -0.12891,-0.35938 -0.16015,-0.35156 -0.17188,-0.33984 -0.1875,-0.33985 -0.19922,-0.32812 -0.22265,-0.32031 -0.23047,-0.30078 -0.25,-0.28907 -0.25781,-0.28125 -0.26953,-0.26953 -0.28125,-0.25 -0.28907,-0.23047 -0.3125,-0.23047 -0.30859,-0.19921 -0.32031,-0.19922 -0.32813,-0.17188 -0.33984,-0.16797 -0.35156,-0.14062 -0.35157,-0.12891 -0.36718,-0.10937 -0.36329,-0.10157 -0.36718,-0.0781 -0.38282,-0.0625 -0.3789,-0.0391 -0.39063,-0.0312 h -3.34765 l -0.0899,-0.008 -0.0898,-0.0117 -0.082,-0.008 -0.0899,-0.0312 -0.0781,-0.0195 -0.082,-0.0391 -0.0781,-0.043 -0.0703,-0.0391 -0.082,-0.0508 -0.0586,-0.0586 -0.0703,-0.0586 -0.0586,-0.0625 -0.10156,-0.14063 -0.0508,-0.0781 -0.0391,-0.082 -0.0312,-0.0781 -0.0273,-0.082 -0.0195,-0.0898 -0.0117,-0.0781 -0.0117,-0.0898 v -5.69141 l 0.0234,-0.17968 0.0273,-0.0781 0.0195,-0.082 0.043,-0.0781 0.0391,-0.082 0.0391,-0.0781 0.0508,-0.0703 0.0586,-0.0703 0.0625,-0.0586 0.0586,-0.0625 0.0703,-0.0586 0.0703,-0.0508 0.0781,-0.0391 0.082,-0.0391 0.0781,-0.0312 0.082,-0.0312 0.0781,-0.0195 0.0898,-0.0195 0.0899,-0.0117 h 173.98046"
         id="path3867"
         style="stroke-width:0.5239;stroke-dasharray:none" />
      <path
         fill="none"
         stroke-width="0.074"
         stroke-linecap="round"
         stroke-linejoin="round"
         stroke="#000000"
         stroke-opacity="1"
         stroke-miterlimit="10"
         d="m 516.32031,161.98047 h 0.23047 l 0.0195,0.008 h 0.008 l 0.0234,-0.008 h 0.25 l 0.0195,-0.0117 h 0.0977 v -0.008 h 0.0625 l 0.0195,-0.0117 h 0.0703 l 0.0391,-0.008 h 0.0508 l 0.008,-0.0117 h 0.043 l 0.0391,-0.008 h 0.0195 v -0.0117 h 0.0391 l 0.0195,-0.0117 h 0.0195 l 0.0234,-0.008 h 0.0391 v -0.0117 H 517.5 l 0.0391,-0.008 0.0195,-0.0117 h 0.0312 v -0.008 h 0.0312 l 0.0391,-0.0234 h 0.0195 l 0.0195,-0.008 h 0.0312 l 0.008,-0.0117 0.043,-0.008 0.0195,-0.0117 h 0.0195 l 0.008,-0.008 h 0.0117 l 0.0195,-0.0117 h 0.0195 l 0.0195,-0.008 0.0234,-0.0117 h 0.0195 v -0.0117 h 0.0195 l 0.0195,-0.008 0.0391,-0.0117 0.0195,-0.008 0.0117,-0.0117 h 0.0195 l 0.008,-0.008 h 0.0234 l 0.008,-0.0117 0.0391,-0.0195 h 0.0234 l 0.008,-0.0117 h 0.0195 l 0.0117,-0.008 0.0195,-0.0117 0.0195,-0.008 0.0195,-0.0117 h 0.0117 l 0.008,-0.008 h 0.0195 v -0.0117 h 0.0117 l 0.0195,-0.0117 0.0391,-0.0195 0.0117,-0.008 h 0.0195 v -0.0117 h 0.0117 l 0.0195,-0.008 0.008,-0.0117 0.0195,-0.008 0.0195,-0.0117 0.0117,-0.0117 h 0.0195 v -0.008 h 0.0117 l 0.0195,-0.0117 0.008,-0.008 0.043,-0.0195 0.008,-0.0117 h 0.0195 v -0.008 h 0.0117 l 0.0195,-0.0117 0.0117,-0.0117 0.0195,-0.008 0.0195,-0.0117 0.008,-0.008 0.0195,-0.0117 0.0117,-0.008 h 0.0117 v -0.0117 l 0.0195,-0.0117 0.0273,-0.0195 0.0195,-0.008 0.0117,-0.0117 h 0.0117 v -0.008 h 0.008 l 0.0312,-0.0312 0.0391,-0.0195 0.0117,-0.0117 h 0.008 v -0.008 h 0.0117 v -0.0117 h 0.008 l 0.0117,-0.008 0.0195,-0.0117 0.0117,-0.008 0.0195,-0.0117 0.008,-0.0117 0.0117,-0.008 h 0.008 v -0.0117 h 0.0117 l 0.0195,-0.0195 0.0391,-0.0312 0.0117,-0.008 0.008,-0.0117 h 0.0117 v -0.008 h 0.0117 l 0.008,-0.0117 0.0117,-0.008 0.0195,-0.0195 0.008,-0.0117 0.0195,-0.0117 0.0117,-0.008 0.0391,-0.0391 0.0312,-0.0195 0.008,-0.0234 0.0117,-0.008 h 0.0117 v -0.0117 h 0.008 v -0.008 l 0.0117,-0.0117 0.0274,-0.0312 0.0234,-0.008 0.008,-0.0117 0.0117,-0.008"
         id="path3907"
         style="stroke-width:0.5239;stroke-dasharray:none" />
      <path
         fill="none"
         stroke-width="0.074"
         stroke-linecap="round"
         stroke-linejoin="round"
         stroke="#000000"
         stroke-opacity="1"
         stroke-miterlimit="10"
         d="m 515.94141,161.92969 h 0.008 l 0.0117,0.0117 H 516 l 0.0195,0.008 h 0.0391"
         id="path3909"
         style="stroke-width:0.5239;stroke-dasharray:none" />
      <path
         fill="none"
         stroke-width="0.074"
         stroke-linecap="round"
         stroke-linejoin="round"
         stroke="#000000"
         stroke-opacity="1"
         stroke-miterlimit="10"
         d="m 515.44141,161.82031 0.008,0.008 h 0.0312 l 0.0312,0.0117 0.0195,0.0117 h 0.0273 v 0.008 h 0.043 l 0.008,0.0117 0.0391,0.008 h 0.0312 l 0.0117,0.0117"
         id="path3911"
         style="stroke-width:0.5239;stroke-dasharray:none" />
      <path
         fill="none"
         stroke-width="0.074"
         stroke-linecap="round"
         stroke-linejoin="round"
         stroke="#000000"
         stroke-opacity="1"
         stroke-miterlimit="10"
         d="m 520.62891,157.80078 v -0.1289 h -0.008 v -0.10157 l -0.0117,-0.0117 v -0.0898 l -0.008,-0.0195 v -0.0703 l -0.0117,-0.008 v -0.0508 l -0.0117,-0.0117 v -0.0391 l -0.008,-0.0312 v -0.0469 l -0.0117,-0.0117 v -0.0312 l -0.008,-0.008 v -0.0312 l -0.0117,-0.0391 v -0.0312 h -0.008 v -0.0273 l -0.0117,-0.0312 -0.008,-0.0312 v -0.0273 l -0.0117,-0.0117 v -0.0195 l -0.0117,-0.0117 v -0.0274 l -0.008,-0.0234 v -0.008 l -0.0117,-0.0117 v -0.0273 l -0.008,-0.0195 v -0.0117 l -0.0117,-0.0312 -0.008,-0.0195 v -0.0273 h -0.0117 v -0.0234 l -0.008,-0.0274 -0.0117,-0.0312 -0.0117,-0.0195 v -0.0117 l -0.008,-0.008"
         id="path3913"
         style="stroke-width:0.5239;stroke-dasharray:none" />
      <path
         fill="none"
         stroke-width="0.074"
         stroke-linecap="round"
         stroke-linejoin="round"
         stroke="#000000"
         stroke-opacity="1"
         stroke-miterlimit="10"
         d="m 519.44141,160.80078 0.008,-0.0117 0.0117,-0.008 0.008,-0.0195 0.0312,-0.0234 0.0117,-0.0195 0.008,-0.008 h 0.0117 v -0.0117 h 0.008 v -0.008 l 0.0703,-0.0703 v -0.0117 h 0.0117 l 0.008,-0.008 0.0117,-0.0234 0.008,-0.008 0.0234,-0.0312 0.0195,-0.0195 h 0.008 v -0.008 l 0.0117,-0.0117 0.008,-0.0117 0.0117,-0.0195 0.0312,-0.0273 0.008,-0.0117 0.0117,-0.008 v -0.0117 h 0.008 v -0.0117 l 0.0117,-0.0195 0.0508,-0.0508 v -0.008 l 0.008,-0.0117 v -0.008 l 0.0195,-0.0195 0.0117,-0.0195 0.0195,-0.0312 0.0195,-0.0195 v -0.0117 h 0.0117 v -0.008 l 0.008,-0.0195 0.0117,-0.0234 0.008,-0.008 0.0117,-0.0195 0.008,-0.0117 H 520 v -0.008 l 0.0117,-0.0117 v -0.0117 l 0.0195,-0.0391 0.008,-0.008 0.0117,-0.0195 0.008,-0.0117 0.0117,-0.0117 v -0.008 l 0.008,-0.0117 0.0234,-0.0391 0.008,-0.008 0.0117,-0.0234 v -0.008 h 0.008 v -0.0117 l 0.0117,-0.008 0.008,-0.0195 0.0117,-0.0312 0.0117,-0.0195 0.008,-0.0117 v -0.008 l 0.0117,-0.0117 v -0.008 l 0.008,-0.0117 v -0.0117 l 0.0195,-0.0391 0.0117,-0.008 0.008,-0.0195 v -0.0234 h 0.0117 v -0.0195 l 0.0117,-0.008 0.0195,-0.043 v -0.008 l 0.008,-0.0195 v -0.0117 h 0.0117 v -0.008 l 0.008,-0.0195 V 159.5 l 0.0195,-0.0391 v -0.0117 l 0.0117,-0.0195 v -0.008 h 0.0117 V 159.41 l 0.008,-0.0117 v -0.0195 l 0.0195,-0.0391 v -0.0117 l 0.0117,-0.0195 v -0.008 l 0.008,-0.0117 v -0.0195 l 0.0117,-0.008 0.0117,-0.043 0.008,-0.008 v -0.0312 l 0.0117,-0.008 v -0.0234 l 0.008,-0.0195 0.0117,-0.0274 v -0.0234 l 0.008,-0.008 v -0.0195 l 0.0117,-0.0117 v -0.0273 l 0.0195,-0.043 v -0.0273 l 0.0117,-0.0117 v -0.0312 l 0.008,-0.0195 0.0117,-0.0391 v -0.0195 l 0.008,-0.0117 v -0.0391 l 0.0117,-0.0195 v -0.0312 l 0.008,-0.0195 v -0.0391 l 0.0117,-0.0195 v -0.0312 l 0.008,-0.0195 v -0.0391 l 0.0117,-0.0195 v -0.0508 l 0.0117,-0.0195 v -0.0508 l 0.008,-0.0391 v -0.0703 l 0.0117,-0.0117 v -0.0976 h 0.008 v -0.26172"
         id="path3915"
         style="stroke-width:0.5239;stroke-dasharray:none" />
      <path
         fill="none"
         stroke-width="0.074"
         stroke-linecap="round"
         stroke-linejoin="round"
         stroke="#000000"
         stroke-opacity="1"
         stroke-miterlimit="10"
         d="m 516.05859,161.94922 h 0.0195 l 0.0234,0.0117 h 0.0899 v 0.008"
         id="path3917"
         style="stroke-width:0.5239;stroke-dasharray:none" />
      <path
         fill="none"
         stroke-width="0.074"
         stroke-linecap="round"
         stroke-linejoin="round"
         stroke="#000000"
         stroke-opacity="1"
         stroke-miterlimit="10"
         d="m 515.69141,161.89063 h 0.0391 l 0.0312,0.008 h 0.0195 l 0.008,0.0117 h 0.0312 l 0.008,0.0117 h 0.0312 l 0.0391,0.008 h 0.043"
         id="path3919"
         style="stroke-width:0.5239;stroke-dasharray:none" />
      <path
         fill="none"
         stroke-width="0.074"
         stroke-linecap="round"
         stroke-linejoin="round"
         stroke="#000000"
         stroke-opacity="1"
         stroke-miterlimit="10"
         d="m 520.39062,156.55078 v 0.008 l -0.0312,0.0312 -0.008,0.0117 -0.0234,0.008 -0.008,0.0195 -0.0195,0.0117 -0.0391,0.0391 -0.0234,0.0195 -0.0273,0.0195 -0.0195,0.0312 -0.0312,0.0195 -0.1211,0.1211 -0.0391,0.0312 -0.0312,0.0273 -0.0391,0.0391 -0.0391,0.0312 -0.16015,0.16016 -0.0508,0.0391 -0.0391,0.043 -0.0508,0.0469 -0.0391,0.043 -0.10156,0.0899 -0.0977,0.0976 -0.11328,0.10157 -0.10937,0.0976 -0.10938,0.10156 -0.10937,0.10938 -0.1211,0.10937 -0.10937,0.11329 -0.1211,0.10937 -0.1289,0.10938 -0.1211,0.12109 -0.1289,0.11719 -0.25,0.23047 -0.25,0.24218 -0.25782,0.23828 -0.25,0.23829 -0.12109,0.12109 -0.12891,0.10937 -0.12109,0.1211 -0.24219,0.21875 -0.10937,0.11328 -0.1211,0.0977 -0.10937,0.10937 -0.10938,0.10156 -0.0977,0.10157 -0.20313,0.17968 -0.0898,0.0899 -0.0469,0.0391 -0.043,0.0508 -0.0508,0.0391 -0.0391,0.0391 -0.0391,0.0312 -0.10938,0.10937 -0.0391,0.0312 -0.0312,0.0391 -0.0391,0.0312 -0.0312,0.0274 -0.0312,0.0312 -0.0273,0.0195 -0.0195,0.0312 -0.0312,0.0195 -0.0195,0.0195 -0.0195,0.0312 -0.0312,0.008 -0.0117,0.0195 -0.0195,0.0195 -0.0195,0.0117 -0.008,0.0195 -0.0117,0.0117 -0.0117,0.008 -0.008,0.0117 h -0.0117 v 0.008 h -0.008"
         id="path3921"
         style="stroke-width:0.5239;stroke-dasharray:none" />
      <path
         fill="none"
         stroke-width="0.074"
         stroke-linecap="round"
         stroke-linejoin="round"
         stroke="#000000"
         stroke-opacity="1"
         stroke-miterlimit="10"
         d="m 514.96094,161.64844 h 0.008 l 0.0117,0.0117 h 0.008 l 0.0234,0.0117 0.0273,0.008 0.0117,0.0117 h 0.008 l 0.0117,0.008 h 0.0195 l 0.0117,0.0117 h 0.008 l 0.0117,0.008 0.0274,0.0117 h 0.0312 l 0.0117,0.008 h 0.008 l 0.0117,0.0117 h 0.0195 l 0.0312,0.0117 0.0273,0.008 0.0117,0.0117 h 0.008 l 0.0117,0.008 h 0.0195 l 0.0195,0.0117 0.0312,0.008 h 0.0195 l 0.0117,0.0117 h 0.0195"
         id="path3923"
         style="stroke-width:0.5239;stroke-dasharray:none" />
      <path
         fill="none"
         stroke-width="0.074"
         stroke-linecap="round"
         stroke-linejoin="round"
         stroke="#000000"
         stroke-opacity="1"
         stroke-miterlimit="10"
         d="m 516.19141,161.96875 h 0.11718 l 0.0117,0.0117"
         id="path3925"
         style="stroke-width:0.5239;stroke-dasharray:none" />
      <path
         fill="none"
         stroke-width="0.074"
         stroke-linecap="round"
         stroke-linejoin="round"
         stroke="#000000"
         stroke-opacity="1"
         stroke-miterlimit="10"
         d="m 520.62891,157.80078 v 0.12891"
         id="path3927"
         style="stroke-width:0.5239;stroke-dasharray:none" />
      <path
         fill="none"
         stroke-width="0.074"
         stroke-linecap="round"
         stroke-linejoin="round"
         stroke="#000000"
         stroke-opacity="1"
         stroke-miterlimit="10"
         d="m 515.39844,154.82813 -1.07813,0.35156 -0.67187,0.92187 v 1.13672 l 0.67187,0.9336 1.07813,0.34765 1.08203,-0.34765 0.66797,-0.9336 v -1.13672 l -0.66797,-0.92187 -1.08203,-0.35156"
         id="path3929"
         style="stroke-width:0.5239;stroke-dasharray:none" />
      <path
         fill="none"
         stroke-width="0.074"
         stroke-linecap="round"
         stroke-linejoin="round"
         stroke="#000000"
         stroke-opacity="1"
         stroke-miterlimit="10"
         d="m 542.64844,153.28125 -4.92969,0.39844 -4.80859,1.1914 -4.55079,1.92969 -4.17968,2.64844 -3.69922,3.28125 -3.12891,3.82812 -2.47265,4.28125 -1.75782,4.62891 -0.98047,4.83984 -0.19921,4.95313 0.58984,4.91016 1.37891,4.75 2.12109,4.46875 2.80859,4.07031 3.42188,3.55859 3.95703,2.96875 4.38281,2.30078 4.6875,1.57032 4.88281,0.78906 h 4.94922 L 550,213.85938 l 4.69141,-1.57032 4.3789,-2.30078 3.96094,-2.96875 3.41797,-3.55859 2.8125,-4.07031 2.11719,-4.46875 1.38281,-4.75 0.58984,-4.91016 -0.1914,-4.95313 -0.98829,-4.83984 -1.76171,-4.62891 -2.46875,-4.28125 -3.13282,-3.82812 -3.69922,-3.28125 -4.17968,-2.64844 -4.55078,-1.92969 -4.80079,-1.1914 -4.92968,-0.39844"
         id="path3931"
         style="stroke-width:0.5239;stroke-dasharray:none" />
      <path
         fill="none"
         stroke-width="0.074"
         stroke-linecap="round"
         stroke-linejoin="round"
         stroke="#000000"
         stroke-opacity="1"
         stroke-miterlimit="10"
         d="m 500.01953,200.21875 -2.46875,0.40234 -2.23047,1.12891 -1.76172,1.76953 -1.13672,2.23047 -0.39062,2.46875 0.39062,2.47266 1.13672,2.21875 1.76172,1.76953 2.23047,1.14062 2.46875,0.39063 2.46875,-0.39063 2.23047,-1.14062 1.76953,-1.76953 1.13281,-2.21875 0.39063,-2.47266 -0.39063,-2.46875 -1.13281,-2.23047 -1.76953,-1.76953 -2.23047,-1.12891 -2.46875,-0.40234"
         id="path3977"
         style="stroke-width:0.5239;stroke-dasharray:none" />
      <path
         fill="none"
         stroke-width="0.074"
         stroke-linecap="round"
         stroke-linejoin="round"
         stroke="#000000"
         stroke-opacity="1"
         stroke-miterlimit="10"
         d="m 568.46094,155.73828 h 0.0781 l 0.082,0.0117 h 0.0781 l 0.082,0.0117 0.0703,0.008 0.0781,0.0195 0.0703,0.0117 0.0781,0.0195 0.14063,0.0391 0.0703,0.0312 0.0703,0.0195 0.0703,0.0312 0.0703,0.0273 0.0703,0.043 0.0586,0.0273 0.0703,0.0391 0.0625,0.0312 0.0586,0.0391 0.0703,0.0508 0.0508,0.0391 0.0586,0.0508 0.0586,0.0391 0.0625,0.0508 0.0508,0.0508 0.0469,0.0508 0.0508,0.0586 0.0508,0.0508 0.0508,0.0586 0.0391,0.0625 0.0508,0.0586 0.0391,0.0586 0.0391,0.0625 0.0391,0.0586 0.043,0.0703 0.0274,0.0586 0.0312,0.0703 0.0391,0.0703 0.0195,0.0703 0.0625,0.14063 0.0391,0.14062 0.0195,0.0781 0.0117,0.0703 0.0195,0.082 0.008,0.0703 0.0117,0.0781 v 0.082 l 0.0117,0.0781 v 0.23046 l -0.0117,0.082 -0.0117,0.0781 -0.008,0.0781 -0.0117,0.0703 -0.0195,0.082 -0.008,0.0703 -0.0234,0.0703 -0.0195,0.0781 -0.0273,0.0703 -0.0195,0.0703 -0.0625,0.14063 -0.0273,0.0586 -0.043,0.0703 -0.0391,0.0703 -0.0312,0.0586 -0.0391,0.0625 -0.0391,0.0586 -0.0508,0.0625 -0.0391,0.0586 -0.0508,0.0586 -0.0508,0.0508 -0.0508,0.0586 -0.0469,0.0508 -0.0508,0.0508 -0.0625,0.0508 -0.0469,0.0508 -0.0625,0.0391 -0.0586,0.0508 -0.0586,0.0391 -0.0625,0.0391 -0.0703,0.0391 -0.0586,0.043 -0.0703,0.0274 -0.0586,0.043 -0.0703,0.0273 -0.14063,0.0625 -0.14062,0.0391 -0.0703,0.0274 -0.0781,0.0117 -0.0703,0.0195 -0.082,0.0117 -0.0703,0.0195 -0.0781,0.008 h -0.082 l -0.0781,0.0117 h -0.23047 l -0.0781,-0.0117 -0.082,-0.008 -0.0781,-0.0117 -0.0703,-0.008 -0.082,-0.0117 -0.0703,-0.0195 -0.0781,-0.0195 -0.14062,-0.0391 -0.14063,-0.0625 -0.0703,-0.0273 -0.0703,-0.0312 -0.0586,-0.0312 -0.0703,-0.0391 -0.0586,-0.0391 -0.0703,-0.0391 -0.0625,-0.043 -0.11718,-0.0781 -0.0508,-0.0508 -0.0625,-0.0508 -0.0469,-0.0508 -0.0625,-0.0469 -0.0469,-0.0508 -0.0508,-0.0625 -0.0508,-0.0469 -0.0391,-0.0625 -0.0508,-0.0586 -0.0391,-0.0586 -0.043,-0.0625 -0.0391,-0.0586 -0.0391,-0.0703 -0.0312,-0.0586 -0.0391,-0.0703 -0.0312,-0.0703 -0.0273,-0.0703 -0.0312,-0.0703 -0.0195,-0.0703 -0.0312,-0.0703 -0.0391,-0.14063 -0.0117,-0.0781 -0.0195,-0.0703 -0.008,-0.082 -0.0117,-0.0781 -0.008,-0.0703 v -0.082 L 566,158.25 v -0.0586 l 0.0117,-0.082 v -0.0781 l 0.008,-0.082 0.0117,-0.0781 0.008,-0.0703 0.0117,-0.082 0.0195,-0.0703 0.008,-0.0781 0.0312,-0.0703 0.0391,-0.14062 0.0625,-0.14063 0.0273,-0.0703 0.0312,-0.0703 0.0391,-0.0586 0.0312,-0.0703 0.0391,-0.0586 0.043,-0.0625 0.0469,-0.0586 0.043,-0.0586 0.0469,-0.0625 0.043,-0.0586 0.0469,-0.0508 0.0508,-0.0586 0.0625,-0.0508 0.0469,-0.0508 0.0508,-0.0508 0.0625,-0.0391 0.0586,-0.0508 0.0586,-0.0391 0.0625,-0.0508 0.0586,-0.0391 0.0703,-0.0312 0.0586,-0.0391 0.0703,-0.0273 0.0625,-0.043 0.0664,-0.0273 0.0703,-0.0312 0.0703,-0.0195 0.0703,-0.0312 0.0703,-0.0195 0.082,-0.0195 0.0703,-0.0195 0.0781,-0.0117 0.0703,-0.0195 0.0781,-0.008 0.082,-0.0117 h 0.0703 l 0.0781,-0.0117 h 0.082"
         id="path3989"
         style="stroke-width:0.5239;stroke-dasharray:none" />
      <path
         fill="none"
         stroke-width="0.074"
         stroke-linecap="round"
         stroke-linejoin="round"
         stroke="#000000"
         stroke-opacity="1"
         stroke-miterlimit="10"
         d="m 516.82812,207.37891 h 0.16016 l 0.0703,0.0117 0.082,0.008 0.0781,0.0117 0.0703,0.0117 0.082,0.0195 0.0703,0.008 0.0781,0.0195 0.0703,0.0312 0.0703,0.0195 0.0703,0.0312 0.0703,0.0274 0.0703,0.0312 0.0586,0.0312 0.0703,0.0312 0.0703,0.0391 0.0586,0.0391 0.0625,0.0391 0.0586,0.0391 0.0586,0.043 0.0625,0.0508 0.0586,0.0469 0.0508,0.0508 0.0586,0.0508 0.10156,0.10157 0.0508,0.0586 0.0469,0.0508 0.043,0.0586 0.0469,0.0586 0.043,0.0625 0.0391,0.0586 0.0391,0.0703 0.0312,0.0586 0.0391,0.0703 0.0312,0.0625 0.0273,0.0703 0.0312,0.0703 0.0312,0.0664 0.0195,0.0703 0.0312,0.0703 0.0195,0.082 0.008,0.0703 0.0195,0.0703 0.0117,0.0781 0.0195,0.082 v 0.0664 l 0.0117,0.082 0.008,0.0781 v 0.16016 l -0.008,0.082 v 0.0781 l -0.0117,0.0703 -0.008,0.082 -0.0117,0.0781 -0.0391,0.14063 -0.0195,0.082 -0.0195,0.0664 -0.0234,0.0703 -0.0274,0.0703 -0.0625,0.14063 -0.0273,0.0703 -0.0312,0.0586 -0.0391,0.0703 -0.0391,0.0625 -0.043,0.0586 -0.0391,0.0703 -0.0391,0.0586 -0.0508,0.0508 -0.0391,0.0625 -0.0508,0.0586 -0.0508,0.0508 -0.0508,0.0469 -0.0586,0.0508 -0.0508,0.0508 -0.0586,0.0508 -0.0625,0.0508 -0.0469,0.0391 -0.0625,0.0508 -0.0703,0.0391 -0.0586,0.0391 -0.0586,0.0312 -0.0703,0.0391 -0.0703,0.0312 -0.0625,0.0274 -0.0664,0.0312 -0.0703,0.0312 -0.0703,0.0195 -0.0703,0.0312 -0.082,0.0195 -0.0703,0.0195 -0.0781,0.008 -0.0703,0.0234 -0.0781,0.008 -0.0703,0.0117 -0.082,0.008 h -0.39844 l -0.0703,-0.008 -0.082,-0.0117 -0.0781,-0.008 -0.0703,-0.0234 -0.082,-0.0195 -0.0664,-0.0195 -0.14062,-0.0391 -0.0703,-0.0312 -0.0703,-0.0195 -0.0703,-0.0312 -0.0703,-0.0391 -0.0703,-0.0273 -0.0586,-0.0312 -0.0703,-0.0391 -0.0625,-0.043 -0.0586,-0.0391 -0.0586,-0.0508 -0.0625,-0.0391 -0.0586,-0.0508 -0.0508,-0.0469 -0.0586,-0.0508 -0.15234,-0.15234 -0.0469,-0.0586 -0.0508,-0.0586 -0.0391,-0.0625 -0.043,-0.0586 -0.0391,-0.0586 -0.0391,-0.0625 -0.0391,-0.0586 -0.043,-0.0703 -0.0274,-0.0703 -0.0312,-0.0586 -0.0312,-0.0703 -0.0273,-0.0703 -0.0312,-0.0703 -0.0195,-0.0703 -0.0195,-0.082 -0.0195,-0.0664 -0.0195,-0.0703 -0.0117,-0.082 -0.0117,-0.0781 -0.008,-0.0703 -0.0117,-0.082 -0.008,-0.0781 v -0.22266 l 0.008,-0.0781 v -0.082 l 0.0117,-0.0664 0.008,-0.082 0.0234,-0.0781 0.008,-0.0703 0.0195,-0.0703 0.0195,-0.082 0.0195,-0.0703 0.0312,-0.0703 0.0312,-0.0664 0.0273,-0.0703 0.0312,-0.0703 0.0312,-0.0625 0.0312,-0.0703 0.0391,-0.0586 0.0391,-0.0703 0.0391,-0.0586 0.0391,-0.0625 0.0508,-0.0586 0.043,-0.0586 0.0469,-0.0508 0.0508,-0.0586 0.16016,-0.16016 0.0508,-0.043 0.0586,-0.0469 0.0625,-0.0508 0.0586,-0.043 0.0586,-0.0391 0.0625,-0.0391 0.0586,-0.0391 0.0703,-0.0391 0.0586,-0.0312 0.14062,-0.0625 0.0703,-0.0274 0.0703,-0.0312 0.0703,-0.0195 0.0703,-0.0312 0.0703,-0.0195 0.0781,-0.008 0.0703,-0.0195 0.082,-0.0117 0.0781,-0.0117 0.0703,-0.008 0.082,-0.0117 h 0.15625"
         id="path3991"
         style="stroke-width:0.5239;stroke-dasharray:none" />
      <path
         fill="none"
         stroke-width="0.074"
         stroke-linecap="round"
         stroke-linejoin="round"
         stroke="#000000"
         stroke-opacity="1"
         stroke-miterlimit="10"
         d="m 568.46094,207.37891 h 0.16015 l 0.0781,0.0117 0.082,0.008 0.0703,0.0117 0.0781,0.0117 0.0703,0.0195 0.0781,0.008 0.0703,0.0195 0.0703,0.0312 0.0703,0.0195 0.0703,0.0312 0.0703,0.0274 0.14062,0.0625 0.0586,0.0312 0.0703,0.0391 0.0625,0.0391 0.0586,0.0391 0.0703,0.0391 0.0508,0.043 0.0586,0.0508 0.0586,0.0469 0.0625,0.0508 0.0508,0.0508 0.0469,0.0508 0.0508,0.0508 0.0508,0.0586 0.0508,0.0508 0.0391,0.0586 0.0508,0.0586 0.0391,0.0625 0.0391,0.0586 0.0391,0.0703 0.043,0.0586 0.0274,0.0703 0.0312,0.0625 0.0391,0.0703 0.0195,0.0703 0.0312,0.0664 0.0312,0.0703 0.0195,0.0703 0.0195,0.082 0.0195,0.0703 0.0117,0.0703 0.0195,0.0781 0.008,0.082 0.0117,0.0664 v 0.082 l 0.0117,0.0781 v 0.24219 l -0.0117,0.0781 -0.0117,0.0703 -0.008,0.082 -0.0117,0.0781 -0.0195,0.0703 -0.008,0.0703 -0.0234,0.082 -0.0195,0.0664 -0.0273,0.0703 -0.0195,0.0703 -0.0625,0.14063 -0.0273,0.0703 -0.043,0.0586 -0.0391,0.0703 -0.0312,0.0625 -0.0391,0.0586 -0.0391,0.0703 -0.0508,0.0586 -0.0391,0.0508 -0.0508,0.0625 -0.0508,0.0586 -0.14844,0.14844 -0.0625,0.0508 -0.0469,0.0508 -0.0625,0.0508 -0.0586,0.0391 -0.0586,0.0508 -0.0625,0.0391 -0.0703,0.0391 -0.0586,0.0312 -0.0703,0.0391 -0.0586,0.0312 -0.0703,0.0274 -0.14063,0.0625 -0.0703,0.0195 -0.0703,0.0312 -0.0703,0.0195 -0.0781,0.0195 -0.0703,0.008 -0.082,0.0234 -0.0703,0.008 -0.0781,0.0117 -0.082,0.008 h -0.38672 l -0.082,-0.008 -0.0781,-0.0117 -0.0703,-0.008 -0.082,-0.0234 -0.0703,-0.0195 -0.0781,-0.0195 -0.14062,-0.0391 -0.0703,-0.0312 -0.0703,-0.0195 -0.0703,-0.0312 -0.0703,-0.0391 -0.0586,-0.0273 -0.0703,-0.0312 -0.0586,-0.0391 -0.0703,-0.043 -0.0625,-0.0391 -0.0586,-0.0508 -0.0586,-0.0391 -0.0508,-0.0508 -0.0625,-0.0469 -0.0469,-0.0508 -0.0625,-0.0508 -0.0469,-0.0508 -0.0508,-0.0508 -0.0508,-0.0586 -0.0391,-0.0586 -0.0508,-0.0625 -0.0391,-0.0586 -0.043,-0.0586 -0.0391,-0.0625 -0.0391,-0.0586 -0.0312,-0.0703 -0.0391,-0.0703 -0.0312,-0.0586 -0.0273,-0.0703 -0.0312,-0.0703 -0.0195,-0.0703 -0.0312,-0.0703 -0.0195,-0.082 -0.0195,-0.0664 -0.0117,-0.0703 -0.0195,-0.082 -0.008,-0.0781 -0.0117,-0.0703 -0.008,-0.082 v -0.0781 l -0.0117,-0.082 v -0.0586 l 0.0117,-0.082 v -0.0781 l 0.008,-0.082 0.0117,-0.0664 0.008,-0.082 0.0117,-0.0781 0.0195,-0.0703 0.008,-0.0703 0.0312,-0.082 0.0391,-0.14063 0.0312,-0.0664 0.0312,-0.0703 0.0273,-0.0703 0.0312,-0.0625 0.0391,-0.0703 0.0312,-0.0586 0.0391,-0.0703 0.043,-0.0586 0.0469,-0.0625 0.043,-0.0586 0.0469,-0.0586 0.043,-0.0508 0.0469,-0.0586 0.0508,-0.0508 0.0625,-0.0508 0.0469,-0.0586 0.0508,-0.043 0.0625,-0.0469 0.0586,-0.0508 0.0586,-0.043 0.0625,-0.0391 0.0586,-0.0391 0.0703,-0.0391 0.0586,-0.0391 0.0703,-0.0312 0.0625,-0.0312 0.0664,-0.0312 0.0703,-0.0274 0.0703,-0.0312 0.0703,-0.0195 0.0703,-0.0312 0.082,-0.0195 0.0703,-0.008 0.0781,-0.0195 0.0703,-0.0117 0.0781,-0.0117 0.082,-0.008 0.0703,-0.0117 h 0.16016"
         id="path3993"
         style="stroke-width:0.5239;stroke-dasharray:none" />
      <path
         style="fill:none;stroke:#000000;stroke-width:0.616165;stroke-linejoin:round;stroke-opacity:1"
         d="m 406.31865,41.899319 h 14.788 V 66.60966 h 18.48499 v 29.51209 l 45.59632,4.36e-4 V 312.01643 h -49.18367 v 7.1578 h -48.18571 v -7.63021 h -49.27824 v -99.43241 h -11.091 V 132.2745 h 11.091 V 96.121968 h 86.26331 V 71.47531 h -18.485 z"
         id="path15477"
         sodipodi:nodetypes="ccccccccccccccccccccc"
         transform="matrix(-0.99892507,0,0,1.0003597,912.94852,125.94396)" />
    </g>
    <g
       id="g70046"
       inkscape:label="Middle"
       style="stroke-width:0.526642;stroke-dasharray:none"
       transform="matrix(0.99449272,0,0,0.99449272,-235.9391,143.05906)">
      <path
         fill="none"
         stroke-width="0.074"
         stroke-linecap="round"
         stroke-linejoin="round"
         stroke="#000000"
         stroke-opacity="1"
         stroke-miterlimit="10"
         d="m 254.60937,190.92188 v -0.10157 l 0.0117,-0.10937 0.008,-0.10156 0.0195,-0.0977 0.0625,-0.20313 0.0391,-0.0976 0.0391,-0.0899 0.10156,-0.17968 0.0586,-0.0899 0.0625,-0.082 0.0664,-0.0781 0.0703,-0.082 0.082,-0.0703 0.0781,-0.0703 0.082,-0.0586 0.0898,-0.0586 0.0781,-0.0508 0.10157,-0.0508 0.0898,-0.0391 0.10156,-0.0391 0.0977,-0.0312 0.10156,-0.0312 0.0977,-0.0195 0.10156,-0.0117 0.10156,-0.008 0.10938,-0.0117 h 175.30859 l 0.0312,0.0117 h 0.0508 l 0.10938,0.008 0.0976,0.0117 0.10157,0.0195 0.10156,0.0312 0.0976,0.0312 0.10157,0.0273 0.0898,0.0391 0.17969,0.10156 0.0898,0.0586 0.0781,0.0625 0.082,0.0703 0.0781,0.0703 0.0703,0.0781 0.0703,0.082 0.0703,0.0781 0.0508,0.0899 0.0586,0.0898 0.043,0.0899 0.0469,0.0898 0.043,0.10156 0.0273,0.0977 0.0195,0.10156 0.0312,0.10156 0.0117,0.0977 0.008,0.10156 v 5.76953 l -0.008,0.10938 -0.0117,0.10156 -0.0195,0.0977 -0.0195,0.10156 -0.0391,0.0977 -0.0312,0.10156 -0.0391,0.0898 -0.0508,0.10156 -0.0508,0.0899 -0.0586,0.0781 -0.0625,0.0899 -0.0703,0.082 -0.0703,0.0781 -0.0664,0.0703 -0.082,0.0703 -0.0899,0.0586 -0.0781,0.0625 -0.0899,0.0508 -0.0937,0.0469 -0.0898,0.043 -0.0977,0.0391 -0.10156,0.0312 -0.0976,0.0273 -0.20313,0.0391 -0.10937,0.0117 h -3.32032 l -0.27734,0.0195 -0.28125,0.0195 -0.28125,0.0312 -0.27734,0.0391 -0.26954,0.0508 -0.27343,0.0703 -0.26953,0.0703 -0.25782,0.0781 -0.26172,0.0898 -0.25781,0.10157 -0.25,0.10937 -0.25,0.1211 -0.24219,0.1289 -0.23828,0.14063 -0.23047,0.14062 -0.23046,0.16016 -0.21875,0.16015 -0.21094,0.16797 -0.21094,0.17969 -0.21094,0.19141 -0.1875,0.1914 -0.1914,0.19922 -0.19141,0.21094 -0.16797,0.21875 -0.17187,0.23047 -0.16016,0.23047 -0.14844,0.23828 -0.14062,0.24219 -0.12891,0.25 -0.12109,0.25781 -0.1211,0.25 -0.0976,0.26172 -0.0899,0.26953 -0.082,0.25781 -0.0703,0.26953 -0.0586,0.27344 -0.0586,0.26953 -0.043,0.26953 -0.0273,0.26953 -0.0195,0.28125 -0.0117,0.26953 v 0.27735 l 0.0117,0.27344 0.0195,0.26953 0.0273,0.27734 0.043,0.26953 0.0508,0.27344 0.0586,0.26953 0.0703,0.26953 0.0781,0.25781 0.0898,0.26954 0.10156,0.26171 0.10938,0.25 0.12109,0.26172 0.12891,0.25 0.14062,0.23828 0.14844,0.23829 0.16016,0.24218 0.16015,0.21875 0.17969,0.22266 0.17969,0.20703 0.1914,0.21094 0.19141,0.1914 0.19922,0.1875 0.21094,0.17969 0.21875,0.17188 0.21875,0.16797 0.22265,0.15234 0.23828,0.14844 0.23047,0.14062 0.25,0.12891 0.23828,0.12109 0.25,0.10938 0.26172,0.10156 0.25781,0.0977 0.26172,0.082 0.53907,0.14062 0.26953,0.0508 0.28125,0.0391 0.26953,0.0391 0.28125,0.0195 0.28906,0.0117 h 3.25 l 0.0508,0.008 h 0.10938 l 0.10156,0.0195 0.0977,0.0117 0.10156,0.0312 0.0976,0.0273 0.10157,0.0312 0.10156,0.0391 0.26953,0.15234 0.0781,0.0703 0.082,0.0586 0.0781,0.0703 0.0703,0.0781 0.0703,0.082 0.0703,0.0781 0.0586,0.082 0.15235,0.26953 0.0391,0.10157 0.0312,0.0976 0.0273,0.10156 0.0195,0.0977 0.0234,0.10156 0.008,0.10938 v 76.14844 l -0.0195,0.10156 -0.0117,0.10156 -0.0273,0.10938 -0.0312,0.0898 -0.0312,0.0977 -0.0391,0.10156 -0.0508,0.0898 -0.0469,0.0899 -0.0508,0.0898 -0.0625,0.082 -0.0664,0.0898 -0.0703,0.0703 -0.0703,0.0781 -0.082,0.0703 -0.0781,0.0586 -0.0898,0.0625 -0.0898,0.0586 -0.0899,0.0508 -0.17969,0.0781 -0.10156,0.043 -0.10156,0.0195 -0.0977,0.0273 -0.10156,0.0117 -0.10937,0.0195 h -3.33985 l -0.14062,0.0117 -0.28125,0.008 -0.27735,0.0312 -0.28125,0.0391 -0.26953,0.0391 -0.26953,0.0625 -0.53906,0.14062 -0.52344,0.17969 -0.5,0.21875 -0.25,0.12891 -0.23828,0.13281 -0.23047,0.13672 -0.23047,0.15234 -0.23047,0.16016 -0.21875,0.16797 -0.21093,0.17187 -0.20704,0.17969 -0.20312,0.19141 -0.1875,0.19921 -0.19141,0.20704 -0.17968,0.21093 -0.17188,0.22266 -0.16016,0.22656 -0.15625,0.24219 -0.14062,0.23828 -0.14063,0.24219 -0.1289,0.25781 -0.1211,0.25 -0.10156,0.26172 -0.0976,0.25781 -0.0899,0.26172 -0.082,0.26953 -0.0586,0.26953 -0.0625,0.26953 -0.0469,0.26954 -0.0312,0.27343 -0.0312,0.27735 -0.0195,0.26953 v 0.55078 l 0.0195,0.26953 0.0195,0.28125 0.0312,0.26953 0.10157,0.53906 0.0703,0.26954 0.0664,0.27343 0.0937,0.25782 0.0899,0.26171 0.10937,0.25782 0.10938,0.26172 0.25781,0.5 0.15234,0.23828 0.14844,0.24218 0.16016,0.23047 0.17187,0.21875 0.17969,0.21875 0.17969,0.21094 0.1914,0.19922 0.19922,0.19141 0.20703,0.17968 0.21094,0.17969 0.22266,0.17188 0.21875,0.15625 0.23047,0.15234 0.23047,0.14062 0.23828,0.14063 0.25,0.11719 0.25,0.12109 0.25,0.10938 0.26172,0.0898 0.25781,0.0898 0.26172,0.082 0.26953,0.0703 0.26953,0.0586 0.28125,0.0508 0.26953,0.0391 0.27734,0.0312 0.28125,0.0195 h 3.42969 l 0.10938,0.008 0.10156,0.0117 0.10937,0.0195 0.10157,0.0195 0.0976,0.0312 0.0899,0.0312 0.10156,0.0391 0.0898,0.0391 0.10157,0.0508 0.0781,0.0586 0.0898,0.0625 0.082,0.0586 0.0781,0.0703 0.0703,0.0781 0.082,0.0703 0.0586,0.082 0.0586,0.0899 0.0625,0.0898 0.0469,0.0899 0.043,0.0898 0.0469,0.0898 0.0312,0.10157 0.0312,0.0976 0.0195,0.10156 0.0195,0.0977 0.0195,0.10938 v 76.15234 l -0.008,0.0977 -0.0234,0.11328 -0.0195,0.0977 -0.0273,0.10157 -0.0312,0.0977 -0.0391,0.0898 -0.0391,0.10156 -0.0508,0.0898 -0.0625,0.0898 -0.0586,0.082 -0.0586,0.0781 -0.0703,0.082 -0.0703,0.0781 -0.082,0.0703 -0.0781,0.0586 -0.082,0.0703 -0.26953,0.15234 -0.0976,0.0391 -0.0899,0.0391 -0.10156,0.0312 -0.10156,0.0195 -0.10938,0.0195 -0.0976,0.0117 -0.10157,0.008 h -3.25 l -0.28906,0.0117 -0.28125,0.0195 -0.28125,0.0312 -0.26953,0.0469 -0.26953,0.0508 -0.27735,0.0625 -0.26171,0.0664 -0.26954,0.082 -0.26171,0.0898 -0.25,0.10156 -0.25782,0.10937 -0.24218,0.11719 -0.25,0.13281 -0.23829,0.12891 -0.23046,0.14844 -0.23047,0.15234 -0.21875,0.16016 -0.21094,0.16797 -0.21094,0.17968 -0.21094,0.19141 -0.19921,0.19141 -0.1875,0.19922 -0.17969,0.21093 -0.17188,0.21875 -0.16797,0.21875 -0.16015,0.24219 -0.15235,0.23047 -0.14843,0.25 -0.13282,0.25 -0.11718,0.25 -0.1211,0.25781 -0.10156,0.26172 -0.0898,0.25781 -0.0781,0.26172 -0.082,0.26953 -0.0586,0.26953 -0.0508,0.26954 -0.0391,0.26953 -0.0391,0.28125 -0.0195,0.26953 -0.0117,0.26953 v 0.28125 l 0.0117,0.26953 0.0195,0.28125 0.0195,0.26953 0.0391,0.26953 0.0508,0.26953 0.0586,0.26954 0.0703,0.26953 0.082,0.26953 0.0899,0.26172 0.0976,0.26172 0.11328,0.25781 0.11719,0.25 0.13281,0.25 0.13672,0.25 0.15235,0.24219 0.14843,0.22656 0.17188,0.23047 0.16797,0.22265 0.17969,0.20703 0.1914,0.21094 0.19141,0.19141 0.19922,0.1875 0.21093,0.17969 0.21875,0.18359 0.21875,0.16016 0.21875,0.15625 0.23047,0.15234 0.24219,0.12891 0.23828,0.1289 0.25,0.13281 0.25,0.10938 0.25,0.0977 0.26172,0.10156 0.26953,0.082 0.25781,0.0664 0.27344,0.0703 0.26953,0.0508 0.27735,0.0508 0.28125,0.0312 0.28125,0.0273 0.27734,0.0117 h 3.28125 l 0.10156,0.008 0.0977,0.0117 0.10937,0.0117 0.10157,0.0195 0.10156,0.0273 0.0977,0.0312 0.0898,0.0391 0.10156,0.043 0.0899,0.0469 0.0898,0.0508 0.0898,0.0625 0.082,0.0586 0.0781,0.0703 0.14844,0.14844 0.0625,0.082 0.0703,0.0781 0.0469,0.0898 0.0625,0.0898 0.0391,0.0898 0.0391,0.10156 0.043,0.0898 0.0273,0.10157 0.0312,0.0977 0.0195,0.10156 0.0117,0.10938 0.008,0.0977 v 5.77343 l -0.008,0.0977 -0.0117,0.10937 -0.0195,0.10157 -0.0312,0.10156 -0.0273,0.0977 -0.043,0.0898 -0.0391,0.10156 -0.10157,0.17969 -0.0586,0.0898 -0.0586,0.0781 -0.0703,0.082 -0.0703,0.0781 -0.082,0.0703 -0.0781,0.0703 -0.082,0.0625 -0.0898,0.0586 -0.17969,0.10157 -0.0898,0.0391 -0.0977,0.0391 -0.10156,0.0312 -0.0977,0.0195 -0.10156,0.0273 -0.10156,0.0117 -0.10938,0.0117 H 256.37109 l -0.10937,-0.0117 -0.10156,-0.0117 -0.10157,-0.0195 -0.0976,-0.0273 -0.10157,-0.0312 -0.0977,-0.0391 -0.0898,-0.0391 -0.10156,-0.0508 -0.082,-0.0508 -0.0898,-0.0586 -0.0898,-0.0625 -0.0781,-0.0586 -0.0703,-0.082 -0.0703,-0.0703 -0.0703,-0.0781 -0.0703,-0.0898 -0.0508,-0.082 -0.0586,-0.0898 -0.0508,-0.0898 -0.0391,-0.0977 -0.0391,-0.0898 -0.0312,-0.10156 -0.0195,-0.0977 -0.0391,-0.20313 -0.0117,-0.10937 v -5.76954 l 0.0117,-0.10156 0.008,-0.10937 0.0195,-0.0977 0.0625,-0.20312 0.0273,-0.0898 0.043,-0.0977 0.0469,-0.0898 0.0508,-0.0898 0.0625,-0.0898 0.0586,-0.082 0.0703,-0.0781 0.0703,-0.082 0.0703,-0.0703 0.0781,-0.0703 0.0898,-0.0586 0.082,-0.0586 0.0898,-0.0625 0.0898,-0.0391 0.0977,-0.0508 0.0898,-0.0391 0.10157,-0.0312 0.10156,-0.0273 0.0977,-0.0195 0.10156,-0.0117 0.10937,-0.0117 0.10157,-0.008 h 3.23046 l 0.27735,-0.0117 0.28125,-0.0195 0.28125,-0.0273 0.27734,-0.0508 0.26953,-0.0508 0.26953,-0.0586 0.27344,-0.0703 0.25781,-0.0898 0.26172,-0.0898 0.25782,-0.10156 0.25,-0.10937 0.24218,-0.1211 0.25,-0.1289 0.23047,-0.12891 0.23828,-0.15234 0.21875,-0.14844 0.23047,-0.17188 0.21094,-0.16797 0.21094,-0.17968 0.19922,-0.17969 0.19921,-0.20313 0.19141,-0.19921 0.17969,-0.21094 0.16797,-0.21875 0.17187,-0.23047 0.16016,-0.23047 0.14844,-0.23828 0.14062,-0.24219 0.14063,-0.25 0.12109,-0.25781 0.10937,-0.25 0.0977,-0.26172 0.0898,-0.26953 0.082,-0.25781 0.0781,-0.26953 0.0625,-0.27344 0.0508,-0.26953 0.0391,-0.26953 0.0312,-0.26954 0.0195,-0.28125 0.008,-0.26953 v -0.27734 l -0.008,-0.27344 -0.0195,-0.26953 -0.0312,-0.27734 -0.0391,-0.26953 -0.0508,-0.27344 -0.0625,-0.26953 -0.0664,-0.26953 -0.082,-0.25782 -0.0898,-0.27343 -0.10156,-0.25782 -0.10938,-0.25 -0.11719,-0.26172 -0.13281,-0.25 -0.14062,-0.23828 -0.14844,-0.24218 -0.16016,-0.23829 -0.16797,-0.21875 -0.17187,-0.22265 -0.17969,-0.20703 -0.1914,-0.20313 -0.19922,-0.19922 -0.19922,-0.1875 -0.21094,-0.17968 -0.21094,-0.17188 -0.21875,-0.16016 -0.23047,-0.16015 -0.23046,-0.14844 -0.23829,-0.14062 -0.24218,-0.1211 -0.25,-0.12109 -0.25,-0.11719 -0.25782,-0.10156 -0.26171,-0.0898 -0.25782,-0.0781 -0.26953,-0.082 -0.27344,-0.0586 -0.53906,-0.10156 -0.27734,-0.0312 -0.5625,-0.0391 h -3.30078 l -0.10938,-0.008 -0.0976,-0.0117 -0.10157,-0.0195 -0.10937,-0.0195 -0.0898,-0.0312 -0.10156,-0.0391 -0.0977,-0.0391 -0.0898,-0.043 -0.0898,-0.0469 -0.0898,-0.0625 -0.082,-0.0586 -0.0781,-0.0703 -0.082,-0.0703 -0.0781,-0.0703 -0.0625,-0.0781 -0.0703,-0.082 -0.0586,-0.0898 -0.0508,-0.0781 -0.0508,-0.10156 -0.0469,-0.0898 -0.043,-0.0898 -0.0273,-0.10156 -0.0312,-0.0977 -0.0195,-0.10156 -0.0195,-0.10938 -0.0117,-0.10156 v -76.14844 l 0.0195,-0.10937 0.0117,-0.10156 0.0312,-0.0977 0.0273,-0.10156 0.0312,-0.10156 0.0391,-0.0899 0.0508,-0.0976 0.0508,-0.0899 0.0508,-0.082 0.0586,-0.0898 0.0703,-0.0781 0.0703,-0.082 0.0703,-0.0703 0.0781,-0.0703 0.082,-0.0664 0.0898,-0.0625 0.0898,-0.0508 0.0898,-0.0469 0.0898,-0.0508 0.0977,-0.0391 0.0898,-0.0312 0.10156,-0.0312 0.10156,-0.0195 0.10938,-0.0195 0.0976,-0.0117 0.10157,-0.008 h 3.39062 l 0.27734,-0.0195 0.28125,-0.0195 0.26954,-0.043 0.28125,-0.0469 0.26953,-0.0508 0.26953,-0.0703 0.26953,-0.082 0.26172,-0.0781 0.25781,-0.10156 0.5,-0.21875 0.24219,-0.1211 0.23828,-0.14062 0.24219,-0.13672 0.23047,-0.15234 0.4375,-0.32032 0.22265,-0.17968 0.19922,-0.17969 0.19922,-0.19141 0.19922,-0.19922 0.17969,-0.21093 0.17968,-0.20704 0.17188,-0.22265 0.16015,-0.22656 0.16016,-0.23047 0.14844,-0.25 0.1289,-0.24219 0.13282,-0.25781 0.11718,-0.25 0.11329,-0.26172 0.0898,-0.25781 0.0898,-0.26172 0.0781,-0.26953 0.0625,-0.26954 0.0586,-0.26953 0.0508,-0.27343 0.0274,-0.26954 0.0312,-0.27734 0.0195,-0.26953 v -0.55078 l -0.0195,-0.26953 -0.0195,-0.28125 -0.0312,-0.26953 -0.0508,-0.26954 -0.0469,-0.26953 -0.0703,-0.27343 -0.0703,-0.26954 -0.0898,-0.25781 -0.0898,-0.26172 -0.10938,-0.25781 -0.12109,-0.26172 -0.1211,-0.25 -0.14062,-0.25 -0.14063,-0.23828 -0.15625,-0.24219 -0.16015,-0.23047 -0.17188,-0.21875 -0.16797,-0.21875 -0.1914,-0.19921 -0.19141,-0.20313 -0.19922,-0.19922 -0.19922,-0.17969 -0.21875,-0.17968 -0.21093,-0.17188 -0.23047,-0.16015 -0.23047,-0.14844 -0.23047,-0.14063 -0.23828,-0.1289 -0.24219,-0.12891 -0.25,-0.12109 -0.25781,-0.10157 -0.25,-0.0976 -0.26172,-0.0899 -0.26953,-0.082 -0.26953,-0.0703 -0.26953,-0.0586 -0.26953,-0.0391 -0.28125,-0.043 -0.28125,-0.0274 -0.27735,-0.0195 -0.28125,-0.0117 h -3.25 l -0.10156,-0.008 -0.10938,-0.0234 -0.0976,-0.0195 -0.10156,-0.0273 -0.10157,-0.043 -0.0898,-0.0274 -0.0977,-0.0508 -0.0898,-0.0508 -0.082,-0.0508 -0.0898,-0.0586 -0.0781,-0.0703 -0.082,-0.0703 -0.0781,-0.0703 -0.0703,-0.0781 -0.0625,-0.082 -0.0586,-0.0781 -0.0586,-0.0899 -0.10156,-0.17968 -0.0391,-0.10157 -0.0312,-0.10156 -0.0273,-0.0898 -0.0234,-0.0977 -0.0195,-0.10937 -0.0195,-0.10157 v -76.14843 l 0.0117,-0.11328 0.0195,-0.0977 0.0195,-0.10156 0.0312,-0.0977 0.0273,-0.10156 0.043,-0.10156 0.0391,-0.0899 0.0508,-0.0898 0.11719,-0.17969 0.0625,-0.0781 0.0703,-0.082 0.0703,-0.0703 0.0781,-0.0664 0.0781,-0.0703 0.0937,-0.0625 0.0781,-0.0586 0.0898,-0.0508 0.0898,-0.0391 0.10156,-0.0391 0.0977,-0.043 0.10156,-0.0273 0.0977,-0.0195 0.10157,-0.0234 0.10156,-0.0195 h 0.10937 l 0.0508,-0.008 h 3.19921 l 0.28125,-0.0117 0.27735,-0.0195 0.28125,-0.0312 0.28125,-0.0391 0.26953,-0.0508 0.26953,-0.0586 0.26953,-0.0703 0.25781,-0.0899 0.26172,-0.0898 0.26172,-0.10156 0.5,-0.21875 0.23828,-0.12891 0.23828,-0.14062 0.24219,-0.14063 0.21875,-0.16015 0.22266,-0.16016 0.21875,-0.16797 0.21094,-0.17969 0.39843,-0.38281 0.19141,-0.19922 0.17969,-0.21094 0.17968,-0.21875 0.16797,-0.21875 0.16016,-0.23046 0.15234,-0.24219 0.14063,-0.25 0.25781,-0.5 0.10938,-0.25781 0.10156,-0.26172 0.0898,-0.25782 0.0899,-0.26171 0.0703,-0.26954 0.0586,-0.26953 0.10156,-0.53906 0.0312,-0.28125 0.0195,-0.26953 0.008,-0.26953 v -0.28125 l -0.008,-0.26953 -0.0195,-0.28125 -0.0234,-0.26953 -0.0391,-0.26954 -0.0508,-0.26953 -0.0586,-0.26953 -0.0703,-0.26953 -0.0781,-0.26953 -0.0898,-0.26172 -0.10156,-0.26172 -0.10938,-0.25781 -0.12109,-0.25 -0.12891,-0.25 -0.14062,-0.25 -0.14844,-0.24219 -0.16016,-0.22656 -0.16015,-0.23047 -0.17969,-0.22266 -0.1836,-0.20703 -0.17968,-0.20312 -0.19922,-0.19922 -0.19922,-0.1875 -0.21094,-0.18359 -0.21094,-0.16797 -0.21875,-0.17188 -0.46093,-0.29687 -0.23828,-0.14063 -0.23829,-0.1289 -0.25,-0.1211 -0.25,-0.10937 -0.25,-0.11328 -0.52343,-0.17969 -0.26953,-0.0703 -0.53907,-0.11719 -0.28125,-0.0391 -0.27734,-0.043 -0.28125,-0.0195 -0.28125,-0.008 -0.14063,-0.0117 h -3.22656 l -0.11328,-0.0117 -0.0977,-0.0195 -0.10156,-0.0195 -0.0977,-0.0195 -0.10157,-0.0312 -0.10156,-0.0391 -0.0898,-0.0508 -0.0898,-0.0391 -0.0898,-0.0586 -0.0898,-0.0508 -0.0781,-0.0703 -0.082,-0.0703 -0.0781,-0.0703 -0.0703,-0.0781 -0.0586,-0.082 -0.0703,-0.0781 -0.0508,-0.0898 -0.0625,-0.082 -0.0391,-0.0977 -0.0508,-0.0898 -0.0273,-0.10157 -0.0312,-0.10156 -0.0312,-0.0976 -0.0195,-0.10157 -0.008,-0.0976 -0.0117,-0.11328 v -5.65625"
         id="path32666"
         style="stroke-width:0.526642;stroke-dasharray:none" />
      <path
         fill="none"
         stroke-width="0.074"
         stroke-linecap="round"
         stroke-linejoin="round"
         stroke="#000000"
         stroke-opacity="1"
         stroke-miterlimit="10"
         d="m 416.03847,260.49094 h 0.15515 l 0.0795,0.008 0.0835,0.0119 0.0795,0.0119 0.0715,0.008 0.0835,0.0198 0.0795,0.0198 0.0716,0.0198 0.0716,0.0238 0.0716,0.0198 0.0716,0.0278 0.14321,0.0635 0.0716,0.0279 0.0715,0.0437 0.0596,0.0278 0.0715,0.0437 0.0596,0.0398 0.0636,0.0516 0.0597,0.0398 0.0596,0.0516 0.0636,0.0398 0.0478,0.0516 0.0636,0.0477 0.0518,0.0635 0.0478,0.0517 0.0518,0.0595 0.0517,0.0516 0.0399,0.0595 0.0518,0.0635 0.0795,0.11907 0.0438,0.0714 0.0399,0.0635 0.0318,0.0674 0.0399,0.0714 0.0318,0.0714 0.0278,0.0635 0.0199,0.0793 0.0318,0.0714 0.0399,0.14289 0.0199,0.0793 0.0239,0.0714 0.008,0.0833 0.0119,0.0793 0.008,0.0714 0.0119,0.0833 v 0.32546 l -0.0119,0.0793 v 0.0833 l -0.008,0.0793 -0.0199,0.0714 -0.0119,0.0793 -0.0199,0.0714 -0.0199,0.0833 -0.0199,0.0714 -0.0318,0.0714 -0.0199,0.0714 -0.0318,0.0674 -0.0318,0.0714 -0.0278,0.0714 -0.0399,0.0714 -0.0318,0.0635 -0.0399,0.0714 -0.0438,0.0595 -0.0399,0.0595 -0.0518,0.0635 -0.0399,0.0595 -0.0518,0.0595 -0.0518,0.0517 -0.0478,0.0595 -0.0517,0.0516 -0.0597,0.0516 -0.0518,0.0516 -0.0636,0.0517 -0.0597,0.0477 -0.0596,0.0437 -0.0636,0.0398 -0.0597,0.0516 -0.0596,0.0398 -0.0715,0.0317 -0.0636,0.0398 -0.0716,0.0317 -0.0715,0.0279 -0.0676,0.0317 -0.0716,0.0317 -0.0716,0.0278 -0.0715,0.0198 -0.0835,0.0238 -0.14322,0.0398 -0.0795,0.008 -0.0835,0.0119 -0.0795,0.008 -0.0715,0.0119 h -0.0795 l -0.0835,0.0119 h -0.0795 l -0.0835,-0.0119 h -0.0795 l -0.0835,-0.0119 -0.0795,-0.008 -0.0716,-0.0119 -0.0835,-0.0198 -0.0715,-0.008 -0.0795,-0.0198 -0.0716,-0.0317 -0.14322,-0.0398 -0.0795,-0.0317 -0.0636,-0.0317 -0.0716,-0.0279 -0.0716,-0.0437 -0.0676,-0.0278 -0.0636,-0.0437 -0.0596,-0.0398 -0.0636,-0.0398 -0.0676,-0.0516 -0.0518,-0.0398 -0.0636,-0.0516 -0.0596,-0.0516 -0.0518,-0.0477 -0.0597,-0.0516 -0.0517,-0.0516 -0.0518,-0.0595 -0.0518,-0.0517 -0.0399,-0.0635 -0.0518,-0.0595 -0.0399,-0.0595 -0.0399,-0.0635 -0.0398,-0.0714 -0.0438,-0.0595 -0.0399,-0.0714 -0.0278,-0.0595 -0.0636,-0.1429 -0.0279,-0.0714 -0.0318,-0.0714 -0.0199,-0.0793 -0.0199,-0.0714 -0.0238,-0.0714 -0.0199,-0.0833 -0.008,-0.0714 -0.0199,-0.0793 -0.0119,-0.0833 v -0.0793 l -0.008,-0.0714 v -0.31356 l 0.008,-0.0833 0.0119,-0.0714 0.008,-0.0793 0.0119,-0.0833 0.0199,-0.0714 0.0199,-0.0793 0.0399,-0.14289 0.0318,-0.0714 0.0199,-0.0793 0.0318,-0.0635 0.0399,-0.0714 0.0318,-0.0714 0.0278,-0.0674 0.0438,-0.0635 0.0399,-0.0714 0.0795,-0.11907 0.0517,-0.0635 0.0399,-0.0595 0.0518,-0.0516 0.0518,-0.0595 0.0518,-0.0516 0.0517,-0.0635 0.0597,-0.0477 0.0518,-0.0516 0.0596,-0.0398 0.0596,-0.0516 0.0636,-0.0398 0.0597,-0.0516 0.0716,-0.0398 0.0597,-0.0317 0.0636,-0.0398 0.0716,-0.0437 0.0716,-0.0279 0.0716,-0.0317 0.0677,-0.0317 0.0716,-0.0278 0.0716,-0.0198 0.0716,-0.0238 0.0835,-0.0198 0.0716,-0.0198 0.0795,-0.0198 0.0716,-0.008 0.0835,-0.0119 0.0795,-0.0119 0.0795,-0.008 h 0.16311"
         id="path32706"
         style="stroke-width:0.535732;stroke-dasharray:none" />
      <path
         fill="none"
         stroke-width="0.074"
         stroke-linecap="round"
         stroke-linejoin="round"
         stroke="#000000"
         stroke-opacity="1"
         stroke-miterlimit="10"
         d="m 280.36082,232.53837 h 23.54688 v -27.41016 l -0.008,-0.082 v -0.0781 l -0.0117,-0.0898 -0.008,-0.082 -0.0117,-0.0781 -0.0195,-0.082 -0.0117,-0.0781 -0.0195,-0.082 -0.008,-0.0781 -0.0195,-0.0703 -0.0312,-0.0781 -0.0195,-0.082 -0.0195,-0.0703 -0.0312,-0.0781 -0.0312,-0.0703 -0.0273,-0.082 -0.0625,-0.14062 -0.0273,-0.0664 -0.043,-0.0703 -0.0391,-0.0703 -0.0312,-0.0703 -0.0781,-0.14062 -0.0508,-0.0586 -0.0391,-0.0703 -0.0508,-0.0625 -0.0391,-0.0703 -0.10157,-0.11719 -0.0469,-0.0625 -0.10156,-0.11719 -0.0586,-0.0508 -0.0508,-0.0625 -0.0625,-0.0469 -0.0469,-0.0625 -0.0625,-0.0508 -0.0586,-0.0469 -0.0586,-0.0508 -0.0625,-0.0508 -0.0703,-0.0508 -0.0586,-0.0391 -0.0586,-0.0508 -0.14062,-0.0781 -0.0625,-0.0391 -0.0703,-0.043 -0.0703,-0.0391 -0.0664,-0.0391 -0.14063,-0.0625 -0.0703,-0.0391 -0.082,-0.0273 -0.0703,-0.0312 -0.0781,-0.0195 -0.0703,-0.0312 -0.0781,-0.0195 -0.0703,-0.0195 -0.082,-0.0312 -0.0781,-0.0195 -0.082,-0.0117 -0.0781,-0.0195 -0.082,-0.008 -0.0781,-0.0195 -0.082,-0.0117 -0.0781,-0.008 h -0.082 l -0.0898,-0.0117 h -16.50789 l -0.082,0.0117 h -0.0898 l -0.0781,0.008 -0.082,0.0117 -0.0781,0.0195 -0.082,0.008 -0.0781,0.0195 -0.082,0.0117 -0.0703,0.0195 -0.0781,0.0312 -0.082,0.0195 -0.0781,0.0195 -0.0703,0.0312 -0.0781,0.0195 -0.0703,0.0312 -0.0703,0.0273 -0.0703,0.0391 -0.082,0.0312 -0.0703,0.0312 -0.0703,0.0391 -0.0664,0.0391 -0.0625,0.043 -0.14063,0.0781 -0.0586,0.0391 -0.0703,0.0508 -0.0586,0.0391 -0.0625,0.0508 -0.0703,0.0508 -0.0586,0.0508 -0.0508,0.0469 -0.0586,0.0508 -0.0586,0.0625 -0.0625,0.0469 -0.0508,0.0625 -0.0469,0.0508 -0.0625,0.0586 -0.0508,0.0586 -0.0469,0.0625 -0.10156,0.11679 -0.0391,0.0703 -0.0508,0.0625 -0.0391,0.0703 -0.043,0.0586 -0.15625,0.28125 -0.0312,0.0703 -0.0391,0.0664 -0.0625,0.14062 -0.0273,0.082 -0.0312,0.0703 -0.0195,0.0781 -0.0312,0.0703 -0.0195,0.082 -0.0195,0.0781 -0.0195,0.0703 -0.0195,0.0781 -0.0234,0.082 -0.008,0.0781 -0.0195,0.082 -0.0117,0.0781 -0.008,0.082 v 0.0898 l -0.0117,0.0781 v 0.082 l -0.008,0.0781 v 27.33204"
         id="path32752"
         style="stroke-width:0.526642;stroke-dasharray:none" />
      <path
         fill="none"
         stroke-width="0.074"
         stroke-linecap="round"
         stroke-linejoin="round"
         stroke="#000000"
         stroke-opacity="1"
         stroke-miterlimit="10"
         d="m 316.58738,232.53837 h 23.54297 v -27.49219 l -0.0117,-0.0781 -0.008,-0.0898 -0.0117,-0.082 -0.0117,-0.0781 -0.008,-0.082 -0.0195,-0.0781 -0.0117,-0.082 -0.0195,-0.0781 -0.0195,-0.0703 -0.0195,-0.0781 -0.0312,-0.082 -0.0195,-0.0703 -0.0312,-0.0781 -0.0195,-0.0703 -0.0273,-0.082 -0.0312,-0.0703 -0.0391,-0.0703 -0.0312,-0.0664 -0.0391,-0.0703 -0.0312,-0.0703 -0.0781,-0.14062 -0.043,-0.0703 -0.0391,-0.0586 -0.0508,-0.0703 -0.0391,-0.0625 -0.0508,-0.0703 -0.0508,-0.0586 -0.0469,-0.0586 -0.0508,-0.0625 -0.10156,-0.11719 -0.0508,-0.0508 -0.0586,-0.0625 -0.0508,-0.0469 -0.0586,-0.0625 -0.0586,-0.0508 -0.0625,-0.0469 -0.0586,-0.0508 -0.0625,-0.0508 -0.0586,-0.0508 -0.0703,-0.0391 -0.0586,-0.0508 -0.0703,-0.0391 -0.0586,-0.0391 -0.0703,-0.0391 -0.0703,-0.043 -0.14063,-0.0781 -0.14062,-0.0625 -0.0703,-0.0391 -0.0703,-0.0273 -0.0781,-0.0312 -0.0703,-0.0195 -0.082,-0.0312 -0.0781,-0.0195 -0.0703,-0.0195 -0.082,-0.0312 -0.0781,-0.0195 -0.082,-0.0117 -0.0781,-0.0195 -0.0781,-0.008 -0.082,-0.0195 -0.0781,-0.0117 -0.082,-0.008 h -0.0781 l -0.082,-0.0117 h -16.5196 l -0.0781,0.0117 h -0.082 l -0.0781,0.008 -0.0898,0.0117 -0.082,0.0195 -0.0781,0.008 -0.082,0.0195 -0.0703,0.0117 -0.0781,0.0195 -0.082,0.0312 -0.0781,0.0195 -0.0703,0.0195 -0.082,0.0312 -0.0703,0.0195 -0.0781,0.0312 -0.0703,0.0273 -0.0703,0.0391 -0.14062,0.0625 -0.14063,0.0781 -0.0703,0.043 -0.0664,0.0391 -0.0703,0.0391 -0.0625,0.0391 -0.0586,0.0508 -0.0703,0.0391 -0.0586,0.0508 -0.0625,0.0508 -0.0586,0.0508 -0.0586,0.0469 -0.0625,0.0508 -0.0586,0.0625 -0.0508,0.0469 -0.0586,0.0625 -0.0508,0.0508 -0.0508,0.0586 -0.0586,0.0586 -0.0508,0.0625 -0.0391,0.0586 -0.0508,0.0586 -0.0508,0.0703 -0.0391,0.0625 -0.0508,0.0703 -0.0391,0.0586 -0.0391,0.0703 -0.043,0.0703 -0.0781,0.14063 -0.0312,0.0703 -0.0312,0.0664 -0.0391,0.0703 -0.0273,0.0703 -0.0312,0.082 -0.0195,0.0703 -0.0312,0.0781 -0.0312,0.0703 -0.0195,0.082 -0.0195,0.0781 -0.0195,0.0703 -0.0195,0.0781 -0.0117,0.082 -0.0195,0.0781 -0.008,0.082 -0.0117,0.0781 -0.008,0.082 -0.0117,0.0898 -0.0117,0.0781 v 27.49219"
         id="path32758"
         style="stroke-width:0.526642;stroke-dasharray:none" />
      <path
         style="fill:none;stroke:#000000;stroke-width:0.526642;stroke-linejoin:round;stroke-dasharray:none"
         d="m 275.22723,194.67017 h 136.30731 v 44.45593 h 17.36932 v 12.63484 h -18.71539 v 52.68849 l 14.87637,3.93432 v 41.27265 h -13.09409 v 53.25468 H 276.91021 V 378.01694 H 257.02547 V 311.1915 h 11.7417 v -21.52603 h -11.27374 v -73.00131 l 17.7338,-7.21293 z"
         id="path76115"
         sodipodi:nodetypes="ccccccccccccccccccccc" />
    </g>
  </g>
</svg>
