%TF.GenerationSoftware,KiCad,Pcbnew,(6.0.7)*%
%TF.CreationDate,2022-08-17T13:42:15+03:00*%
%TF.ProjectId,Master Shield,4d617374-6572-4205-9368-69656c642e6b,1*%
%TF.SameCoordinates,Original*%
%TF.FileFunction,Soldermask,Bot*%
%TF.FilePolarity,Negative*%
%FSLAX46Y46*%
G04 Gerber Fmt 4.6, Leading zero omitted, Abs format (unit mm)*
G04 Created by KiCad (PCBNEW (6.0.7)) date 2022-08-17 13:42:15*
%MOMM*%
%LPD*%
G01*
G04 APERTURE LIST*
%ADD10C,0.150000*%
%ADD11C,3.200000*%
%ADD12C,3.099822*%
%ADD13C,1.600000*%
%ADD14C,1.150013*%
%ADD15R,2.000000X2.000000*%
%ADD16C,2.000000*%
%ADD17C,2.480000*%
%ADD18R,2.480000X2.480000*%
%ADD19R,1.700000X1.700000*%
%ADD20O,1.700000X1.700000*%
G04 APERTURE END LIST*
D10*
%TO.C,BUS3*%
X59391527Y9589365D02*
X58820098Y9589365D01*
X59105813Y9589365D02*
X59105813Y10589365D01*
X59010574Y10446507D01*
X58915336Y10351269D01*
X58820098Y10303650D01*
%TO.C,BUS2*%
X59391527Y23559365D02*
X58820098Y23559365D01*
X59105813Y23559365D02*
X59105813Y24559365D01*
X59010574Y24416507D01*
X58915336Y24321269D01*
X58820098Y24273650D01*
%TO.C,BUS1*%
X59391527Y36894365D02*
X58820098Y36894365D01*
X59105813Y36894365D02*
X59105813Y37894365D01*
X59010574Y37751507D01*
X58915336Y37656269D01*
X58820098Y37608650D01*
%TD*%
D11*
%TO.C,MH6*%
X96520000Y2540000D03*
%TD*%
D12*
%TO.C,PSU1*%
X96455771Y34933250D03*
D13*
X92135629Y36434393D03*
X92135629Y33434647D03*
X89135883Y36434393D03*
X89135883Y33434647D03*
%TD*%
D14*
%TO.C,BUS3*%
X45204873Y14000089D03*
X60205127Y14000089D03*
D15*
X57205127Y10049873D03*
D16*
X54205127Y10049873D03*
X51205127Y10049873D03*
X48205127Y10049873D03*
X57205127Y13049873D03*
X54205127Y13049873D03*
X51205127Y13049873D03*
X48205127Y13049873D03*
%TD*%
D12*
%TO.C,PSU3*%
X96421171Y12065000D03*
D13*
X92101029Y13566143D03*
X92101029Y10566397D03*
X89101283Y13566143D03*
X89101283Y10566397D03*
%TD*%
D12*
%TO.C,PSU2*%
X96421171Y23495000D03*
D13*
X92101029Y24996143D03*
X92101029Y21996397D03*
X89101283Y24996143D03*
X89101283Y21996397D03*
%TD*%
D17*
%TO.C,F2*%
X79070000Y23495000D03*
D18*
X82730000Y23495000D03*
D17*
X74600000Y23495000D03*
X70940000Y23495000D03*
%TD*%
D14*
%TO.C,BUS2*%
X60205127Y27970089D03*
X45204873Y27970089D03*
D15*
X57205127Y24019873D03*
D16*
X54205127Y24019873D03*
X51205127Y24019873D03*
X48205127Y24019873D03*
X57205127Y27019873D03*
X54205127Y27019873D03*
X51205127Y27019873D03*
X48205127Y27019873D03*
%TD*%
D11*
%TO.C,MH4*%
X66040000Y7620000D03*
%TD*%
D18*
%TO.C,F1*%
X82730000Y34925000D03*
D17*
X79070000Y34925000D03*
X74600000Y34925000D03*
X70940000Y34925000D03*
%TD*%
D18*
%TO.C,F3*%
X82730000Y12065000D03*
D17*
X79070000Y12065000D03*
X70940000Y12065000D03*
X74600000Y12065000D03*
%TD*%
D11*
%TO.C,MH5*%
X90170000Y50800000D03*
%TD*%
D14*
%TO.C,BUS1*%
X60205127Y41305089D03*
X45204873Y41305089D03*
D15*
X57205127Y37354873D03*
D16*
X54205127Y37354873D03*
X51205127Y37354873D03*
X48205127Y37354873D03*
X57205127Y40354873D03*
X54205127Y40354873D03*
X51205127Y40354873D03*
X48205127Y40354873D03*
%TD*%
D19*
%TO.C,J1*%
X27940000Y2540000D03*
D20*
X30480000Y2540000D03*
X33020000Y2540000D03*
X35560000Y2540000D03*
X38100000Y2540000D03*
X40640000Y2540000D03*
X43180000Y2540000D03*
X45720000Y2540000D03*
%TD*%
D19*
%TO.C,J2*%
X45720000Y50800000D03*
D20*
X48260000Y50800000D03*
X50800000Y50800000D03*
X53340000Y50800000D03*
X55880000Y50800000D03*
X58420000Y50800000D03*
X60960000Y50800000D03*
X63500000Y50800000D03*
%TD*%
D19*
%TO.C,J3*%
X68580000Y50800000D03*
D20*
X71120000Y50800000D03*
X73660000Y50800000D03*
X76200000Y50800000D03*
X78740000Y50800000D03*
X81280000Y50800000D03*
X83820000Y50800000D03*
X86360000Y50800000D03*
%TD*%
M02*
