%TF.GenerationSoftware,KiCad,Pcbnew,(6.0.7)*%
%TF.CreationDate,2022-08-17T13:42:15+03:00*%
%TF.ProjectId,Master Shield,4d617374-6572-4205-9368-69656c642e6b,1*%
%TF.SameCoordinates,Original*%
%TF.FileFunction,Paste,Top*%
%TF.FilePolarity,Positive*%
%FSLAX46Y46*%
G04 Gerber Fmt 4.6, Leading zero omitted, Abs format (unit mm)*
G04 Created by KiCad (PCBNEW (6.0.7)) date 2022-08-17 13:42:15*
%MOMM*%
%LPD*%
G01*
G04 APERTURE LIST*
G04 Aperture macros list*
%AMRoundRect*
0 Rectangle with rounded corners*
0 $1 Rounding radius*
0 $2 $3 $4 $5 $6 $7 $8 $9 X,Y pos of 4 corners*
0 Add a 4 corners polygon primitive as box body*
4,1,4,$2,$3,$4,$5,$6,$7,$8,$9,$2,$3,0*
0 Add four circle primitives for the rounded corners*
1,1,$1+$1,$2,$3*
1,1,$1+$1,$4,$5*
1,1,$1+$1,$6,$7*
1,1,$1+$1,$8,$9*
0 Add four rect primitives between the rounded corners*
20,1,$1+$1,$2,$3,$4,$5,0*
20,1,$1+$1,$4,$5,$6,$7,0*
20,1,$1+$1,$6,$7,$8,$9,0*
20,1,$1+$1,$8,$9,$2,$3,0*%
G04 Aperture macros list end*
%ADD10RoundRect,0.250000X-0.450000X0.262500X-0.450000X-0.262500X0.450000X-0.262500X0.450000X0.262500X0*%
%ADD11O,1.950216X0.568402*%
%ADD12RoundRect,0.250000X0.262500X0.450000X-0.262500X0.450000X-0.262500X-0.450000X0.262500X-0.450000X0*%
%ADD13RoundRect,0.218750X0.218750X0.256250X-0.218750X0.256250X-0.218750X-0.256250X0.218750X-0.256250X0*%
%ADD14R,0.790094X0.540005*%
%ADD15RoundRect,0.218750X-0.218750X-0.256250X0.218750X-0.256250X0.218750X0.256250X-0.218750X0.256250X0*%
G04 APERTURE END LIST*
D10*
%TO.C,R2*%
X42559019Y32027500D03*
X42559019Y30202500D03*
%TD*%
D11*
%TO.C,MASTER-2*%
X33503914Y33020004D03*
X33503914Y31750001D03*
X33503914Y30479999D03*
X33503914Y29209996D03*
X38914124Y29209996D03*
X38914124Y30479999D03*
X38914124Y31750001D03*
X38914124Y33020004D03*
%TD*%
D12*
%TO.C,R4*%
X75842500Y40640000D03*
X74017500Y40640000D03*
%TD*%
D13*
%TO.C,D3*%
X79527500Y17780000D03*
X77952500Y17780000D03*
%TD*%
D14*
%TO.C,C1*%
X37554915Y48311000D03*
X38645085Y48311000D03*
%TD*%
%TO.C,C3*%
X37658849Y20955000D03*
X38749019Y20955000D03*
%TD*%
D12*
%TO.C,R5*%
X75842500Y29210000D03*
X74017500Y29210000D03*
%TD*%
D11*
%TO.C,MASTER-1*%
X33503914Y46406004D03*
X33503914Y45136001D03*
X33503914Y43865999D03*
X33503914Y42595996D03*
X38914124Y42595996D03*
X38914124Y43865999D03*
X38914124Y45136001D03*
X38914124Y46406004D03*
%TD*%
D13*
%TO.C,D1*%
X79527500Y40640000D03*
X77952500Y40640000D03*
%TD*%
%TO.C,D2*%
X79527500Y29210000D03*
X77952500Y29210000D03*
%TD*%
D15*
%TO.C,D4*%
X51282500Y2540000D03*
X52857500Y2540000D03*
%TD*%
D14*
%TO.C,C2*%
X37568934Y34925000D03*
X38659104Y34925000D03*
%TD*%
D12*
%TO.C,R6*%
X75842500Y17780000D03*
X74017500Y17780000D03*
%TD*%
%TO.C,R7*%
X52982500Y5080000D03*
X51157500Y5080000D03*
%TD*%
D11*
%TO.C,MASTER-3*%
X33503914Y19050004D03*
X33503914Y17780001D03*
X33503914Y16509999D03*
X33503914Y15239996D03*
X38914124Y15239996D03*
X38914124Y16509999D03*
X38914124Y17780001D03*
X38914124Y19050004D03*
%TD*%
D10*
%TO.C,R1*%
X42559019Y45362500D03*
X42559019Y43537500D03*
%TD*%
%TO.C,R3*%
X42559019Y18057500D03*
X42559019Y16232500D03*
%TD*%
M02*
