%TF.GenerationSoftware,KiCad,Pcbnew,(6.0.7)*%
%TF.CreationDate,2022-08-17T13:42:15+03:00*%
%TF.ProjectId,Master Shield,4d617374-6572-4205-9368-69656c642e6b,1*%
%TF.SameCoordinates,Original*%
%TF.FileFunction,Legend,Bot*%
%TF.FilePolarity,Positive*%
%FSLAX46Y46*%
G04 Gerber Fmt 4.6, Leading zero omitted, Abs format (unit mm)*
G04 Created by KiCad (PCBNEW (6.0.7)) date 2022-08-17 13:42:15*
%MOMM*%
%LPD*%
G01*
G04 APERTURE LIST*
%ADD10C,0.150000*%
%ADD11C,0.812800*%
%ADD12C,0.120000*%
G04 APERTURE END LIST*
D10*
X91925000Y27610000D02*
G75*
G03*
X91925000Y27610000I-30000000J0D01*
G01*
D11*
X95869785Y36797189D02*
X95135652Y36312474D01*
X94938941Y35971762D01*
X94814232Y35362338D01*
X95030235Y34556204D01*
X95442948Y34090782D01*
X95783660Y33894072D01*
X96393084Y33769363D01*
X98542775Y34345371D01*
X97030754Y39988309D01*
X95149775Y39484302D01*
X94684353Y39071589D01*
X94487643Y38730877D01*
X94362933Y38121453D01*
X94506935Y37584030D01*
X94919649Y37118608D01*
X95260361Y36921898D01*
X95869785Y36797189D01*
X97750764Y37301196D01*
X89675300Y31969338D02*
X90836270Y35160459D01*
X92899836Y32833350D02*
X91387816Y38476288D01*
X89238125Y37900281D01*
X88772703Y37487567D01*
X88575993Y37146855D01*
X88451283Y36537431D01*
X88667286Y35731297D01*
X89079999Y35265875D01*
X89420712Y35069165D01*
X90030136Y34944456D01*
X92179826Y35520463D01*
X84032361Y30457317D02*
X85193331Y33648438D01*
X87256898Y31321329D02*
X85744877Y36964268D01*
X83595186Y36388260D01*
X83129764Y35975546D01*
X82933054Y35634834D01*
X82808344Y35025410D01*
X83024347Y34219276D01*
X83437061Y33753854D01*
X83777773Y33557144D01*
X84387197Y33432435D01*
X86536888Y34008443D01*
X78389423Y28945296D02*
X79550392Y32136417D01*
X81613959Y29809308D02*
X80101938Y35452247D01*
X77952247Y34876239D01*
X77486826Y34463525D01*
X77290115Y34122813D01*
X77165406Y33513389D01*
X77381409Y32707255D01*
X77794122Y32241834D01*
X78134834Y32045123D01*
X78744258Y31920414D01*
X80893949Y32496422D01*
X72746484Y27433275D02*
X73907454Y30624396D01*
X75971020Y28297287D02*
X74459000Y33940226D01*
X72309309Y33364218D01*
X71843887Y32951505D01*
X71647176Y32610792D01*
X71522467Y32001369D01*
X71738470Y31195234D01*
X72151183Y30729813D01*
X72491896Y30533102D01*
X73101320Y30408393D01*
X75251010Y30984401D01*
X67103545Y25921254D02*
X68264515Y29112375D01*
X70328082Y26785266D02*
X68816061Y32428205D01*
X66666370Y31852197D01*
X66200948Y31439484D01*
X66004238Y31098771D01*
X65879528Y30489348D01*
X66095531Y29683214D01*
X66508245Y29217792D01*
X66848957Y29021081D01*
X67458381Y28896372D01*
X69608072Y29472380D01*
X61460607Y24409234D02*
X62621576Y27600354D01*
X64685143Y25273246D02*
X63173122Y30916184D01*
X61023431Y30340176D01*
X60558010Y29927463D01*
X60361299Y29586751D01*
X60236590Y28977327D01*
X60452593Y28171193D01*
X60865306Y27705771D01*
X61206018Y27509061D01*
X61815442Y27384351D01*
X63965133Y27960359D01*
X55817668Y22897213D02*
X56978638Y26088333D01*
X59042204Y23761225D02*
X57530183Y29404163D01*
X55380493Y28828155D01*
X54915071Y28415442D01*
X54718360Y28074730D01*
X54593651Y27465306D01*
X54809654Y26659172D01*
X55222367Y26193750D01*
X55563080Y25997040D01*
X56172503Y25872330D01*
X58322194Y26448338D01*
X50174729Y21385192D02*
X51335699Y24576312D01*
X53399266Y22249204D02*
X51887245Y27892142D01*
X49737554Y27316135D01*
X49272132Y26903421D01*
X49075422Y26562709D01*
X48950712Y25953285D01*
X49166715Y25147151D01*
X49579429Y24681729D01*
X49920141Y24485019D01*
X50529565Y24360309D01*
X52679256Y24936317D01*
X44531791Y19873171D02*
X45692760Y23064292D01*
X47756327Y20737183D02*
X46244306Y26380122D01*
X44094615Y25804114D01*
X43629193Y25391400D01*
X43432483Y25050688D01*
X43307774Y24441264D01*
X43523777Y23635130D01*
X43936490Y23169708D01*
X44277202Y22972998D01*
X44886626Y22848289D01*
X47036317Y23424297D01*
X38888852Y18361150D02*
X40049822Y21552271D01*
X42113388Y19225162D02*
X40601367Y24868101D01*
X38451677Y24292093D01*
X37986255Y23879379D01*
X37789544Y23538667D01*
X37664835Y22929243D01*
X37880838Y22123109D01*
X38293551Y21657688D01*
X38634264Y21460977D01*
X39243687Y21336268D01*
X41393378Y21912276D01*
X33245913Y16849129D02*
X34406883Y20040250D01*
X36470450Y17713141D02*
X34958429Y23356080D01*
X32808738Y22780072D01*
X32343316Y22367359D01*
X32146606Y22026646D01*
X32021896Y21417222D01*
X32237899Y20611088D01*
X32650613Y20145667D01*
X32991325Y19948956D01*
X33600749Y19824247D01*
X35750440Y20400255D01*
X30121624Y22060062D02*
X26897088Y21196050D01*
X30021377Y15985117D02*
X28509356Y21628056D01*
D10*
%TO.C,J1*%
X25062380Y2873334D02*
X25776666Y2873334D01*
X25919523Y2920953D01*
X26014761Y3016191D01*
X26062380Y3159048D01*
X26062380Y3254286D01*
X26062380Y1873334D02*
X26062380Y2444762D01*
X26062380Y2159048D02*
X25062380Y2159048D01*
X25205238Y2254286D01*
X25300476Y2349524D01*
X25348095Y2444762D01*
D12*
X47050000Y3870000D02*
X47050000Y1210000D01*
X29210000Y3870000D02*
X47050000Y3870000D01*
X29210000Y1210000D02*
X47050000Y1210000D01*
X29210000Y3870000D02*
X29210000Y1210000D01*
X27940000Y3870000D02*
X26610000Y3870000D01*
X26610000Y3870000D02*
X26610000Y2540000D01*
%TO.C,J2*%
X46990000Y52130000D02*
X64830000Y52130000D01*
X45720000Y52130000D02*
X44390000Y52130000D01*
X44390000Y52130000D02*
X44390000Y50800000D01*
X46990000Y49470000D02*
X64830000Y49470000D01*
X64830000Y52130000D02*
X64830000Y49470000D01*
X46990000Y52130000D02*
X46990000Y49470000D01*
%TO.C,J3*%
X69850000Y49470000D02*
X87690000Y49470000D01*
X87690000Y52130000D02*
X87690000Y49470000D01*
X67250000Y52130000D02*
X67250000Y50800000D01*
X68580000Y52130000D02*
X67250000Y52130000D01*
X69850000Y52130000D02*
X87690000Y52130000D01*
X69850000Y52130000D02*
X69850000Y49470000D01*
%TD*%
M02*
