%TF.GenerationSoftware,KiCad,Pcbnew,(6.0.7)*%
%TF.CreationDate,2022-08-17T13:42:15+03:00*%
%TF.ProjectId,Master Shield,4d617374-6572-4205-9368-69656c642e6b,1*%
%TF.SameCoordinates,Original*%
%TF.FileFunction,Legend,Top*%
%TF.FilePolarity,Positive*%
%FSLAX46Y46*%
G04 Gerber Fmt 4.6, Leading zero omitted, Abs format (unit mm)*
G04 Created by KiCad (PCBNEW (6.0.7)) date 2022-08-17 13:42:15*
%MOMM*%
%LPD*%
G01*
G04 APERTURE LIST*
%ADD10C,0.101600*%
%ADD11C,0.203200*%
%ADD12C,0.300000*%
%ADD13C,0.150000*%
%ADD14C,0.120000*%
%ADD15C,0.254001*%
%ADD16C,0.059995*%
%ADD17C,0.152400*%
%ADD18C,0.127000*%
%ADD19C,0.200000*%
G04 APERTURE END LIST*
D10*
X42773600Y5130317D02*
X42734895Y5052907D01*
X42734895Y4936793D01*
X42773600Y4820679D01*
X42851009Y4743269D01*
X42928419Y4704564D01*
X43083238Y4665860D01*
X43199352Y4665860D01*
X43354171Y4704564D01*
X43431580Y4743269D01*
X43508990Y4820679D01*
X43547695Y4936793D01*
X43547695Y5014202D01*
X43508990Y5130317D01*
X43470285Y5169021D01*
X43199352Y5169021D01*
X43199352Y5014202D01*
X43547695Y5517364D02*
X42734895Y5517364D01*
X43547695Y5981821D01*
X42734895Y5981821D01*
X43547695Y6368869D02*
X42734895Y6368869D01*
X42734895Y6562393D01*
X42773600Y6678507D01*
X42851009Y6755917D01*
X42928419Y6794621D01*
X43083238Y6833326D01*
X43199352Y6833326D01*
X43354171Y6794621D01*
X43431580Y6755917D01*
X43508990Y6678507D01*
X43547695Y6562393D01*
X43547695Y6368869D01*
X73214895Y46738903D02*
X73214895Y47203360D01*
X74027695Y46971132D02*
X73214895Y46971132D01*
X73214895Y47396884D02*
X74027695Y47938751D01*
X73214895Y47938751D02*
X74027695Y47396884D01*
X73292304Y48209684D02*
X73253600Y48248389D01*
X73214895Y48325799D01*
X73214895Y48519322D01*
X73253600Y48596732D01*
X73292304Y48635437D01*
X73369714Y48674141D01*
X73447123Y48674141D01*
X73563238Y48635437D01*
X74027695Y48170980D01*
X74027695Y48674141D01*
X81733571Y41352362D02*
X81849685Y41313657D01*
X81888390Y41274952D01*
X81927095Y41197543D01*
X81927095Y41081428D01*
X81888390Y41004019D01*
X81849685Y40965314D01*
X81772276Y40926609D01*
X81462638Y40926609D01*
X81462638Y41739409D01*
X81733571Y41739409D01*
X81810980Y41700704D01*
X81849685Y41662000D01*
X81888390Y41584590D01*
X81888390Y41507181D01*
X81849685Y41429771D01*
X81810980Y41391066D01*
X81733571Y41352362D01*
X81462638Y41352362D01*
X82275438Y41739409D02*
X82275438Y41081428D01*
X82314142Y41004019D01*
X82352847Y40965314D01*
X82430257Y40926609D01*
X82585076Y40926609D01*
X82662485Y40965314D01*
X82701190Y41004019D01*
X82739895Y41081428D01*
X82739895Y41739409D01*
X83088238Y40965314D02*
X83204352Y40926609D01*
X83397876Y40926609D01*
X83475285Y40965314D01*
X83513990Y41004019D01*
X83552695Y41081428D01*
X83552695Y41158838D01*
X83513990Y41236247D01*
X83475285Y41274952D01*
X83397876Y41313657D01*
X83243057Y41352362D01*
X83165647Y41391066D01*
X83126942Y41429771D01*
X83088238Y41507181D01*
X83088238Y41584590D01*
X83126942Y41662000D01*
X83165647Y41700704D01*
X83243057Y41739409D01*
X83436580Y41739409D01*
X83552695Y41700704D01*
X84946066Y40926609D02*
X84481609Y40926609D01*
X84713838Y40926609D02*
X84713838Y41739409D01*
X84636428Y41623295D01*
X84559019Y41545885D01*
X84481609Y41507181D01*
X81307819Y39618001D02*
X81307819Y40430801D01*
X81617457Y40430801D01*
X81694866Y40392096D01*
X81733571Y40353392D01*
X81772276Y40275982D01*
X81772276Y40159868D01*
X81733571Y40082458D01*
X81694866Y40043754D01*
X81617457Y40005049D01*
X81307819Y40005049D01*
X82275438Y40430801D02*
X82430257Y40430801D01*
X82507666Y40392096D01*
X82585076Y40314687D01*
X82623780Y40159868D01*
X82623780Y39888935D01*
X82585076Y39734116D01*
X82507666Y39656706D01*
X82430257Y39618001D01*
X82275438Y39618001D01*
X82198028Y39656706D01*
X82120619Y39734116D01*
X82081914Y39888935D01*
X82081914Y40159868D01*
X82120619Y40314687D01*
X82198028Y40392096D01*
X82275438Y40430801D01*
X82894714Y40430801D02*
X83088238Y39618001D01*
X83243057Y40198573D01*
X83397876Y39618001D01*
X83591400Y40430801D01*
X83901038Y40043754D02*
X84171971Y40043754D01*
X84288085Y39618001D02*
X83901038Y39618001D01*
X83901038Y40430801D01*
X84288085Y40430801D01*
X85100885Y39618001D02*
X84829952Y40005049D01*
X84636428Y39618001D02*
X84636428Y40430801D01*
X84946066Y40430801D01*
X85023476Y40392096D01*
X85062180Y40353392D01*
X85100885Y40275982D01*
X85100885Y40159868D01*
X85062180Y40082458D01*
X85023476Y40043754D01*
X84946066Y40005049D01*
X84636428Y40005049D01*
X45274895Y4588450D02*
X46087695Y4859383D01*
X45274895Y5130317D01*
X46087695Y5401250D02*
X45274895Y5401250D01*
X46087695Y5788298D02*
X45274895Y5788298D01*
X46087695Y6252755D01*
X45274895Y6252755D01*
X40233600Y5130317D02*
X40194895Y5052907D01*
X40194895Y4936793D01*
X40233600Y4820679D01*
X40311009Y4743269D01*
X40388419Y4704564D01*
X40543238Y4665860D01*
X40659352Y4665860D01*
X40814171Y4704564D01*
X40891580Y4743269D01*
X40968990Y4820679D01*
X41007695Y4936793D01*
X41007695Y5014202D01*
X40968990Y5130317D01*
X40930285Y5169021D01*
X40659352Y5169021D01*
X40659352Y5014202D01*
X41007695Y5517364D02*
X40194895Y5517364D01*
X41007695Y5981821D01*
X40194895Y5981821D01*
X41007695Y6368869D02*
X40194895Y6368869D01*
X40194895Y6562393D01*
X40233600Y6678507D01*
X40311009Y6755917D01*
X40388419Y6794621D01*
X40543238Y6833326D01*
X40659352Y6833326D01*
X40814171Y6794621D01*
X40891580Y6755917D01*
X40968990Y6678507D01*
X41007695Y6562393D01*
X41007695Y6368869D01*
X56247695Y47435589D02*
X55434895Y47435589D01*
X55434895Y47629113D01*
X55473600Y47745227D01*
X55551009Y47822637D01*
X55628419Y47861341D01*
X55783238Y47900046D01*
X55899352Y47900046D01*
X56054171Y47861341D01*
X56131580Y47822637D01*
X56208990Y47745227D01*
X56247695Y47629113D01*
X56247695Y47435589D01*
X55434895Y48170980D02*
X55434895Y48674141D01*
X55744533Y48403208D01*
X55744533Y48519322D01*
X55783238Y48596732D01*
X55821942Y48635437D01*
X55899352Y48674141D01*
X56092876Y48674141D01*
X56170285Y48635437D01*
X56208990Y48596732D01*
X56247695Y48519322D01*
X56247695Y48287094D01*
X56208990Y48209684D01*
X56170285Y48170980D01*
X30847695Y4704564D02*
X30034895Y4704564D01*
X30034895Y5246431D02*
X30034895Y5401250D01*
X30073600Y5478660D01*
X30151009Y5556069D01*
X30305828Y5594774D01*
X30576761Y5594774D01*
X30731580Y5556069D01*
X30808990Y5478660D01*
X30847695Y5401250D01*
X30847695Y5246431D01*
X30808990Y5169021D01*
X30731580Y5091612D01*
X30576761Y5052907D01*
X30305828Y5052907D01*
X30151009Y5091612D01*
X30073600Y5169021D01*
X30034895Y5246431D01*
X30847695Y6407574D02*
X30460647Y6136640D01*
X30847695Y5943117D02*
X30034895Y5943117D01*
X30034895Y6252755D01*
X30073600Y6330164D01*
X30112304Y6368869D01*
X30189714Y6407574D01*
X30305828Y6407574D01*
X30383238Y6368869D01*
X30421942Y6330164D01*
X30460647Y6252755D01*
X30460647Y5943117D01*
X30421942Y6755917D02*
X30421942Y7026850D01*
X30847695Y7142964D02*
X30847695Y6755917D01*
X30034895Y6755917D01*
X30034895Y7142964D01*
X30421942Y7762240D02*
X30421942Y7491307D01*
X30847695Y7491307D02*
X30034895Y7491307D01*
X30034895Y7878355D01*
X81733571Y29922362D02*
X81849685Y29883657D01*
X81888390Y29844952D01*
X81927095Y29767543D01*
X81927095Y29651428D01*
X81888390Y29574019D01*
X81849685Y29535314D01*
X81772276Y29496609D01*
X81462638Y29496609D01*
X81462638Y30309409D01*
X81733571Y30309409D01*
X81810980Y30270704D01*
X81849685Y30232000D01*
X81888390Y30154590D01*
X81888390Y30077181D01*
X81849685Y29999771D01*
X81810980Y29961066D01*
X81733571Y29922362D01*
X81462638Y29922362D01*
X82275438Y30309409D02*
X82275438Y29651428D01*
X82314142Y29574019D01*
X82352847Y29535314D01*
X82430257Y29496609D01*
X82585076Y29496609D01*
X82662485Y29535314D01*
X82701190Y29574019D01*
X82739895Y29651428D01*
X82739895Y30309409D01*
X83088238Y29535314D02*
X83204352Y29496609D01*
X83397876Y29496609D01*
X83475285Y29535314D01*
X83513990Y29574019D01*
X83552695Y29651428D01*
X83552695Y29728838D01*
X83513990Y29806247D01*
X83475285Y29844952D01*
X83397876Y29883657D01*
X83243057Y29922362D01*
X83165647Y29961066D01*
X83126942Y29999771D01*
X83088238Y30077181D01*
X83088238Y30154590D01*
X83126942Y30232000D01*
X83165647Y30270704D01*
X83243057Y30309409D01*
X83436580Y30309409D01*
X83552695Y30270704D01*
X84481609Y30232000D02*
X84520314Y30270704D01*
X84597723Y30309409D01*
X84791247Y30309409D01*
X84868657Y30270704D01*
X84907361Y30232000D01*
X84946066Y30154590D01*
X84946066Y30077181D01*
X84907361Y29961066D01*
X84442904Y29496609D01*
X84946066Y29496609D01*
X81307819Y28188001D02*
X81307819Y29000801D01*
X81617457Y29000801D01*
X81694866Y28962096D01*
X81733571Y28923392D01*
X81772276Y28845982D01*
X81772276Y28729868D01*
X81733571Y28652458D01*
X81694866Y28613754D01*
X81617457Y28575049D01*
X81307819Y28575049D01*
X82275438Y29000801D02*
X82430257Y29000801D01*
X82507666Y28962096D01*
X82585076Y28884687D01*
X82623780Y28729868D01*
X82623780Y28458935D01*
X82585076Y28304116D01*
X82507666Y28226706D01*
X82430257Y28188001D01*
X82275438Y28188001D01*
X82198028Y28226706D01*
X82120619Y28304116D01*
X82081914Y28458935D01*
X82081914Y28729868D01*
X82120619Y28884687D01*
X82198028Y28962096D01*
X82275438Y29000801D01*
X82894714Y29000801D02*
X83088238Y28188001D01*
X83243057Y28768573D01*
X83397876Y28188001D01*
X83591400Y29000801D01*
X83901038Y28613754D02*
X84171971Y28613754D01*
X84288085Y28188001D02*
X83901038Y28188001D01*
X83901038Y29000801D01*
X84288085Y29000801D01*
X85100885Y28188001D02*
X84829952Y28575049D01*
X84636428Y28188001D02*
X84636428Y29000801D01*
X84946066Y29000801D01*
X85023476Y28962096D01*
X85062180Y28923392D01*
X85100885Y28845982D01*
X85100885Y28729868D01*
X85062180Y28652458D01*
X85023476Y28613754D01*
X84946066Y28575049D01*
X84636428Y28575049D01*
D11*
X77261761Y3401381D02*
X77503666Y2385381D01*
X77697190Y3111096D01*
X77890714Y2385381D01*
X78132619Y3401381D01*
X78955095Y2385381D02*
X78955095Y2917572D01*
X78906714Y3014334D01*
X78809952Y3062715D01*
X78616428Y3062715D01*
X78519666Y3014334D01*
X78955095Y2433762D02*
X78858333Y2385381D01*
X78616428Y2385381D01*
X78519666Y2433762D01*
X78471285Y2530524D01*
X78471285Y2627286D01*
X78519666Y2724048D01*
X78616428Y2772429D01*
X78858333Y2772429D01*
X78955095Y2820810D01*
X79438904Y2385381D02*
X79438904Y3062715D01*
X79438904Y2869191D02*
X79487285Y2965953D01*
X79535666Y3014334D01*
X79632428Y3062715D01*
X79729190Y3062715D01*
X79922714Y3062715D02*
X80309761Y3062715D01*
X80067857Y3401381D02*
X80067857Y2530524D01*
X80116238Y2433762D01*
X80213000Y2385381D01*
X80309761Y2385381D01*
X80648428Y2385381D02*
X80648428Y3401381D01*
X81083857Y2385381D02*
X81083857Y2917572D01*
X81035476Y3014334D01*
X80938714Y3062715D01*
X80793571Y3062715D01*
X80696809Y3014334D01*
X80648428Y2965953D01*
X81712809Y2385381D02*
X81616047Y2433762D01*
X81567666Y2482143D01*
X81519285Y2578905D01*
X81519285Y2869191D01*
X81567666Y2965953D01*
X81616047Y3014334D01*
X81712809Y3062715D01*
X81857952Y3062715D01*
X81954714Y3014334D01*
X82003095Y2965953D01*
X82051476Y2869191D01*
X82051476Y2578905D01*
X82003095Y2482143D01*
X81954714Y2433762D01*
X81857952Y2385381D01*
X81712809Y2385381D01*
X82922333Y3062715D02*
X82922333Y2240239D01*
X82873952Y2143477D01*
X82825571Y2095096D01*
X82728809Y2046715D01*
X82583666Y2046715D01*
X82486904Y2095096D01*
X82922333Y2433762D02*
X82825571Y2385381D01*
X82632047Y2385381D01*
X82535285Y2433762D01*
X82486904Y2482143D01*
X82438523Y2578905D01*
X82438523Y2869191D01*
X82486904Y2965953D01*
X82535285Y3014334D01*
X82632047Y3062715D01*
X82825571Y3062715D01*
X82922333Y3014334D01*
X83357761Y2675667D02*
X83841571Y2675667D01*
X83261000Y2385381D02*
X83599666Y3401381D01*
X83938333Y2385381D01*
X84131857Y3062715D02*
X84518904Y3062715D01*
X84277000Y3401381D02*
X84277000Y2530524D01*
X84325380Y2433762D01*
X84422142Y2385381D01*
X84518904Y2385381D01*
X84857571Y2385381D02*
X84857571Y3401381D01*
X84857571Y2917572D02*
X85438142Y2917572D01*
X85438142Y2385381D02*
X85438142Y3401381D01*
X86067095Y2385381D02*
X85970333Y2433762D01*
X85921952Y2482143D01*
X85873571Y2578905D01*
X85873571Y2869191D01*
X85921952Y2965953D01*
X85970333Y3014334D01*
X86067095Y3062715D01*
X86212238Y3062715D01*
X86309000Y3014334D01*
X86357380Y2965953D01*
X86405761Y2869191D01*
X86405761Y2578905D01*
X86357380Y2482143D01*
X86309000Y2433762D01*
X86212238Y2385381D01*
X86067095Y2385381D01*
X86841190Y2385381D02*
X86841190Y3062715D01*
X86841190Y2965953D02*
X86889571Y3014334D01*
X86986333Y3062715D01*
X87131476Y3062715D01*
X87228238Y3014334D01*
X87276619Y2917572D01*
X87276619Y2385381D01*
X87276619Y2917572D02*
X87325000Y3014334D01*
X87421761Y3062715D01*
X87566904Y3062715D01*
X87663666Y3014334D01*
X87712047Y2917572D01*
X87712047Y2385381D01*
X88582904Y2433762D02*
X88486142Y2385381D01*
X88292619Y2385381D01*
X88195857Y2433762D01*
X88147476Y2530524D01*
X88147476Y2917572D01*
X88195857Y3014334D01*
X88292619Y3062715D01*
X88486142Y3062715D01*
X88582904Y3014334D01*
X88631285Y2917572D01*
X88631285Y2820810D01*
X88147476Y2724048D01*
X89066714Y2482143D02*
X89115095Y2433762D01*
X89066714Y2385381D01*
X89018333Y2433762D01*
X89066714Y2482143D01*
X89066714Y2385381D01*
X89985952Y2433762D02*
X89889190Y2385381D01*
X89695666Y2385381D01*
X89598904Y2433762D01*
X89550523Y2482143D01*
X89502142Y2578905D01*
X89502142Y2869191D01*
X89550523Y2965953D01*
X89598904Y3014334D01*
X89695666Y3062715D01*
X89889190Y3062715D01*
X89985952Y3014334D01*
X90566523Y2385381D02*
X90469761Y2433762D01*
X90421380Y2482143D01*
X90373000Y2578905D01*
X90373000Y2869191D01*
X90421380Y2965953D01*
X90469761Y3014334D01*
X90566523Y3062715D01*
X90711666Y3062715D01*
X90808428Y3014334D01*
X90856809Y2965953D01*
X90905190Y2869191D01*
X90905190Y2578905D01*
X90856809Y2482143D01*
X90808428Y2433762D01*
X90711666Y2385381D01*
X90566523Y2385381D01*
X91340619Y2385381D02*
X91340619Y3062715D01*
X91340619Y2965953D02*
X91389000Y3014334D01*
X91485761Y3062715D01*
X91630904Y3062715D01*
X91727666Y3014334D01*
X91776047Y2917572D01*
X91776047Y2385381D01*
X91776047Y2917572D02*
X91824428Y3014334D01*
X91921190Y3062715D01*
X92066333Y3062715D01*
X92163095Y3014334D01*
X92211476Y2917572D01*
X92211476Y2385381D01*
D10*
X86688990Y46738903D02*
X86727695Y46855018D01*
X86727695Y47048541D01*
X86688990Y47125951D01*
X86650285Y47164656D01*
X86572876Y47203360D01*
X86495466Y47203360D01*
X86418057Y47164656D01*
X86379352Y47125951D01*
X86340647Y47048541D01*
X86301942Y46893722D01*
X86263238Y46816313D01*
X86224533Y46777608D01*
X86147123Y46738903D01*
X86069714Y46738903D01*
X85992304Y46777608D01*
X85953600Y46816313D01*
X85914895Y46893722D01*
X85914895Y47087246D01*
X85953600Y47203360D01*
X86650285Y48016160D02*
X86688990Y47977456D01*
X86727695Y47861341D01*
X86727695Y47783932D01*
X86688990Y47667818D01*
X86611580Y47590408D01*
X86534171Y47551703D01*
X86379352Y47512999D01*
X86263238Y47512999D01*
X86108419Y47551703D01*
X86031009Y47590408D01*
X85953600Y47667818D01*
X85914895Y47783932D01*
X85914895Y47861341D01*
X85953600Y47977456D01*
X85992304Y48016160D01*
X86727695Y48751551D02*
X86727695Y48364503D01*
X85914895Y48364503D01*
X33387695Y5169021D02*
X33000647Y4898088D01*
X33387695Y4704564D02*
X32574895Y4704564D01*
X32574895Y5014202D01*
X32613600Y5091612D01*
X32652304Y5130317D01*
X32729714Y5169021D01*
X32845828Y5169021D01*
X32923238Y5130317D01*
X32961942Y5091612D01*
X33000647Y5014202D01*
X33000647Y4704564D01*
X32961942Y5517364D02*
X32961942Y5788298D01*
X33387695Y5904412D02*
X33387695Y5517364D01*
X32574895Y5517364D01*
X32574895Y5904412D01*
X33348990Y6214050D02*
X33387695Y6330164D01*
X33387695Y6523688D01*
X33348990Y6601098D01*
X33310285Y6639802D01*
X33232876Y6678507D01*
X33155466Y6678507D01*
X33078057Y6639802D01*
X33039352Y6601098D01*
X33000647Y6523688D01*
X32961942Y6368869D01*
X32923238Y6291460D01*
X32884533Y6252755D01*
X32807123Y6214050D01*
X32729714Y6214050D01*
X32652304Y6252755D01*
X32613600Y6291460D01*
X32574895Y6368869D01*
X32574895Y6562393D01*
X32613600Y6678507D01*
X32961942Y7026850D02*
X32961942Y7297783D01*
X33387695Y7413898D02*
X33387695Y7026850D01*
X32574895Y7026850D01*
X32574895Y7413898D01*
X32574895Y7646126D02*
X32574895Y8110583D01*
X33387695Y7878355D02*
X32574895Y7878355D01*
X58787695Y47435589D02*
X57974895Y47435589D01*
X57974895Y47629113D01*
X58013600Y47745227D01*
X58091009Y47822637D01*
X58168419Y47861341D01*
X58323238Y47900046D01*
X58439352Y47900046D01*
X58594171Y47861341D01*
X58671580Y47822637D01*
X58748990Y47745227D01*
X58787695Y47629113D01*
X58787695Y47435589D01*
X58052304Y48209684D02*
X58013600Y48248389D01*
X57974895Y48325799D01*
X57974895Y48519322D01*
X58013600Y48596732D01*
X58052304Y48635437D01*
X58129714Y48674141D01*
X58207123Y48674141D01*
X58323238Y48635437D01*
X58787695Y48170980D01*
X58787695Y48674141D01*
X63867695Y47125951D02*
X63480647Y46855018D01*
X63867695Y46661494D02*
X63054895Y46661494D01*
X63054895Y46971132D01*
X63093600Y47048541D01*
X63132304Y47087246D01*
X63209714Y47125951D01*
X63325828Y47125951D01*
X63403238Y47087246D01*
X63441942Y47048541D01*
X63480647Y46971132D01*
X63480647Y46661494D01*
X63054895Y47396884D02*
X63867695Y47938751D01*
X63054895Y47938751D02*
X63867695Y47396884D01*
X63054895Y48403208D02*
X63054895Y48480618D01*
X63093600Y48558027D01*
X63132304Y48596732D01*
X63209714Y48635437D01*
X63364533Y48674141D01*
X63558057Y48674141D01*
X63712876Y48635437D01*
X63790285Y48596732D01*
X63828990Y48558027D01*
X63867695Y48480618D01*
X63867695Y48403208D01*
X63828990Y48325799D01*
X63790285Y48287094D01*
X63712876Y48248389D01*
X63558057Y48209684D01*
X63364533Y48209684D01*
X63209714Y48248389D01*
X63132304Y48287094D01*
X63093600Y48325799D01*
X63054895Y48403208D01*
X68134895Y46738903D02*
X68134895Y47203360D01*
X68947695Y46971132D02*
X68134895Y46971132D01*
X68134895Y47396884D02*
X68947695Y47938751D01*
X68134895Y47938751D02*
X68947695Y47396884D01*
X68134895Y48170980D02*
X68134895Y48674141D01*
X68444533Y48403208D01*
X68444533Y48519322D01*
X68483238Y48596732D01*
X68521942Y48635437D01*
X68599352Y48674141D01*
X68792876Y48674141D01*
X68870285Y48635437D01*
X68908990Y48596732D01*
X68947695Y48519322D01*
X68947695Y48287094D01*
X68908990Y48209684D01*
X68870285Y48170980D01*
X84148990Y46700199D02*
X84187695Y46816313D01*
X84187695Y47009837D01*
X84148990Y47087246D01*
X84110285Y47125951D01*
X84032876Y47164656D01*
X83955466Y47164656D01*
X83878057Y47125951D01*
X83839352Y47087246D01*
X83800647Y47009837D01*
X83761942Y46855018D01*
X83723238Y46777608D01*
X83684533Y46738903D01*
X83607123Y46700199D01*
X83529714Y46700199D01*
X83452304Y46738903D01*
X83413600Y46777608D01*
X83374895Y46855018D01*
X83374895Y47048541D01*
X83413600Y47164656D01*
X84187695Y47512999D02*
X83374895Y47512999D01*
X83374895Y47706522D01*
X83413600Y47822637D01*
X83491009Y47900046D01*
X83568419Y47938751D01*
X83723238Y47977456D01*
X83839352Y47977456D01*
X83994171Y47938751D01*
X84071580Y47900046D01*
X84148990Y47822637D01*
X84187695Y47706522D01*
X84187695Y47512999D01*
X83955466Y48287094D02*
X83955466Y48674141D01*
X84187695Y48209684D02*
X83374895Y48480618D01*
X84187695Y48751551D01*
X48627695Y47435589D02*
X47814895Y47435589D01*
X47814895Y47629113D01*
X47853600Y47745227D01*
X47931009Y47822637D01*
X48008419Y47861341D01*
X48163238Y47900046D01*
X48279352Y47900046D01*
X48434171Y47861341D01*
X48511580Y47822637D01*
X48588990Y47745227D01*
X48627695Y47629113D01*
X48627695Y47435589D01*
X47814895Y48596732D02*
X47814895Y48441913D01*
X47853600Y48364503D01*
X47892304Y48325799D01*
X48008419Y48248389D01*
X48163238Y48209684D01*
X48472876Y48209684D01*
X48550285Y48248389D01*
X48588990Y48287094D01*
X48627695Y48364503D01*
X48627695Y48519322D01*
X48588990Y48596732D01*
X48550285Y48635437D01*
X48472876Y48674141D01*
X48279352Y48674141D01*
X48201942Y48635437D01*
X48163238Y48596732D01*
X48124533Y48519322D01*
X48124533Y48364503D01*
X48163238Y48287094D01*
X48201942Y48248389D01*
X48279352Y48209684D01*
X35114895Y4627155D02*
X35114895Y5130317D01*
X35424533Y4859383D01*
X35424533Y4975498D01*
X35463238Y5052907D01*
X35501942Y5091612D01*
X35579352Y5130317D01*
X35772876Y5130317D01*
X35850285Y5091612D01*
X35888990Y5052907D01*
X35927695Y4975498D01*
X35927695Y4743269D01*
X35888990Y4665860D01*
X35850285Y4627155D01*
X35114895Y5362545D02*
X35927695Y5633479D01*
X35114895Y5904412D01*
X35114895Y6097936D02*
X35114895Y6601098D01*
X35424533Y6330164D01*
X35424533Y6446279D01*
X35463238Y6523688D01*
X35501942Y6562393D01*
X35579352Y6601098D01*
X35772876Y6601098D01*
X35850285Y6562393D01*
X35888990Y6523688D01*
X35927695Y6446279D01*
X35927695Y6214050D01*
X35888990Y6136640D01*
X35850285Y6097936D01*
X46087695Y47435589D02*
X45274895Y47435589D01*
X45274895Y47629113D01*
X45313600Y47745227D01*
X45391009Y47822637D01*
X45468419Y47861341D01*
X45623238Y47900046D01*
X45739352Y47900046D01*
X45894171Y47861341D01*
X45971580Y47822637D01*
X46048990Y47745227D01*
X46087695Y47629113D01*
X46087695Y47435589D01*
X45274895Y48170980D02*
X45274895Y48712846D01*
X46087695Y48364503D01*
X37654895Y5091612D02*
X37654895Y4704564D01*
X38041942Y4665860D01*
X38003238Y4704564D01*
X37964533Y4781974D01*
X37964533Y4975498D01*
X38003238Y5052907D01*
X38041942Y5091612D01*
X38119352Y5130317D01*
X38312876Y5130317D01*
X38390285Y5091612D01*
X38428990Y5052907D01*
X38467695Y4975498D01*
X38467695Y4781974D01*
X38428990Y4704564D01*
X38390285Y4665860D01*
X37654895Y5362545D02*
X38467695Y5633479D01*
X37654895Y5904412D01*
X81647695Y47125951D02*
X81260647Y46855018D01*
X81647695Y46661494D02*
X80834895Y46661494D01*
X80834895Y46971132D01*
X80873600Y47048541D01*
X80912304Y47087246D01*
X80989714Y47125951D01*
X81105828Y47125951D01*
X81183238Y47087246D01*
X81221942Y47048541D01*
X81260647Y46971132D01*
X81260647Y46661494D01*
X80834895Y47396884D02*
X81647695Y47938751D01*
X80834895Y47938751D02*
X81647695Y47396884D01*
X81647695Y48674141D02*
X81647695Y48209684D01*
X81647695Y48441913D02*
X80834895Y48441913D01*
X80951009Y48364503D01*
X81028419Y48287094D01*
X81067123Y48209684D01*
X81733571Y18492362D02*
X81849685Y18453657D01*
X81888390Y18414952D01*
X81927095Y18337543D01*
X81927095Y18221428D01*
X81888390Y18144019D01*
X81849685Y18105314D01*
X81772276Y18066609D01*
X81462638Y18066609D01*
X81462638Y18879409D01*
X81733571Y18879409D01*
X81810980Y18840704D01*
X81849685Y18802000D01*
X81888390Y18724590D01*
X81888390Y18647181D01*
X81849685Y18569771D01*
X81810980Y18531066D01*
X81733571Y18492362D01*
X81462638Y18492362D01*
X82275438Y18879409D02*
X82275438Y18221428D01*
X82314142Y18144019D01*
X82352847Y18105314D01*
X82430257Y18066609D01*
X82585076Y18066609D01*
X82662485Y18105314D01*
X82701190Y18144019D01*
X82739895Y18221428D01*
X82739895Y18879409D01*
X83088238Y18105314D02*
X83204352Y18066609D01*
X83397876Y18066609D01*
X83475285Y18105314D01*
X83513990Y18144019D01*
X83552695Y18221428D01*
X83552695Y18298838D01*
X83513990Y18376247D01*
X83475285Y18414952D01*
X83397876Y18453657D01*
X83243057Y18492362D01*
X83165647Y18531066D01*
X83126942Y18569771D01*
X83088238Y18647181D01*
X83088238Y18724590D01*
X83126942Y18802000D01*
X83165647Y18840704D01*
X83243057Y18879409D01*
X83436580Y18879409D01*
X83552695Y18840704D01*
X84442904Y18879409D02*
X84946066Y18879409D01*
X84675133Y18569771D01*
X84791247Y18569771D01*
X84868657Y18531066D01*
X84907361Y18492362D01*
X84946066Y18414952D01*
X84946066Y18221428D01*
X84907361Y18144019D01*
X84868657Y18105314D01*
X84791247Y18066609D01*
X84559019Y18066609D01*
X84481609Y18105314D01*
X84442904Y18144019D01*
X81307819Y16758001D02*
X81307819Y17570801D01*
X81617457Y17570801D01*
X81694866Y17532096D01*
X81733571Y17493392D01*
X81772276Y17415982D01*
X81772276Y17299868D01*
X81733571Y17222458D01*
X81694866Y17183754D01*
X81617457Y17145049D01*
X81307819Y17145049D01*
X82275438Y17570801D02*
X82430257Y17570801D01*
X82507666Y17532096D01*
X82585076Y17454687D01*
X82623780Y17299868D01*
X82623780Y17028935D01*
X82585076Y16874116D01*
X82507666Y16796706D01*
X82430257Y16758001D01*
X82275438Y16758001D01*
X82198028Y16796706D01*
X82120619Y16874116D01*
X82081914Y17028935D01*
X82081914Y17299868D01*
X82120619Y17454687D01*
X82198028Y17532096D01*
X82275438Y17570801D01*
X82894714Y17570801D02*
X83088238Y16758001D01*
X83243057Y17338573D01*
X83397876Y16758001D01*
X83591400Y17570801D01*
X83901038Y17183754D02*
X84171971Y17183754D01*
X84288085Y16758001D02*
X83901038Y16758001D01*
X83901038Y17570801D01*
X84288085Y17570801D01*
X85100885Y16758001D02*
X84829952Y17145049D01*
X84636428Y16758001D02*
X84636428Y17570801D01*
X84946066Y17570801D01*
X85023476Y17532096D01*
X85062180Y17493392D01*
X85100885Y17415982D01*
X85100885Y17299868D01*
X85062180Y17222458D01*
X85023476Y17183754D01*
X84946066Y17145049D01*
X84636428Y17145049D01*
X53707695Y47435589D02*
X52894895Y47435589D01*
X52894895Y47629113D01*
X52933600Y47745227D01*
X53011009Y47822637D01*
X53088419Y47861341D01*
X53243238Y47900046D01*
X53359352Y47900046D01*
X53514171Y47861341D01*
X53591580Y47822637D01*
X53668990Y47745227D01*
X53707695Y47629113D01*
X53707695Y47435589D01*
X53165828Y48596732D02*
X53707695Y48596732D01*
X52856190Y48403208D02*
X53436761Y48209684D01*
X53436761Y48712846D01*
X76567695Y47125951D02*
X76180647Y46855018D01*
X76567695Y46661494D02*
X75754895Y46661494D01*
X75754895Y46971132D01*
X75793600Y47048541D01*
X75832304Y47087246D01*
X75909714Y47125951D01*
X76025828Y47125951D01*
X76103238Y47087246D01*
X76141942Y47048541D01*
X76180647Y46971132D01*
X76180647Y46661494D01*
X75754895Y47396884D02*
X76567695Y47938751D01*
X75754895Y47938751D02*
X76567695Y47396884D01*
X75832304Y48209684D02*
X75793600Y48248389D01*
X75754895Y48325799D01*
X75754895Y48519322D01*
X75793600Y48596732D01*
X75832304Y48635437D01*
X75909714Y48674141D01*
X75987123Y48674141D01*
X76103238Y48635437D01*
X76567695Y48170980D01*
X76567695Y48674141D01*
X71487695Y47125951D02*
X71100647Y46855018D01*
X71487695Y46661494D02*
X70674895Y46661494D01*
X70674895Y46971132D01*
X70713600Y47048541D01*
X70752304Y47087246D01*
X70829714Y47125951D01*
X70945828Y47125951D01*
X71023238Y47087246D01*
X71061942Y47048541D01*
X71100647Y46971132D01*
X71100647Y46661494D01*
X70674895Y47396884D02*
X71487695Y47938751D01*
X70674895Y47938751D02*
X71487695Y47396884D01*
X70674895Y48170980D02*
X70674895Y48674141D01*
X70984533Y48403208D01*
X70984533Y48519322D01*
X71023238Y48596732D01*
X71061942Y48635437D01*
X71139352Y48674141D01*
X71332876Y48674141D01*
X71410285Y48635437D01*
X71448990Y48596732D01*
X71487695Y48519322D01*
X71487695Y48287094D01*
X71448990Y48209684D01*
X71410285Y48170980D01*
X60514895Y46738903D02*
X60514895Y47203360D01*
X61327695Y46971132D02*
X60514895Y46971132D01*
X60514895Y47396884D02*
X61327695Y47938751D01*
X60514895Y47938751D02*
X61327695Y47396884D01*
X60514895Y48403208D02*
X60514895Y48480618D01*
X60553600Y48558027D01*
X60592304Y48596732D01*
X60669714Y48635437D01*
X60824533Y48674141D01*
X61018057Y48674141D01*
X61172876Y48635437D01*
X61250285Y48596732D01*
X61288990Y48558027D01*
X61327695Y48480618D01*
X61327695Y48403208D01*
X61288990Y48325799D01*
X61250285Y48287094D01*
X61172876Y48248389D01*
X61018057Y48209684D01*
X60824533Y48209684D01*
X60669714Y48248389D01*
X60592304Y48287094D01*
X60553600Y48325799D01*
X60514895Y48403208D01*
X51167695Y47435589D02*
X50354895Y47435589D01*
X50354895Y47629113D01*
X50393600Y47745227D01*
X50471009Y47822637D01*
X50548419Y47861341D01*
X50703238Y47900046D01*
X50819352Y47900046D01*
X50974171Y47861341D01*
X51051580Y47822637D01*
X51128990Y47745227D01*
X51167695Y47629113D01*
X51167695Y47435589D01*
X50354895Y48635437D02*
X50354895Y48248389D01*
X50741942Y48209684D01*
X50703238Y48248389D01*
X50664533Y48325799D01*
X50664533Y48519322D01*
X50703238Y48596732D01*
X50741942Y48635437D01*
X50819352Y48674141D01*
X51012876Y48674141D01*
X51090285Y48635437D01*
X51128990Y48596732D01*
X51167695Y48519322D01*
X51167695Y48325799D01*
X51128990Y48248389D01*
X51090285Y48209684D01*
X78294895Y46738903D02*
X78294895Y47203360D01*
X79107695Y46971132D02*
X78294895Y46971132D01*
X78294895Y47396884D02*
X79107695Y47938751D01*
X78294895Y47938751D02*
X79107695Y47396884D01*
X79107695Y48674141D02*
X79107695Y48209684D01*
X79107695Y48441913D02*
X78294895Y48441913D01*
X78411009Y48364503D01*
X78488419Y48287094D01*
X78527123Y48209684D01*
D12*
X27983571Y5931429D02*
X26483571Y5931429D01*
X26483571Y6288572D01*
X26555000Y6502858D01*
X26697857Y6645715D01*
X26840714Y6717143D01*
X27126428Y6788572D01*
X27340714Y6788572D01*
X27626428Y6717143D01*
X27769285Y6645715D01*
X27912142Y6502858D01*
X27983571Y6288572D01*
X27983571Y5931429D01*
X27840714Y8288572D02*
X27912142Y8217143D01*
X27983571Y8002858D01*
X27983571Y7860000D01*
X27912142Y7645715D01*
X27769285Y7502858D01*
X27626428Y7431429D01*
X27340714Y7360000D01*
X27126428Y7360000D01*
X26840714Y7431429D01*
X26697857Y7502858D01*
X26555000Y7645715D01*
X26483571Y7860000D01*
X26483571Y8002858D01*
X26555000Y8217143D01*
X26626428Y8288572D01*
X27912142Y8860000D02*
X27983571Y9074286D01*
X27983571Y9431429D01*
X27912142Y9574286D01*
X27840714Y9645715D01*
X27697857Y9717143D01*
X27555000Y9717143D01*
X27412142Y9645715D01*
X27340714Y9574286D01*
X27269285Y9431429D01*
X27197857Y9145715D01*
X27126428Y9002858D01*
X27055000Y8931429D01*
X26912142Y8860000D01*
X26769285Y8860000D01*
X26626428Y8931429D01*
X26555000Y9002858D01*
X26483571Y9145715D01*
X26483571Y9502858D01*
X26555000Y9717143D01*
X27412142Y10360000D02*
X27412142Y11502858D01*
X27197857Y12717143D02*
X27269285Y12931429D01*
X27340714Y13002858D01*
X27483571Y13074286D01*
X27697857Y13074286D01*
X27840714Y13002858D01*
X27912142Y12931429D01*
X27983571Y12788572D01*
X27983571Y12217143D01*
X26483571Y12217143D01*
X26483571Y12717143D01*
X26555000Y12860000D01*
X26626428Y12931429D01*
X26769285Y13002858D01*
X26912142Y13002858D01*
X27055000Y12931429D01*
X27126428Y12860000D01*
X27197857Y12717143D01*
X27197857Y12217143D01*
X27983571Y13717143D02*
X26483571Y13717143D01*
X26483571Y14717143D02*
X26483571Y15002858D01*
X26555000Y15145715D01*
X26697857Y15288572D01*
X26983571Y15360000D01*
X27483571Y15360000D01*
X27769285Y15288572D01*
X27912142Y15145715D01*
X27983571Y15002858D01*
X27983571Y14717143D01*
X27912142Y14574286D01*
X27769285Y14431429D01*
X27483571Y14360000D01*
X26983571Y14360000D01*
X26697857Y14431429D01*
X26555000Y14574286D01*
X26483571Y14717143D01*
X27912142Y15931429D02*
X27983571Y16145715D01*
X27983571Y16502858D01*
X27912142Y16645715D01*
X27840714Y16717143D01*
X27697857Y16788572D01*
X27555000Y16788572D01*
X27412142Y16717143D01*
X27340714Y16645715D01*
X27269285Y16502858D01*
X27197857Y16217143D01*
X27126428Y16074286D01*
X27055000Y16002858D01*
X26912142Y15931429D01*
X26769285Y15931429D01*
X26626428Y16002858D01*
X26555000Y16074286D01*
X26483571Y16217143D01*
X26483571Y16574286D01*
X26555000Y16788572D01*
X27983571Y19431429D02*
X27269285Y18931429D01*
X27983571Y18574286D02*
X26483571Y18574286D01*
X26483571Y19145715D01*
X26555000Y19288572D01*
X26626428Y19360000D01*
X26769285Y19431429D01*
X26983571Y19431429D01*
X27126428Y19360000D01*
X27197857Y19288572D01*
X27269285Y19145715D01*
X27269285Y18574286D01*
X27912142Y20002858D02*
X27983571Y20217143D01*
X27983571Y20574286D01*
X27912142Y20717143D01*
X27840714Y20788572D01*
X27697857Y20860000D01*
X27555000Y20860000D01*
X27412142Y20788572D01*
X27340714Y20717143D01*
X27269285Y20574286D01*
X27197857Y20288572D01*
X27126428Y20145715D01*
X27055000Y20074286D01*
X26912142Y20002858D01*
X26769285Y20002858D01*
X26626428Y20074286D01*
X26555000Y20145715D01*
X26483571Y20288572D01*
X26483571Y20645715D01*
X26555000Y20860000D01*
X26983571Y22145715D02*
X27983571Y22145715D01*
X26412142Y21788572D02*
X27483571Y21431429D01*
X27483571Y22360000D01*
X27126428Y23145715D02*
X27055000Y23002858D01*
X26983571Y22931429D01*
X26840714Y22860000D01*
X26769285Y22860000D01*
X26626428Y22931429D01*
X26555000Y23002858D01*
X26483571Y23145715D01*
X26483571Y23431429D01*
X26555000Y23574286D01*
X26626428Y23645715D01*
X26769285Y23717143D01*
X26840714Y23717143D01*
X26983571Y23645715D01*
X27055000Y23574286D01*
X27126428Y23431429D01*
X27126428Y23145715D01*
X27197857Y23002858D01*
X27269285Y22931429D01*
X27412142Y22860000D01*
X27697857Y22860000D01*
X27840714Y22931429D01*
X27912142Y23002858D01*
X27983571Y23145715D01*
X27983571Y23431429D01*
X27912142Y23574286D01*
X27840714Y23645715D01*
X27697857Y23717143D01*
X27412142Y23717143D01*
X27269285Y23645715D01*
X27197857Y23574286D01*
X27126428Y23431429D01*
X26483571Y25074286D02*
X26483571Y24360000D01*
X27197857Y24288572D01*
X27126428Y24360000D01*
X27055000Y24502858D01*
X27055000Y24860000D01*
X27126428Y25002858D01*
X27197857Y25074286D01*
X27340714Y25145715D01*
X27697857Y25145715D01*
X27840714Y25074286D01*
X27912142Y25002858D01*
X27983571Y24860000D01*
X27983571Y24502858D01*
X27912142Y24360000D01*
X27840714Y24288572D01*
X26483571Y26717143D02*
X26483571Y27574286D01*
X27983571Y27145715D02*
X26483571Y27145715D01*
X27983571Y28074286D02*
X26983571Y28074286D01*
X27269285Y28074286D02*
X27126428Y28145715D01*
X27055000Y28217143D01*
X26983571Y28360000D01*
X26983571Y28502858D01*
X27983571Y29002858D02*
X26983571Y29002858D01*
X26483571Y29002858D02*
X26555000Y28931429D01*
X26626428Y29002858D01*
X26555000Y29074286D01*
X26483571Y29002858D01*
X26626428Y29002858D01*
X26983571Y29717143D02*
X28483571Y29717143D01*
X27055000Y29717143D02*
X26983571Y29860000D01*
X26983571Y30145715D01*
X27055000Y30288572D01*
X27126428Y30360000D01*
X27269285Y30431429D01*
X27697857Y30431429D01*
X27840714Y30360000D01*
X27912142Y30288572D01*
X27983571Y30145715D01*
X27983571Y29860000D01*
X27912142Y29717143D01*
X27983571Y31288572D02*
X27912142Y31145715D01*
X27769285Y31074286D01*
X26483571Y31074286D01*
X27912142Y32431429D02*
X27983571Y32288572D01*
X27983571Y32002858D01*
X27912142Y31860000D01*
X27769285Y31788572D01*
X27197857Y31788572D01*
X27055000Y31860000D01*
X26983571Y32002858D01*
X26983571Y32288572D01*
X27055000Y32431429D01*
X27197857Y32502858D01*
X27340714Y32502858D01*
X27483571Y31788572D01*
X27983571Y34288572D02*
X26483571Y34288572D01*
X27555000Y34788572D01*
X26483571Y35288572D01*
X27983571Y35288572D01*
X27983571Y36645715D02*
X27197857Y36645715D01*
X27055000Y36574286D01*
X26983571Y36431429D01*
X26983571Y36145715D01*
X27055000Y36002858D01*
X27912142Y36645715D02*
X27983571Y36502858D01*
X27983571Y36145715D01*
X27912142Y36002858D01*
X27769285Y35931429D01*
X27626428Y35931429D01*
X27483571Y36002858D01*
X27412142Y36145715D01*
X27412142Y36502858D01*
X27340714Y36645715D01*
X27912142Y37288572D02*
X27983571Y37431429D01*
X27983571Y37717143D01*
X27912142Y37860000D01*
X27769285Y37931429D01*
X27697857Y37931429D01*
X27555000Y37860000D01*
X27483571Y37717143D01*
X27483571Y37502858D01*
X27412142Y37360000D01*
X27269285Y37288572D01*
X27197857Y37288572D01*
X27055000Y37360000D01*
X26983571Y37502858D01*
X26983571Y37717143D01*
X27055000Y37860000D01*
X26983571Y38360000D02*
X26983571Y38931429D01*
X26483571Y38574286D02*
X27769285Y38574286D01*
X27912142Y38645715D01*
X27983571Y38788572D01*
X27983571Y38931429D01*
X27912142Y40002858D02*
X27983571Y39860000D01*
X27983571Y39574286D01*
X27912142Y39431429D01*
X27769285Y39360000D01*
X27197857Y39360000D01*
X27055000Y39431429D01*
X26983571Y39574286D01*
X26983571Y39860000D01*
X27055000Y40002858D01*
X27197857Y40074286D01*
X27340714Y40074286D01*
X27483571Y39360000D01*
X27983571Y40717143D02*
X26983571Y40717143D01*
X27269285Y40717143D02*
X27126428Y40788572D01*
X27055000Y40860000D01*
X26983571Y41002858D01*
X26983571Y41145715D01*
X27983571Y43645715D02*
X27269285Y43145715D01*
X27983571Y42788572D02*
X26483571Y42788572D01*
X26483571Y43360000D01*
X26555000Y43502858D01*
X26626428Y43574286D01*
X26769285Y43645715D01*
X26983571Y43645715D01*
X27126428Y43574286D01*
X27197857Y43502858D01*
X27269285Y43360000D01*
X27269285Y42788572D01*
X27912142Y44860000D02*
X27983571Y44717143D01*
X27983571Y44431429D01*
X27912142Y44288572D01*
X27769285Y44217143D01*
X27197857Y44217143D01*
X27055000Y44288572D01*
X26983571Y44431429D01*
X26983571Y44717143D01*
X27055000Y44860000D01*
X27197857Y44931429D01*
X27340714Y44931429D01*
X27483571Y44217143D01*
X26983571Y45431429D02*
X27983571Y45788572D01*
X26983571Y46145715D01*
X27840714Y46717143D02*
X27912142Y46788572D01*
X27983571Y46717143D01*
X27912142Y46645715D01*
X27840714Y46717143D01*
X27983571Y46717143D01*
X27983571Y49360000D02*
X27983571Y48502858D01*
X27983571Y48931429D02*
X26483571Y48931429D01*
X26697857Y48788572D01*
X26840714Y48645715D01*
X26912142Y48502858D01*
D10*
X54672895Y3058838D02*
X55059942Y3058838D01*
X54595485Y2826609D02*
X54866419Y3639409D01*
X55137352Y2826609D01*
X55872742Y2826609D02*
X55601809Y3213657D01*
X55408285Y2826609D02*
X55408285Y3639409D01*
X55717923Y3639409D01*
X55795333Y3600704D01*
X55834038Y3562000D01*
X55872742Y3484590D01*
X55872742Y3368476D01*
X55834038Y3291066D01*
X55795333Y3252362D01*
X55717923Y3213657D01*
X55408285Y3213657D01*
X56221085Y2826609D02*
X56221085Y3639409D01*
X56414609Y3639409D01*
X56530723Y3600704D01*
X56608133Y3523295D01*
X56646838Y3445885D01*
X56685542Y3291066D01*
X56685542Y3174952D01*
X56646838Y3020133D01*
X56608133Y2942724D01*
X56530723Y2865314D01*
X56414609Y2826609D01*
X56221085Y2826609D01*
X57033885Y3639409D02*
X57033885Y2981428D01*
X57072590Y2904019D01*
X57111295Y2865314D01*
X57188704Y2826609D01*
X57343523Y2826609D01*
X57420933Y2865314D01*
X57459638Y2904019D01*
X57498342Y2981428D01*
X57498342Y3639409D01*
X57885390Y2826609D02*
X57885390Y3639409D01*
X58272438Y2826609D02*
X58272438Y3639409D01*
X58736895Y2826609D01*
X58736895Y3639409D01*
X59278761Y3639409D02*
X59433580Y3639409D01*
X59510990Y3600704D01*
X59588400Y3523295D01*
X59627104Y3368476D01*
X59627104Y3097543D01*
X59588400Y2942724D01*
X59510990Y2865314D01*
X59433580Y2826609D01*
X59278761Y2826609D01*
X59201352Y2865314D01*
X59123942Y2942724D01*
X59085238Y3097543D01*
X59085238Y3368476D01*
X59123942Y3523295D01*
X59201352Y3600704D01*
X59278761Y3639409D01*
X55272819Y1518001D02*
X55272819Y2330801D01*
X55582457Y2330801D01*
X55659866Y2292096D01*
X55698571Y2253392D01*
X55737276Y2175982D01*
X55737276Y2059868D01*
X55698571Y1982458D01*
X55659866Y1943754D01*
X55582457Y1905049D01*
X55272819Y1905049D01*
X56240438Y2330801D02*
X56395257Y2330801D01*
X56472666Y2292096D01*
X56550076Y2214687D01*
X56588780Y2059868D01*
X56588780Y1788935D01*
X56550076Y1634116D01*
X56472666Y1556706D01*
X56395257Y1518001D01*
X56240438Y1518001D01*
X56163028Y1556706D01*
X56085619Y1634116D01*
X56046914Y1788935D01*
X56046914Y2059868D01*
X56085619Y2214687D01*
X56163028Y2292096D01*
X56240438Y2330801D01*
X56859714Y2330801D02*
X57053238Y1518001D01*
X57208057Y2098573D01*
X57362876Y1518001D01*
X57556400Y2330801D01*
X57866038Y1943754D02*
X58136971Y1943754D01*
X58253085Y1518001D02*
X57866038Y1518001D01*
X57866038Y2330801D01*
X58253085Y2330801D01*
X59065885Y1518001D02*
X58794952Y1905049D01*
X58601428Y1518001D02*
X58601428Y2330801D01*
X58911066Y2330801D01*
X58988476Y2292096D01*
X59027180Y2253392D01*
X59065885Y2175982D01*
X59065885Y2059868D01*
X59027180Y1982458D01*
X58988476Y1943754D01*
X58911066Y1905049D01*
X58601428Y1905049D01*
D13*
%TO.C,R2*%
X42378333Y33202620D02*
X42045000Y33678810D01*
X41806904Y33202620D02*
X41806904Y34202620D01*
X42187857Y34202620D01*
X42283095Y34155000D01*
X42330714Y34107381D01*
X42378333Y34012143D01*
X42378333Y33869286D01*
X42330714Y33774048D01*
X42283095Y33726429D01*
X42187857Y33678810D01*
X41806904Y33678810D01*
X42759285Y34107381D02*
X42806904Y34155000D01*
X42902142Y34202620D01*
X43140238Y34202620D01*
X43235476Y34155000D01*
X43283095Y34107381D01*
X43330714Y34012143D01*
X43330714Y33916905D01*
X43283095Y33774048D01*
X42711666Y33202620D01*
X43330714Y33202620D01*
%TO.C,MASTER-2*%
X32542352Y26852620D02*
X32542352Y27852620D01*
X32875685Y27138334D01*
X33209019Y27852620D01*
X33209019Y26852620D01*
X33637590Y27138334D02*
X34113780Y27138334D01*
X33542352Y26852620D02*
X33875685Y27852620D01*
X34209019Y26852620D01*
X34494733Y26900239D02*
X34637590Y26852620D01*
X34875685Y26852620D01*
X34970923Y26900239D01*
X35018542Y26947858D01*
X35066161Y27043096D01*
X35066161Y27138334D01*
X35018542Y27233572D01*
X34970923Y27281191D01*
X34875685Y27328810D01*
X34685209Y27376429D01*
X34589971Y27424048D01*
X34542352Y27471667D01*
X34494733Y27566905D01*
X34494733Y27662143D01*
X34542352Y27757381D01*
X34589971Y27805000D01*
X34685209Y27852620D01*
X34923304Y27852620D01*
X35066161Y27805000D01*
X35351876Y27852620D02*
X35923304Y27852620D01*
X35637590Y26852620D02*
X35637590Y27852620D01*
X36256638Y27376429D02*
X36589971Y27376429D01*
X36732828Y26852620D02*
X36256638Y26852620D01*
X36256638Y27852620D01*
X36732828Y27852620D01*
X37732828Y26852620D02*
X37399495Y27328810D01*
X37161399Y26852620D02*
X37161399Y27852620D01*
X37542352Y27852620D01*
X37637590Y27805000D01*
X37685209Y27757381D01*
X37732828Y27662143D01*
X37732828Y27519286D01*
X37685209Y27424048D01*
X37637590Y27376429D01*
X37542352Y27328810D01*
X37161399Y27328810D01*
X38161399Y27233572D02*
X38923304Y27233572D01*
X39351876Y27757381D02*
X39399495Y27805000D01*
X39494733Y27852620D01*
X39732828Y27852620D01*
X39828066Y27805000D01*
X39875685Y27757381D01*
X39923304Y27662143D01*
X39923304Y27566905D01*
X39875685Y27424048D01*
X39304257Y26852620D01*
X39923304Y26852620D01*
%TO.C,R4*%
X74763333Y38537620D02*
X74430000Y39013810D01*
X74191904Y38537620D02*
X74191904Y39537620D01*
X74572857Y39537620D01*
X74668095Y39490000D01*
X74715714Y39442381D01*
X74763333Y39347143D01*
X74763333Y39204286D01*
X74715714Y39109048D01*
X74668095Y39061429D01*
X74572857Y39013810D01*
X74191904Y39013810D01*
X75620476Y39204286D02*
X75620476Y38537620D01*
X75382380Y39585239D02*
X75144285Y38870953D01*
X75763333Y38870953D01*
%TO.C,PSU1*%
X87588263Y33195155D02*
X86588263Y33195155D01*
X86588263Y33576108D01*
X86635883Y33671346D01*
X86683502Y33718965D01*
X86778740Y33766584D01*
X86921597Y33766584D01*
X87016835Y33718965D01*
X87064454Y33671346D01*
X87112073Y33576108D01*
X87112073Y33195155D01*
X87540644Y34147536D02*
X87588263Y34290393D01*
X87588263Y34528489D01*
X87540644Y34623727D01*
X87493025Y34671346D01*
X87397787Y34718965D01*
X87302549Y34718965D01*
X87207311Y34671346D01*
X87159692Y34623727D01*
X87112073Y34528489D01*
X87064454Y34338012D01*
X87016835Y34242774D01*
X86969216Y34195155D01*
X86873978Y34147536D01*
X86778740Y34147536D01*
X86683502Y34195155D01*
X86635883Y34242774D01*
X86588263Y34338012D01*
X86588263Y34576108D01*
X86635883Y34718965D01*
X86588263Y35147536D02*
X87397787Y35147536D01*
X87493025Y35195155D01*
X87540644Y35242774D01*
X87588263Y35338012D01*
X87588263Y35528489D01*
X87540644Y35623727D01*
X87493025Y35671346D01*
X87397787Y35718965D01*
X86588263Y35718965D01*
X87588263Y36718965D02*
X87588263Y36147536D01*
X87588263Y36433250D02*
X86588263Y36433250D01*
X86731121Y36338012D01*
X86826359Y36242774D01*
X86873978Y36147536D01*
%TO.C,D3*%
X78001904Y15897620D02*
X78001904Y16897620D01*
X78240000Y16897620D01*
X78382857Y16850000D01*
X78478095Y16754762D01*
X78525714Y16659524D01*
X78573333Y16469048D01*
X78573333Y16326191D01*
X78525714Y16135715D01*
X78478095Y16040477D01*
X78382857Y15945239D01*
X78240000Y15897620D01*
X78001904Y15897620D01*
X78906666Y16897620D02*
X79525714Y16897620D01*
X79192380Y16516667D01*
X79335238Y16516667D01*
X79430476Y16469048D01*
X79478095Y16421429D01*
X79525714Y16326191D01*
X79525714Y16088096D01*
X79478095Y15992858D01*
X79430476Y15945239D01*
X79335238Y15897620D01*
X79049523Y15897620D01*
X78954285Y15945239D01*
X78906666Y15992858D01*
%TO.C,BUS3*%
X43757590Y10595239D02*
X43805209Y10738096D01*
X43852828Y10785715D01*
X43948066Y10833334D01*
X44090923Y10833334D01*
X44186161Y10785715D01*
X44233780Y10738096D01*
X44281399Y10642858D01*
X44281399Y10261905D01*
X43281399Y10261905D01*
X43281399Y10595239D01*
X43329019Y10690477D01*
X43376638Y10738096D01*
X43471876Y10785715D01*
X43567114Y10785715D01*
X43662352Y10738096D01*
X43709971Y10690477D01*
X43757590Y10595239D01*
X43757590Y10261905D01*
X43281399Y11261905D02*
X44090923Y11261905D01*
X44186161Y11309524D01*
X44233780Y11357143D01*
X44281399Y11452381D01*
X44281399Y11642858D01*
X44233780Y11738096D01*
X44186161Y11785715D01*
X44090923Y11833334D01*
X43281399Y11833334D01*
X44233780Y12261905D02*
X44281399Y12404762D01*
X44281399Y12642858D01*
X44233780Y12738096D01*
X44186161Y12785715D01*
X44090923Y12833334D01*
X43995685Y12833334D01*
X43900447Y12785715D01*
X43852828Y12738096D01*
X43805209Y12642858D01*
X43757590Y12452381D01*
X43709971Y12357143D01*
X43662352Y12309524D01*
X43567114Y12261905D01*
X43471876Y12261905D01*
X43376638Y12309524D01*
X43329019Y12357143D01*
X43281399Y12452381D01*
X43281399Y12690477D01*
X43329019Y12833334D01*
X43281399Y13166667D02*
X43281399Y13785715D01*
X43662352Y13452381D01*
X43662352Y13595239D01*
X43709971Y13690477D01*
X43757590Y13738096D01*
X43852828Y13785715D01*
X44090923Y13785715D01*
X44186161Y13738096D01*
X44233780Y13690477D01*
X44281399Y13595239D01*
X44281399Y13309524D01*
X44233780Y13214286D01*
X44186161Y13166667D01*
%TO.C,C1*%
X37933333Y50452461D02*
X37885714Y50404842D01*
X37742857Y50357223D01*
X37647619Y50357223D01*
X37504761Y50404842D01*
X37409523Y50500080D01*
X37361904Y50595318D01*
X37314285Y50785794D01*
X37314285Y50928651D01*
X37361904Y51119127D01*
X37409523Y51214365D01*
X37504761Y51309603D01*
X37647619Y51357223D01*
X37742857Y51357223D01*
X37885714Y51309603D01*
X37933333Y51261984D01*
X38885714Y50357223D02*
X38314285Y50357223D01*
X38600000Y50357223D02*
X38600000Y51357223D01*
X38504761Y51214365D01*
X38409523Y51119127D01*
X38314285Y51071508D01*
%TO.C,C3*%
X38037267Y23096461D02*
X37989648Y23048842D01*
X37846791Y23001223D01*
X37751553Y23001223D01*
X37608695Y23048842D01*
X37513457Y23144080D01*
X37465838Y23239318D01*
X37418219Y23429794D01*
X37418219Y23572651D01*
X37465838Y23763127D01*
X37513457Y23858365D01*
X37608695Y23953603D01*
X37751553Y24001223D01*
X37846791Y24001223D01*
X37989648Y23953603D01*
X38037267Y23905984D01*
X38370600Y24001223D02*
X38989648Y24001223D01*
X38656314Y23620270D01*
X38799172Y23620270D01*
X38894410Y23572651D01*
X38942029Y23525032D01*
X38989648Y23429794D01*
X38989648Y23191699D01*
X38942029Y23096461D01*
X38894410Y23048842D01*
X38799172Y23001223D01*
X38513457Y23001223D01*
X38418219Y23048842D01*
X38370600Y23096461D01*
%TO.C,R5*%
X74763333Y27107620D02*
X74430000Y27583810D01*
X74191904Y27107620D02*
X74191904Y28107620D01*
X74572857Y28107620D01*
X74668095Y28060000D01*
X74715714Y28012381D01*
X74763333Y27917143D01*
X74763333Y27774286D01*
X74715714Y27679048D01*
X74668095Y27631429D01*
X74572857Y27583810D01*
X74191904Y27583810D01*
X75668095Y28107620D02*
X75191904Y28107620D01*
X75144285Y27631429D01*
X75191904Y27679048D01*
X75287142Y27726667D01*
X75525238Y27726667D01*
X75620476Y27679048D01*
X75668095Y27631429D01*
X75715714Y27536191D01*
X75715714Y27298096D01*
X75668095Y27202858D01*
X75620476Y27155239D01*
X75525238Y27107620D01*
X75287142Y27107620D01*
X75191904Y27155239D01*
X75144285Y27202858D01*
%TO.C,MASTER-1*%
X32542352Y40187620D02*
X32542352Y41187620D01*
X32875685Y40473334D01*
X33209019Y41187620D01*
X33209019Y40187620D01*
X33637590Y40473334D02*
X34113780Y40473334D01*
X33542352Y40187620D02*
X33875685Y41187620D01*
X34209019Y40187620D01*
X34494733Y40235239D02*
X34637590Y40187620D01*
X34875685Y40187620D01*
X34970923Y40235239D01*
X35018542Y40282858D01*
X35066161Y40378096D01*
X35066161Y40473334D01*
X35018542Y40568572D01*
X34970923Y40616191D01*
X34875685Y40663810D01*
X34685209Y40711429D01*
X34589971Y40759048D01*
X34542352Y40806667D01*
X34494733Y40901905D01*
X34494733Y40997143D01*
X34542352Y41092381D01*
X34589971Y41140000D01*
X34685209Y41187620D01*
X34923304Y41187620D01*
X35066161Y41140000D01*
X35351876Y41187620D02*
X35923304Y41187620D01*
X35637590Y40187620D02*
X35637590Y41187620D01*
X36256638Y40711429D02*
X36589971Y40711429D01*
X36732828Y40187620D02*
X36256638Y40187620D01*
X36256638Y41187620D01*
X36732828Y41187620D01*
X37732828Y40187620D02*
X37399495Y40663810D01*
X37161399Y40187620D02*
X37161399Y41187620D01*
X37542352Y41187620D01*
X37637590Y41140000D01*
X37685209Y41092381D01*
X37732828Y40997143D01*
X37732828Y40854286D01*
X37685209Y40759048D01*
X37637590Y40711429D01*
X37542352Y40663810D01*
X37161399Y40663810D01*
X38161399Y40568572D02*
X38923304Y40568572D01*
X39923304Y40187620D02*
X39351876Y40187620D01*
X39637590Y40187620D02*
X39637590Y41187620D01*
X39542352Y41044762D01*
X39447114Y40949524D01*
X39351876Y40901905D01*
%TO.C,D1*%
X78001904Y38757620D02*
X78001904Y39757620D01*
X78240000Y39757620D01*
X78382857Y39710000D01*
X78478095Y39614762D01*
X78525714Y39519524D01*
X78573333Y39329048D01*
X78573333Y39186191D01*
X78525714Y38995715D01*
X78478095Y38900477D01*
X78382857Y38805239D01*
X78240000Y38757620D01*
X78001904Y38757620D01*
X79525714Y38757620D02*
X78954285Y38757620D01*
X79240000Y38757620D02*
X79240000Y39757620D01*
X79144761Y39614762D01*
X79049523Y39519524D01*
X78954285Y39471905D01*
%TO.C,D2*%
X78001904Y27327620D02*
X78001904Y28327620D01*
X78240000Y28327620D01*
X78382857Y28280000D01*
X78478095Y28184762D01*
X78525714Y28089524D01*
X78573333Y27899048D01*
X78573333Y27756191D01*
X78525714Y27565715D01*
X78478095Y27470477D01*
X78382857Y27375239D01*
X78240000Y27327620D01*
X78001904Y27327620D01*
X78954285Y28232381D02*
X79001904Y28280000D01*
X79097142Y28327620D01*
X79335238Y28327620D01*
X79430476Y28280000D01*
X79478095Y28232381D01*
X79525714Y28137143D01*
X79525714Y28041905D01*
X79478095Y27899048D01*
X78906666Y27327620D01*
X79525714Y27327620D01*
%TO.C,PSU3*%
X87553663Y10326905D02*
X86553663Y10326905D01*
X86553663Y10707858D01*
X86601283Y10803096D01*
X86648902Y10850715D01*
X86744140Y10898334D01*
X86886997Y10898334D01*
X86982235Y10850715D01*
X87029854Y10803096D01*
X87077473Y10707858D01*
X87077473Y10326905D01*
X87506044Y11279286D02*
X87553663Y11422143D01*
X87553663Y11660239D01*
X87506044Y11755477D01*
X87458425Y11803096D01*
X87363187Y11850715D01*
X87267949Y11850715D01*
X87172711Y11803096D01*
X87125092Y11755477D01*
X87077473Y11660239D01*
X87029854Y11469762D01*
X86982235Y11374524D01*
X86934616Y11326905D01*
X86839378Y11279286D01*
X86744140Y11279286D01*
X86648902Y11326905D01*
X86601283Y11374524D01*
X86553663Y11469762D01*
X86553663Y11707858D01*
X86601283Y11850715D01*
X86553663Y12279286D02*
X87363187Y12279286D01*
X87458425Y12326905D01*
X87506044Y12374524D01*
X87553663Y12469762D01*
X87553663Y12660239D01*
X87506044Y12755477D01*
X87458425Y12803096D01*
X87363187Y12850715D01*
X86553663Y12850715D01*
X86553663Y13231667D02*
X86553663Y13850715D01*
X86934616Y13517381D01*
X86934616Y13660239D01*
X86982235Y13755477D01*
X87029854Y13803096D01*
X87125092Y13850715D01*
X87363187Y13850715D01*
X87458425Y13803096D01*
X87506044Y13755477D01*
X87553663Y13660239D01*
X87553663Y13374524D01*
X87506044Y13279286D01*
X87458425Y13231667D01*
%TO.C,D4*%
X48156904Y2087620D02*
X48156904Y3087620D01*
X48395000Y3087620D01*
X48537857Y3040000D01*
X48633095Y2944762D01*
X48680714Y2849524D01*
X48728333Y2659048D01*
X48728333Y2516191D01*
X48680714Y2325715D01*
X48633095Y2230477D01*
X48537857Y2135239D01*
X48395000Y2087620D01*
X48156904Y2087620D01*
X49585476Y2754286D02*
X49585476Y2087620D01*
X49347380Y3135239D02*
X49109285Y2420953D01*
X49728333Y2420953D01*
%TO.C,PSU2*%
X87553663Y21756905D02*
X86553663Y21756905D01*
X86553663Y22137858D01*
X86601283Y22233096D01*
X86648902Y22280715D01*
X86744140Y22328334D01*
X86886997Y22328334D01*
X86982235Y22280715D01*
X87029854Y22233096D01*
X87077473Y22137858D01*
X87077473Y21756905D01*
X87506044Y22709286D02*
X87553663Y22852143D01*
X87553663Y23090239D01*
X87506044Y23185477D01*
X87458425Y23233096D01*
X87363187Y23280715D01*
X87267949Y23280715D01*
X87172711Y23233096D01*
X87125092Y23185477D01*
X87077473Y23090239D01*
X87029854Y22899762D01*
X86982235Y22804524D01*
X86934616Y22756905D01*
X86839378Y22709286D01*
X86744140Y22709286D01*
X86648902Y22756905D01*
X86601283Y22804524D01*
X86553663Y22899762D01*
X86553663Y23137858D01*
X86601283Y23280715D01*
X86553663Y23709286D02*
X87363187Y23709286D01*
X87458425Y23756905D01*
X87506044Y23804524D01*
X87553663Y23899762D01*
X87553663Y24090239D01*
X87506044Y24185477D01*
X87458425Y24233096D01*
X87363187Y24280715D01*
X86553663Y24280715D01*
X86648902Y24709286D02*
X86601283Y24756905D01*
X86553663Y24852143D01*
X86553663Y25090239D01*
X86601283Y25185477D01*
X86648902Y25233096D01*
X86744140Y25280715D01*
X86839378Y25280715D01*
X86982235Y25233096D01*
X87553663Y24661667D01*
X87553663Y25280715D01*
%TO.C,C2*%
X37947352Y37066461D02*
X37899733Y37018842D01*
X37756876Y36971223D01*
X37661638Y36971223D01*
X37518780Y37018842D01*
X37423542Y37114080D01*
X37375923Y37209318D01*
X37328304Y37399794D01*
X37328304Y37542651D01*
X37375923Y37733127D01*
X37423542Y37828365D01*
X37518780Y37923603D01*
X37661638Y37971223D01*
X37756876Y37971223D01*
X37899733Y37923603D01*
X37947352Y37875984D01*
X38328304Y37875984D02*
X38375923Y37923603D01*
X38471161Y37971223D01*
X38709257Y37971223D01*
X38804495Y37923603D01*
X38852114Y37875984D01*
X38899733Y37780746D01*
X38899733Y37685508D01*
X38852114Y37542651D01*
X38280685Y36971223D01*
X38899733Y36971223D01*
%TO.C,R6*%
X74763333Y15677620D02*
X74430000Y16153810D01*
X74191904Y15677620D02*
X74191904Y16677620D01*
X74572857Y16677620D01*
X74668095Y16630000D01*
X74715714Y16582381D01*
X74763333Y16487143D01*
X74763333Y16344286D01*
X74715714Y16249048D01*
X74668095Y16201429D01*
X74572857Y16153810D01*
X74191904Y16153810D01*
X75620476Y16677620D02*
X75430000Y16677620D01*
X75334761Y16630000D01*
X75287142Y16582381D01*
X75191904Y16439524D01*
X75144285Y16249048D01*
X75144285Y15868096D01*
X75191904Y15772858D01*
X75239523Y15725239D01*
X75334761Y15677620D01*
X75525238Y15677620D01*
X75620476Y15725239D01*
X75668095Y15772858D01*
X75715714Y15868096D01*
X75715714Y16106191D01*
X75668095Y16201429D01*
X75620476Y16249048D01*
X75525238Y16296667D01*
X75334761Y16296667D01*
X75239523Y16249048D01*
X75191904Y16201429D01*
X75144285Y16106191D01*
%TO.C,R7*%
X48728333Y4627620D02*
X48395000Y5103810D01*
X48156904Y4627620D02*
X48156904Y5627620D01*
X48537857Y5627620D01*
X48633095Y5580000D01*
X48680714Y5532381D01*
X48728333Y5437143D01*
X48728333Y5294286D01*
X48680714Y5199048D01*
X48633095Y5151429D01*
X48537857Y5103810D01*
X48156904Y5103810D01*
X49061666Y5627620D02*
X49728333Y5627620D01*
X49299761Y4627620D01*
%TO.C,F2*%
X67611666Y24836429D02*
X67278333Y24836429D01*
X67278333Y24312620D02*
X67278333Y25312620D01*
X67754523Y25312620D01*
X68087857Y25217381D02*
X68135476Y25265000D01*
X68230714Y25312620D01*
X68468809Y25312620D01*
X68564047Y25265000D01*
X68611666Y25217381D01*
X68659285Y25122143D01*
X68659285Y25026905D01*
X68611666Y24884048D01*
X68040238Y24312620D01*
X68659285Y24312620D01*
X67754523Y22772620D02*
X67278333Y22772620D01*
X67230714Y22296429D01*
X67278333Y22344048D01*
X67373571Y22391667D01*
X67611666Y22391667D01*
X67706904Y22344048D01*
X67754523Y22296429D01*
X67802142Y22201191D01*
X67802142Y21963096D01*
X67754523Y21867858D01*
X67706904Y21820239D01*
X67611666Y21772620D01*
X67373571Y21772620D01*
X67278333Y21820239D01*
X67230714Y21867858D01*
X68183095Y22058334D02*
X68659285Y22058334D01*
X68087857Y21772620D02*
X68421190Y22772620D01*
X68754523Y21772620D01*
%TO.C,BUS2*%
X43757590Y24630239D02*
X43805209Y24773096D01*
X43852828Y24820715D01*
X43948066Y24868334D01*
X44090923Y24868334D01*
X44186161Y24820715D01*
X44233780Y24773096D01*
X44281399Y24677858D01*
X44281399Y24296905D01*
X43281399Y24296905D01*
X43281399Y24630239D01*
X43329019Y24725477D01*
X43376638Y24773096D01*
X43471876Y24820715D01*
X43567114Y24820715D01*
X43662352Y24773096D01*
X43709971Y24725477D01*
X43757590Y24630239D01*
X43757590Y24296905D01*
X43281399Y25296905D02*
X44090923Y25296905D01*
X44186161Y25344524D01*
X44233780Y25392143D01*
X44281399Y25487381D01*
X44281399Y25677858D01*
X44233780Y25773096D01*
X44186161Y25820715D01*
X44090923Y25868334D01*
X43281399Y25868334D01*
X44233780Y26296905D02*
X44281399Y26439762D01*
X44281399Y26677858D01*
X44233780Y26773096D01*
X44186161Y26820715D01*
X44090923Y26868334D01*
X43995685Y26868334D01*
X43900447Y26820715D01*
X43852828Y26773096D01*
X43805209Y26677858D01*
X43757590Y26487381D01*
X43709971Y26392143D01*
X43662352Y26344524D01*
X43567114Y26296905D01*
X43471876Y26296905D01*
X43376638Y26344524D01*
X43329019Y26392143D01*
X43281399Y26487381D01*
X43281399Y26725477D01*
X43329019Y26868334D01*
X43376638Y27249286D02*
X43329019Y27296905D01*
X43281399Y27392143D01*
X43281399Y27630239D01*
X43329019Y27725477D01*
X43376638Y27773096D01*
X43471876Y27820715D01*
X43567114Y27820715D01*
X43709971Y27773096D01*
X44281399Y27201667D01*
X44281399Y27820715D01*
%TO.C,MASTER-3*%
X32542352Y12882620D02*
X32542352Y13882620D01*
X32875685Y13168334D01*
X33209019Y13882620D01*
X33209019Y12882620D01*
X33637590Y13168334D02*
X34113780Y13168334D01*
X33542352Y12882620D02*
X33875685Y13882620D01*
X34209019Y12882620D01*
X34494733Y12930239D02*
X34637590Y12882620D01*
X34875685Y12882620D01*
X34970923Y12930239D01*
X35018542Y12977858D01*
X35066161Y13073096D01*
X35066161Y13168334D01*
X35018542Y13263572D01*
X34970923Y13311191D01*
X34875685Y13358810D01*
X34685209Y13406429D01*
X34589971Y13454048D01*
X34542352Y13501667D01*
X34494733Y13596905D01*
X34494733Y13692143D01*
X34542352Y13787381D01*
X34589971Y13835000D01*
X34685209Y13882620D01*
X34923304Y13882620D01*
X35066161Y13835000D01*
X35351876Y13882620D02*
X35923304Y13882620D01*
X35637590Y12882620D02*
X35637590Y13882620D01*
X36256638Y13406429D02*
X36589971Y13406429D01*
X36732828Y12882620D02*
X36256638Y12882620D01*
X36256638Y13882620D01*
X36732828Y13882620D01*
X37732828Y12882620D02*
X37399495Y13358810D01*
X37161399Y12882620D02*
X37161399Y13882620D01*
X37542352Y13882620D01*
X37637590Y13835000D01*
X37685209Y13787381D01*
X37732828Y13692143D01*
X37732828Y13549286D01*
X37685209Y13454048D01*
X37637590Y13406429D01*
X37542352Y13358810D01*
X37161399Y13358810D01*
X38161399Y13263572D02*
X38923304Y13263572D01*
X39304257Y13882620D02*
X39923304Y13882620D01*
X39589971Y13501667D01*
X39732828Y13501667D01*
X39828066Y13454048D01*
X39875685Y13406429D01*
X39923304Y13311191D01*
X39923304Y13073096D01*
X39875685Y12977858D01*
X39828066Y12930239D01*
X39732828Y12882620D01*
X39447114Y12882620D01*
X39351876Y12930239D01*
X39304257Y12977858D01*
%TO.C,R1*%
X42378333Y46537620D02*
X42045000Y47013810D01*
X41806904Y46537620D02*
X41806904Y47537620D01*
X42187857Y47537620D01*
X42283095Y47490000D01*
X42330714Y47442381D01*
X42378333Y47347143D01*
X42378333Y47204286D01*
X42330714Y47109048D01*
X42283095Y47061429D01*
X42187857Y47013810D01*
X41806904Y47013810D01*
X43330714Y46537620D02*
X42759285Y46537620D01*
X43045000Y46537620D02*
X43045000Y47537620D01*
X42949761Y47394762D01*
X42854523Y47299524D01*
X42759285Y47251905D01*
%TO.C,F1*%
X67611666Y36266429D02*
X67278333Y36266429D01*
X67278333Y35742620D02*
X67278333Y36742620D01*
X67754523Y36742620D01*
X68659285Y35742620D02*
X68087857Y35742620D01*
X68373571Y35742620D02*
X68373571Y36742620D01*
X68278333Y36599762D01*
X68183095Y36504524D01*
X68087857Y36456905D01*
X67754523Y34202620D02*
X67278333Y34202620D01*
X67230714Y33726429D01*
X67278333Y33774048D01*
X67373571Y33821667D01*
X67611666Y33821667D01*
X67706904Y33774048D01*
X67754523Y33726429D01*
X67802142Y33631191D01*
X67802142Y33393096D01*
X67754523Y33297858D01*
X67706904Y33250239D01*
X67611666Y33202620D01*
X67373571Y33202620D01*
X67278333Y33250239D01*
X67230714Y33297858D01*
X68183095Y33488334D02*
X68659285Y33488334D01*
X68087857Y33202620D02*
X68421190Y34202620D01*
X68754523Y33202620D01*
%TO.C,F3*%
X67611666Y13406429D02*
X67278333Y13406429D01*
X67278333Y12882620D02*
X67278333Y13882620D01*
X67754523Y13882620D01*
X68040238Y13882620D02*
X68659285Y13882620D01*
X68325952Y13501667D01*
X68468809Y13501667D01*
X68564047Y13454048D01*
X68611666Y13406429D01*
X68659285Y13311191D01*
X68659285Y13073096D01*
X68611666Y12977858D01*
X68564047Y12930239D01*
X68468809Y12882620D01*
X68183095Y12882620D01*
X68087857Y12930239D01*
X68040238Y12977858D01*
X67754523Y11342620D02*
X67278333Y11342620D01*
X67230714Y10866429D01*
X67278333Y10914048D01*
X67373571Y10961667D01*
X67611666Y10961667D01*
X67706904Y10914048D01*
X67754523Y10866429D01*
X67802142Y10771191D01*
X67802142Y10533096D01*
X67754523Y10437858D01*
X67706904Y10390239D01*
X67611666Y10342620D01*
X67373571Y10342620D01*
X67278333Y10390239D01*
X67230714Y10437858D01*
X68183095Y10628334D02*
X68659285Y10628334D01*
X68087857Y10342620D02*
X68421190Y11342620D01*
X68754523Y10342620D01*
%TO.C,R3*%
X42378333Y19232620D02*
X42045000Y19708810D01*
X41806904Y19232620D02*
X41806904Y20232620D01*
X42187857Y20232620D01*
X42283095Y20185000D01*
X42330714Y20137381D01*
X42378333Y20042143D01*
X42378333Y19899286D01*
X42330714Y19804048D01*
X42283095Y19756429D01*
X42187857Y19708810D01*
X41806904Y19708810D01*
X42711666Y20232620D02*
X43330714Y20232620D01*
X42997380Y19851667D01*
X43140238Y19851667D01*
X43235476Y19804048D01*
X43283095Y19756429D01*
X43330714Y19661191D01*
X43330714Y19423096D01*
X43283095Y19327858D01*
X43235476Y19280239D01*
X43140238Y19232620D01*
X42854523Y19232620D01*
X42759285Y19280239D01*
X42711666Y19327858D01*
%TO.C,BUS1*%
X43757590Y37965239D02*
X43805209Y38108096D01*
X43852828Y38155715D01*
X43948066Y38203334D01*
X44090923Y38203334D01*
X44186161Y38155715D01*
X44233780Y38108096D01*
X44281399Y38012858D01*
X44281399Y37631905D01*
X43281399Y37631905D01*
X43281399Y37965239D01*
X43329019Y38060477D01*
X43376638Y38108096D01*
X43471876Y38155715D01*
X43567114Y38155715D01*
X43662352Y38108096D01*
X43709971Y38060477D01*
X43757590Y37965239D01*
X43757590Y37631905D01*
X43281399Y38631905D02*
X44090923Y38631905D01*
X44186161Y38679524D01*
X44233780Y38727143D01*
X44281399Y38822381D01*
X44281399Y39012858D01*
X44233780Y39108096D01*
X44186161Y39155715D01*
X44090923Y39203334D01*
X43281399Y39203334D01*
X44233780Y39631905D02*
X44281399Y39774762D01*
X44281399Y40012858D01*
X44233780Y40108096D01*
X44186161Y40155715D01*
X44090923Y40203334D01*
X43995685Y40203334D01*
X43900447Y40155715D01*
X43852828Y40108096D01*
X43805209Y40012858D01*
X43757590Y39822381D01*
X43709971Y39727143D01*
X43662352Y39679524D01*
X43567114Y39631905D01*
X43471876Y39631905D01*
X43376638Y39679524D01*
X43329019Y39727143D01*
X43281399Y39822381D01*
X43281399Y40060477D01*
X43329019Y40203334D01*
X44281399Y41155715D02*
X44281399Y40584286D01*
X44281399Y40870000D02*
X43281399Y40870000D01*
X43424257Y40774762D01*
X43519495Y40679524D01*
X43567114Y40584286D01*
%TO.C,J2*%
X42842380Y50466667D02*
X43556666Y50466667D01*
X43699523Y50419048D01*
X43794761Y50323810D01*
X43842380Y50180953D01*
X43842380Y50085715D01*
X42937619Y50895239D02*
X42890000Y50942858D01*
X42842380Y51038096D01*
X42842380Y51276191D01*
X42890000Y51371429D01*
X42937619Y51419048D01*
X43032857Y51466667D01*
X43128095Y51466667D01*
X43270952Y51419048D01*
X43842380Y50847620D01*
X43842380Y51466667D01*
%TO.C,J3*%
X65702380Y50466667D02*
X66416666Y50466667D01*
X66559523Y50419048D01*
X66654761Y50323810D01*
X66702380Y50180953D01*
X66702380Y50085715D01*
X65702380Y50847620D02*
X65702380Y51466667D01*
X66083333Y51133334D01*
X66083333Y51276191D01*
X66130952Y51371429D01*
X66178571Y51419048D01*
X66273809Y51466667D01*
X66511904Y51466667D01*
X66607142Y51419048D01*
X66654761Y51371429D01*
X66702380Y51276191D01*
X66702380Y50990477D01*
X66654761Y50895239D01*
X66607142Y50847620D01*
D14*
%TO.C,R2*%
X43294019Y31342064D02*
X43294019Y30887936D01*
X41824019Y31342064D02*
X41824019Y30887936D01*
D15*
%TO.C,MASTER-2*%
X37709019Y33615000D02*
X36935308Y33615000D01*
X38114023Y28615000D02*
X38114023Y28706415D01*
X34304015Y33615000D02*
X34304015Y33523585D01*
X37709019Y28615000D02*
X34709019Y28615000D01*
X34304015Y28615000D02*
X34304015Y28706415D01*
X34709019Y33615000D02*
X35482451Y33615000D01*
X37709019Y33615000D02*
X38114023Y33615000D01*
X34709019Y33615000D02*
X34304015Y33615000D01*
X38114023Y33615000D02*
X38114023Y33523585D01*
X34709019Y28615000D02*
X34304015Y28615000D01*
X37709019Y28615000D02*
X38114023Y28615000D01*
X36935308Y33610097D02*
G75*
G03*
X35482451Y33615000I-726441J-1219D01*
G01*
D12*
X33692128Y33655005D02*
G75*
G03*
X33692128Y33655005I-150114J0D01*
G01*
D16*
X33238991Y33535117D02*
G75*
G03*
X33238991Y33535117I-29972J0D01*
G01*
D14*
%TO.C,R4*%
X75157064Y41375000D02*
X74702936Y41375000D01*
X75157064Y39905000D02*
X74702936Y39905000D01*
D15*
%TO.C,PSU1*%
X99032250Y39330507D02*
X100232403Y39330507D01*
X101033266Y34333301D02*
X99233419Y34333301D01*
X100233419Y30533199D02*
X101433317Y31733098D01*
X99033266Y30133148D02*
X99033266Y30533199D01*
X93233419Y38433377D02*
X91533393Y38433377D01*
X101433317Y31733098D02*
X101433317Y34933250D01*
X91463289Y30103176D02*
X91463289Y32653672D01*
X91463289Y34215622D02*
X91463289Y35653418D01*
X99733292Y34333301D02*
X99733292Y35533199D01*
X91533393Y31333301D02*
X93233419Y31333301D01*
X99033266Y30103176D02*
X91463289Y30103176D01*
X100232403Y39330507D02*
X101432301Y38130608D01*
X99032250Y39730558D02*
X99032250Y39330507D01*
X91463289Y39763324D02*
X99033266Y39763324D01*
X99233419Y34333301D02*
X99233419Y35533199D01*
X99033266Y30533199D02*
X100233419Y30533199D01*
X93233419Y31333301D02*
X93233419Y38433377D01*
X99233419Y35533199D02*
X101033266Y35533199D01*
X101033266Y35533199D02*
X101033266Y34333301D01*
X91463289Y37215368D02*
X91463289Y39763324D01*
X101432301Y38130608D02*
X101432301Y34930456D01*
D14*
%TO.C,D3*%
X80225000Y17045000D02*
X80225000Y18515000D01*
X80225000Y18515000D02*
X77940000Y18515000D01*
X77940000Y17045000D02*
X80225000Y17045000D01*
D15*
%TO.C,BUS3*%
X60555013Y16450000D02*
X44854987Y16450000D01*
X51705000Y7550000D02*
X51705000Y8550000D01*
X46704975Y8550000D02*
X58705025Y8550000D01*
X51705000Y17849975D02*
X53705000Y17850000D01*
X44854987Y16450000D02*
X44854987Y7550000D01*
X54705000Y7550000D02*
X54705000Y8550000D01*
X53705000Y7550000D02*
X54705000Y7550000D01*
X51705000Y16450000D02*
X51705000Y17850000D01*
X60555013Y7550000D02*
X60555013Y16450000D01*
X53705000Y8550000D02*
X53705000Y7550000D01*
X50705000Y7550000D02*
X51705000Y7550000D01*
X46704975Y8550000D02*
X46704975Y7550000D01*
X53705000Y17849975D02*
X53705000Y16450000D01*
X46704975Y7550000D02*
X44854987Y7550000D01*
X50705000Y8550000D02*
X50705000Y7550000D01*
X58705025Y8550000D02*
X58705025Y7550000D01*
X58705025Y7550000D02*
X60555013Y7550000D01*
D16*
X61165732Y7423000D02*
G75*
G03*
X61165732Y7423000I-29998J0D01*
G01*
D17*
%TO.C,C1*%
X37873787Y47812397D02*
X37083693Y47812397D01*
X39116307Y48809603D02*
X38326213Y48809603D01*
X36931293Y47964797D02*
X36931293Y48657203D01*
X38326213Y47812397D02*
X39116307Y47812397D01*
X37083693Y48809603D02*
X37873787Y48809603D01*
X39268707Y47964797D02*
X39268707Y48657203D01*
X39268707Y47964923D02*
G75*
G03*
X39116307Y47812397I3J-152403D01*
G01*
X36931290Y47964800D02*
G75*
G03*
X37083693Y47812397I829600310J829447900D01*
G01*
D16*
X37629997Y48060987D02*
G75*
G03*
X37629997Y48060987I-29997J0D01*
G01*
D17*
%TO.C,C3*%
X38430147Y20456397D02*
X39220241Y20456397D01*
X37187627Y21453603D02*
X37977721Y21453603D01*
X37035227Y20608797D02*
X37035227Y21301203D01*
X39220241Y21453603D02*
X38430147Y21453603D01*
X37977721Y20456397D02*
X37187627Y20456397D01*
X39372641Y20608797D02*
X39372641Y21301203D01*
X39372641Y20608923D02*
G75*
G03*
X39220241Y20456397I3J-152403D01*
G01*
X37035224Y20608800D02*
G75*
G03*
X37187627Y20456397I829600310J829447900D01*
G01*
D16*
X37733931Y20704987D02*
G75*
G03*
X37733931Y20704987I-29997J0D01*
G01*
D14*
%TO.C,R5*%
X75157064Y28475000D02*
X74702936Y28475000D01*
X75157064Y29945000D02*
X74702936Y29945000D01*
D15*
%TO.C,MASTER-1*%
X34709019Y47001000D02*
X35482451Y47001000D01*
X38114023Y47001000D02*
X38114023Y46909585D01*
X37709019Y47001000D02*
X36935308Y47001000D01*
X38114023Y42001000D02*
X38114023Y42092415D01*
X34709019Y42001000D02*
X34304015Y42001000D01*
X34304015Y42001000D02*
X34304015Y42092415D01*
X37709019Y42001000D02*
X34709019Y42001000D01*
X34709019Y47001000D02*
X34304015Y47001000D01*
X34304015Y47001000D02*
X34304015Y46909585D01*
X37709019Y42001000D02*
X38114023Y42001000D01*
X37709019Y47001000D02*
X38114023Y47001000D01*
X36935308Y46996097D02*
G75*
G03*
X35482451Y47001000I-726441J-1219D01*
G01*
D12*
X33692128Y47041005D02*
G75*
G03*
X33692128Y47041005I-150114J0D01*
G01*
D16*
X33238991Y46921117D02*
G75*
G03*
X33238991Y46921117I-29972J0D01*
G01*
D14*
%TO.C,D1*%
X77940000Y39905000D02*
X80225000Y39905000D01*
X80225000Y39905000D02*
X80225000Y41375000D01*
X80225000Y41375000D02*
X77940000Y41375000D01*
%TO.C,D2*%
X80225000Y28475000D02*
X80225000Y29945000D01*
X80225000Y29945000D02*
X77940000Y29945000D01*
X77940000Y28475000D02*
X80225000Y28475000D01*
D15*
%TO.C,PSU3*%
X100197803Y16462257D02*
X101397701Y15262358D01*
X100998666Y12664949D02*
X100998666Y11465051D01*
X99198819Y11465051D02*
X99198819Y12664949D01*
X93198819Y8465051D02*
X93198819Y15565127D01*
X91428689Y11347372D02*
X91428689Y12785168D01*
X98998666Y7264898D02*
X98998666Y7664949D01*
X98998666Y7234926D02*
X91428689Y7234926D01*
X93198819Y15565127D02*
X91498793Y15565127D01*
X100998666Y11465051D02*
X99198819Y11465051D01*
X98997650Y16862308D02*
X98997650Y16462257D01*
X91428689Y7234926D02*
X91428689Y9785422D01*
X98998666Y7664949D02*
X100198819Y7664949D01*
X91428689Y16895074D02*
X98998666Y16895074D01*
X100198819Y7664949D02*
X101398717Y8864848D01*
X98997650Y16462257D02*
X100197803Y16462257D01*
X91498793Y8465051D02*
X93198819Y8465051D01*
X101398717Y8864848D02*
X101398717Y12065000D01*
X99198819Y12664949D02*
X100998666Y12664949D01*
X99698692Y11465051D02*
X99698692Y12664949D01*
X91428689Y14347118D02*
X91428689Y16895074D01*
X101397701Y15262358D02*
X101397701Y12062206D01*
D14*
%TO.C,D4*%
X50585000Y1805000D02*
X52870000Y1805000D01*
X50585000Y3275000D02*
X50585000Y1805000D01*
X52870000Y3275000D02*
X50585000Y3275000D01*
D15*
%TO.C,PSU2*%
X101398717Y20294848D02*
X101398717Y23495000D01*
X99198819Y22895051D02*
X99198819Y24094949D01*
X91428689Y25777118D02*
X91428689Y28325074D01*
X101397701Y26692358D02*
X101397701Y23492206D01*
X100198819Y19094949D02*
X101398717Y20294848D01*
X99198819Y24094949D02*
X100998666Y24094949D01*
X93198819Y19895051D02*
X93198819Y26995127D01*
X93198819Y26995127D02*
X91498793Y26995127D01*
X98997650Y27892257D02*
X100197803Y27892257D01*
X98998666Y18664926D02*
X91428689Y18664926D01*
X98997650Y28292308D02*
X98997650Y27892257D01*
X98998666Y18694898D02*
X98998666Y19094949D01*
X98998666Y19094949D02*
X100198819Y19094949D01*
X100197803Y27892257D02*
X101397701Y26692358D01*
X99698692Y22895051D02*
X99698692Y24094949D01*
X100998666Y22895051D02*
X99198819Y22895051D01*
X100998666Y24094949D02*
X100998666Y22895051D01*
X91428689Y28325074D02*
X98998666Y28325074D01*
X91428689Y18664926D02*
X91428689Y21215422D01*
X91498793Y19895051D02*
X93198819Y19895051D01*
X91428689Y22777372D02*
X91428689Y24215168D01*
D17*
%TO.C,C2*%
X39130326Y35423603D02*
X38340232Y35423603D01*
X39282726Y34578797D02*
X39282726Y35271203D01*
X38340232Y34426397D02*
X39130326Y34426397D01*
X36945312Y34578797D02*
X36945312Y35271203D01*
X37097712Y35423603D02*
X37887806Y35423603D01*
X37887806Y34426397D02*
X37097712Y34426397D01*
X36945309Y34578800D02*
G75*
G03*
X37097712Y34426397I829600310J829447900D01*
G01*
X39282726Y34578923D02*
G75*
G03*
X39130326Y34426397I3J-152403D01*
G01*
D16*
X37644016Y34674987D02*
G75*
G03*
X37644016Y34674987I-29997J0D01*
G01*
D14*
%TO.C,R6*%
X75157064Y17045000D02*
X74702936Y17045000D01*
X75157064Y18515000D02*
X74702936Y18515000D01*
%TO.C,R7*%
X52297064Y5815000D02*
X51842936Y5815000D01*
X52297064Y4345000D02*
X51842936Y4345000D01*
D18*
%TO.C,F2*%
X69485000Y21120000D02*
X84185000Y21120000D01*
X84185000Y25055000D02*
X84185000Y25870000D01*
X84185000Y25870000D02*
X69485000Y25870000D01*
X84185000Y21120000D02*
X84185000Y21935000D01*
X69485000Y21935000D02*
X69485000Y21120000D01*
X69485000Y25870000D02*
X69485000Y25055000D01*
D19*
X84835000Y21695000D02*
G75*
G03*
X84835000Y21695000I-100000J0D01*
G01*
D15*
%TO.C,BUS2*%
X53705000Y31819975D02*
X53705000Y30420000D01*
X58705025Y22520000D02*
X58705025Y21520000D01*
X50705000Y21520000D02*
X51705000Y21520000D01*
X50705000Y22520000D02*
X50705000Y21520000D01*
X46704975Y22520000D02*
X58705025Y22520000D01*
X51705000Y21520000D02*
X51705000Y22520000D01*
X54705000Y21520000D02*
X54705000Y22520000D01*
X46704975Y21520000D02*
X44854987Y21520000D01*
X53705000Y21520000D02*
X54705000Y21520000D01*
X60555013Y21520000D02*
X60555013Y30420000D01*
X51705000Y31819975D02*
X53705000Y31820000D01*
X44854987Y30420000D02*
X44854987Y21520000D01*
X51705000Y30420000D02*
X51705000Y31820000D01*
X60555013Y30420000D02*
X44854987Y30420000D01*
X46704975Y22520000D02*
X46704975Y21520000D01*
X53705000Y22520000D02*
X53705000Y21520000D01*
X58705025Y21520000D02*
X60555013Y21520000D01*
D16*
X61165732Y21393000D02*
G75*
G03*
X61165732Y21393000I-29998J0D01*
G01*
D15*
%TO.C,MASTER-3*%
X37709019Y14645000D02*
X38114023Y14645000D01*
X37709019Y19645000D02*
X38114023Y19645000D01*
X34304015Y14645000D02*
X34304015Y14736415D01*
X34709019Y19645000D02*
X35482451Y19645000D01*
X37709019Y19645000D02*
X36935308Y19645000D01*
X37709019Y14645000D02*
X34709019Y14645000D01*
X34709019Y19645000D02*
X34304015Y19645000D01*
X34709019Y14645000D02*
X34304015Y14645000D01*
X38114023Y19645000D02*
X38114023Y19553585D01*
X38114023Y14645000D02*
X38114023Y14736415D01*
X34304015Y19645000D02*
X34304015Y19553585D01*
X36935308Y19640097D02*
G75*
G03*
X35482451Y19645000I-726441J-1219D01*
G01*
D16*
X33238991Y19565117D02*
G75*
G03*
X33238991Y19565117I-29972J0D01*
G01*
D12*
X33692128Y19685005D02*
G75*
G03*
X33692128Y19685005I-150114J0D01*
G01*
D14*
%TO.C,R1*%
X41824019Y44677064D02*
X41824019Y44222936D01*
X43294019Y44677064D02*
X43294019Y44222936D01*
D18*
%TO.C,F1*%
X69485000Y32550000D02*
X84185000Y32550000D01*
X69485000Y33365000D02*
X69485000Y32550000D01*
X84185000Y32550000D02*
X84185000Y33365000D01*
X84185000Y37300000D02*
X69485000Y37300000D01*
X84185000Y36485000D02*
X84185000Y37300000D01*
X69485000Y37300000D02*
X69485000Y36485000D01*
D19*
X84835000Y33125000D02*
G75*
G03*
X84835000Y33125000I-100000J0D01*
G01*
D18*
%TO.C,F3*%
X84185000Y14440000D02*
X69485000Y14440000D01*
X84185000Y13625000D02*
X84185000Y14440000D01*
X84185000Y9690000D02*
X84185000Y10505000D01*
X69485000Y9690000D02*
X84185000Y9690000D01*
X69485000Y10505000D02*
X69485000Y9690000D01*
X69485000Y14440000D02*
X69485000Y13625000D01*
D19*
X84835000Y10265000D02*
G75*
G03*
X84835000Y10265000I-100000J0D01*
G01*
D14*
%TO.C,R3*%
X41824019Y17372064D02*
X41824019Y16917936D01*
X43294019Y17372064D02*
X43294019Y16917936D01*
D15*
%TO.C,BUS1*%
X53705000Y34855000D02*
X54705000Y34855000D01*
X51705000Y34855000D02*
X51705000Y35855000D01*
X53705000Y45154975D02*
X53705000Y43755000D01*
X46704975Y35855000D02*
X58705025Y35855000D01*
X54705000Y34855000D02*
X54705000Y35855000D01*
X58705025Y34855000D02*
X60555013Y34855000D01*
X60555013Y34855000D02*
X60555013Y43755000D01*
X50705000Y34855000D02*
X51705000Y34855000D01*
X46704975Y34855000D02*
X44854987Y34855000D01*
X60555013Y43755000D02*
X44854987Y43755000D01*
X50705000Y35855000D02*
X50705000Y34855000D01*
X51705000Y45154975D02*
X53705000Y45155000D01*
X44854987Y43755000D02*
X44854987Y34855000D01*
X46704975Y35855000D02*
X46704975Y34855000D01*
X51705000Y43755000D02*
X51705000Y45155000D01*
X58705025Y35855000D02*
X58705025Y34855000D01*
X53705000Y35855000D02*
X53705000Y34855000D01*
D16*
X61165732Y34728000D02*
G75*
G03*
X61165732Y34728000I-29998J0D01*
G01*
%TD*%
M02*
