M48
INCH
T1C0.0100
T2C0.0160
T3C0.0394
T4C0.0512
T5C0.0650
%
G90
G05
T1
X1.225Y1.875
X1.275Y1.35
X1.275Y0.8
X1.375Y1.875
X1.375Y1.35
X1.375Y0.8
X1.7144Y1.133
X1.7153Y1.0993
X1.725Y1.65
X1.725Y0.575
X1.75Y1.275
X1.75Y0.725
X1.775Y1.2563
X1.8Y1.7813
X1.85Y1.7813
X1.85Y1.7
X1.85Y1.2563
X1.85Y1.175
X2.1Y1.825
X2.2Y1.85
X2.275Y1.35
X2.275Y0.825
X2.3Y1.325
X2.325Y1.3
X2.425Y1.725
X2.425Y1.125
X2.45Y1.65
X2.475Y1.625
X2.5Y1.3
X2.525Y1.65
X2.7Y1.8
X2.8Y1.8
X2.9Y1.8
X3.0Y1.8
X3.1Y1.8
T2
X1.4238Y1.375
X1.4238Y0.825
X1.425Y1.85
X1.4256Y1.902
X1.45Y1.675
X1.45Y1.175
X1.45Y0.6
X1.475Y1.425
X1.475Y0.875
X1.525Y1.625
X1.6Y1.175
X1.625Y0.6
T3
X1.1Y0.1
X1.2Y0.1
X1.3Y0.1
X1.4Y0.1
X1.5Y0.1
X1.6Y0.1
X1.7Y0.1
X1.8Y2.0
X1.8Y0.1
X1.9Y2.0
X2.0Y2.0
X2.1Y2.0
X2.2Y2.0
X2.3Y2.0
X2.4Y2.0
X2.5Y2.0
X2.7Y2.0
X2.8Y2.0
X2.9Y2.0
X3.0Y2.0
X3.1Y2.0
X3.2Y2.0
X3.3Y2.0
X3.4Y2.0
X3.5079Y0.9841
X3.5079Y0.866
X3.5079Y0.5341
X3.5079Y0.416
X3.5093Y1.4344
X3.5093Y1.3163
X3.626Y0.9841
X3.626Y0.866
X3.626Y0.5341
X3.626Y0.416
X3.6274Y1.4344
X3.6274Y1.3163
T4
X1.8978Y1.5888
X1.8978Y1.4707
X1.8978Y1.0638
X1.8978Y0.9457
X1.8978Y0.5138
X1.8978Y0.3957
X2.0159Y1.5888
X2.0159Y1.4707
X2.0159Y1.0638
X2.0159Y0.9457
X2.0159Y0.5138
X2.0159Y0.3957
X2.1341Y1.5888
X2.1341Y1.4707
X2.1341Y1.0638
X2.1341Y0.9457
X2.1341Y0.5138
X2.1341Y0.3957
X2.2522Y1.5888
X2.2522Y1.4707
X2.2522Y1.0638
X2.2522Y0.9457
X2.2522Y0.5138
X2.2522Y0.3957
T5
X2.7929Y1.375
X2.7929Y0.925
X2.7929Y0.475
X2.937Y1.375
X2.937Y0.925
X2.937Y0.475
X3.113Y1.375
X3.113Y0.925
X3.113Y0.475
X3.2571Y1.375
X3.2571Y0.925
X3.2571Y0.475
T0
M30
