%TF.GenerationSoftware,KiCad,Pcbnew,(6.0.7)*%
%TF.CreationDate,2022-08-17T13:42:15+03:00*%
%TF.ProjectId,Master Shield,4d617374-6572-4205-9368-69656c642e6b,1*%
%TF.SameCoordinates,Original*%
%TF.FileFunction,Soldermask,Top*%
%TF.FilePolarity,Negative*%
%FSLAX46Y46*%
G04 Gerber Fmt 4.6, Leading zero omitted, Abs format (unit mm)*
G04 Created by KiCad (PCBNEW (6.0.7)) date 2022-08-17 13:42:15*
%MOMM*%
%LPD*%
G01*
G04 APERTURE LIST*
G04 Aperture macros list*
%AMRoundRect*
0 Rectangle with rounded corners*
0 $1 Rounding radius*
0 $2 $3 $4 $5 $6 $7 $8 $9 X,Y pos of 4 corners*
0 Add a 4 corners polygon primitive as box body*
4,1,4,$2,$3,$4,$5,$6,$7,$8,$9,$2,$3,0*
0 Add four circle primitives for the rounded corners*
1,1,$1+$1,$2,$3*
1,1,$1+$1,$4,$5*
1,1,$1+$1,$6,$7*
1,1,$1+$1,$8,$9*
0 Add four rect primitives between the rounded corners*
20,1,$1+$1,$2,$3,$4,$5,0*
20,1,$1+$1,$4,$5,$6,$7,0*
20,1,$1+$1,$6,$7,$8,$9,0*
20,1,$1+$1,$8,$9,$2,$3,0*%
G04 Aperture macros list end*
%ADD10C,3.200000*%
%ADD11RoundRect,0.250000X-0.450000X0.262500X-0.450000X-0.262500X0.450000X-0.262500X0.450000X0.262500X0*%
%ADD12O,1.950216X0.568402*%
%ADD13RoundRect,0.250000X0.262500X0.450000X-0.262500X0.450000X-0.262500X-0.450000X0.262500X-0.450000X0*%
%ADD14C,3.099822*%
%ADD15C,1.600000*%
%ADD16RoundRect,0.218750X0.218750X0.256250X-0.218750X0.256250X-0.218750X-0.256250X0.218750X-0.256250X0*%
%ADD17C,1.150013*%
%ADD18R,2.000000X2.000000*%
%ADD19C,2.000000*%
%ADD20R,0.790094X0.540005*%
%ADD21RoundRect,0.218750X-0.218750X-0.256250X0.218750X-0.256250X0.218750X0.256250X-0.218750X0.256250X0*%
%ADD22C,2.480000*%
%ADD23R,2.480000X2.480000*%
%ADD24R,1.700000X1.700000*%
%ADD25O,1.700000X1.700000*%
G04 APERTURE END LIST*
D10*
%TO.C,MH6*%
X96520000Y2540000D03*
%TD*%
D11*
%TO.C,R2*%
X42559019Y32027500D03*
X42559019Y30202500D03*
%TD*%
D12*
%TO.C,MASTER-2*%
X33503914Y33020004D03*
X33503914Y31750001D03*
X33503914Y30479999D03*
X33503914Y29209996D03*
X38914124Y29209996D03*
X38914124Y30479999D03*
X38914124Y31750001D03*
X38914124Y33020004D03*
%TD*%
D13*
%TO.C,R4*%
X75842500Y40640000D03*
X74017500Y40640000D03*
%TD*%
D14*
%TO.C,PSU1*%
X96455771Y34933250D03*
D15*
X92135629Y36434393D03*
X92135629Y33434647D03*
X89135883Y36434393D03*
X89135883Y33434647D03*
%TD*%
D16*
%TO.C,D3*%
X79527500Y17780000D03*
X77952500Y17780000D03*
%TD*%
D17*
%TO.C,BUS3*%
X45204873Y14000089D03*
X60205127Y14000089D03*
D18*
X57205127Y10049873D03*
D19*
X54205127Y10049873D03*
X51205127Y10049873D03*
X48205127Y10049873D03*
X57205127Y13049873D03*
X54205127Y13049873D03*
X51205127Y13049873D03*
X48205127Y13049873D03*
%TD*%
D20*
%TO.C,C1*%
X37554915Y48311000D03*
X38645085Y48311000D03*
%TD*%
%TO.C,C3*%
X37658849Y20955000D03*
X38749019Y20955000D03*
%TD*%
D13*
%TO.C,R5*%
X75842500Y29210000D03*
X74017500Y29210000D03*
%TD*%
D12*
%TO.C,MASTER-1*%
X33503914Y46406004D03*
X33503914Y45136001D03*
X33503914Y43865999D03*
X33503914Y42595996D03*
X38914124Y42595996D03*
X38914124Y43865999D03*
X38914124Y45136001D03*
X38914124Y46406004D03*
%TD*%
D16*
%TO.C,D1*%
X79527500Y40640000D03*
X77952500Y40640000D03*
%TD*%
%TO.C,D2*%
X79527500Y29210000D03*
X77952500Y29210000D03*
%TD*%
D14*
%TO.C,PSU3*%
X96421171Y12065000D03*
D15*
X92101029Y13566143D03*
X92101029Y10566397D03*
X89101283Y13566143D03*
X89101283Y10566397D03*
%TD*%
D21*
%TO.C,D4*%
X51282500Y2540000D03*
X52857500Y2540000D03*
%TD*%
D14*
%TO.C,PSU2*%
X96421171Y23495000D03*
D15*
X92101029Y24996143D03*
X92101029Y21996397D03*
X89101283Y24996143D03*
X89101283Y21996397D03*
%TD*%
D20*
%TO.C,C2*%
X37568934Y34925000D03*
X38659104Y34925000D03*
%TD*%
D13*
%TO.C,R6*%
X75842500Y17780000D03*
X74017500Y17780000D03*
%TD*%
%TO.C,R7*%
X52982500Y5080000D03*
X51157500Y5080000D03*
%TD*%
D22*
%TO.C,F2*%
X79070000Y23495000D03*
D23*
X82730000Y23495000D03*
D22*
X74600000Y23495000D03*
X70940000Y23495000D03*
%TD*%
D17*
%TO.C,BUS2*%
X60205127Y27970089D03*
X45204873Y27970089D03*
D18*
X57205127Y24019873D03*
D19*
X54205127Y24019873D03*
X51205127Y24019873D03*
X48205127Y24019873D03*
X57205127Y27019873D03*
X54205127Y27019873D03*
X51205127Y27019873D03*
X48205127Y27019873D03*
%TD*%
D12*
%TO.C,MASTER-3*%
X33503914Y19050004D03*
X33503914Y17780001D03*
X33503914Y16509999D03*
X33503914Y15239996D03*
X38914124Y15239996D03*
X38914124Y16509999D03*
X38914124Y17780001D03*
X38914124Y19050004D03*
%TD*%
D11*
%TO.C,R1*%
X42559019Y45362500D03*
X42559019Y43537500D03*
%TD*%
D10*
%TO.C,MH4*%
X66040000Y7620000D03*
%TD*%
D23*
%TO.C,F1*%
X82730000Y34925000D03*
D22*
X79070000Y34925000D03*
X74600000Y34925000D03*
X70940000Y34925000D03*
%TD*%
D23*
%TO.C,F3*%
X82730000Y12065000D03*
D22*
X79070000Y12065000D03*
X70940000Y12065000D03*
X74600000Y12065000D03*
%TD*%
D10*
%TO.C,MH5*%
X90170000Y50800000D03*
%TD*%
D11*
%TO.C,R3*%
X42559019Y18057500D03*
X42559019Y16232500D03*
%TD*%
D17*
%TO.C,BUS1*%
X60205127Y41305089D03*
X45204873Y41305089D03*
D18*
X57205127Y37354873D03*
D19*
X54205127Y37354873D03*
X51205127Y37354873D03*
X48205127Y37354873D03*
X57205127Y40354873D03*
X54205127Y40354873D03*
X51205127Y40354873D03*
X48205127Y40354873D03*
%TD*%
D24*
%TO.C,J1*%
X27940000Y2540000D03*
D25*
X30480000Y2540000D03*
X33020000Y2540000D03*
X35560000Y2540000D03*
X38100000Y2540000D03*
X40640000Y2540000D03*
X43180000Y2540000D03*
X45720000Y2540000D03*
%TD*%
D24*
%TO.C,J2*%
X45720000Y50800000D03*
D25*
X48260000Y50800000D03*
X50800000Y50800000D03*
X53340000Y50800000D03*
X55880000Y50800000D03*
X58420000Y50800000D03*
X60960000Y50800000D03*
X63500000Y50800000D03*
%TD*%
D24*
%TO.C,J3*%
X68580000Y50800000D03*
D25*
X71120000Y50800000D03*
X73660000Y50800000D03*
X76200000Y50800000D03*
X78740000Y50800000D03*
X81280000Y50800000D03*
X83820000Y50800000D03*
X86360000Y50800000D03*
%TD*%
M02*
