<?xml version="1.0" encoding="UTF-8" standalone="no"?>
<svg
   width="841.889761pt"
   height="595.275586pt"
   viewBox="0 0 841.889761 595.275586"
   version="1.1"
   id="svg8668"
   sodipodi:docname="Canopy Panel Lower.svg"
   inkscape:version="1.2.1 (9c6d41e, 2022-07-14)"
   xmlns:inkscape="http://www.inkscape.org/namespaces/inkscape"
   xmlns:sodipodi="http://sodipodi.sourceforge.net/DTD/sodipodi-0.dtd"
   xmlns="http://www.w3.org/2000/svg"
   xmlns:svg="http://www.w3.org/2000/svg">
  <defs
     id="defs8672" />
  <sodipodi:namedview
     id="namedview8670"
     pagecolor="#505050"
     bordercolor="#eeeeee"
     borderopacity="1"
     inkscape:showpageshadow="0"
     inkscape:pageopacity="0"
     inkscape:pagecheckerboard="0"
     inkscape:deskcolor="#505050"
     inkscape:document-units="pt"
     showgrid="false"
     inkscape:zoom="0.53473583"
     inkscape:cx="528.29824"
     inkscape:cy="451.62487"
     inkscape:window-width="1280"
     inkscape:window-height="747"
     inkscape:window-x="0"
     inkscape:window-y="25"
     inkscape:window-maximized="0"
     inkscape:current-layer="svg8668" />
  <g
     id="g466"
     transform="translate(0,-2.2536909)">
    <path
       fill="none"
       stroke-width="1.417203"
       stroke-linecap="round"
       stroke-linejoin="round"
       stroke="#000000"
       stroke-opacity="1"
       stroke-miterlimit="10"
       d="m -821.72266,16.78125 h 402.64844 l 0.22656,0.01172 0.24219,0.01563 0.23047,0.02734 0.23828,0.04297 0.45703,0.101563 0.44141,0.140625 0.42578,0.171875 0.41406,0.210937 0.39844,0.230469 0.37109,0.253906 0.35547,0.300781 0.32422,0.3125 0.28516,0.328126 0.26953,0.355468 0.12891,0.183594 0.11328,0.199219 0.10156,0.199219 0.0977,0.199218 0.0859,0.199219 0.0859,0.214844 0.0586,0.210937 0.0703,0.214844 0.043,0.214844 0.043,0.226562 0.0117,0.226563 0.0156,0.226562 0.0156,0.230469 -0.0156,0.226562 -0.0156,0.128907 V 22.5 l -0.0117,0.05859 -0.0156,0.09766 v 0.128906 l -0.0156,0.140625 -0.0273,0.171875 -0.0156,0.199219 -0.0274,0.226563 -0.0117,0.242187 -0.0312,0.285156 -0.0273,0.285157 -0.043,0.328124 -0.0273,0.339844 -0.043,0.371094 -0.043,0.398438 -0.0273,0.410156 -0.0586,0.429687 -0.0859,0.9375 -0.0547,0.496094 -0.043,0.527344 -0.0586,0.542969 -0.0547,0.554687 -0.0586,0.582031 -0.0703,0.597656 -0.0586,0.625 -0.0547,0.628907 -0.0742,0.667969 -0.0703,0.667968 -0.0703,0.683594 -0.0703,0.710938 -0.0703,0.726562 -0.0742,0.738281 -0.0703,0.753907 -0.0859,0.769531 -0.0703,0.796875 -0.0859,0.796875 -0.0859,0.824219 -0.082,0.824218 -0.0859,0.839844 -0.17188,1.734375 -0.0859,0.882813 -0.0976,0.898437 -0.0859,0.910156 -0.10156,0.925781 -0.0859,0.921876 -0.0977,0.953124 -0.10156,0.953126 -0.082,0.953124 -0.10156,0.984376 -0.0977,0.980468 -0.19922,1.992188 -0.21484,2.035156 -0.19922,2.046875 -0.21484,2.09375 -0.21094,2.121094 -0.21485,2.132812 -0.21484,2.148438 -0.22656,2.175781 -0.21485,2.191406 -0.22656,2.191406 -0.4414,4.425782 -0.44141,4.421875 -0.45313,4.425781 -0.21484,2.191406 -0.22656,2.175782 -0.21485,2.179687 -0.21093,2.148437 -0.21485,2.132813 -0.21484,2.121095 -0.21094,2.07812 -0.21484,2.04688 -0.19922,2.03516 -0.19922,1.97656 -0.0977,0.98047 -0.10156,0.98437 -0.0976,0.95313 -0.0859,0.95312 -0.10156,0.9375 -0.0859,0.92578 -0.0977,0.92578 -0.0859,0.89454 -0.0976,0.89843 -0.0859,0.88282 -0.0859,0.86718 -0.0859,0.85157 -0.0859,0.83984 -0.0859,0.82422 -0.0859,0.8125 -0.0703,0.79687 -0.0859,0.78125 -0.0703,0.76953 -0.0859,0.75391 -0.0703,0.73828 -0.0703,0.71485 -0.0703,0.71093 -0.0742,0.6836 -0.0547,0.66796 -0.0703,0.64063 -0.0586,0.64062 -0.0703,0.60938 -0.0586,0.59766 -0.0547,0.57031 -0.0586,0.55469 -0.0547,0.53906 -0.043,0.51172 -0.0586,0.48437 -0.043,0.48438 -0.043,0.4414 -0.043,0.42578 -0.043,0.41407 -0.0391,0.38281 -0.043,0.35547 -0.0312,0.34375 -0.0273,0.3125 -0.0274,0.29687 -0.0312,0.25782 -0.0273,0.24218 -0.0117,0.22657 -0.0312,0.18359 -0.0117,0.17187 -0.0156,0.12891 -0.0156,0.11328 v 0.0859 l -0.0117,0.0547 v 0.0742 l -0.0156,0.0547 v 0.0703 l -0.0156,0.11718 -0.0117,0.125 -0.0156,0.15625 -0.0156,0.1875 -0.0273,0.21094 -0.0117,0.24219 -0.0312,0.25781 -0.0273,0.28516 -0.0274,0.3125 -0.043,0.32812 -0.0312,0.35547 -0.0391,0.38281 -0.043,0.39844 -0.043,0.42578 -0.043,0.44141 -0.043,0.46875 -0.0586,0.48437 -0.043,0.51172 -0.0547,0.52735 -0.0586,0.55468 -0.0547,0.57032 -0.0586,0.58203 -0.0703,0.61328 -0.0586,0.625 -0.0703,0.65625 -0.0547,0.65234 -0.0742,0.6836 -0.0703,0.69921 -0.0703,0.71094 -0.0703,0.73828 -0.0859,0.73828 -0.0703,0.76954 -0.0742,0.78125 -0.082,0.79687 -0.0859,0.79688 -0.0859,0.82812 -0.0859,0.83984 -0.0859,0.85157 -0.17188,1.73437 -0.082,0.89844 -0.10156,0.89453 -0.0859,0.92578 -0.0976,0.92578 -0.0859,0.9375 -0.10156,0.94141 -0.0977,0.96484 -0.10156,0.96875 -0.0977,0.98047 -0.0859,0.98438 -0.21484,2.0039 -0.19922,2.03516 -0.21094,2.0625 -0.21484,2.09375 -0.21484,2.11719 -0.21094,2.14843 -0.21484,2.14844 -0.21094,2.17969 -0.23047,2.19141 -0.44141,4.41015 -0.4414,4.42188 -0.45313,4.42578 -0.21484,2.20703 -0.22656,2.19141 -0.21485,2.1914 -0.22656,2.16016 -0.21484,2.14844 -0.21094,2.13671 -0.21485,2.08985 -0.19921,2.07812 -0.21094,2.04688 -0.19922,2.01953 -0.19922,1.98047 -0.10156,0.98047 -0.0977,0.96875 -0.10156,0.95312 -0.0859,0.9375 -0.0976,0.94141 -0.10157,0.92187 -0.0859,0.91016 -0.082,0.89844 -0.10156,0.89453 -0.0859,0.87109 -0.0859,0.86719 -0.0859,0.83984 -0.082,0.83985 -0.0859,0.82422 -0.0703,0.79687 -0.0859,0.79688 -0.0742,0.76562 -0.082,0.76953 -0.0742,0.74219 -0.0703,0.72266 -0.0703,0.71093 -0.0703,0.69922 -0.0703,0.6836 -0.0742,0.65234 -0.0547,0.64062 -0.0703,0.625 -0.0586,0.59766 -0.0586,0.58594 -0.0547,0.5664 -0.0586,0.54297 -0.043,0.52735 -0.0547,0.51172 -0.043,0.48437 -0.0586,0.45313 -0.043,0.4414 -0.043,0.42578 -0.0391,0.39844 -0.0312,0.37109 -0.043,0.33985 -0.0274,0.32812 -0.0273,0.3125 -0.0312,0.26953 -0.0273,0.25782 -0.0274,0.24218 -0.0156,0.19922 -0.0117,0.17188 -0.0156,0.15625 -0.0156,0.1289 -0.0117,0.0977 -0.0156,0.0703 v 0.11328 l -0.0156,0.0742 v 0.082 l -0.0117,0.12891 -0.0156,0.14453 -0.0274,0.16797 -0.0156,0.19922 -0.0274,0.21484 -0.0156,0.25782 -0.0274,0.26953 -0.0273,0.29687 -0.043,0.3125 -0.0312,0.34375 -0.0391,0.36719 -0.0312,0.39844 -0.043,0.41406 -0.043,0.42578 -0.0547,0.45703 -0.043,0.48438 -0.0586,0.49609 -0.043,0.51172 -0.0547,0.54297 -0.0586,0.55469 -0.0547,0.58203 -0.0586,0.59765 -0.0703,0.625 -0.0586,0.62891 -0.0703,0.65234 -0.0703,0.66797 -0.0586,0.69922 -0.0703,0.71094 -0.0859,0.71094 -0.0703,0.73828 -0.0703,0.75781 -0.0859,0.78125 -0.0703,0.78125 -0.0859,0.79687 -0.0859,0.82422 -0.0859,0.82813 -0.0859,0.83984 -0.082,0.86719 -0.0859,0.86719 -0.0859,0.88281 -0.0859,0.89453 -0.10157,0.91016 -0.082,0.92578 -0.10156,0.92578 -0.0977,0.9375 -0.0859,0.95312 -0.10157,0.96875 -0.0976,0.96875 -0.19922,1.97657 -0.19922,2.01953 -0.21484,2.03515 -0.21094,2.07813 -0.19922,2.10547 -0.23047,2.12109 -0.21094,2.14844 -0.21484,2.16016 -0.22656,2.1914 -0.21485,2.19141 -0.22656,2.20703 -0.88281,8.84766 -0.45703,4.41015 -0.21094,2.19141 -0.22656,2.1914 -0.21485,2.16407 -0.21484,2.13281 -0.21094,2.13281 -0.21484,2.09375 -0.21484,2.07813 -0.19922,2.03125 -0.21094,2.02343 -0.1875,1.96094 -0.0977,0.98438 -0.10156,0.95312 -0.0977,0.95313 -0.10156,0.9375 -0.082,0.9375 -0.10156,0.91406 -0.0859,0.91016 -0.0859,0.89453 -0.0976,0.88281 -0.0859,0.86719 -0.0859,0.85547 -0.0859,0.83984 -0.0859,0.82422 -0.082,0.82422 -0.0742,0.79687 -0.0859,0.78125 -0.0703,0.76953 -0.0859,0.75391 -0.0703,0.74219 -0.14063,1.42187 -0.0703,0.6836 -0.0586,0.66796 -0.0703,0.65235 -0.0703,0.6289 -0.0586,0.625 -0.0586,0.58204 -0.0547,0.58593 -0.0586,0.55469 -0.0547,0.53906 -0.0586,0.51172 -0.043,0.5 -0.043,0.46875 -0.0547,0.45313 -0.043,0.42968 -0.043,0.41016 -0.0274,0.38672 -0.043,0.36719 -0.0312,0.34375 -0.043,0.3125 -0.0274,0.28515 -0.0273,0.26953 -0.0156,0.24219 -0.0273,0.22656 -0.0156,0.1836 -0.0117,0.17187 -0.0156,0.14453 -0.0156,0.11329 -0.0117,0.0859 v 0.0977 h -0.0156 v 0.12891 l -0.0156,0.0547 v 0.0742 l -0.0117,0.082 -0.0156,0.10157 v 0.11328 l -0.0117,0.1289 -0.0156,0.12891 -0.0156,0.14062 -0.0117,0.15625 -0.0312,0.17188 -0.0117,0.18359 -0.0156,0.1875 -0.0273,0.19922 -0.0156,0.21094 -0.0273,0.21484 -0.0156,0.24219 -0.0547,0.48438 -0.0312,0.2539 -0.0274,0.26953 -0.0586,0.57032 -0.0547,0.59765 -0.0586,0.64063 -0.0703,0.66797 -0.0703,0.69921 -0.0703,0.72266 -0.0703,0.76953 -0.0859,0.78125 -0.0859,0.8125 -0.0859,0.83985 -0.0859,0.85156 -0.0859,0.88281 -0.0859,0.89844 -0.0976,0.92187 -0.10156,0.94141 -0.082,0.95312 -0.10156,0.98047 -0.0976,0.98438 -0.10157,0.99219 -0.0976,1.01171 -0.21485,2.05079 -0.19922,2.0625 -0.21484,2.08984 -0.42578,4.19922 -0.21484,2.07422 -0.19922,2.05078 -0.0977,1.00781 -0.10156,1.01172 -0.0977,0.98047 -0.10156,0.98437 -0.0977,0.96485 -0.10156,0.9414 -0.082,0.9375 -0.10156,0.91016 -0.0859,0.88281 -0.0859,0.86719 -0.082,0.85547 -0.0859,0.82422 -0.0859,0.79687 -0.0703,0.76953 -0.0859,0.73828 -0.0703,0.71094 -0.0586,0.6836 -0.0703,0.65625 -0.0586,0.60937 -0.0703,0.58594 -0.043,0.55469 -0.0273,0.2539 -0.0312,0.25781 -0.0274,0.22657 -0.0117,0.24218 -0.0312,0.21485 -0.0117,0.21094 -0.0312,0.19921 -0.0117,0.1875 -0.0156,0.16797 -0.0273,0.17188 -0.0156,0.15625 -0.0156,0.14453 -0.0117,0.14062 v 0.11329 l -0.0156,0.11328 -0.0117,0.10156 -0.0156,0.0859 v 0.125 l -0.0156,0.0586 v 0.0859 l -0.0117,0.0273 v 0.10156 l -0.0156,0.0703 v 0.0703 l -0.0156,0.0977 -0.0117,0.10156 -0.0156,0.11328 -0.0156,0.12891 v 0.14062 l -0.0273,0.15625 -0.0156,0.15625 -0.0117,0.17188 -0.0156,0.18359 -0.0274,0.19922 -0.0156,0.19922 -0.0274,0.21484 -0.0156,0.22656 -0.0547,0.48438 -0.0156,0.25781 -0.0547,0.52734 -0.0586,0.58204 -0.0586,0.61328 -0.0703,0.63672 -0.0703,0.67187 -0.0703,0.71094 -0.0703,0.73828 -0.0742,0.75391 -0.082,0.79687 -0.0859,0.8125 -0.0859,0.85156 -0.0859,0.85547 -0.0859,0.89453 -0.0859,0.89844 -0.0976,0.92578 -0.10156,0.95313 -0.0859,0.95312 -0.0977,0.98047 -0.10156,0.98047 -0.0977,0.99609 -0.10156,1.01172 -0.11328,1.02344 -0.19922,2.0625 -0.21094,2.07812 -0.21484,2.10547 -0.21484,2.08985 -0.19922,2.09375 -0.21094,2.0625 -0.10156,1.01172 -0.0977,1.00781 -0.10156,0.99609 -0.0977,0.9961 -0.10156,0.96875 -0.0977,0.96875 -0.10156,0.9375 -0.0859,0.92578 -0.0976,0.91015 -0.0859,0.88282 -0.0859,0.86718 -0.0859,0.83985 -0.0859,0.80859 -0.0703,0.79688 -0.0859,0.76953 -0.0703,0.73828 -0.0703,0.69922 -0.0703,0.68359 -0.0586,0.64063 -0.0547,0.60937 -0.0586,0.57031 -0.0547,0.53907 -0.0312,0.25781 -0.0274,0.24219 -0.0156,0.22656 -0.0274,0.22656 -0.0273,0.21484 -0.0156,0.21485 -0.0156,0.18359 -0.0273,0.1836 -0.0117,0.17187 -0.0156,0.17188 -0.0156,0.14062 -0.0117,0.14453 -0.0156,0.125 -0.0156,0.11328 -0.0117,0.11719 v 0.082 l -0.0156,0.0859 v 0.0586 l -0.0156,0.0547 v 0.11719 l -0.0117,0.0547 -0.043,0.46875 -0.0703,0.47265 -0.11719,0.45313 -0.125,0.4414 -0.17187,0.44141 -0.19922,0.41406 -0.21484,0.38281 -0.25391,0.38282 -0.14453,0.17187 -0.14063,0.17188 -0.15625,0.16797 -0.15625,0.15625 -0.17187,0.15625 -0.17188,0.14453 -0.18359,0.14062 -0.18359,0.12891 -0.19922,0.1289 -0.21485,0.11329 -0.19922,0.10156 -0.22656,0.0976 -0.22656,0.10157 -0.23047,0.0703 -0.24219,0.0703 -0.2539,0.0586 -0.25782,0.0547 -0.26953,0.043 -0.26953,0.0274 -0.57031,0.0312 h -0.29688 l -0.30078,-0.0156 -0.0156,-0.0156 h -0.125 l -0.0859,-0.0117 -0.10156,-0.0156 h -0.125 l -0.14453,-0.0156 -0.17188,-0.0117 -0.18359,-0.0156 -0.19922,-0.0273 -0.22656,-0.0156 -0.24219,-0.0273 -0.26953,-0.0156 -0.28516,-0.0274 -0.3125,-0.0273 -0.3125,-0.0312 -0.34375,-0.0274 -0.37109,-0.0273 -0.38281,-0.0273 -0.39844,-0.043 -0.41016,-0.043 -0.4414,-0.0312 -0.45704,-0.043 -0.48437,-0.0391 -0.48438,-0.043 -0.51171,-0.043 -0.52735,-0.043 -0.55469,-0.0586 -0.55468,-0.043 -0.58203,-0.0547 -0.59766,-0.0586 -0.61328,-0.043 -0.63672,-0.0547 -0.65625,-0.0586 -0.66797,-0.0586 -0.68359,-0.0703 -0.69922,-0.0547 -0.71094,-0.0586 -0.73828,-0.0703 -0.73828,-0.0586 -0.76953,-0.0703 -0.78125,-0.0703 -0.79688,-0.0703 -0.8125,-0.0703 -0.82422,-0.0742 -0.83984,-0.0703 -0.86719,-0.0703 -0.87109,-0.0859 -0.87891,-0.0703 -0.91015,-0.0859 -0.91407,-0.0859 -0.9375,-0.0703 -0.9375,-0.0859 -1.9375,-0.17188 -0.99609,-0.0859 -0.99609,-0.082 -1.00782,-0.10156 -2.07812,-0.17188 -1.05469,-0.0976 -1.06641,-0.0859 -1.08203,-0.0977 -1.09375,-0.10156 -1.10937,-0.0976 -1.125,-0.10157 -1.125,-0.0976 -1.15235,-0.10157 -1.15234,-0.0976 -1.16406,-0.10156 -1.1836,-0.0977 -1.19531,-0.11719 -1.20703,-0.0976 -1.21094,-0.11329 -1.23828,-0.10156 -1.23828,-0.11328 -1.23437,-0.0977 -1.26954,-0.11328 -1.26562,-0.11718 -1.28125,-0.11329 -1.29297,-0.11328 -2.61719,-0.22656 -1.32422,-0.11328 -1.33593,-0.11328 -1.33985,-0.12891 -1.35156,-0.11328 -1.36328,-0.12891 -1.36719,-0.11328 -2.77344,-0.24218 -2.80468,-0.24219 -2.84375,-0.25781 -2.875,-0.25391 -2.91797,-0.25781 -2.92969,-0.25391 -2.97266,-0.25781 -3.0039,-0.26953 -3.03125,-0.25782 -3.0586,-0.26953 -3.08593,-0.26953 -3.10157,-0.26953 -3.1289,-0.28516 -3.16016,-0.26953 -3.17187,-0.28515 -3.20313,-0.26953 -3.21484,-0.28516 -3.24219,-0.28516 -3.24609,-0.28515 -3.27344,-0.28516 -3.28516,-0.29687 -3.30078,-0.28516 -3.3164,-0.28516 -3.32813,-0.29687 -3.32812,-0.28516 -6.70313,-0.59765 -6.73047,-0.58594 -6.75781,-0.59766 -13.54297,-1.17969 -13.51562,-1.19531 -6.73047,-0.58203 -6.71485,-0.59766 -3.33203,-0.28515 -3.32812,-0.30078 -3.31641,-0.28125 -3.30078,-0.30078 -3.28516,-0.28516 -3.27343,-0.28516 -3.25782,-0.28125 -3.24218,-0.28515 -3.21875,-0.28516 -3.19922,-0.28516 -3.1875,-0.26953 -3.16016,-0.28515 -3.12891,-0.26953 -3.11718,-0.26954 -3.08594,-0.27343 -3.05859,-0.26953 -3.03125,-0.26954 -3,-0.25781 -2.97657,-0.26953 -2.94531,-0.25391 -2.91406,-0.25781 -2.89063,-0.2539 -2.84375,-0.24219 -2.80468,-0.25781 -2.78907,-0.24219 -1.36328,-0.11328 -1.36719,-0.12891 -2.70312,-0.22656 -1.33594,-0.11328 -1.32422,-0.12891 -1.32422,-0.11328 -1.29296,-0.11328 -1.3086,-0.11328 -1.28125,-0.11719 -1.26562,-0.11328 -1.26953,-0.0977 -1.25,-0.11328 -1.25391,-0.11328 -1.22266,-0.10156 -1.22265,-0.11328 -1.21094,-0.10157 -1.19531,-0.11328 -1.17969,-0.0976 -1.16797,-0.10157 -1.16406,-0.0976 -1.15235,-0.10157 -1.14062,-0.0976 -1.12109,-0.10156 -1.11329,-0.0977 -1.09375,-0.10156 -1.08203,-0.0977 -1.08203,-0.0859 -1.05078,-0.10156 -1.05469,-0.082 -1.02343,-0.10156 -1.02344,-0.0859 -1.01172,-0.0859 -0.98047,-0.082 -0.98047,-0.0859 -0.96875,-0.0859 -0.95312,-0.0859 -0.94141,-0.0859 -0.91016,-0.0859 -0.91015,-0.0703 -0.89453,-0.0859 -0.86719,-0.0703 -0.87109,-0.0703 -0.85157,-0.0859 -0.82422,-0.0703 -0.82812,-0.0703 -0.79688,-0.0742 -0.78125,-0.0703 -0.76953,-0.0547 -0.7539,-0.0742 -0.73828,-0.0703 -0.72657,-0.0547 -0.69531,-0.0586 -0.69922,-0.0703 -0.66797,-0.0586 -0.65234,-0.0547 -0.64063,-0.0586 -0.61328,-0.0586 -0.61328,-0.0391 -0.58203,-0.0586 -0.57031,-0.043 -0.55469,-0.0547 -0.52344,-0.043 -0.52734,-0.043 -0.5,-0.043 -0.48438,-0.043 -0.45312,-0.043 -0.44141,-0.043 -0.42578,-0.043 -0.41406,-0.0273 -0.38281,-0.0312 -0.3711,-0.0391 -0.33984,-0.0312 -0.32813,-0.0273 -0.3125,-0.0273 -0.30078,-0.0312 -0.26953,-0.0117 -0.25781,-0.0312 -0.22656,-0.0117 -0.21094,-0.0274 -0.1875,-0.0156 -0.17188,-0.0156 -0.15625,-0.0117 -0.125,-0.0156 h -0.11718 l -0.082,-0.0156 h -0.11329 l -0.0312,-0.0117 h -0.0117 l -0.11719,-0.0156 -0.23828,-0.0273 -0.45703,-0.0703 -0.45704,-0.11719 -0.42578,-0.14063 -0.42578,-0.15625 -0.41406,-0.19922 -0.38281,-0.21484 -0.3711,-0.24219 -0.35547,-0.26953 -0.32812,-0.28515 -0.29688,-0.3125 -0.26953,-0.33985 -0.25781,-0.34375 -0.22656,-0.38281 -0.1875,-0.38281 -0.15625,-0.41407 -0.0703,-0.21484 -0.0547,-0.21094 -0.0586,-0.21484 -0.043,-0.22656 -0.0273,-0.21485 -0.0156,-0.24218 -0.0117,-0.22657 -0.0156,-0.11328 V 22.359375 l 0.0156,-0.242187 0.0117,-0.230469 0.0312,-0.226563 0.0391,-0.226562 0.043,-0.230469 0.11328,-0.4375 0.16016,-0.429687 0.18359,-0.410157 0.21484,-0.386719 0.23828,-0.367187 0.27344,-0.355469 0.29688,-0.328125 0.32812,-0.300781 0.33985,-0.285156 0.35546,-0.253906 0.38672,-0.214844 0.41016,-0.199219 0.41406,-0.15625 0.44141,-0.128906 0.21484,-0.05469 0.22656,-0.04297 0.22657,-0.02734 0.24218,-0.03125 0.22657,-0.01172 h 0.24218"
       id="path8616"
       style="stroke-width:0.708661;stroke-dasharray:none"
       transform="scale(-1,1)" />
    <path
       fill="none"
       stroke-width="1.417203"
       stroke-linecap="round"
       stroke-linejoin="round"
       stroke="#000000"
       stroke-opacity="1"
       stroke-miterlimit="10"
       d="m -738.14844,79.269531 -2.46093,-0.554687 -1.96485,-1.582032 -1.09375,-2.261718 v -2.53125 l 1.09375,-2.261719 1.96485,-1.578125 2.46093,-0.554688 2.46094,0.554688 1.98047,1.578125 1.09375,2.261719 v 2.53125 l -1.09375,2.261718 -1.98047,1.582032 -2.46094,0.554687"
       transform="scale(-1,1)"
       id="path8618"
       style="stroke-width:0.708661;stroke-dasharray:none" />
    <path
       fill="none"
       stroke-width="1.417203"
       stroke-linecap="round"
       stroke-linejoin="round"
       stroke="#000000"
       stroke-opacity="1"
       stroke-miterlimit="10"
       d="m -530.58984,79.269531 -2.46485,-0.554687 -1.96093,-1.582032 -1.09766,-2.261718 v -2.53125 l 1.09766,-2.261719 1.96093,-1.578125 2.46485,-0.554688 2.46093,0.554688 1.97657,1.578125 1.09375,2.261719 v 2.53125 l -1.09375,2.261718 -1.97657,1.582032 -2.46093,0.554687"
       transform="scale(-1,1)"
       id="path8620"
       style="stroke-width:0.708661;stroke-dasharray:none" />
    <path
       fill="none"
       stroke-width="1.417203"
       stroke-linecap="round"
       stroke-linejoin="round"
       stroke="#000000"
       stroke-opacity="1"
       stroke-miterlimit="10"
       d="m -592.44141,378.36719 -2.44531,-0.57032 -1.97656,-1.5664 -1.09766,-2.27344 v -2.51953 l 1.09766,-2.27734 1.97656,-1.57813 2.44531,-0.55469 2.46094,0.55469 1.98047,1.57813 1.09375,2.27734 v 2.51953 l -1.09375,2.27344 -1.98047,1.5664 -2.46094,0.57032"
       transform="scale(-1,1)"
       id="path8622"
       style="stroke-width:0.708661;stroke-dasharray:none" />
    <path
       fill="none"
       stroke-width="1.417203"
       stroke-linecap="round"
       stroke-linejoin="round"
       stroke="#000000"
       stroke-opacity="1"
       stroke-miterlimit="10"
       d="m -556.84375,268.89844 -2.46094,-0.57032 -1.96093,-1.5664 -1.09766,-2.27344 v -2.51953 l 1.09766,-2.27734 1.96093,-1.57813 2.46094,-0.55469 2.46484,0.55469 1.96094,1.57813 1.09766,2.27734 v 2.51953 l -1.09766,2.27344 -1.96094,1.5664 -2.46484,0.57032"
       transform="scale(-1,1)"
       id="path8624"
       style="stroke-width:0.708661;stroke-dasharray:none" />
    <path
       fill="none"
       stroke-width="1.417203"
       stroke-linecap="round"
       stroke-linejoin="round"
       stroke="#000000"
       stroke-opacity="1"
       stroke-miterlimit="10"
       d="m -699.69141,370.04297 -2.71484,-0.53906 -2.29297,-1.53907 -1.53515,-2.30468 -0.53907,-2.70313 0.53907,-2.71484 1.53515,-2.29297 2.29297,-1.53516 2.71484,-0.54297 2.70704,0.54297 2.30468,1.53516 1.53516,2.29297 0.53906,2.71484 -0.53906,2.70313 -1.53516,2.30468 -2.30468,1.53907 -2.70704,0.53906"
       transform="scale(-1,1)"
       id="path8626"
       style="stroke-width:0.708661;stroke-dasharray:none" />
    <path
       fill="none"
       stroke-width="1.417203"
       stroke-linecap="round"
       stroke-linejoin="round"
       stroke="#000000"
       stroke-opacity="1"
       stroke-miterlimit="10"
       d="m -788.67187,441.9375 -2.46094,-0.57031 -1.96094,-1.56641 -1.09766,-2.27344 v -2.51953 l 1.09766,-2.27734 1.96094,-1.5625 2.46094,-0.57031 2.46093,0.57031 1.96485,1.5625 1.09765,2.27734 v 2.51953 l -1.09765,2.27344 -1.96485,1.56641 -2.46093,0.57031"
       transform="scale(-1,1)"
       id="path8628"
       style="stroke-width:0.708661;stroke-dasharray:none" />
    <path
       fill="none"
       stroke-width="1.417203"
       stroke-linecap="round"
       stroke-linejoin="round"
       stroke="#000000"
       stroke-opacity="1"
       stroke-miterlimit="10"
       d="m -530.07812,462.83594 -2.46094,-0.55469 -1.98047,-1.57813 -1.09375,-2.27734 v -2.51562 l 1.09375,-2.27735 1.98047,-1.5664 2.46094,-0.57032 2.44531,0.57032 1.97656,1.5664 1.09766,2.27735 v 2.51562 l -1.09766,2.27734 -1.97656,1.57813 -2.44531,0.55469"
       transform="scale(-1,1)"
       id="path8630"
       style="stroke-width:0.708661;stroke-dasharray:none" />
    <path
       fill="none"
       stroke-width="1.417203"
       stroke-linecap="round"
       stroke-linejoin="round"
       stroke="#000000"
       stroke-opacity="1"
       stroke-miterlimit="10"
       d="m -683.59766,444.73828 h 0.12891 l 0.043,0.0156 h 0.14062 l 0.0859,0.0156 h 0.0977 l 0.10156,0.0117 h 0.11328 l 0.11328,0.0156 h 0.12891 l 0.14062,0.0156 0.14454,0.0117 0.15625,0.0156 h 0.17187 l 0.16797,0.0117 0.17187,0.0156 0.19922,0.0156 0.19922,0.0117 0.19922,0.0156 0.21484,0.0156 0.22657,0.0117 0.45312,0.0312 0.24219,0.0273 0.25781,0.0156 0.25391,0.0117 0.27344,0.0156 0.26953,0.0274 0.28515,0.0156 0.28516,0.0273 0.29687,0.0156 0.30079,0.0117 0.3125,0.0312 0.3125,0.0117 0.3125,0.0312 0.32812,0.0273 0.32813,0.0117 0.33984,0.0312 0.35547,0.0273 0.33984,0.0156 0.72656,0.0547 0.74219,0.043 0.76563,0.0586 0.78515,0.0547 0.8086,0.0586 0.82422,0.0547 0.83984,0.0586 0.85547,0.0586 0.88281,0.0703 0.89453,0.0547 0.91016,0.0586 0.92578,0.0703 0.9375,0.0703 0.95312,0.0586 0.95313,0.0703 0.98437,0.0703 0.98047,0.0586 0.9961,0.0703 1.01172,0.0703 1.00781,0.0742 1.01172,0.0703 1.03906,0.0703 2.0625,0.14063 2.08984,0.14453 4.1836,0.29688 2.10547,0.14453 2.09375,0.14062 2.0625,0.14453 1.03906,0.082 1.00781,0.0742 1.02734,0.0547 1.00782,0.0703 0.99609,0.0742 0.98047,0.0703 0.98437,0.0703 0.96485,0.0703 0.95703,0.0586 0.95312,0.0703 0.92188,0.0586 0.91016,0.0703 0.91406,0.0547 0.8789,0.0742 0.8711,0.0547 0.85156,0.0586 0.82422,0.0547 0.8125,0.0586 0.79687,0.0547 0.76954,0.0586 0.7539,0.043 0.72266,0.0586 0.71094,0.0391 0.34375,0.0312 0.33984,0.0273 0.32812,0.0156 0.32813,0.0273 0.32812,0.0156 0.3125,0.0274 0.29688,0.0273 0.30078,0.0156 0.29688,0.0117 0.28515,0.0312 0.26953,0.0117 0.28516,0.0156 0.25781,0.0273 0.25391,0.0156 0.25781,0.0156 0.24219,0.0117 0.22656,0.0274 0.22656,0.0156 0.23047,0.0156 0.21094,0.0117 0.39844,0.0312 0.1875,0.0117 0.18359,0.0156 h 0.17188 l 0.15625,0.0156 0.15625,0.0117 0.14062,0.0156 h 0.14453 l 0.125,0.0156 0.11719,0.0117 H -612.5 l 0.0977,0.0156 h 0.17187 l 0.0703,0.0117 h 0.11329 l 0.043,0.0156 h 0.0703 v -0.66797 l 0.0156,-0.11328 v -1.97656 l 0.0156,-0.23047 v -1.90625 l 0.0117,-0.29688 v -1.66406 l 0.0156,-0.37109 v -1.52344 l 0.0156,-0.39844 v -1.67969 l 0.0117,-0.4414 v -1.84766 l 0.0156,-0.48437 V 434.625 l 0.0117,-0.51563 v -1.57812 l 0.0156,-0.53906 v -1.66407 l 0.0156,-0.57031 v -1.16797 l 0.0117,-0.59765 v -1.80469 l 0.0156,-0.62891 v -1.25 l 0.0156,-0.64062 v -1.3086 l 0.0117,-0.65625 v -1.33593 l 0.0156,-0.6836 v -1.36328 l 0.0156,-0.69922 v -1.42187 l 0.0117,-0.71094 v -0.71094 l 0.0156,-1.46875 v -1.47656 l 0.0156,-1.50781 0.0117,-1.53906 0.0156,-1.55079 v -1.5664 l 0.0117,-1.58985 0.0156,-1.625 0.0156,-1.63671 0.0117,-1.64844 v -1.67969 l 0.0156,-1.69141 0.0156,-1.72265 0.0117,-1.72266 0.0156,-1.75 v -1.76172 l 0.0156,-1.79297 0.0117,-1.80859 0.0156,-1.80469 0.0156,-1.83593 0.0117,-1.85157 0.0156,-1.86328 0.0117,-1.8789 0.0312,-3.8125 v -1.92188 l 0.0117,-1.93359 0.0312,-3.89844 0.0117,-1.97656 0.0156,-1.98047 0.0156,-1.98828 0.0117,-2.00782 0.0312,-4.03906 0.0117,-2.03515 0.0156,-2.05079 0.0117,-2.04687 0.0156,-2.0625 0.0156,-2.06641 0.0117,-2.07422 0.0156,-2.09375 0.0156,-2.07812 0.0274,-4.19531 0.0273,-4.22657 0.0312,-4.23828 0.0547,-8.50781 0.0273,-4.26953 0.0586,-8.56641 0.0586,-8.55078 0.0391,-4.26562 0.0312,-4.25782 0.0273,-4.23828 0.0273,-4.21093 0.0312,-4.21094 0.0117,-2.09375 0.0156,-2.07422 0.0156,-2.07813 0.0117,-2.07812 0.0156,-2.0625 0.0117,-2.0625 0.0156,-2.03516 0.0156,-2.05078 0.0117,-2.01953 0.0156,-2.01953 0.0156,-2.00781 0.0117,-2.00391 0.0156,-1.99219 v -1.96484 l 0.0156,-1.96094 0.0117,-1.96484 0.0156,-1.9336 0.0117,-1.92187 0.0156,-1.92188 0.0156,-1.89062 0.0117,-1.89453 0.0312,-3.72656 0.0117,-1.83594 0.0156,-1.82031 v -1.82032 l 0.0156,-1.78125 0.0117,-1.77734 0.0156,-1.76172 0.0156,-1.73828 0.0117,-1.72266 v -1.70703 l 0.0156,-1.67578 0.0117,-1.66797 0.0156,-1.63281 0.0156,-1.625 v -1.60547 l 0.0117,-1.58203 0.0156,-1.5625 0.0156,-1.53906 v -1.50782 l 0.0117,-1.49218 0.0156,-1.48047 v -0.72656 l 0.0156,-0.71094 v -1.42188 l 0.0117,-0.71093 v -1.37891 l 0.0156,-0.68359 v -1.35157 l 0.0156,-0.65625 v -1.96093 l 0.0117,-0.64063 v -1.25391 l 0.0156,-0.61328 v -1.22265 l 0.0117,-0.59766 v -1.75 l 0.0156,-0.56641 v -1.66796 l 0.0156,-0.53907 v -1.5664 l 0.0117,-0.51172 v -1.49219 l 0.0156,-0.46875 v -1.39453 l 0.0156,-0.45703 v -1.70703 l 0.0117,-0.41407 v -1.55078 l 0.0156,-0.35547 v -2.01953 l 0.0156,-0.3125 v -1.63672 l 0.0117,-0.24218 v -1.92188 l 0.0156,-0.125 v -0.89844 h -0.10156 l -0.043,-0.0117 h -0.125 l -0.0859,-0.0156 h -0.1875 l -0.0977,-0.0156 -0.11328,-0.0117 h -0.1289 l -0.12891,-0.0156 -0.14062,-0.0156 h -0.15625 l -0.15625,-0.0117 -0.34375,-0.0312 -0.1836,-0.0117 -0.19922,-0.0156 -0.19922,-0.0117 -0.19921,-0.0156 -0.22657,-0.0156 -0.21484,-0.0117 -0.24219,-0.0156 -0.22656,-0.0156 -0.25781,-0.0117 -0.25391,-0.0156 -0.25781,-0.0273 -0.53906,-0.0312 -0.28516,-0.0273 -0.30078,-0.0117 -0.29688,-0.0312 -0.30078,-0.0117 -0.3125,-0.0312 -0.3125,-0.0117 -0.32812,-0.0312 -0.32422,-0.0117 -0.32813,-0.0312 -0.34375,-0.0273 -0.71093,-0.043 -0.72266,-0.0547 -0.74219,-0.043 -0.76562,-0.0586 -0.79688,-0.0547 -0.79687,-0.0586 -0.83985,-0.0586 -0.83984,-0.0547 -0.86719,-0.0586 -0.88281,-0.0703 -0.89844,-0.0547 -0.91015,-0.0586 -0.92579,-0.0703 -0.95312,-0.0703 -0.95313,-0.0586 -0.95312,-0.0703 -0.98047,-0.0703 -0.98047,-0.0586 -1.01172,-0.0703 -0.99609,-0.0703 -1.00781,-0.0742 -1.02735,-0.0703 -2.0625,-0.14062 -2.07812,-0.14453 -2.08985,-0.15625 -2.10546,-0.14063 -2.09375,-0.14453 -2.08985,-0.14062 -2.08984,-0.15625 -2.05078,-0.14453 -1.02344,-0.0703 -1.01172,-0.0703 -1.00781,-0.0586 -0.9961,-0.0703 -0.98437,-0.0703 -0.98047,-0.0703 -0.96875,-0.0703 -0.95312,-0.0586 -0.9375,-0.0703 -0.92579,-0.0586 -0.91015,-0.0703 -0.91016,-0.0586 -0.88281,-0.0703 -0.85156,-0.0547 -0.85547,-0.0586 -0.82422,-0.0547 -0.8125,-0.0586 -0.78125,-0.0586 -0.76953,-0.0547 -0.75391,-0.043 -0.72656,-0.0586 -0.69531,-0.043 -0.33985,-0.0273 -0.34375,-0.0117 -0.32812,-0.0312 -0.32422,-0.0273 -0.31641,-0.0156 -0.3125,-0.0273 -0.29687,-0.0156 -0.30078,-0.0273 -0.28516,-0.0156 -0.28125,-0.0117 -0.28516,-0.0273 -0.26953,-0.0156 -0.25781,-0.0156 -0.25781,-0.0273 -0.23828,-0.0156 -0.24219,-0.0117 -0.23047,-0.0156 -0.22656,-0.0156 -0.21485,-0.0117 -0.21093,-0.0156 -0.19922,-0.0156 -0.19922,-0.0117 -0.17188,-0.0156 -0.18359,-0.0117 -0.17187,-0.0156 -0.15625,-0.0156 h -0.14063 l -0.14453,-0.0117 -0.14063,-0.0156 h -0.11328 l -0.11718,-0.0156 h -0.11329 l -0.0976,-0.0117 h -0.0859 l -0.0703,-0.0156 h -0.1875 l -0.0274,-0.0156 h -0.0703 v 1.94921 l -0.0156,0.19922 v 1.92188 l -0.0117,0.28515 v 1.55079 l -0.0156,0.32812 v 1.80469 l -0.0156,0.38672 v 1.63672 l -0.0117,0.42578 v 1.79297 l -0.0156,0.46875 v 1.4375 l -0.0156,0.49609 v 1.55078 l -0.0117,0.52734 v 1.6211 l -0.0156,0.55469 v 1.72265 l -0.0156,0.58203 v 1.19532 l -0.0117,0.61328 v 1.23828 l -0.0156,0.625 v 1.92187 l -0.0117,0.65235 v 1.32422 l -0.0156,0.66796 v 1.36719 l -0.0156,0.69531 v 1.41016 l -0.0117,0.69531 v 0.72657 l -0.0156,1.45312 -0.0156,1.46484 v 1.50782 l -0.0117,1.50781 -0.0156,1.55078 v 1.56641 l -0.0156,1.57812 -0.0117,1.60938 -0.0156,1.63672 -0.0156,1.63281 v 1.67969 l -0.0117,1.67968 -0.0156,1.70703 -0.0117,1.72266 -0.0156,1.75 -0.0156,1.76172 v 1.78125 l -0.0117,1.79297 -0.0156,1.80469 -0.0156,1.82031 -0.0117,1.85156 -0.0312,3.72656 -0.0117,1.89453 -0.0156,1.90625 v 1.90625 l -0.0156,1.9336 -0.0117,1.94922 -0.0156,1.94922 -0.0117,1.96484 -0.0156,1.97656 -0.0156,1.99219 -0.0117,2.00781 -0.0156,2.00391 -0.0156,2.01953 -0.0117,2.03516 -0.0156,2.03515 -0.0156,2.05078 -0.0117,2.0625 -0.0156,2.0625 -0.0156,2.07813 -0.0117,2.07422 -0.0156,2.09375 -0.0117,2.08984 -0.0156,2.09375 -0.0274,4.21094 -0.0312,4.23828 -0.0547,8.50781 -0.0586,8.55078 -0.0547,8.55078 -0.0312,4.28516 -0.043,4.26563 -0.0273,4.25781 -0.0273,4.23828 -0.0274,4.22656 -0.0312,4.21094 -0.0117,2.08984 -0.0156,2.09375 -0.0156,2.07422 -0.0117,2.07813 -0.0312,4.125 -0.0117,2.05078 -0.0312,4.07031 -0.0117,2.01953 -0.0156,2.01953 -0.0117,2.00782 -0.0156,1.99218 v 1.97657 l -0.0156,1.96484 -0.0117,1.96094 -0.0156,1.94922 -0.0156,1.92187 -0.0117,1.92188 -0.0156,1.90625 -0.0156,1.89062 -0.0117,1.87891 -0.0156,1.86328 -0.0156,1.85156 -0.0117,1.82031 v 1.82032 l -0.0156,1.79296 -0.0117,1.77735 -0.0156,1.76562 -0.0156,1.75 -0.0117,1.73438 -0.0156,1.70703 v 1.69531 l -0.0156,1.66406 -0.0117,1.64844 -0.0156,1.63672 -0.0156,1.60938 v 1.59375 l -0.0117,1.5625 -0.0156,1.55078 -0.0156,1.52343 v 1.50782 l -0.0117,1.46484 -0.0156,1.46875 v 1.42188 l -0.0117,0.71093 v 1.39453 l -0.0156,0.69532 v 1.35156 l -0.0156,0.67187 v 1.32032 l -0.0117,0.64062 v 1.28125 l -0.0156,0.64063 v 1.84765 l -0.0156,0.59766 v 1.18359 l -0.0117,0.58203 v 1.70704 l -0.0156,0.55468 v 1.60938 l -0.0156,0.52734 v 1.53516 l -0.0117,0.48437 v 1.4375 l -0.0156,0.46875 v 1.76172 l -0.0117,0.42969 v 1.60547 l -0.0156,0.38672 v 1.77734 l -0.0156,0.32813 v 1.79296 l -0.0117,0.26954 v 1.80468 l -0.0156,0.1875 v 1.64844"
       transform="scale(-1,1)"
       id="path8632"
       style="stroke-width:0.708661;stroke-dasharray:none" />
    <path
       fill="none"
       stroke-width="1.417203"
       stroke-linecap="round"
       stroke-linejoin="round"
       stroke="#000000"
       stroke-opacity="1"
       stroke-miterlimit="10"
       d="m -811.15234,121.80859 h 107.93359 l 0.0859,0.0156 0.10156,0.0156 0.0977,0.0117 0.10156,0.0312 0.082,0.0117 0.10156,0.0312 0.0859,0.0273 0.0859,0.043 0.0976,0.0273 0.25782,0.1289 0.0703,0.043 0.0859,0.043 0.0859,0.0547 0.0703,0.0586 0.0703,0.0547 0.14062,0.11719 0.0742,0.0547 0.0703,0.0703 0.0703,0.0742 0.0586,0.0703 0.0547,0.0703 0.0586,0.0703 0.0547,0.0703 0.0586,0.0859 0.043,0.0703 0.0547,0.0859 0.12891,0.25782 0.0273,0.0859 0.043,0.0859 0.0312,0.0977 0.0547,0.17187 0.0156,0.0977 0.0273,0.10156 0.0156,0.0977 v 0.0859 l 0.0117,0.10156 v 0.0977 l 0.0156,0.10157 v 3.64062 l -0.0156,0.26953 v 28.03125 l -0.0117,2.10547 v 29.35156 l -0.0156,0.1836 v 1.83593 l -0.0156,0.1836 -0.0273,0.1875 -0.0274,0.18359 -0.0156,0.0859 -0.0547,0.17187 -0.0156,0.082 -0.0273,0.0859 -0.0273,0.0742 -0.043,0.082 -0.0312,0.0742 -0.043,0.082 -0.043,0.0742 -0.0273,0.0703 -0.0547,0.0703 -0.043,0.0703 -0.043,0.0742 -0.0586,0.0703 -0.0547,0.0703 -0.0586,0.0586 v 0.0117 l -0.0274,0.0273 v 0.0156 h -0.0156 l -0.0156,0.0156 -0.0117,0.0273 -0.0156,0.0156 -0.0273,0.0117 -0.0156,0.0312 -0.0117,0.0117 -0.0312,0.0273 -0.043,0.0586 -0.0547,0.0586 -0.0703,0.0703 -0.0586,0.0703 -0.0703,0.0859 -0.0859,0.0859 -0.0859,0.0977 -0.0859,0.10157 -0.0977,0.0977 -0.10156,0.11328 -0.11328,0.11719 -0.0977,0.125 -0.12891,0.12891 -0.11328,0.1289 -0.1289,0.14063 -0.12891,0.14453 -0.14063,0.15625 -0.14453,0.15625 -0.14062,0.17187 -0.15625,0.15625 -0.15625,0.16797 -0.15625,0.1875 -0.34375,0.36719 -0.16797,0.19922 -0.1875,0.1875 -0.18359,0.21094 -0.1836,0.19922 -0.1875,0.21484 -0.19922,0.21484 -0.19922,0.22657 -0.19921,0.21484 -0.21094,0.23828 -0.21485,0.23047 -0.21484,0.24219 -0.21094,0.22656 -0.23047,0.25391 -0.22656,0.24218 -0.45312,0.51563 -0.23047,0.2539 -0.24219,0.26954 -0.24219,0.25781 -0.23828,0.26953 -0.25781,0.28516 -0.24219,0.26953 -0.25781,0.28515 -0.25391,0.28516 -0.25781,0.28516 -0.26953,0.28515 -0.25391,0.28125 -0.27343,0.30078 -0.26954,0.29688 -0.26953,0.30078 -0.26953,0.29687 -0.26953,0.3125 -0.28516,0.30079 -0.28515,0.3125 -0.26953,0.3125 -0.57032,0.625 -0.30078,0.3164 -0.28125,0.3125 -0.28515,0.32422 -0.58594,0.64063 -0.59766,0.65625 -0.59765,0.66796 -0.59375,0.65625 -0.61328,0.66797 -0.59766,0.66797 -0.61328,0.6836 -0.60938,0.66796 -1.23828,1.36719 -1.22265,1.36328 -1.23829,1.35157 -0.61328,0.68359 -0.61328,0.66797 -0.59765,0.67187 -0.60938,0.66797 -0.59766,0.66797 -0.59765,0.65625 -0.58203,0.65234 -0.59766,0.64063 -0.28516,0.3125 -0.28515,0.32812 -1.14063,1.25 -0.28125,0.31641 -0.27343,0.29688 -0.26954,0.30078 -0.26953,0.3125 -0.26953,0.29687 -0.26953,0.28516 -0.27344,0.30078 -0.2539,0.28125 -0.26953,0.30078 -0.25782,0.28516 -0.2539,0.26953 -0.24219,0.28515 -0.25781,0.26954 -0.48438,0.53906 -0.24219,0.27344 -0.24218,0.2539 -0.22657,0.25781 -0.24218,0.25391 -0.22657,0.25781 -0.21484,0.24219 -0.22656,0.25391 -0.21485,0.23047 -0.21093,0.23828 -0.21485,0.23047 -0.39843,0.45312 -0.39844,0.42969 -0.1836,0.21094 -0.1875,0.19921 -0.36718,0.39844 -0.17188,0.19922 -0.17187,0.1875 -0.15625,0.16797 -0.15625,0.1875 -0.15625,0.16797 -0.15625,0.15625 -0.14063,0.17187 -0.14453,0.15625 -0.12891,0.14453 -0.125,0.14063 -0.1289,0.14062 -0.12891,0.12891 -0.22656,0.25781 -0.10156,0.11328 -0.0977,0.11329 -0.0859,0.10156 -0.10156,0.0977 -0.0703,0.0859 -0.0859,0.0859 -0.0703,0.0859 -0.0547,0.0703 -0.0586,0.0547 -0.0859,0.0859 -0.0273,0.0312 -0.0156,0.0273 -0.0977,0.0977 v 0.0156 h -0.0156 l -0.0156,0.0156 v 0.0117 l -0.0117,0.0156 -0.11329,0.11328 -0.0742,0.0703 -0.082,0.0703 -0.0742,0.0742 -0.082,0.0547 -0.0859,0.0586 -0.0859,0.0547 -0.0859,0.0586 -0.17187,0.0859 -0.0977,0.043 -0.0859,0.043 -0.0859,0.0273 -0.0977,0.043 -0.10156,0.0273 -0.0977,0.0156 -0.10156,0.0273 -0.0977,0.0156 -0.10156,0.0117 -0.0977,0.0156 h -7.38672 l -0.35546,-0.0156 h -7.55469 l -0.46875,-0.0117 h -7.58203 l -0.52735,-0.0156 h -7.65625 l -2.23437,-0.0156 h -5.58985 l -1.09765,-0.0117 h -7.03906 l -0.52735,-0.0156 h -7.41406 l -0.46875,-0.0156 h -7.59766 l -0.34375,-0.0117 h -5.97265 l -0.10157,-0.0156 -0.0976,-0.0117 h -0.0859 l -0.10156,-0.0312 -0.0977,-0.0117 -0.0859,-0.0156 -0.10156,-0.0273 -0.082,-0.0312 -0.10156,-0.0273 -0.17188,-0.0859 -0.082,-0.0273 -0.0859,-0.043 -0.0859,-0.0586 -0.0703,-0.0391 -0.0859,-0.043 -0.0703,-0.0586 -0.0859,-0.0586 -0.0703,-0.0547 -0.0742,-0.0586 -0.0703,-0.0703 -0.0703,-0.0547 -0.0586,-0.0742 -0.0703,-0.0703 -0.0547,-0.0703 -0.11719,-0.14062 -0.0547,-0.0859 -0.043,-0.0742 -0.0586,-0.082 -0.0859,-0.17188 -0.0391,-0.0859 -0.043,-0.0859 -0.0312,-0.0859 -0.0273,-0.0859 -0.0274,-0.0977 -0.0273,-0.0859 -0.0312,-0.0977 -0.0117,-0.0859 -0.0156,-0.10157 -0.0156,-0.0977 -0.0117,-0.10157 v -0.0977 l -0.0156,-0.10156 V 124.58594 l 0.0156,-0.10156 v -0.0977 l 0.0117,-0.10156 0.0156,-0.0977 0.0156,-0.0859 0.0273,-0.10156 0.0156,-0.0859 0.0273,-0.0977 0.0274,-0.0859 0.0273,-0.0977 0.0859,-0.17187 0.0273,-0.0859 0.0586,-0.0859 0.043,-0.0859 0.043,-0.0703 0.0547,-0.0859 0.11719,-0.14063 0.0547,-0.0859 0.1289,-0.1289 0.0586,-0.0703 0.0703,-0.0703 0.0703,-0.0586 0.0703,-0.0547 0.0703,-0.0586 0.0742,-0.0547 0.082,-0.0586 0.0859,-0.043 0.0742,-0.0586 0.082,-0.0391 0.17188,-0.0859 0.0859,-0.0312 0.0859,-0.043 0.0977,-0.0273 0.0859,-0.0273 0.10156,-0.0156 0.082,-0.0273 0.10156,-0.0156 0.0977,-0.0117 0.10156,-0.0156 0.0977,-0.0156 h 0.19922"
       transform="scale(-1,1)"
       id="path8634"
       style="stroke-width:0.708661;stroke-dasharray:none" />
  </g>
  <g
     id="g454"
     transform="translate(2.1877151)">
    <path
       fill="none"
       stroke-width="1.417203"
       stroke-linecap="round"
       stroke-linejoin="round"
       stroke="#000000"
       stroke-opacity="1"
       stroke-miterlimit="10"
       d="m 18,-579.44922 h 402.64844 l 0.24218,0.0156 0.22657,0.0156 0.24218,0.0273 0.22657,0.043 0.45703,0.0977 0.4414,0.14453 0.42579,0.16797 0.41406,0.21484 0.39844,0.22657 0.36718,0.25781 0.35938,0.29687 0.32422,0.31641 0.30078,0.32422 0.26953,0.35547 0.11328,0.1875 0.22656,0.39844 0.0859,0.19921 0.10156,0.19922 0.0703,0.21094 0.0703,0.21484 0.0586,0.21485 0.043,0.21094 0.043,0.22656 0.0273,0.23047 0.0156,0.22656 v 0.22656 l -0.0156,0.23047 v 0.125 l -0.0156,0.0586 v 0.0586 l -0.0117,0.0547 v 0.10156 l -0.0156,0.125 -0.0156,0.14453 -0.0117,0.16797 -0.0312,0.19922 -0.0117,0.23047 -0.0312,0.24218 -0.0273,0.28516 -0.0274,0.28125 -0.0273,0.32812 -0.043,0.34375 -0.0312,0.36719 -0.043,0.39844 -0.0391,0.41406 -0.043,0.42578 -0.0586,0.46875 -0.043,0.47266 -0.043,0.49609 -0.0547,0.52735 -0.0586,0.53906 -0.0586,0.55469 -0.0547,0.58593 -0.0586,0.59766 -0.0703,0.625 -0.0547,0.625 -0.0742,0.66797 -0.0703,0.66797 -0.0547,0.68359 -0.0742,0.71094 -0.082,0.72656 -0.0742,0.74219 -0.0703,0.75391 -0.0859,0.76562 -0.0703,0.79688 -0.0859,0.79687 -0.0859,0.82813 -0.0859,0.82421 -0.0703,0.83985 -0.0977,0.86719 -0.0859,0.86718 -0.0859,0.88282 -0.0859,0.89453 -0.0977,0.91015 -0.0859,0.92578 -0.10157,0.92579 -0.0976,0.95312 -0.0859,0.95313 -0.0977,0.95312 -0.10156,0.98047 -0.0976,0.98437 -0.19922,1.99219 -0.19922,2.03125 -0.21485,2.05078 -0.21484,2.08985 -0.21094,2.12109 -0.21484,2.13281 -0.21484,2.14844 -0.21094,2.17969 -0.23047,2.1914 -0.22656,2.19141 -0.44141,4.42188 -0.88281,8.85156 -0.22656,2.1914 -0.21094,2.17579 -0.23047,2.17578 -0.21094,2.14843 -0.21484,2.13672 -0.21485,2.11719 -0.21093,2.07813 -0.19922,2.05078 -0.21485,2.03125 -0.19921,1.98047 -0.0977,0.98046 -0.0859,0.98047 -0.10156,0.95313 -0.0977,0.95312 -0.10156,0.94141 -0.0859,0.92578 -0.0976,0.92188 -0.0859,0.89843 -0.0859,0.89453 -0.0976,0.88282 -0.0859,0.86718 -0.0859,0.85547 -0.0859,0.83985 -0.0859,0.82422 -0.0703,0.8125 -0.0859,0.79687 -0.0859,0.78125 -0.0703,0.76953 -0.0703,0.75391 -0.0859,0.73828 -0.14063,1.42187 -0.0586,0.6836 -0.0703,0.66797 -0.0703,0.64062 -0.0586,0.64063 -0.0703,0.61328 -0.0586,0.59765 -0.0547,0.56641 -0.0586,0.55469 -0.0547,0.54297 -0.043,0.51172 -0.0586,0.48437 -0.043,0.48438 -0.043,0.4414 -0.043,0.42578 -0.043,0.41016 -0.043,0.38672 -0.0274,0.35547 -0.043,0.33984 -0.0273,0.3125 -0.0273,0.30078 -0.0312,0.25391 -0.0274,0.24219 -0.0156,0.23046 -0.0274,0.1836 -0.0117,0.17187 -0.0156,0.125 v 0.11719 l -0.0156,0.082 -0.0117,0.0586 v 0.1289 l -0.0156,0.0703 -0.0156,0.11329 -0.0117,0.1289 -0.0156,0.15625 -0.0156,0.1836 -0.0274,0.21484 -0.0156,0.24219 -0.0273,0.2539 -0.0274,0.28516 -0.0273,0.3125 -0.043,0.32812 -0.0312,0.35547 -0.043,0.38672 -0.0391,0.39844 -0.043,0.42578 -0.043,0.44141 -0.043,0.46875 -0.0586,0.48437 -0.043,0.51172 -0.0547,0.52734 -0.0586,0.55469 -0.0547,0.56641 -0.0586,0.58594 -0.0586,0.60937 -0.0703,0.62891 -0.0547,0.65234 -0.0742,0.65625 -0.0703,0.68359 -0.0703,0.69532 -0.0703,0.71093 -0.0703,0.74219 -0.0742,0.73828 -0.082,0.76953 -0.0742,0.78125 -0.0859,0.79688 -0.082,0.79687 -0.0742,0.82422 -0.082,0.83985 -0.0859,0.85547 -0.0859,0.86718 -0.10156,0.86719 -0.0859,0.89453 -0.082,0.89844 -0.10156,0.92578 -0.0859,0.92188 -0.0977,0.9414 -0.10156,0.9375 -0.0859,0.96875 -0.0976,0.96875 -0.10156,0.98047 -0.0977,0.98047 -0.19922,2.00781 -0.21484,2.03516 -0.19922,2.0625 -0.21094,2.08984 -0.21484,2.1211 -0.21485,2.14843 -0.22656,2.14844 -0.21094,2.17578 -0.23047,2.19141 -0.4414,4.41015 -0.44141,4.42579 -0.4375,4.42578 -0.23047,2.20312 -0.22656,2.19141 -0.21484,2.1914 -0.21094,2.16407 -0.21484,2.14843 -0.22657,2.13282 -0.19922,2.09375 -0.21484,2.07422 -0.21094,2.05078 -0.19922,2.01953 -0.19921,1.97656 -0.10157,0.98438 -0.0976,0.96484 -0.0859,0.95312 -0.10156,0.94141 -0.0977,0.9375 -0.0859,0.92578 -0.10156,0.91016 -0.0859,0.89453 -0.082,0.89844 -0.10156,0.86718 -0.0859,0.86719 -0.0859,0.83985 -0.082,0.83984 -0.0742,0.82422 -0.0859,0.79687 -0.082,0.79688 -0.0742,0.76953 -0.0703,0.76953 -0.0859,0.73828 -0.0703,0.72656 -0.0703,0.71094 -0.0703,0.69531 -0.0703,0.6836 -0.0586,0.65625 -0.0703,0.64062 -0.0586,0.625 -0.0703,0.59766 -0.0586,0.58203 -0.0547,0.57031 -0.0586,0.53907 -0.043,0.52734 -0.0547,0.51172 -0.043,0.48437 -0.0586,0.45703 -0.043,0.44141 -0.043,0.42578 -0.0273,0.39844 -0.043,0.37109 -0.043,0.33985 -0.0273,0.32812 -0.0274,0.3125 -0.0312,0.26953 -0.0273,0.25782 -0.0156,0.24218 -0.0274,0.19922 -0.0117,0.16797 -0.0156,0.15625 -0.0156,0.12891 -0.0117,0.10156 v 0.0703 l -0.0156,0.0547 v 0.0586 l -0.0156,0.0703 v 0.0859 l -0.0117,0.12891 -0.0156,0.14062 -0.0156,0.17188 -0.0274,0.19922 -0.0156,0.21484 -0.0274,0.25391 -0.0273,0.26953 -0.0273,0.30078 -0.0312,0.3125 -0.043,0.33984 -0.0274,0.3711 -0.043,0.39844 -0.043,0.41406 -0.043,0.42578 -0.043,0.45312 -0.0547,0.48438 -0.043,0.5 -0.0586,0.51172 -0.0547,0.53906 -0.0586,0.55469 -0.0547,0.58594 -0.0586,0.59765 -0.0547,0.625 -0.0742,0.625 -0.0703,0.65625 -0.0547,0.66797 -0.0742,0.69531 -0.0703,0.71485 -0.0703,0.71093 -0.0859,0.73829 -0.0703,0.7539 -0.0703,0.78125 -0.0859,0.78516 -0.0859,0.79687 -0.0703,0.82422 -0.0859,0.82422 -0.0859,0.83984 -0.0859,0.86719 -0.0976,0.8711 -0.0859,0.8789 -0.0859,0.89844 -0.10156,0.91016 -0.082,0.92578 -0.10156,0.92187 -0.0859,0.94141 -0.0977,0.95312 -0.10156,0.96875 -0.0977,0.96485 -0.19922,1.97656 -0.19921,2.02344 -0.21485,2.03515 -0.19922,2.07422 -0.21484,2.10547 -0.21094,2.12109 -0.21484,2.14844 -0.22656,2.16406 -0.21485,2.19141 -0.22656,2.19141 -0.21484,2.20312 -0.89454,8.85156 -0.4414,4.41016 -0.22656,2.19141 -0.21485,2.1914 -0.22656,2.16016 -0.21484,2.13672 -0.21094,2.13281 -0.21485,2.08984 -0.21484,2.07813 -0.19922,2.03516 -0.19922,2.01953 -0.19922,1.96484 -0.0976,0.98047 -0.10156,0.95312 -0.0977,0.95313 -0.0859,0.94141 -0.10156,0.9375 -0.082,0.91015 -0.10156,0.91016 -0.0859,0.89844 -0.0859,0.88281 -0.0977,0.86719 -0.0859,0.85156 -0.0859,0.83984 -0.0859,0.82422 -0.0703,0.82813 -0.0859,0.79687 -0.0703,0.78125 -0.0859,0.76953 -0.0703,0.75391 -0.0703,0.73828 -0.0859,0.71094 -0.0703,0.71093 -0.0586,0.6836 -0.0703,0.66797 -0.0703,0.65625 -0.0586,0.625 -0.0703,0.625 -0.0586,0.58593 -0.0547,0.58204 -0.0586,0.55468 -0.0547,0.54297 -0.043,0.51172 -0.0586,0.49609 -0.043,0.46875 -0.043,0.45704 -0.043,0.42578 -0.043,0.41406 -0.0391,0.38281 -0.043,0.3711 -0.0312,0.33984 -0.0273,0.3125 -0.0274,0.28516 -0.0312,0.26953 -0.0273,0.24218 -0.0273,0.23047 -0.0156,0.1836 -0.0117,0.17187 -0.0156,0.14063 -0.0156,0.11328 -0.0117,0.0859 v 0.11328 l -0.0156,0.0312 v 0.082 l -0.0156,0.0586 v 0.0703 l -0.0117,0.0859 v 0.10156 l -0.0156,0.11329 -0.0156,0.125 -0.0117,0.1289 -0.0156,0.14453 -0.0117,0.15625 -0.0156,0.16797 -0.0274,0.1875 -0.0156,0.1836 -0.0156,0.19921 -0.0273,0.21485 -0.0156,0.21094 -0.082,0.72656 -0.0156,0.25781 -0.0274,0.26953 -0.0586,0.57031 -0.0703,0.59766 -0.0586,0.63672 -0.0703,0.67187 -0.0703,0.69532 -0.0703,0.72656 -0.0742,0.76953 -0.082,0.78125 -0.0859,0.8125 -0.0703,0.83594 -0.10157,0.85547 -0.0859,0.88281 -0.0859,0.89453 -0.0977,0.92578 -0.0859,0.9375 -0.10157,0.95313 -0.0976,0.98437 -0.10157,0.98047 -0.0976,0.99609 -0.10156,1.01172 -0.21094,2.04688 -0.19922,2.0625 -0.21484,2.09375 -0.42579,4.19531 -0.19921,2.07813 -0.21485,2.04687 -0.0976,1.01172 -0.10157,1.01172 -0.0976,0.98047 -0.10157,0.98047 -0.0976,0.96875 -0.10156,0.9375 -0.082,0.9414 -0.10156,0.91016 -0.0859,0.88281 -0.0859,0.86719 -0.0859,0.85156 -0.082,0.82813 -0.0859,0.79687 -0.0703,0.76563 -0.0742,0.74218 -0.0703,0.71094 -0.0703,0.68359 -0.0703,0.65235 -0.0586,0.61328 -0.0547,0.58203 -0.0586,0.55469 -0.0274,0.25781 -0.0312,0.25391 -0.0117,0.23047 -0.0312,0.24218 -0.0273,0.21094 -0.0117,0.21484 -0.0156,0.19922 -0.0274,0.1836 -0.0312,0.34375 -0.0117,0.15625 -0.0156,0.14062 -0.0156,0.14453 -0.0117,0.11328 -0.0156,0.11329 -0.0156,0.0977 v 0.0859 l -0.0117,0.0703 v 0.0586 l -0.0156,0.0547 v 0.11719 l -0.0117,0.043 v 0.0547 l -0.0156,0.0703 v 0.0742 l -0.0156,0.0977 -0.0117,0.10157 v 0.11328 l -0.0156,0.125 -0.0156,0.14453 -0.0117,0.15625 -0.0156,0.15625 -0.0273,0.17187 -0.0156,0.1836 -0.0156,0.19922 -0.0274,0.19922 -0.0117,0.21484 -0.0312,0.22656 -0.0273,0.24219 -0.0156,0.24219 -0.0274,0.2539 -0.0547,0.52735 -0.0586,0.58203 -0.0586,0.61328 -0.0703,0.64062 -0.0703,0.66797 -0.0703,0.71094 -0.0703,0.74219 -0.0742,0.7539 -0.0859,0.79688 -0.0703,0.80859 -0.0859,0.85547 -0.0977,0.85156 -0.0859,0.89844 -0.0859,0.89453 -0.0977,0.92578 -0.0859,0.95313 -0.10157,0.95312 -0.0976,0.98047 -0.10157,0.98438 -0.0976,0.99609 -0.10156,1.00781 -0.0977,1.02735 -0.21484,2.0625 -0.21094,2.07812 -0.21485,2.10547 -0.19921,2.08985 -0.21485,2.08984 -0.21094,2.06641 -0.10156,1.00781 -0.0976,1.01172 -0.10157,0.99609 -0.0976,0.99609 -0.10157,0.96485 -0.0976,0.96875 -0.0859,0.9375 -0.10156,0.92578 -0.082,0.91015 -0.10157,0.88282 -0.0859,0.86718 -0.0859,0.83985 -0.0703,0.8125 -0.0859,0.79687 -0.0703,0.76953 -0.0859,0.73829 -0.0703,0.69531 -0.0586,0.68359 -0.0703,0.64063 -0.0547,0.61328 -0.0586,0.5664 -0.0586,0.54297 -0.0274,0.25391 -0.0273,0.24219 -0.0156,0.23047 -0.0273,0.22656 -0.0156,0.21484 -0.0273,0.21094 -0.0156,0.18359 -0.0117,0.1875 -0.0312,0.17188 -0.0117,0.16797 -0.0156,0.14453 -0.0117,0.14062 -0.0156,0.12891 -0.0156,0.11328 v 0.11328 l -0.0117,0.0859 -0.0156,0.0859 v 0.11328 l -0.0156,0.043 v 0.1289 l -0.0547,0.46875 -0.0703,0.46875 -0.11719,0.45703 -0.125,0.44141 -0.17188,0.4375 -0.18359,0.41406 -0.23047,0.38282 -0.25391,0.38671 -0.14453,0.17188 -0.14062,0.16797 -0.15625,0.17187 -0.15625,0.15625 -0.17188,0.15625 -0.17187,0.14063 -0.1836,0.14453 -0.18359,0.12891 -0.19922,0.125 -0.19922,0.11718 -0.21484,0.0977 -0.22656,0.10156 -0.23047,0.0977 -0.22656,0.0703 -0.24219,0.0742 -0.25391,0.0547 -0.25781,0.0586 -0.25391,0.043 -0.28515,0.0273 -0.26953,0.0156 -0.30079,0.0117 h -0.28515 l -0.3125,-0.0117 -0.0156,-0.0156 h -0.125 l -0.0859,-0.0156 -0.10157,-0.0117 h -0.125 l -0.14453,-0.0156 -0.15625,-0.0156 -0.18359,-0.0117 -0.21485,-0.0312 -0.22656,-0.0117 -0.24219,-0.0312 -0.26953,-0.0117 -0.28515,-0.0273 -0.30078,-0.0312 -0.32422,-0.0273 -0.34375,-0.0273 -0.3711,-0.0312 -0.36718,-0.0273 -0.82813,-0.0859 -0.4375,-0.0273 -0.45703,-0.043 -0.46875,-0.043 -0.5,-0.043 -0.51172,-0.043 -0.52734,-0.043 -0.53907,-0.0547 -0.57031,-0.043 -0.58203,-0.0586 -0.59766,-0.0547 -0.61328,-0.043 -0.64062,-0.0586 -0.63672,-0.0547 -0.67188,-0.0586 -0.67968,-0.0703 -0.71485,-0.0586 -0.71093,-0.0547 -0.72266,-0.0742 -0.75391,-0.0547 -0.76953,-0.0703 -0.78125,-0.0742 -0.79687,-0.0703 -0.8125,-0.0703 -0.82422,-0.0703 -0.83985,-0.0703 -0.85546,-0.0742 -0.88282,-0.082 -0.8789,-0.0742 -0.89844,-0.082 -0.92578,-0.0859 -0.92188,-0.0742 -0.95312,-0.082 -0.95313,-0.0859 -0.98437,-0.0859 -0.98047,-0.0859 -1.01172,-0.0859 -1.00781,-0.0977 -1.02735,-0.0859 -1.05078,-0.0859 -1.05468,-0.10156 -1.06641,-0.082 -1.08203,-0.10156 -1.09375,-0.0977 -1.10938,-0.10156 -1.125,-0.0977 -1.125,-0.10156 -1.15234,-0.0977 -1.15234,-0.10156 -1.16407,-0.0977 -1.18359,-0.10156 -1.19531,-0.11328 -1.20703,-0.0977 -1.21094,-0.11718 -1.22266,-0.0977 -1.23828,-0.11328 -1.25,-0.10156 -1.26953,-0.11329 -1.26563,-0.11328 -1.28125,-0.11328 -1.29296,-0.11328 -1.3086,-0.11328 -1.30859,-0.11719 -1.32422,-0.11328 -1.33594,-0.11328 -1.33984,-0.12891 -1.35156,-0.11328 -1.36329,-0.1289 -1.36718,-0.11329 -2.77344,-0.24218 -2.80469,-0.24219 -2.84375,-0.25391 -2.875,-0.25781 -2.91797,-0.25391 -2.92968,-0.25781 -2.97266,-0.2539 -3.00391,-0.27344 -3.03125,-0.25391 -3.05859,-0.26953 -3.07422,-0.27344 -3.11328,-0.26953 -3.13281,-0.28515 -3.15625,-0.26954 -3.17188,-0.28515 -3.20312,-0.26953 -3.21485,-0.28516 -3.23047,-0.28516 -3.25781,-0.28125 -3.27344,-0.28515 -3.28515,-0.30078 -3.30078,-0.28516 -3.31641,-0.28125 -3.3125,-0.30078 -3.34375,-0.28516 -6.70312,-0.59765 -6.73047,-0.58203 -6.75782,-0.59766 -13.53125,-1.17969 -6.76953,-0.59765 -6.76172,-0.59766 -6.72656,-0.58594 -6.70312,-0.59765 -3.34375,-0.28125 -3.32813,-0.30079 -3.3164,-0.28515 -3.30079,-0.29688 -3.28515,-0.28515 -3.27344,-0.28516 -3.25781,-0.28515 -6.46094,-0.57032 -3.19922,-0.28125 -3.17187,-0.27343 -3.16016,-0.28125 -3.14453,-0.27344 -3.10156,-0.26953 -3.08594,-0.26953 -3.07422,-0.26954 -3.03125,-0.26953 -3,-0.25781 -2.97656,-0.26953 -2.94531,-0.25781 -2.914066,-0.25391 -2.875,-0.25781 -2.859375,-0.24219 -2.804688,-0.25391 -2.773437,-0.24218 -1.378906,-0.11328 -1.367188,-0.12891 -2.703125,-0.22656 -1.335937,-0.11719 -1.324219,-0.125 -1.308594,-0.11719 -1.308594,-0.11328 -1.296875,-0.11328 -1.292968,-0.11328 -1.265626,-0.11328 -1.269531,-0.10157 -1.25,-0.11328 -1.238281,-0.11328 -1.238281,-0.0977 -1.207031,-0.11329 -1.210938,-0.10156 -1.195312,-0.11328 -1.195313,-0.10156 -1.167969,-0.0977 -1.164062,-0.10156 -1.140625,-0.0977 -1.136719,-0.10156 -1.125,-0.0977 -1.109375,-0.10156 -1.109375,-0.0977 -1.082031,-0.10157 -1.066407,-0.082 -1.066406,-0.10156 -1.039062,-0.0859 -1.039063,-0.0977 -1.023437,-0.0859 -1.992188,-0.17188 -0.980468,-0.0859 -0.96875,-0.0859 -0.953126,-0.082 -1.851562,-0.17188 -0.910156,-0.0703 -0.894532,-0.0859 -0.867187,-0.0703 -0.871094,-0.0742 -0.839843,-0.082 -0.835938,-0.0742 -1.625,-0.14062 -0.78125,-0.0703 -0.769531,-0.0586 -0.753907,-0.0703 -0.738281,-0.0703 -0.710937,-0.0586 -0.710938,-0.0547 -0.683594,-0.0742 -0.683593,-0.0547 -0.65625,-0.0586 -0.636719,-0.0547 -0.613281,-0.0586 -0.613281,-0.043 -0.582032,-0.0547 -0.570312,-0.043 -0.554688,-0.0586 -0.527344,-0.043 -1.023437,-0.0859 -0.9375,-0.0859 -0.441406,-0.0391 -0.425781,-0.043 -0.398438,-0.0312 -0.398438,-0.0273 -0.355468,-0.043 -0.355469,-0.0273 -0.328125,-0.0273 -0.3125,-0.0312 -0.285156,-0.0273 -0.285156,-0.0156 -0.242188,-0.0273 -0.242188,-0.0156 -0.214843,-0.0273 -0.183594,-0.0156 -0.171875,-0.0117 -0.15625,-0.0156 -0.125,-0.0117 h -0.117188 l -0.08203,-0.0156 H 18.027344 L 18,-140.20703 h -0.01172 l -0.117187,-0.0117 -0.226563,-0.0312 -0.46875,-0.0703 -0.441406,-0.11328 -0.441406,-0.14063 -0.425781,-0.16015 -0.398438,-0.19922 -0.398438,-0.21094 -0.371093,-0.24219 -0.339844,-0.26953 -0.328125,-0.28516 -0.3125,-0.3125 -0.269531,-0.34375 -0.257813,-0.33984 -0.214844,-0.38281 -0.199218,-0.38672 -0.15625,-0.41016 -0.07031,-0.21484 -0.05469,-0.21484 -0.04297,-0.21094 -0.04297,-0.23047 -0.04297,-0.21094 -0.01563,-0.24219 -0.01172,-0.22656 v -428.44531 l 0.05469,-0.45313 0.02734,-0.23046 0.04297,-0.22657 0.128906,-0.4414 0.144531,-0.42578 0.183594,-0.41407 0.210937,-0.38281 0.242188,-0.37109 0.273438,-0.35547 0.296874,-0.32813 0.328126,-0.29687 0.339843,-0.28516 0.371094,-0.25781 0.382813,-0.21094 0.398437,-0.19922 0.429687,-0.15625 0.425782,-0.1289 0.226562,-0.0586 0.226563,-0.0391 0.230469,-0.0312 0.226562,-0.0273 0.226562,-0.0156 H 18"
       id="path8636"
       style="stroke-width:0.708661;stroke-dasharray:none"
       transform="scale(1,-1)" />
    <path
       fill="none"
       stroke-width="1.417203"
       stroke-linecap="round"
       stroke-linejoin="round"
       stroke="#000000"
       stroke-opacity="1"
       stroke-miterlimit="10"
       d="m 101.58984,-516.96094 -2.460934,-0.55468 -1.980468,-1.57813 -1.09375,-2.26172 v -2.53125 l 1.09375,-2.26562 1.980468,-1.57813 2.460934,-0.55469 2.44532,0.55469 1.98047,1.57813 1.09375,2.26562 v 2.53125 l -1.09375,2.26172 -1.98047,1.57813 -2.44532,0.55468"
       transform="scale(1,-1)"
       id="path8638"
       style="stroke-width:0.708661;stroke-dasharray:none" />
    <path
       fill="none"
       stroke-width="1.417203"
       stroke-linecap="round"
       stroke-linejoin="round"
       stroke="#000000"
       stroke-opacity="1"
       stroke-miterlimit="10"
       d="m 309.14453,-516.96094 -2.46094,-0.55468 -1.97656,-1.57813 -1.09766,-2.26172 v -2.53125 l 1.09766,-2.26562 1.97656,-1.57813 2.46094,-0.55469 2.44922,0.55469 1.97656,1.57813 1.09375,2.26562 v 2.53125 l -1.09375,2.26172 -1.97656,1.57813 -2.44922,0.55468"
       transform="scale(1,-1)"
       id="path8640"
       style="stroke-width:0.708661;stroke-dasharray:none" />
    <path
       fill="none"
       stroke-width="1.417203"
       stroke-linecap="round"
       stroke-linejoin="round"
       stroke="#000000"
       stroke-opacity="1"
       stroke-miterlimit="10"
       d="m 247.29687,-217.86328 -2.46093,-0.56641 -1.97657,-1.5664 -1.09765,-2.27735 v -2.51562 l 1.09765,-2.27735 1.97657,-1.57812 2.46093,-0.55859 2.46094,0.55859 1.96485,1.57812 1.09375,2.27735 v 2.51562 l -1.09375,2.27735 -1.96485,1.5664 -2.46094,0.56641"
       transform="scale(1,-1)"
       id="path8642"
       style="stroke-width:0.708661;stroke-dasharray:none" />
    <path
       fill="none"
       stroke-width="1.417203"
       stroke-linecap="round"
       stroke-linejoin="round"
       stroke="#000000"
       stroke-opacity="1"
       stroke-miterlimit="10"
       d="m 282.87891,-327.33203 -2.46094,-0.56641 -1.96094,-1.5664 -1.09766,-2.27735 v -2.51562 l 1.09766,-2.27735 1.96094,-1.58203 2.46094,-0.55468 2.46484,0.55468 1.97656,1.58203 1.09375,2.27735 v 2.51562 l -1.09375,2.27735 -1.97656,1.5664 -2.46484,0.56641"
       transform="scale(1,-1)"
       id="path8644"
       style="stroke-width:0.708661;stroke-dasharray:none" />
    <path
       fill="none"
       stroke-width="1.417203"
       stroke-linecap="round"
       stroke-linejoin="round"
       stroke="#000000"
       stroke-opacity="1"
       stroke-miterlimit="10"
       d="m 140.03125,-226.18359 -2.71484,-0.54297 -2.29297,-1.53516 -1.53516,-2.30469 -0.53906,-2.70312 0.53906,-2.71875 1.53516,-2.28906 2.29297,-1.53907 2.71484,-0.53906 2.71875,0.53906 2.29297,1.53907 1.53515,2.28906 0.53907,2.71875 -0.53907,2.70312 -1.53515,2.30469 -2.29297,1.53516 -2.71875,0.54297"
       transform="scale(1,-1)"
       id="path8646"
       style="stroke-width:0.708661;stroke-dasharray:none" />
    <path
       fill="none"
       stroke-width="1.417203"
       stroke-linecap="round"
       stroke-linejoin="round"
       stroke="#000000"
       stroke-opacity="1"
       stroke-miterlimit="10"
       d="m 51.050781,-154.29297 -2.460937,-0.5664 -1.960938,-1.56641 -1.097656,-2.27734 v -2.51563 l 1.097656,-2.27734 1.960938,-1.56641 2.460937,-0.57031 2.460938,0.57031 1.980469,1.56641 1.09375,2.27734 v 2.51563 l -1.09375,2.27734 -1.980469,1.56641 -2.460938,0.5664"
       transform="scale(1,-1)"
       id="path8648"
       style="stroke-width:0.708661;stroke-dasharray:none" />
    <path
       fill="none"
       stroke-width="1.417203"
       stroke-linecap="round"
       stroke-linejoin="round"
       stroke="#000000"
       stroke-opacity="1"
       stroke-miterlimit="10"
       d="m 309.64453,-133.39062 -2.46484,-0.55469 -1.97657,-1.57813 -1.08203,-2.27734 v -2.51953 l 1.08203,-2.27735 1.97657,-1.5625 2.46484,-0.57031 2.46094,0.57031 1.96094,1.5625 1.09765,2.27735 v 2.51953 l -1.09765,2.27734 -1.96094,1.57813 -2.46094,0.55469"
       transform="scale(1,-1)"
       id="path8650"
       style="stroke-width:0.708661;stroke-dasharray:none" />
    <path
       fill="none"
       stroke-width="1.417203"
       stroke-linecap="round"
       stroke-linejoin="round"
       stroke="#000000"
       stroke-opacity="1"
       stroke-miterlimit="10"
       d="m 156.125,-151.48828 h 0.12891 l 0.0547,0.0156 h 0.12891 l 0.0859,0.0117 h 0.0977 l 0.10157,0.0156 h 0.11328 l 0.11328,0.0117 h 0.1289 l 0.14063,0.0156 0.14453,0.0156 0.15625,0.0117 h 0.17188 l 0.16796,0.0156 0.1875,0.0156 0.1836,0.0117 0.39844,0.0312 0.21484,0.0117 0.45312,0.0312 0.22657,0.0117 0.25781,0.0273 0.24219,0.0156 0.26953,0.0156 0.25781,0.0117 0.26953,0.0312 0.28516,0.0117 0.28515,0.0312 0.29688,0.0117 0.30078,0.0156 0.3125,0.0273 0.3125,0.0156 0.3125,0.0273 0.32813,0.0273 0.33984,0.0156 0.34375,0.0273 0.33984,0.0312 0.35547,0.0117 0.71094,0.0586 0.74219,0.043 0.76562,0.0547 0.78516,0.0586 0.80859,0.0547 0.82422,0.0586 0.83984,0.0586 0.86719,0.0547 0.8711,0.0703 0.89453,0.0586 0.91015,0.0547 0.92578,0.0742 0.9375,0.0703 0.95313,0.0547 0.96875,0.0742 0.96875,0.0703 0.98047,0.0547 0.99609,0.0742 1.01172,0.0703 1.00781,0.0703 1.02735,0.0703 1.02343,0.0742 2.0625,0.14063 2.08985,0.14062 4.19922,0.30078 2.08984,0.14063 2.09375,0.14453 2.0625,0.14063 1.03906,0.0859 1.02344,0.0703 1.01172,0.0586 1.00781,0.0703 1.99219,0.14063 0.96875,0.0742 0.96484,0.0703 0.96875,0.0547 0.9375,0.0742 0.92578,0.0547 0.92579,0.0703 0.89453,0.0586 0.88281,0.0703 0.86719,0.0586 0.85547,0.0547 0.82421,0.0586 0.82813,0.0547 1.5625,0.11719 0.74219,0.043 0.73828,0.0547 0.69531,0.043 0.35938,0.0273 0.32421,0.0312 0.34375,0.0117 0.3125,0.0273 0.32813,0.0156 0.3125,0.0273 0.29687,0.0312 0.30079,0.0117 0.29687,0.0156 0.28516,0.0273 0.28515,0.0156 0.26953,0.0156 0.25782,0.0273 0.26953,0.0117 0.48437,0.0312 0.24219,0.0273 0.22656,0.0156 0.21485,0.0117 0.21093,0.0156 0.19922,0.0156 0.19922,0.0117 0.1836,0.0156 0.1875,0.0156 h 0.17187 l 0.15625,0.0117 0.15625,0.0156 0.14063,0.0117 h 0.14453 l 0.125,0.0156 0.11328,0.0156 h 0.11719 l 0.0977,0.0117 h 0.17188 l 0.0703,0.0156 h 0.11328 l 0.043,0.0156 h 0.0703 v -0.21485 l 0.0156,-0.0703 v -1.82031 l 0.0156,-0.19922 v -1.99219 l 0.0117,-0.30078 v -1.57812 l 0.0156,-0.33985 v -1.83593 l 0.0117,-0.39844 v -1.65235 l 0.0156,-0.42578 v -1.82031 l 0.0156,-0.47266 v -1.46484 l 0.0117,-0.51172 v -1.55078 l 0.0156,-0.53906 v -1.65235 l 0.0156,-0.55468 v -1.15235 l 0.0117,-0.58203 v -1.79297 l 0.0156,-0.61328 v -1.25 l 0.0156,-0.6289 v -1.29297 l 0.0117,-0.65625 v -1.32032 l 0.0156,-0.66796 v -1.36719 l 0.0156,-0.6836 v -1.41015 l 0.0117,-0.71094 v -1.42187 l 0.0156,-1.46485 0.0117,-1.48047 v -1.50781 l 0.0156,-1.53516 0.0156,-1.55078 0.0117,-1.5664 v -1.59375 l 0.0156,-1.6211 0.0156,-1.63672 0.0117,-1.65234 0.0156,-1.67578 v -1.69531 l 0.0156,-1.71875 0.0117,-1.72266 0.0156,-1.75 0.0156,-1.76562 0.0117,-1.79297 v -1.80469 l 0.0156,-1.80859 0.0117,-1.83594 0.0156,-1.84766 0.0156,-1.86328 0.0117,-1.87891 0.0312,-3.8125 0.0117,-1.92187 0.0156,-1.93359 0.0156,-1.94922 0.0117,-1.94922 v -1.98047 l 0.0156,-1.97656 0.0156,-1.99219 0.0117,-2.00391 0.0156,-2.02343 0.0117,-2.01954 0.0156,-2.03515 0.0156,-2.04688 0.0117,-2.05078 0.0312,-4.125 0.0117,-2.07812 0.0156,-2.08985 0.0156,-2.07812 0.0273,-4.19531 0.0273,-4.22657 0.0273,-4.24218 0.0312,-4.25391 0.0273,-4.25391 0.043,-4.26562 0.0586,-8.56641 0.0547,-8.55078 0.0273,-4.26953 0.0312,-4.25391 0.0273,-4.23828 0.0273,-4.21484 0.0312,-4.21094 0.0117,-2.08984 0.0156,-2.07813 0.0117,-2.07812 0.0156,-2.07422 0.0156,-2.06641 0.0117,-2.0625 0.0156,-2.03515 0.0156,-2.04688 0.0117,-2.01953 0.0156,-2.01953 0.0156,-2.00781 0.0117,-2.00782 0.0156,-1.99218 0.0156,-1.96094 0.0117,-1.96485 0.0156,-1.96093 0.0117,-1.9375 v -1.91797 l 0.0156,-1.92188 0.0156,-1.89453 0.0117,-1.89062 0.0312,-3.72657 0.0117,-1.83593 0.0156,-1.82032 0.0156,-1.82421 0.0117,-1.77735 v -1.77734 l 0.0156,-1.76563 0.0156,-1.73437 0.0117,-1.72266 0.0156,-1.70703 0.0117,-1.67969 v -1.66406 l 0.0156,-1.63672 0.0156,-1.62109 0.0117,-1.60938 v -1.57812 l 0.0156,-1.56641 0.0156,-1.53515 0.0117,-1.50782 v -1.49609 l 0.0156,-1.47656 v -0.72657 l 0.0156,-0.71093 v -1.42188 l 0.0117,-0.71484 v -1.37891 l 0.0156,-0.68359 v -1.35156 l 0.0156,-0.65235 v -1.30859 l 0.0117,-0.65625 v -1.26563 l 0.0156,-0.625 v -1.22656 l 0.0117,-0.60937 v -1.76563 l 0.0156,-0.58203 v -1.67969 l 0.0156,-0.55469 v -1.0664 l 0.0117,-0.52735 v -2.01953 l 0.0156,-0.5 v -1.40625 l 0.0156,-0.45703 v -1.75 l 0.0117,-0.41015 v -1.58204 l 0.0156,-0.38281 v -1.73437 l 0.0156,-0.32813 v -1.75 l 0.0117,-0.26953 v -1.75 l 0.0156,-0.17187 v -1.50782 h -0.10156 l -0.043,-0.0156 h -0.125 l -0.0742,-0.0156 h -0.18359 l -0.11328,-0.0117 -0.11328,-0.0156 h -0.12891 l -0.1289,-0.0117 -0.14063,-0.0156 h -0.15625 l -0.15625,-0.0156 -0.15625,-0.0117 -0.1875,-0.0156 -0.18359,-0.0156 -0.1836,-0.0117 -0.19922,-0.0156 -0.21484,-0.0156 -0.21484,-0.0117 -0.45313,-0.0312 -0.24219,-0.0117 -0.25781,-0.0156 -0.24219,-0.0117 -0.26953,-0.0312 -0.26953,-0.0117 -0.26953,-0.0156 -0.28516,-0.0274 -0.28515,-0.0156 -0.29688,-0.0273 -0.3164,-0.0156 -0.29688,-0.0273 -0.32812,-0.0156 -0.3125,-0.0273 -0.33985,-0.0156 -0.32812,-0.0273 -0.34375,-0.0273 -0.69531,-0.043 -0.72657,-0.0586 -0.7539,-0.043 -0.76953,-0.0547 -0.78125,-0.0586 -0.8086,-0.0547 -0.82812,-0.0586 -0.85157,-0.0586 -0.86718,-0.0547 -0.88282,-0.0703 -0.89843,-0.0586 -0.91016,-0.0547 -0.92578,-0.0742 -0.9375,-0.0703 -0.95313,-0.0547 -0.96875,-0.0742 -0.98046,-0.0703 -0.98047,-0.0547 -0.9961,-0.0742 -2.02343,-0.14062 -1.02344,-0.0703 -2.0625,-0.14453 -2.07813,-0.14062 -2.08984,-0.15625 -2.10547,-0.14453 -2.09375,-0.14063 -2.08984,-0.14062 -2.07813,-0.16016 -2.0625,-0.14063 -1.02344,-0.0703 -1.01171,-0.0703 -1.00782,-0.0586 -0.99609,-0.0703 -0.98438,-0.0703 -0.98046,-0.0742 -0.96875,-0.0703 -0.95313,-0.0547 -0.9375,-0.0742 -0.92578,-0.0547 -0.91016,-0.0703 -0.89453,-0.0586 -0.88281,-0.0703 -0.86719,-0.0586 -0.85547,-0.0547 -0.82422,-0.0586 -0.8125,-0.0547 -0.78125,-0.0586 -0.76953,-0.0586 -0.7539,-0.0391 -0.72657,-0.0586 -0.69531,-0.043 -0.34375,-0.0273 -0.33984,-0.0156 -0.32813,-0.0273 -0.3125,-0.0273 -0.32812,-0.0156 -0.29688,-0.0273 -0.3125,-0.0156 -0.30078,-0.0273 -0.28515,-0.0156 -0.28125,-0.0156 -0.27344,-0.0274 -0.26953,-0.0156 -0.26953,-0.0117 -0.25782,-0.0273 -0.24218,-0.0156 -0.23829,-0.0156 -0.23046,-0.0117 -0.22657,-0.0156 -0.21484,-0.0156 -0.21094,-0.0117 -0.19922,-0.0156 -0.1875,-0.0156 -0.18359,-0.0117 -0.18359,-0.0156 -0.15625,-0.0156 -0.17188,-0.0117 h -0.14453 l -0.14063,-0.0156 -0.1289,-0.0117 h -0.12891 l -0.11328,-0.0156 h -0.11328 l -0.0859,-0.0156 h -0.0977 l -0.0703,-0.0117 h -0.17187 l -0.043,-0.0156 h -0.0586 v 0.46875 l -0.0117,0.11329 v 1.76562 l -0.0156,0.22656 v 1.78125 l -0.0117,0.29688 v 1.93359 l -0.0156,0.34375 v 1.49219 l -0.0156,0.39844 v 1.66406 l -0.0117,0.42969 v 1.83203 l -0.0156,0.47265 v 1.46485 l -0.0156,0.51172 v 1.5664 l -0.0117,0.52344 v 1.65234 l -0.0156,0.57032 v 1.15234 l -0.0156,0.58203 v 1.8086 l -0.0117,0.60937 v 1.25391 l -0.0156,0.625 v 1.29297 l -0.0156,0.65625 v 1.99218 l -0.0117,0.6836 v 1.3789 l -0.0156,0.69532 v 1.41015 l -0.0117,0.72656 -0.0156,1.44922 v 1.46875 l -0.0156,1.50782 -0.0117,1.50781 v 1.55078 l -0.0156,1.5625 -0.0156,1.58203 -0.0117,1.60547 -0.0156,1.63672 v 1.63672 l -0.0156,1.67968 -0.0117,1.67969 -0.0156,1.70703 -0.0156,1.71875 v 1.75 l -0.0117,1.76563 -0.0156,1.77734 -0.0117,1.79297 -0.0156,1.80859 -0.0156,1.82032 -0.0117,1.85156 -0.0156,1.86328 v 1.86328 l -0.0156,1.89063 -0.0117,1.90625 -0.0156,1.90625 -0.0156,1.9375 -0.0117,1.94922 -0.0156,1.94921 -0.0156,1.96094 -0.0117,1.98047 -0.0156,1.99219 -0.0117,2.0039 -0.0156,2.00782 -0.0156,2.01953 -0.0117,2.03515 -0.0156,2.03516 -0.0156,2.04688 -0.0117,2.0625 -0.0156,2.0625 -0.0156,2.07812 -0.0117,2.07813 -0.0156,2.08984 -0.0156,2.09375 -0.0117,2.08984 -0.0273,4.21094 -0.0312,4.24219 -0.0547,8.50781 -0.0586,8.55078 -0.0547,8.55078 -0.0312,4.28125 -0.0273,4.26953 -0.0273,4.25391 -0.0312,4.23828 -0.0273,4.22656 -0.0273,4.21094 -0.0156,2.09375 -0.0117,2.08985 -0.0312,4.15625 -0.0117,2.0625 -0.0156,2.0625 -0.0156,2.05078 -0.0117,2.03125 -0.0156,2.03515 -0.0156,2.01953 -0.0117,2.02344 -0.0156,2.00391 -0.0117,1.99219 -0.0156,1.97656 -0.0156,1.96484 -0.0117,1.96485 -0.0156,1.94921 -0.0156,1.91797 -0.0117,1.92188 -0.0156,1.90625 -0.0156,1.89453 -0.0117,1.875 -0.0156,1.86719 v 1.84765 l -0.0156,1.82032 -0.0117,1.82421 -0.0156,1.78907 -0.0117,1.78125 -0.0156,1.76172 -0.0156,1.75 v 1.73828 l -0.0117,1.70703 -0.0156,1.6914 -0.0156,1.66407 -0.0117,1.65234 v 1.63672 l -0.0156,1.60547 -0.0156,1.59375 -0.0117,1.5664 -0.0156,1.55079 v 1.52343 l -0.0156,1.50782 -0.0117,1.46484 v 1.46484 l -0.0156,0.71094 v 1.42578 l -0.0117,0.69531 v 1.39454 l -0.0156,0.66796 v 1.35157 l -0.0156,0.66797 v 1.29687 l -0.0117,0.65234 v 1.26954 l -0.0156,0.625 v 1.82031 l -0.0156,0.59765 v 1.16797 l -0.0117,0.58203 v 1.67969 l -0.0156,0.53906 v 1.59375 l -0.0156,0.52735 v 1.49219 l -0.0117,0.48437 v 1.42188 l -0.0156,0.45703 v 1.73437 l -0.0156,0.41406 v 1.57813 l -0.0117,0.37109 v 2.04688 l -0.0156,0.3164 v 1.69141 l -0.0117,0.25781 v 1.82032 l -0.0156,0.15625 v 1.15234"
       transform="scale(1,-1)"
       id="path8652"
       style="stroke-width:0.708661;stroke-dasharray:none" />
    <path
       fill="none"
       stroke-width="1.417203"
       stroke-linecap="round"
       stroke-linejoin="round"
       stroke="#000000"
       stroke-opacity="1"
       stroke-miterlimit="10"
       d="m 115.00781,-444.66797 -2.46484,-0.55469 -1.97656,-1.57812 -1.09375,-2.27734 v -2.51954 l 1.09375,-2.27734 1.97656,-1.5625 2.46484,-0.57031 2.44532,0.57031 1.97656,1.5625 1.09765,2.27734 v 2.51954 l -1.09765,2.27734 -1.97656,1.57812 -2.44532,0.55469"
       transform="scale(1,-1)"
       id="path8654"
       style="stroke-width:0.708661;stroke-dasharray:none" />
    <path
       fill="none"
       stroke-width="1.417203"
       stroke-linecap="round"
       stroke-linejoin="round"
       stroke="#000000"
       stroke-opacity="1"
       stroke-miterlimit="10"
       d="m 48.578125,-378.26562 -2.449219,-0.55469 -1.976562,-1.58203 -1.097656,-2.27344 v -2.51953 l 1.097656,-2.27735 1.976562,-1.5625 2.449219,-0.57031 2.460937,0.57031 1.976563,1.5625 1.09375,2.27735 v 2.51953 l -1.09375,2.27344 -1.976563,1.58203 -2.460937,0.55469"
       transform="scale(1,-1)"
       id="path8656"
       style="stroke-width:0.708661;stroke-dasharray:none" />
    <path
       fill="none"
       stroke-width="1.417203"
       stroke-linecap="round"
       stroke-linejoin="round"
       stroke="#000000"
       stroke-opacity="1"
       stroke-miterlimit="10"
       d="m 78.171875,-386.60547 -6.164063,-0.53906 -5.960937,-1.60938 -5.589844,-2.60156 -5.066406,-3.54297 -4.367187,-4.36718 -3.542969,-5.05079 -2.601563,-5.60546 -1.59375,-5.96094 -0.542968,-6.14844 0.542968,-6.16016 1.59375,-5.96093 2.601563,-5.59375 3.542969,-5.0625 4.367187,-4.35547 5.066406,-3.54297 5.589844,-2.61719 5.960937,-1.59375 6.164063,-0.53906 6.144531,0.53906 5.960938,1.59375 5.59375,2.61719 5.062496,3.54297 4.36719,4.35547 3.54297,5.0625 2.60547,5.59375 1.59375,5.96093 0.53906,6.16016 -0.53906,6.14844 -1.59375,5.96094 -2.60547,5.60546 -3.54297,5.05079 -4.36719,4.36718 -5.062496,3.54297 -5.59375,2.60156 -5.960938,1.60938 -6.144531,0.53906"
       transform="scale(1,-1)"
       id="path8658"
       style="stroke-width:0.708661;stroke-dasharray:none" />
  </g>
  <g
     id="g440"
     transform="translate(2.5627151,1.8088469)">
    <path
       fill="none"
       stroke-width="1.417323"
       stroke-linecap="round"
       stroke-linejoin="round"
       stroke="#000000"
       stroke-opacity="1"
       stroke-miterlimit="10"
       d="M 13.386719,-123.16797 H 121.17578 l 0.10156,0.0117 0.0977,0.0156 0.0859,0.0273 0.10156,0.0312 0.0859,0.043 0.082,0.0391 0.0859,0.043 0.0742,0.0586 0.082,0.0586 0.0742,0.0547 0.0273,0.0273 v 0.0156 l 0.0273,0.0156 0.0273,0.043 0.11718,0.14062 0.043,0.0703 0.0547,0.0859 0.0273,0.0859 0.043,0.0977 0.0312,0.0859 0.0117,0.10156 0.0312,0.0859 v 0.1836 H 122.5 v 7.9375 l -0.0117,0.35546 v 29.312505 l -0.0156,1.039063 v 26.648437 l -0.0156,0.01172 v 0.05859 l -0.0117,0.128906 -0.0156,0.113281 -0.0273,0.09766 -0.0312,0.113281 -0.0273,0.101563 v 0.01563 l -0.0156,0.02734 -0.0117,0.02734 -0.0273,0.08594 -0.043,0.07031 -0.043,0.05859 -0.043,0.05469 -0.043,0.05859 v 0.01172 h -0.0156 l -0.0117,0.01563 v 0.01563 h -0.0156 l -0.0156,0.01172 -0.0117,0.01563 -0.0156,0.02734 -0.0156,0.01563 -0.0117,0.01563 -0.0312,0.02734 -0.0117,0.02734 -0.0312,0.01563 -0.0273,0.02734 -0.0117,0.02734 -0.0312,0.03125 -0.0273,0.04297 -0.043,0.02734 -0.0586,0.07031 -0.0703,0.08594 -0.0859,0.08594 -0.0703,0.08594 -0.0977,0.09766 -0.0859,0.101563 -0.10156,0.113281 -0.11328,0.113282 -0.0977,0.128906 -0.11328,0.128906 -0.1289,0.125 -0.12891,0.144531 -0.12891,0.140625 -0.14062,0.15625 -0.12891,0.15625 -0.15625,0.15625 -0.14062,0.171875 -0.16016,0.171875 -0.15625,0.167969 -0.16797,0.1875 -0.17187,0.183594 -0.17188,0.1875 -0.18359,0.199219 -0.17188,0.199218 -0.18359,0.210938 -0.19922,0.199218 -0.18359,0.226563 -0.19922,0.214844 -0.21485,0.226562 -0.19921,0.230469 -0.21485,0.226562 -0.21094,0.226563 -0.21484,0.242187 -0.22656,0.242188 -0.21485,0.257812 -0.22656,0.253907 -0.24219,0.242187 -0.22656,0.269532 -0.24219,0.257812 -0.72656,0.808594 -0.25781,0.273437 -0.24219,0.28125 -0.2539,0.285157 -0.25782,0.285156 -0.26953,0.285156 -0.2539,0.285156 -0.27344,0.296875 -0.26953,0.300781 -0.26953,0.296876 -0.26954,0.300781 -0.26953,0.296875 -0.28515,0.3125 -0.27344,0.300781 -0.28125,0.3125 -0.85547,0.9375 -0.28516,0.328125 -0.29687,0.3125 -0.28516,0.328125 -0.59765,0.65625 -0.58203,0.652344 -0.59766,0.65625 -0.61328,0.667969 -0.59766,0.667968 -0.61328,0.667969 -0.60937,0.683594 -0.61329,0.667969 -1.23828,1.367187 -1.22265,1.351563 -1.23828,1.367187 -0.60938,0.667969 -0.613281,0.683594 -0.597657,0.667968 -0.597656,0.652344 -0.613281,0.671875 -0.582031,0.652344 -0.597656,0.65625 -0.285157,0.3125 -0.296875,0.328125 -0.570312,0.625 -0.285156,0.328125 -0.285157,0.3125 -0.285156,0.296875 -0.269531,0.3125 -0.285156,0.316406 -0.269532,0.296875 -0.269531,0.300781 -0.269531,0.296875 -0.269532,0.300781 -0.273437,0.296876 -0.269531,0.285156 -0.253906,0.285156 -0.257813,0.296875 -0.253906,0.269531 -0.257813,0.285156 -0.242187,0.269532 L 90.941406,-21 l -0.238281,0.269531 -0.242187,0.257813 -0.242188,0.269531 -0.230469,0.257813 -0.226562,0.253906 -0.226563,0.257812 -0.226562,0.242188 -0.230469,0.242187 -0.210937,0.242188 -0.214844,0.242187 -0.214844,0.226563 -0.199219,0.226562 -0.210937,0.226563 -0.199219,0.214844 -0.1875,0.226562 -0.199219,0.199219 -0.183594,0.214843 -0.183593,0.199219 -0.171875,0.199219 -0.183594,0.183594 -0.171875,0.199218 -0.15625,0.171876 -0.15625,0.183593 -0.3125,0.34375 -0.144531,0.15625 -0.140625,0.15625 -0.144531,0.15625 -0.125,0.140625 -0.128907,0.144532 -0.128906,0.128906 -0.113281,0.125 -0.113282,0.128906 -0.101562,0.113281 -0.09766,0.113281 -0.101563,0.101563 -0.08594,0.09766 -0.08203,0.101563 -0.08594,0.08594 -0.07031,0.08594 -0.05859,0.07031 -0.07031,0.05469 -0.02734,0.04297 -0.01562,0.03125 -0.02734,0.02734 -0.03125,0.01563 -0.01172,0.02734 -0.03125,0.02734 -0.01172,0.01563 -0.01563,0.02734 -0.02734,0.01563 -0.01563,0.01172 v 0.01563 l -0.01172,0.01563 -0.01563,0.01172 -0.01563,0.01563 h -0.01172 v 0.01563 h -0.01563 l -0.07031,0.08203 -0.08594,0.07422 -0.07031,0.05469 -0.08594,0.05859 -0.08594,0.05469 -0.08594,0.03125 -0.09766,0.04297 -0.08594,0.01172 -0.113281,0.02734 -0.101562,0.01563 h -6.074219 l -0.34375,-0.01563 h -7.625 l -0.453125,-0.01172 h -7.441406 l -0.511719,-0.01563 H 53.46875 l -1.113281,-0.01172 H 45.65625 l -1.109375,-0.01562 h -7.128906 l -0.527344,-0.01563 h -7.625 l -0.46875,-0.01172 h -7.65625 l -0.355469,-0.01563 h -7.398437 l -0.04297,-0.01563 h -0.09766 l -0.101563,-0.01172 -0.09766,-0.01563 -0.08594,-0.02734 -0.08594,-0.04297 -0.08594,-0.02734 -0.08594,-0.04297 -0.08594,-0.05859 -0.08203,-0.05859 -0.07422,-0.05469 -0.07031,-0.05859 v -0.01172 h -0.01172 0.01172 l -0.01172,-0.01563 -0.07422,-0.07031 -0.05469,-0.07031 -0.05859,-0.08594 -0.04297,-0.07031 -0.08594,-0.171876 -0.02734,-0.08594 -0.02734,-0.09766 -0.01562,-0.101563 -0.01172,-0.08594 -0.01563,-0.09766 V -121.78906 l 0.01563,-0.043 v -0.0977 l 0.01172,-0.10156 0.02734,-0.0977 0.03125,-0.0859 0.02734,-0.0859 0.04297,-0.0859 0.05859,-0.0859 0.03906,-0.0859 0.117188,-0.14063 0.04297,-0.0273 0.01172,-0.0156 v -0.0156 l 0.04297,-0.0273 0.07031,-0.0703 0.07422,-0.0586 0.08203,-0.043 0.07422,-0.043 0.08203,-0.0391 0.08594,-0.043 0.101562,-0.0312 0.08594,-0.0273 0.09766,-0.0156 h 0.101562 l 0.09766,-0.0117"
       id="path8660"
       style="stroke-width:0.708661;stroke-dasharray:none"
       transform="scale(1,-1)" />
    <path
       fill="none"
       stroke-width="1.417323"
       stroke-linecap="round"
       stroke-linejoin="round"
       stroke="#000000"
       stroke-opacity="1"
       stroke-miterlimit="10"
       d="m 62.984375,-53.78125 -4.410156,-0.523438 -4.152344,-1.582031 -3.65625,-2.515625 -2.945313,-3.332031 -2.066406,-3.925781 -1.050781,-4.3125 v -4.4375 l 1.050781,-4.3125 2.066406,-3.941406 2.945313,-3.3125 3.65625,-2.535157 4.152344,-1.5625 4.410156,-0.542969 4.410156,0.542969 4.140625,1.5625 3.65625,2.535157 2.945313,3.3125 2.066406,3.941406 1.066406,4.3125 v 4.4375 l -1.066406,4.3125 -2.066406,3.925781 -2.945313,3.332031 -3.65625,2.515625 -4.140625,1.582031 -4.410156,0.523438"
       id="path8662"
       style="stroke-width:0.708661;stroke-dasharray:none"
       transform="scale(1,-1)" />
    <path
       fill="none"
       stroke-width="1.417323"
       stroke-linecap="round"
       stroke-linejoin="round"
       stroke="#000000"
       stroke-opacity="1"
       stroke-miterlimit="10"
       d="m 99.820312,-94.828125 -2.460937,-0.554687 -1.976563,-1.578126 -1.097656,-2.277343 v -2.519529 l 1.097656,-2.27344 1.976563,-1.56641 2.460937,-0.57031 2.460938,0.57031 1.96484,1.56641 1.09766,2.27344 v 2.519529 l -1.09766,2.277343 -1.96484,1.578126 -2.460938,0.554687"
       id="path8664"
       style="stroke-width:0.708661;stroke-dasharray:none"
       transform="scale(1,-1)" />
    <path
       fill="none"
       stroke-width="1.417323"
       stroke-linecap="round"
       stroke-linejoin="round"
       stroke="#000000"
       stroke-opacity="1"
       stroke-miterlimit="10"
       d="m 33.40625,-28.425781 -2.460938,-0.554688 -1.980468,-1.578125 -1.09375,-2.277344 v -2.519531 l 1.09375,-2.277343 1.980468,-1.5625 2.460938,-0.570313 2.445312,0.570313 1.980469,1.5625 1.09375,2.277343 v 2.519531 l -1.09375,2.277344 -1.980469,1.578125 -2.445312,0.554688"
       id="path8666"
       style="stroke-width:0.708661;stroke-dasharray:none"
       transform="scale(1,-1)" />
  </g>
</svg>
