<?xml version="1.0" encoding="UTF-8" standalone="no"?>
<!-- Created with Inkscape (http://www.inkscape.org/) -->

<svg
   version="1.1"
   id="svg148"
   width="297mm"
   height="210mm"
   viewBox="0 0 1122.5197 793.70079"
   sodipodi:docname="Oxygen Regulator.svg"
   inkscape:version="1.2.1 (9c6d41e, 2022-07-14)"
   xmlns:inkscape="http://www.inkscape.org/namespaces/inkscape"
   xmlns:sodipodi="http://sodipodi.sourceforge.net/DTD/sodipodi-0.dtd"
   xmlns="http://www.w3.org/2000/svg"
   xmlns:svg="http://www.w3.org/2000/svg">
  <defs
     id="defs152" />
  <sodipodi:namedview
     id="namedview150"
     pagecolor="#505050"
     bordercolor="#eeeeee"
     borderopacity="1"
     inkscape:showpageshadow="0"
     inkscape:pageopacity="0"
     inkscape:pagecheckerboard="0"
     inkscape:deskcolor="#505050"
     showgrid="true"
     inkscape:zoom="0.55888413"
     inkscape:cx="483.10551"
     inkscape:cy="430.32176"
     inkscape:window-width="1280"
     inkscape:window-height="747"
     inkscape:window-x="0"
     inkscape:window-y="25"
     inkscape:window-maximized="0"
     inkscape:current-layer="g1665"
     inkscape:document-units="mm" />
  <path
     style="fill:none;stroke:#52ff7e;stroke-width:0.944881;stroke-linejoin:round;stroke-dasharray:none;stroke-opacity:1"
     d="m 357.30006,17.945196 v 36.787386 l -20.78365,28.787399 -211.92284,2.7e-5 v 44.451612 l 94.48816,-3e-5 7e-5,48.71374 h 278.43578 v 88.8189 H 80.914161 V 17.945196 Z"
     id="path9464"
     sodipodi:nodetypes="cccccccccccc" />
  <g
     id="g1681"
     transform="matrix(1.3333333,0,0,-1.3333333,0.721964,785.05544)"
     inkscape:label="Backlight"
     style="display:inline;stroke:#52ff7e;stroke-opacity:1">
    <path
       d="m 325.1061,367.9909 h 59.2322 c 1.1284,5e-4 2.2104,0.4495 3.0078,1.2481 0.7974,0.7982 1.245,1.8754 1.2441,3.0038 v 33.9803 c -0.003,4.508 1.7853,8.8322 4.9709,12.0218 3.1855,3.1898 7.5291,4.9833 12.037,4.9861 h 6.9803 c 1.1285,6e-4 2.2105,0.4496 3.0079,1.2481 0.7974,0.7983 1.2449,1.8754 1.2441,3.0039 v 92.4803 c -6e-4,1.1285 -0.4496,2.2102 -1.2481,3.0076 -0.7982,0.7974 -1.8754,1.2449 -3.0039,1.2444 h -6.9803 c -4.5079,-0.003 -8.8322,1.785 -12.0217,4.9705 -3.1896,3.1856 -4.9833,7.5294 -4.9862,12.0373 v 33.9804 c -5e-4,1.1284 -0.4495,2.2101 -1.2481,3.0075 -0.7982,0.7974 -1.8754,1.245 -3.0038,1.2444 H 39.858 c -1.1282,-8e-4 -2.2102,-0.4498 -3.0076,-1.2481 -0.7974,-0.7985 -1.245,-1.8754 -1.2444,-3.0038 v -33.9804 c 0.0028,-4.5079 -1.785,-8.8324 -4.9706,-12.022 -3.1855,-3.1895 -7.5294,-4.983 -12.0373,-4.9858 h -6.9803 c -1.1282,-9e-4 -2.2102,-0.4499 -3.0076,-1.2481 -0.7973,-0.7985 -1.2449,-1.8754 -1.2444,-3.0039 V 427.483 c 9e-4,-1.1285 0.4499,-2.2105 1.2481,-3.0079 0.7985,-0.7973 1.8757,-1.2449 3.0039,-1.2441 h 6.9803 c 4.5079,0.003 8.8325,-1.7852 12.022,-4.9708 3.1896,-3.1856 4.983,-7.5291 4.9859,-12.0371 v -33.9803 c 8e-4,-1.1284 0.4498,-2.2104 1.2481,-3.0078 0.7985,-0.7974 1.8757,-1.245 3.0039,-1.2441 z"
       style="fill:none;stroke:#52ff7e;stroke-width:0.708661;stroke-linecap:butt;stroke-linejoin:bevel;stroke-miterlimit:2.61313;stroke-dasharray:none;stroke-opacity:1"
       id="path164" />
    <path
       d="m 137.9364,521.8053 c 4.5573,0 8.7684,-2.4313 11.0469,-6.378 2.2788,-3.9467 2.2788,-8.8092 0,-12.7559 -2.2785,-3.9467 -6.4896,-6.378 -11.0469,-6.378 h -22.6772 c -4.5572,0 -8.7684,2.4313 -11.0469,6.378 -2.2787,3.9467 -2.2787,8.8092 0,12.7559 2.2785,3.9467 6.4897,6.378 11.0469,6.378 z"
       style="fill:none;stroke:#52ff7e;stroke-width:0.708661;stroke-linecap:butt;stroke-linejoin:bevel;stroke-miterlimit:2.61313;stroke-dasharray:none;stroke-opacity:1"
       id="path206" />
    <path
       id="path208"
       style="fill:none;stroke:#52ff7e;stroke-width:0.708661;stroke-linecap:butt;stroke-linejoin:bevel;stroke-miterlimit:2.61313;stroke-dasharray:none;stroke-opacity:1"
       d="m 376.5957,560.97852 c -3.45237,0.25134 -6.40538,3.31739 -6.49755,6.78204 -0.25048,3.43607 2.34911,6.76215 5.73209,7.38327 3.2491,0.71261 6.80146,-1.17068 8.03468,-4.25946 1.3752,-3.1267 0.11079,-7.11098 -2.83247,-8.85191 -1.30748,-0.83044 -2.89759,-1.18883 -4.43675,-1.05394 z" />
    <path
       id="path210"
       style="fill:none;stroke:#52ff7e;stroke-width:0.708661;stroke-linecap:butt;stroke-linejoin:bevel;stroke-miterlimit:2.61313;stroke-dasharray:none;stroke-opacity:1"
       d="m 376.59218,372.19141 c -3.45169,0.251 -6.40645,3.31709 -6.4956,6.78204 -0.26223,3.52138 2.48578,6.9276 5.98042,7.42199 3.37239,0.63629 6.96314,-1.54203 7.97749,-4.81635 1.10625,-3.15886 -0.36911,-6.9389 -3.32168,-8.51464 -1.25363,-0.69687 -2.71264,-0.99968 -4.14063,-0.87304 z" />
    <path
       id="path212"
       style="fill:none;stroke:#52ff7e;stroke-width:0.708661;stroke-linecap:butt;stroke-linejoin:bevel;stroke-miterlimit:2.61313;stroke-dasharray:none;stroke-opacity:1"
       d="m 46.289062,560.97852 c -3.451943,0.24992 -6.406758,3.31783 -6.497554,6.78204 -0.262828,3.5251 2.491245,6.93117 5.988331,7.42522 3.3691,0.62889 6.952028,-1.54407 7.968615,-4.81336 1.10761,-3.16128 -0.365359,-6.94673 -3.322673,-8.52281 -1.251991,-0.6962 -2.710752,-0.997 -4.136719,-0.87109 z" />
    <path
       id="path222"
       style="fill:none;stroke:#52ff7e;stroke-width:0.708661;stroke-linecap:butt;stroke-linejoin:bevel;stroke-miterlimit:2.61313;stroke-dasharray:none;stroke-opacity:1"
       d="m 46.287066,372.19141 c -3.4517,0.251 -6.40646,3.31709 -6.4956,6.78204 -0.26223,3.52138 2.48578,6.9276 5.98041,7.42199 3.3724,0.63629 6.96314,-1.54203 7.9775,-4.81635 1.10625,-3.15886 -0.36912,-6.9389 -3.32169,-8.51464 -1.25363,-0.69687 -2.71264,-0.99968 -4.14062,-0.87304 z" />
    <path
       d="m 354.5773,555.3876 c 7.0453,0 12.7559,-5.711 12.7559,-12.7559 0,-7.045 -5.7106,-12.7559 -12.7559,-12.7559 -7.0452,0 -12.7559,5.7109 -12.7559,12.7559 0,7.0449 5.7107,12.7559 12.7559,12.7559 z"
       style="fill:none;stroke:#52ff7e;stroke-width:0.708661;stroke-linecap:butt;stroke-linejoin:miter;stroke-miterlimit:2.61313;stroke-dasharray:none;stroke-opacity:1"
       id="path228" />
    <path
       d="m 244.0261,487.3561 c 7.0453,0 12.7559,-5.711 12.7559,-12.7559 0,-7.045 -5.7106,-12.7559 -12.7559,-12.7559 -7.0452,0 -12.7559,5.7109 -12.7559,12.7559 0,7.0449 5.7107,12.7559 12.7559,12.7559 z"
       style="fill:none;stroke:#52ff7e;stroke-width:0.708661;stroke-linecap:butt;stroke-linejoin:miter;stroke-miterlimit:2.61313;stroke-dasharray:none;stroke-opacity:1"
       id="path230" />
    <path
       d="m 354.5773,487.3561 c 7.0453,0 12.7559,-5.711 12.7559,-12.7559 0,-7.045 -5.7106,-12.7559 -12.7559,-12.7559 -7.0452,0 -12.7559,5.7109 -12.7559,12.7559 0,7.0449 5.7107,12.7559 12.7559,12.7559 z"
       style="fill:none;stroke:#52ff7e;stroke-width:0.708661;stroke-linecap:butt;stroke-linejoin:miter;stroke-miterlimit:2.61313;stroke-dasharray:none;stroke-opacity:1"
       id="path232" />
    <path
       d="m 299.3017,553.9703 c 25.0487,0 45.3544,-20.306 45.3544,-45.3544 0,-25.0483 -20.3057,-45.3543 -45.3544,-45.3543 -25.0486,0 -45.3543,20.306 -45.3543,45.3543 0,25.0484 20.3057,45.3544 45.3543,45.3544 z"
       style="fill:none;stroke:#52ff7e;stroke-width:0.708661;stroke-linecap:butt;stroke-linejoin:miter;stroke-miterlimit:2.61313;stroke-dasharray:none;stroke-opacity:1"
       id="path256" />
  </g>
  <g
     id="g1665"
     transform="matrix(1.3333333,0,0,-1.3333333,0.721964,785.05544)"
     inkscape:label="Backplane">
    <path
       d="m 42.0191,352.8397 h 340.1578 c 3.1181,0 5.669,-2.5512 5.669,-5.6693 v -200.126 c 0,-3.1181 -2.5509,-5.6693 -5.669,-5.6693 H 42.0191 c -3.1181,0 -5.669,2.5512 -5.669,5.6693 v 200.126 c 0,3.1181 2.5509,5.6693 5.669,5.6693 z"
       style="fill:none;stroke:#231f20;stroke-width:0.708661;stroke-linecap:butt;stroke-linejoin:miter;stroke-miterlimit:2.61313;stroke-dasharray:none;stroke-opacity:1"
       id="path262" />
    <path
       id="path264"
       style="fill:none;stroke:#231f20;stroke-width:0.708661;stroke-linecap:butt;stroke-linejoin:bevel;stroke-miterlimit:2.61313;stroke-dasharray:none;stroke-opacity:1"
       d="m 376.5957,334.36328 c -3.45216,0.24974 -6.40702,3.31763 -6.49755,6.78204 -0.26075,3.52173 2.48719,6.92752 5.98237,7.42199 3.37036,0.63627 6.95633,-1.54038 7.97515,-4.80992 1.09916,-3.14483 -0.34789,-6.91252 -3.28167,-8.49772 -1.25819,-0.71883 -2.73716,-1.0223 -4.1783,-0.89639 z" />
    <path
       id="path266"
       style="fill:none;stroke:#231f20;stroke-width:0.708661;stroke-linecap:butt;stroke-linejoin:bevel;stroke-miterlimit:2.61313;stroke-dasharray:none;stroke-opacity:1"
       d="m 376.59337,145.57617 c -3.4527,0.24904 -6.40527,3.31846 -6.4976,6.78204 -0.26051,3.52132 2.48808,6.9269 5.98242,7.422 3.37239,0.6364 6.96192,-1.54317 7.97749,-4.81636 1.10745,-3.16122 -0.37229,-6.94117 -3.32559,-8.51854 -1.25455,-0.69473 -2.70891,-0.9955 -4.13672,-0.86914 z" />
    <path
       id="path268"
       style="fill:none;stroke:#231f20;stroke-width:0.708661;stroke-linecap:butt;stroke-linejoin:bevel;stroke-miterlimit:2.61313;stroke-dasharray:none;stroke-opacity:1"
       d="m 46.289062,334.36328 c -3.452058,0.24941 -6.407325,3.3177 -6.497554,6.78204 -0.262058,3.52175 2.487791,6.92767 5.98237,7.42199 3.370931,0.6366 6.954234,-1.54173 7.975147,-4.80992 1.099531,-3.14433 -0.348735,-6.91116 -3.281179,-8.49656 -1.258204,-0.72015 -2.737107,-1.02335 -4.178784,-0.89755 z" />
    <path
       id="path270"
       style="fill:none;stroke:#231f20;stroke-width:0.708661;stroke-linecap:butt;stroke-linejoin:bevel;stroke-miterlimit:2.61313;stroke-dasharray:none;stroke-opacity:1"
       d="m 46.289008,145.57617 c -3.45269,0.24914 -6.40621,3.31789 -6.49761,6.78204 -0.26117,3.52177 2.48784,6.92699 5.98242,7.422 3.3724,0.6364 6.96192,-1.54317 7.9775,-4.81636 1.10744,-3.16122 -0.3723,-6.94117 -3.32559,-8.51854 -1.25455,-0.69473 -2.70892,-0.9955 -4.13672,-0.86914 z" />
    <g
       id="g15248"
       inkscape:label="Nano Slave Board Holes"
       style="display:inline"
       transform="matrix(0.75000003,0,0,-0.75000003,15.409517,391.89977)">
      <path
         d="m 144.1512,86.725059 c 4.1748,0 7.55906,-3.38426 7.55906,-7.55906 0,-4.17494 -3.38426,-7.55907 -7.55906,-7.55907 -4.17494,0 -7.55907,3.38413 -7.55907,7.55907 0,4.1748 3.38413,7.55906 7.55907,7.55906 z"
         style="display:inline;fill:none;stroke:#000000;stroke-width:0.944882;stroke-linecap:butt;stroke-linejoin:bevel;stroke-miterlimit:2.61313;stroke-dasharray:none;stroke-opacity:1"
         id="path202-6" />
      <path
         d="m 364.76204,86.725059 c 4.1748,0 7.55906,-3.38426 7.55906,-7.55906 0,-4.17494 -3.38426,-7.55907 -7.55906,-7.55907 -4.17494,0 -7.55907,3.38413 -7.55907,7.55907 0,4.1748 3.38413,7.55906 7.55907,7.55906 z"
         style="display:inline;fill:none;stroke:#000000;stroke-width:0.944882;stroke-linecap:butt;stroke-linejoin:bevel;stroke-miterlimit:2.61313;stroke-dasharray:none;stroke-opacity:1"
         id="path202-6-4" />
      <path
         d="m 144.1512,312.15876 c 4.1748,0 7.55906,-3.38426 7.55906,-7.55906 0,-4.17494 -3.38426,-7.55907 -7.55906,-7.55907 -4.17494,0 -7.55907,3.38413 -7.55907,7.55907 0,4.1748 3.38413,7.55906 7.55907,7.55906 z"
         style="display:inline;fill:none;stroke:#000000;stroke-width:0.944882;stroke-linecap:butt;stroke-linejoin:bevel;stroke-miterlimit:2.61313;stroke-dasharray:none;stroke-opacity:1"
         id="path202-6-6" />
      <path
         d="m 364.76222,312.15876 c 4.1748,0 7.55906,-3.38426 7.55906,-7.55906 0,-4.17494 -3.38426,-7.55907 -7.55906,-7.55907 -4.17494,0 -7.55907,3.38413 -7.55907,7.55907 0,4.1748 3.38413,7.55906 7.55907,7.55906 z"
         style="display:inline;fill:none;stroke:#000000;stroke-width:0.944882;stroke-linecap:butt;stroke-linejoin:bevel;stroke-miterlimit:2.61313;stroke-dasharray:none;stroke-opacity:1"
         id="path202-6-4-4" />
    </g>
  </g>
  <g
     id="g1612"
     transform="matrix(1.3333333,0,0,-1.3333333,0.721964,785.05544)"
     inkscape:label="Top">
    <path
       d="m 741.8041,143.6426 h 59.2322 c 1.1285,5e-4 2.2104,0.4495 3.0078,1.248 0.7974,0.7983 1.245,1.8754 1.2442,3.0039 v 33.9803 c -0.003,4.508 1.7852,8.8322 4.9708,12.0218 3.1856,3.1898 7.5291,4.9833 12.037,4.9861 h 6.9803 c 1.1285,6e-4 2.2105,0.4496 3.0079,1.2481 0.7974,0.7982 1.245,1.8754 1.2441,3.0039 v 92.4803 c -6e-4,1.1285 -0.4496,2.2102 -1.2481,3.0076 -0.7982,0.7973 -1.8754,1.2449 -3.0039,1.2444 h -6.9803 c -4.5079,-0.003 -8.8322,1.7849 -12.0217,4.9705 -3.1895,3.1856 -4.9833,7.5294 -4.9861,12.0373 v 33.9803 c -6e-4,1.1285 -0.4496,2.2102 -1.2481,3.0076 -0.7983,0.7974 -1.8754,1.245 -3.0039,1.2444 H 456.556 c -1.1282,-8e-4 -2.2102,-0.4498 -3.0076,-1.2481 -0.7974,-0.7985 -1.245,-1.8754 -1.2444,-3.0039 v -33.9803 c 0.003,-4.5079 -1.785,-8.8324 -4.9706,-12.022 -3.1855,-3.1895 -7.5293,-4.983 -12.0373,-4.9858 h -6.9803 c -1.1282,-9e-4 -2.2102,-0.4499 -3.0075,-1.2481 -0.7974,-0.7986 -1.245,-1.8754 -1.2445,-3.0039 v -92.4803 c 9e-4,-1.1285 0.4499,-2.2105 1.2481,-3.0079 0.7986,-0.7974 1.8757,-1.2449 3.0039,-1.2441 h 6.9803 c 4.508,0.003 8.8325,-1.7853 12.022,-4.9708 3.1896,-3.1856 4.9831,-7.5291 4.9859,-12.0371 v -33.9803 c 9e-4,-1.1285 0.4499,-2.2104 1.2481,-3.0078 0.7985,-0.7974 1.8757,-1.245 3.0039,-1.2441 z"
       style="fill:none;stroke:#52ff7e;stroke-width:0.708661;stroke-linecap:butt;stroke-linejoin:bevel;stroke-miterlimit:2.61313;stroke-dasharray:none;stroke-opacity:1"
       id="path174" />
    <path
       id="path178"
       style="fill:none;stroke:#52ff7e;stroke-width:0.708661;stroke-linecap:butt;stroke-linejoin:bevel;stroke-miterlimit:2.61313;stroke-dasharray:none;stroke-opacity:1"
       d="m 793.29297,336.63086 c -3.45179,0.24969 -6.4062,3.31779 -6.49565,6.78204 -0.25774,3.48727 2.43061,6.86282 5.88161,7.40689 3.36259,0.67815 6.98628,-1.445 8.04209,-4.7073 1.17001,-3.17601 -0.30675,-7.02138 -3.29133,-8.61249 -1.25455,-0.69473 -2.70892,-0.9955 -4.13672,-0.86914 z" />
    <path
       id="path180"
       style="fill:none;stroke:#52ff7e;stroke-width:0.708661;stroke-linecap:butt;stroke-linejoin:bevel;stroke-miterlimit:2.61313;stroke-dasharray:none;stroke-opacity:1"
       d="m 793.29473,147.84375 c -3.45272,0.24831 -6.40813,3.31735 -6.4976,6.78204 -0.26112,3.52181 2.48747,6.92744 5.98242,7.42199 3.37012,0.63502 6.95838,-1.54093 7.97457,-4.81208 1.10872,-3.16206 -0.36771,-6.94889 -3.32658,-8.52281 -1.25181,-0.69727 -2.70686,-0.9943 -4.13281,-0.86914 z" />
    <path
       id="path182"
       style="fill:none;stroke:#52ff7e;stroke-width:0.708661;stroke-linecap:butt;stroke-linejoin:bevel;stroke-miterlimit:2.61313;stroke-dasharray:none;stroke-opacity:1"
       d="m 462.98633,336.63086 c -3.48787,0.25099 -6.45946,3.38114 -6.50267,6.88191 -0.21011,3.52436 2.58477,6.89213 6.08634,7.33723 3.36537,0.58746 6.90565,-1.61868 7.8968,-4.88125 1.07322,-3.15315 -0.40659,-6.89894 -3.34375,-8.46875 -1.25455,-0.69473 -2.70892,-0.9955 -4.13672,-0.86914 z" />
    <path
       d="m 490.4371,187.2675 v 21.6 c 0,3.8585 2.0585,7.4239 5.4,9.3532 3.3415,1.9292 7.4585,1.9292 10.8,0 3.3415,-1.9293 5.4,-5.4947 5.4,-9.3532 v -21.6 c 0,-3.8583 -2.0585,-7.4237 -5.4,-9.3529 -3.3415,-1.9293 -7.4585,-1.9293 -10.8,0 -3.3415,1.9292 -5.4,5.4946 -5.4,9.3529 z"
       style="fill:none;stroke:#52ff7e;stroke-width:0.708661;stroke-linecap:butt;stroke-linejoin:bevel;stroke-miterlimit:2.61313;stroke-dasharray:none;stroke-opacity:1"
       id="path214" />
    <path
       d="m 613.4607,187.2675 v 21.6 c 0,3.8585 2.0585,7.4239 5.4,9.3532 3.3415,1.9292 7.4585,1.9292 10.8,0 3.3415,-1.9293 5.4,-5.4947 5.4,-9.3532 v -21.6 c 0,-3.8583 -2.0585,-7.4237 -5.4,-9.3529 -3.3415,-1.9293 -7.4585,-1.9293 -10.8,0 -3.3415,1.9292 -5.4,5.4946 -5.4,9.3529 z"
       style="fill:none;stroke:#52ff7e;stroke-width:0.708661;stroke-linecap:butt;stroke-linejoin:bevel;stroke-miterlimit:2.61313;stroke-dasharray:none;stroke-opacity:1"
       id="path216" />
    <path
       d="m 749.8071,187.2675 v 21.6 c 0,3.8585 2.0586,7.4239 5.4,9.3532 3.3415,1.9292 7.4586,1.9292 10.8,0 3.3415,-1.9293 5.4,-5.4947 5.4,-9.3532 v -21.6 c 0,-3.8583 -2.0585,-7.4237 -5.4,-9.3529 -3.3414,-1.9293 -7.4585,-1.9293 -10.8,0 -3.3414,1.9292 -5.4,5.4946 -5.4,9.3529 z"
       style="fill:none;stroke:#52ff7e;stroke-width:0.708661;stroke-linecap:butt;stroke-linejoin:bevel;stroke-miterlimit:2.61313;stroke-dasharray:none;stroke-opacity:1"
       id="path218" />
    <path
       id="path220"
       style="fill:none;stroke:#52ff7e;stroke-width:0.708661;stroke-linecap:butt;stroke-linejoin:bevel;stroke-miterlimit:2.61313;stroke-dasharray:none;stroke-opacity:1"
       d="m 462.9874,147.84375 c -3.45272,0.24831 -6.40813,3.31735 -6.49761,6.78204 -0.26112,3.52181 2.48748,6.92744 5.98242,7.42199 3.36991,0.6349 6.95834,-1.54121 7.97458,-4.81208 1.10213,-3.14601 -0.35135,-6.91409 -3.28531,-8.49896 -1.25903,-0.71464 -2.73377,-1.01954 -4.17408,-0.89299 z" />
    <path
       d="m 715.9997,333.8739 c 27.3969,0 49.6063,-22.2097 49.6063,-49.6063 0,-27.3965 -22.2094,-49.6063 -49.6063,-49.6063 -27.3968,0 -49.6063,22.2098 -49.6063,49.6063 0,27.3966 22.2095,49.6063 49.6063,49.6063 z"
       style="fill:none;stroke:#52ff7e;stroke-width:0.708661;stroke-linecap:butt;stroke-linejoin:miter;stroke-miterlimit:2.61313;stroke-dasharray:none;stroke-opacity:1"
       id="path254" />
    <g
       id="g2847"
       inkscape:label="Text"
       style="display:inline;stroke-width:0.283465;stroke-dasharray:none">
      <path
         d="m 554.6344,296.0396 h -22.6771 c -4.051,0 -7.7942,-2.1611 -9.8195,-5.6693 -2.0254,-3.5081 -2.0254,-7.8304 0,-11.3386 2.0253,-3.5081 5.7685,-5.6692 9.8195,-5.6692 h 22.6771 c 4.051,0 7.7942,2.1611 9.8195,5.6692 2.0254,3.5082 2.0254,7.8305 0,11.3386 -2.0253,3.5082 -5.7685,5.6693 -9.8195,5.6693 z"
         style="fill:none;stroke:#231f20;stroke-width:0.283465;stroke-linecap:butt;stroke-linejoin:bevel;stroke-miterlimit:2.61313;stroke-dasharray:none;stroke-opacity:1"
         id="path176" />
      <path
         d="m 554.6344,297.4569 c 4.5573,0 8.7684,-2.4312 11.0469,-6.3779 2.2788,-3.9467 2.2788,-8.8092 0,-12.7559 -2.2785,-3.9467 -6.4896,-6.378 -11.0469,-6.378 h -22.6771 c -4.5573,0 -8.7684,2.4313 -11.0469,6.378 -2.2788,3.9467 -2.2788,8.8092 0,12.7559 2.2785,3.9467 6.4896,6.3779 11.0469,6.3779 z"
         style="fill:none;stroke:#ed1c24;stroke-width:0.283465;stroke-linecap:butt;stroke-linejoin:bevel;stroke-miterlimit:2.61313;stroke-dasharray:none;stroke-opacity:1"
         id="path278" />
      <text
         xml:space="preserve"
         transform="matrix(1,0,0,-1,510.7774,333.5913)"
         style="font-variant:normal;font-weight:normal;font-size:14px;font-family:'MS 33558';-inkscape-font-specification:MS33558;writing-mode:lr-tb;fill:none;stroke:#ed1c24;stroke-width:0.283465;stroke-linecap:butt;stroke-linejoin:miter;stroke-miterlimit:2.61313;stroke-dasharray:none;stroke-opacity:1"
         id="text346"><tspan
           x="0 11.1226 22.1635 33.544899 43.715599 53.886299 65.296303 74.8088 85.669998 95.840401 106.0108 116.6129 127.4744 139.1571 149.75951 160.8821"
           y="0"
           sodipodi:role="line"
           id="tspan344">oxygen regulator</tspan></text>
      <text
         xml:space="preserve"
         transform="matrix(1,0,0,-1,523.6571,255.0963)"
         style="font-variant:normal;font-weight:normal;font-size:12px;font-family:'MS 33558';-inkscape-font-specification:MS33558;writing-mode:lr-tb;fill:none;stroke:#ed1c24;stroke-width:0.283465;stroke-linecap:butt;stroke-linejoin:miter;stroke-miterlimit:2.61313;stroke-dasharray:none;stroke-opacity:1"
         id="text350"><tspan
           x="0 8.7180004 18.0275 27.5613"
           y="0"
           sodipodi:role="line"
           id="tspan348">Flow</tspan></text>
      <text
         xml:space="preserve"
         transform="matrix(1,0,0,-1,548.367,321.1469)"
         style="font-variant:normal;font-weight:normal;font-size:8px;font-family:'MS 33558';-inkscape-font-specification:MS33558;writing-mode:lr-tb;fill:none;stroke:#ed1c24;stroke-width:0.283465;stroke-linecap:butt;stroke-linejoin:miter;stroke-miterlimit:2.61313;stroke-dasharray:none;stroke-opacity:1"
         id="text354"><tspan
           x="0 6.4159999 12.784 18.76 24.976 31.191999 37.408001 43.776001 49.751999 57.751999 63.872002 69.848 76.608002 83.447998 89.968002"
           y="0"
           sodipodi:role="line"
           id="tspan352">pressure demand</tspan></text>
      <path
         d="m 529.001,174.0736 c -1.1741,0 -2.126,-0.9519 -2.126,-2.126 0,-1.1741 0.9519,-2.126 2.126,-2.126 1.1741,0 2.126,0.9519 2.126,2.126 0,1.1741 -0.9519,2.126 -2.126,2.126 z"
         style="fill:none;stroke:#ed1c24;stroke-width:0.283465;stroke-linecap:butt;stroke-linejoin:bevel;stroke-miterlimit:2.61313;stroke-dasharray:none;stroke-opacity:1"
         id="path356" />
      <path
         d="m 529.001,226.3136 c -1.1741,0 -2.126,-0.9519 -2.126,-2.126 0,-1.1741 0.9519,-2.126 2.126,-2.126 1.1741,0 2.126,0.9519 2.126,2.126 0,1.1741 -0.9519,2.126 -2.126,2.126 z"
         style="fill:none;stroke:#ed1c24;stroke-width:0.283465;stroke-linecap:butt;stroke-linejoin:bevel;stroke-miterlimit:2.61313;stroke-dasharray:none;stroke-opacity:1"
         id="path358" />
      <path
         d="m 529.001,200.1937 c -1.1741,0 -2.126,-0.9516 -2.126,-2.126 0,-1.1741 0.9519,-2.1259 2.126,-2.1259 1.1741,0 2.126,0.9518 2.126,2.1259 0,1.1744 -0.9519,2.126 -2.126,2.126 z"
         style="fill:none;stroke:#ed1c24;stroke-width:0.283465;stroke-linecap:butt;stroke-linejoin:bevel;stroke-miterlimit:2.61313;stroke-dasharray:none;stroke-opacity:1"
         id="path360" />
      <text
         xml:space="preserve"
         transform="matrix(1,0,0,-1,535.4969,219.4367)"
         style="font-variant:normal;font-weight:normal;font-size:9px;font-family:'MS 33558';-inkscape-font-specification:MS33558;writing-mode:lr-tb;fill:none;stroke:#ed1c24;stroke-width:0.283465;stroke-linecap:butt;stroke-linejoin:miter;stroke-miterlimit:2.61313;stroke-dasharray:none;stroke-opacity:1"
         id="text364"><tspan
           x="0 6.723 14.328 21.051001 28.215 34.938 41.660999 48.995998 55.881001"
           y="0"
           sodipodi:role="line"
           id="tspan362">emergency</tspan></text>
      <text
         xml:space="preserve"
         transform="matrix(1,0,0,-1,535.246,193.7061)"
         style="font-variant:normal;font-weight:normal;font-size:9px;font-family:'MS 33558';-inkscape-font-specification:MS33558;writing-mode:lr-tb;fill:none;stroke:#ed1c24;stroke-width:0.283465;stroke-linecap:butt;stroke-linejoin:miter;stroke-miterlimit:2.61313;stroke-dasharray:none;stroke-opacity:1"
         id="text368"><tspan
           x="0 7.335 14.67 21.834 29.438999 37.133999"
           y="0"
           sodipodi:role="line"
           id="tspan366">normal</tspan></text>
      <text
         xml:space="preserve"
         transform="matrix(1,0,0,-1,535.4802,171.9476)"
         style="font-variant:normal;font-weight:normal;font-size:9px;font-family:'MS 33558';-inkscape-font-specification:MS33558;writing-mode:lr-tb;fill:none;stroke:#ed1c24;stroke-width:0.283465;stroke-linecap:butt;stroke-linejoin:miter;stroke-miterlimit:2.61313;stroke-dasharray:none;stroke-opacity:1"
         id="text374"><tspan
           x="0 6.993 13.716 20.709"
           y="0"
           sodipodi:role="line"
           id="tspan370">test</tspan><tspan
           x="0 7.605 15.3 22.292999"
           y="10.4681"
           sodipodi:role="line"
           id="tspan372">mask</tspan></text>
      <path
         d="m 666.9388,222.048 4.5683,9.3543 h 0.9247 l -4.5683,-9.3543 z m 5.8269,2.3309 v 0.0326 l -3e-4,0.0323 -2e-4,0.0321 -9e-4,0.0317 -6e-4,0.0312 -8e-4,0.0312 -10e-4,0.0306 -10e-4,0.0303 -10e-4,0.0298 -10e-4,0.0298 -0.002,0.0292 -0.002,0.0289 -0.002,0.0283 -0.002,0.0284 -0.002,0.0277 -0.002,0.0275 -0.003,0.0272 -0.003,0.027 -0.003,0.0263 -0.003,0.0261 -0.003,0.0258 -0.003,0.0255 -0.004,0.025 -0.004,0.0249 -0.004,0.0244 -0.004,0.0241 -0.005,0.0235 -0.005,0.0235 -0.005,0.023 -0.005,0.0227 -0.005,0.0224 -0.005,0.0218 -0.006,0.0215 -0.005,0.0216 -0.006,0.0207 -0.006,0.0207 -0.006,0.0201 -0.006,0.0201 -0.007,0.0196 -0.006,0.019 -0.007,0.019 -0.007,0.0184 -0.007,0.0181 -0.007,0.0179 -0.007,0.0176 -0.008,0.017 -0.008,0.0167 -0.008,0.0164 -0.008,0.0162 -0.008,0.0159 -0.009,0.0153 -0.008,0.015 -0.009,0.0147 -0.009,0.0145 -0.009,0.0139 -0.009,0.0136 -0.009,0.0133 -0.01,0.0131 -0.01,0.0127 -0.01,0.0122 -0.0102,0.0119 -0.0102,0.0116 -0.0105,0.0114 -0.0105,0.0107 -0.0108,0.0108 -0.0111,0.0102 -0.011,0.01 -0.0113,0.01 -0.0114,0.009 -0.0116,0.009 -0.0119,0.008 -0.0119,0.008 -0.0122,0.008 -0.0122,0.008 -0.0125,0.007 -0.0124,0.007 -0.0128,0.006 -0.013,0.006 -0.0131,0.006 -0.0133,0.005 -0.0136,0.005 -0.0136,0.005 -0.0136,0.004 -0.0139,0.004 -0.0142,0.004 -0.0144,0.003 -0.0145,0.003 -0.0145,0.002 -0.0147,0.002 -0.015,0.002 -0.015,10e-4 -0.0153,0.001 -0.0156,9e-4 -0.0156,6e-4 -0.0156,2e-4 m 0,-3.1155 0.0156,3e-4 0.0156,5e-4 0.0156,9e-4 0.0153,0.001 0.015,0.001 0.015,0.002 0.0147,0.002 0.0145,0.003 0.0145,0.003 0.0144,0.003 0.0142,0.004 0.0139,0.004 0.0136,0.004 0.0136,0.005 0.0136,0.005 0.0133,0.005 0.0131,0.006 0.013,0.006 0.0128,0.007 0.0124,0.007 0.0125,0.007 0.0122,0.007 0.0122,0.008 0.0119,0.008 0.0119,0.008 0.0116,0.009 0.0114,0.009 0.0113,0.01 0.011,0.01 0.0111,0.0102 0.0108,0.0105 0.0105,0.0108 0.0105,0.0113 0.0102,0.0114 0.0102,0.0119 0.01,0.0122 0.01,0.0127 0.01,0.0128 0.009,0.0133 0.009,0.0136 0.009,0.0139 0.009,0.0145 0.009,0.0144 0.008,0.015 0.009,0.0153 0.008,0.0159 0.008,0.0159 0.008,0.0164 0.008,0.0168 0.008,0.017 0.007,0.0173 0.007,0.0178 0.007,0.0179 0.007,0.0184 0.007,0.019 0.006,0.019 0.007,0.0195 0.006,0.0199 0.006,0.0201 0.006,0.0204 0.006,0.0207 0.005,0.0213 0.006,0.0215 0.005,0.0218 0.005,0.0224 0.005,0.0224 0.005,0.023 0.005,0.0232 0.005,0.0236 0.004,0.0241 0.004,0.024 0.004,0.0247 0.004,0.025 0.003,0.0252 0.003,0.0258 0.003,0.0261 0.003,0.0263 0.003,0.0267 0.003,0.0269 0.002,0.0275 0.002,0.0275 0.002,0.028 0.002,0.0287 0.002,0.0286 0.002,0.0292 10e-4,0.0295 10e-4,0.0297 10e-4,0.0301 10e-4,0.0303 8e-4,0.0309 6e-4,0.0312 9e-4,0.0315 2e-4,0.0317 3e-4,0.0323 v 0.0326 m -1.5071,-0.0312 v -0.0317 l 2e-4,-0.0317 6e-4,-0.0312 6e-4,-0.0306 5e-4,-0.0307 9e-4,-0.0303 10e-4,-0.0298 0.001,-0.0294 10e-4,-0.0292 10e-4,-0.0289 0.002,-0.0287 0.002,-0.028 0.002,-0.0278 0.002,-0.0275 0.002,-0.0272 0.003,-0.027 0.003,-0.0263 0.003,-0.0261 0.003,-0.0261 0.003,-0.0252 0.003,-0.0252 0.003,-0.025 0.004,-0.0244 0.004,-0.024 0.004,-0.0239 0.004,-0.0235 0.004,-0.0229 0.005,-0.023 0.005,-0.0224 0.005,-0.0221 0.005,-0.0218 0.005,-0.0213 0.005,-0.0213 0.005,-0.0206 0.006,-0.0205 0.006,-0.0201 0.006,-0.0195 0.006,-0.0196 0.006,-0.019 0.007,-0.0187 0.007,-0.0184 0.007,-0.0182 0.007,-0.0175 0.007,-0.0173 0.007,-0.0173 0.008,-0.0168 0.008,-0.0161 0.008,-0.0162 0.008,-0.0156 0.008,-0.0153 0.008,-0.015 0.009,-0.0147 0.009,-0.0145 0.009,-0.0139 0.009,-0.0136 0.009,-0.0133 0.009,-0.013 0.01,-0.0128 0.01,-0.0122 0.01,-0.0122 0.0102,-0.0116 0.0102,-0.0111 0.0105,-0.011 0.0108,-0.0108 0.0108,-0.0102 0.0107,-0.01 0.0111,-0.01 0.0113,-0.009 0.0114,-0.009 0.0116,-0.009 0.0119,-0.008 0.0119,-0.008 0.0122,-0.008 0.0122,-0.007 0.0125,-0.007 0.0124,-0.007 0.0128,-0.006 0.013,-0.006 0.0131,-0.005 0.0133,-0.005 0.0136,-0.005 0.0136,-0.005 0.0136,-0.004 0.0139,-0.004 0.0142,-0.003 0.0144,-0.003 0.0145,-0.003 0.0144,-0.002 0.0148,-0.002 0.015,-0.002 0.015,-10e-4 0.0153,-0.001 0.0156,-9e-4 0.0156,-5e-4 0.0159,-3e-4 m 0,3.1155 -0.0159,-2e-4 -0.0156,-6e-4 -0.0156,-9e-4 -0.0153,-0.001 -0.015,-0.002 -0.015,-0.002 -0.0148,-0.003 -0.0144,-0.002 -0.0145,-0.003 -0.0144,-0.003 -0.0142,-0.004 -0.0139,-0.004 -0.0136,-0.004 -0.0136,-0.005 -0.0136,-0.005 -0.0133,-0.005 -0.0131,-0.006 -0.013,-0.006 -0.0128,-0.006 -0.0124,-0.007 -0.0125,-0.007 -0.0122,-0.007 -0.0122,-0.008 -0.0119,-0.008 -0.0119,-0.008 -0.0116,-0.009 -0.0114,-0.009 -0.0113,-0.01 -0.0111,-0.0102 -0.0107,-0.0102 -0.0108,-0.0108 -0.0108,-0.0113 -0.0105,-0.0114 -0.0102,-0.0119 -0.0102,-0.0121 -0.01,-0.0125 -0.01,-0.0128 -0.01,-0.0133 -0.009,-0.0136 -0.009,-0.0139 -0.009,-0.0145 -0.009,-0.0144 -0.009,-0.015 -0.009,-0.0153 -0.008,-0.0159 -0.008,-0.0159 -0.008,-0.0164 -0.008,-0.0168 -0.008,-0.0172 -0.008,-0.0176 -0.007,-0.0176 -0.007,-0.0184 -0.007,-0.0184 -0.007,-0.019 -0.007,-0.019 -0.007,-0.0196 -0.006,-0.0201 -0.006,-0.0201 -0.006,-0.0207 -0.006,-0.021 -0.006,-0.0216 -0.005,-0.0215 -0.005,-0.0221 -0.005,-0.0224 -0.005,-0.0227 -0.005,-0.0232 -0.005,-0.0235 -0.005,-0.0239 -0.004,-0.0241 -0.004,-0.0246 -0.004,-0.0247 -0.004,-0.0255 -0.004,-0.0255 -0.003,-0.0258 -0.003,-0.0264 -0.003,-0.0266 -0.003,-0.0269 -0.003,-0.0275 -0.003,-0.0278 -0.003,-0.0281 -0.002,-0.0283 -0.002,-0.0286 -0.002,-0.0292 -0.002,-0.0295 -0.002,-0.0298 -10e-4,-0.0303 -10e-4,-0.0303 -0.001,-0.0309 -10e-4,-0.0315 -9e-4,-0.0315 -5e-4,-0.032 -6e-4,-0.0323 -6e-4,-0.0326 -2e-4,-0.0329 v -0.0335 m -3.1777,4.7084 -3e-4,0.0326 v 0.0323 l -5e-4,0.032 -6e-4,0.0318 -9e-4,0.0312 -8e-4,0.0311 -10e-4,0.0307 -0.001,0.0303 -10e-4,0.0298 -0.002,0.0297 -0.002,0.0292 -0.002,0.0289 -0.002,0.0284 -0.002,0.0283 -0.003,0.0278 -0.003,0.0275 -0.003,0.0272 -0.003,0.0269 -0.003,0.0264 -0.003,0.0261 -0.003,0.0258 -0.004,0.0255 -0.004,0.0249 -0.004,0.025 -0.004,0.0244 -0.004,0.0241 -0.005,0.0235 -0.005,0.0235 -0.005,0.023 -0.005,0.0226 -0.005,0.0224 -0.005,0.0219 -0.005,0.0215 -0.006,0.0216 -0.006,0.0206 -0.006,0.0207 -0.006,0.0202 -0.006,0.0201 -0.006,0.0195 -0.007,0.019 -0.006,0.019 -0.007,0.0185 -0.007,0.0181 -0.007,0.0179 -0.007,0.0175 -0.008,0.017 -0.008,0.0168 -0.008,0.0164 -0.008,0.0162 -0.008,0.0158 -0.008,0.0153 -0.009,0.0151 -0.009,0.0147 -0.009,0.0145 -0.009,0.0139 -0.009,0.0136 -0.009,0.0133 -0.01,0.013 -0.01,0.0128 -0.01,0.0122 -0.01,0.0119 -0.0105,0.0116 -0.0102,0.0113 -0.0107,0.0108 -0.0108,0.0108 -0.0108,0.0102 -0.0113,0.01 -0.0111,0.01 -0.0116,0.009 -0.0116,0.009 -0.0116,0.008 -0.0119,0.008 -0.0122,0.008 -0.0122,0.008 -0.0125,0.007 -0.0127,0.007 -0.0128,0.006 -0.013,0.006 -0.0131,0.006 -0.0133,0.005 -0.0133,0.005 -0.0136,0.005 -0.0139,0.004 -0.0139,0.004 -0.0142,0.004 -0.0142,0.003 -0.0144,0.003 -0.0148,0.003 -0.0147,0.002 -0.0147,0.002 -0.0153,0.001 -0.0153,10e-4 -0.0154,9e-4 -0.0155,5e-4 -0.0159,3e-4 m 0,-3.1156 0.0159,3e-4 0.0155,3e-4 0.0154,0.001 0.0153,10e-4 0.0153,0.001 0.0147,0.002 0.0147,0.002 0.0148,0.003 0.0144,0.003 0.0142,0.003 0.0142,0.004 0.0139,0.004 0.0139,0.004 0.0136,0.005 0.0133,0.005 0.0133,0.005 0.0131,0.006 0.013,0.006 0.0128,0.006 0.0127,0.007 0.0125,0.007 0.0122,0.007 0.0122,0.008 0.0119,0.008 0.0116,0.008 0.0116,0.009 0.0116,0.009 0.0111,0.009 0.0113,0.01 0.0108,0.0102 0.0108,0.0105 0.0107,0.0108 0.0102,0.0113 0.0105,0.0113 0.01,0.0119 0.01,0.0122 0.01,0.0128 0.01,0.0127 0.009,0.0134 0.009,0.0136 0.009,0.0139 0.009,0.0144 0.009,0.0145 0.009,0.015 0.008,0.0153 0.008,0.0156 0.008,0.0162 0.008,0.0161 0.008,0.0167 0.008,0.0173 0.007,0.0173 0.007,0.0176 0.007,0.0181 0.007,0.0185 0.006,0.0187 0.007,0.0192 0.006,0.0193 0.006,0.0199 0.006,0.0201 0.006,0.0207 0.006,0.0207 0.006,0.0212 0.005,0.0216 0.005,0.0218 0.005,0.0221 0.005,0.0227 0.005,0.0229 0.005,0.0233 0.005,0.0235 0.004,0.0238 0.004,0.0244 0.004,0.0247 0.004,0.0249 0.004,0.0252 0.003,0.0258 0.003,0.0258 0.003,0.0264 0.003,0.0266 0.003,0.0273 0.003,0.0272 0.003,0.0277 0.002,0.0281 0.002,0.0284 0.002,0.0289 0.002,0.0289 0.002,0.0295 10e-4,0.0297 0.001,0.0304 10e-4,0.0303 8e-4,0.0309 9e-4,0.0312 6e-4,0.0314 5e-4,0.0318 v 0.0323 l 3e-4,0.0326 m -1.5075,0 3e-4,-0.0326 3e-4,-0.0323 3e-4,-0.0318 6e-4,-0.0314 8e-4,-0.0312 9e-4,-0.0309 10e-4,-0.0303 0.001,-0.0304 10e-4,-0.0297 0.002,-0.0295 0.002,-0.0289 0.002,-0.0289 0.002,-0.0284 0.002,-0.0281 0.003,-0.0277 0.003,-0.0272 0.003,-0.0273 0.003,-0.0266 0.003,-0.0264 0.003,-0.0258 0.003,-0.0258 0.004,-0.0252 0.004,-0.0249 0.004,-0.0247 0.004,-0.0244 0.004,-0.0238 0.004,-0.0235 0.005,-0.0233 0.005,-0.0229 0.005,-0.0227 0.005,-0.0221 0.005,-0.0218 0.005,-0.0216 0.006,-0.0212 0.006,-0.0207 0.006,-0.0207 0.006,-0.0201 0.006,-0.0199 0.006,-0.0193 0.006,-0.0192 0.007,-0.0187 0.007,-0.0185 0.007,-0.0181 0.007,-0.0176 0.007,-0.0173 0.008,-0.0173 0.008,-0.0167 0.008,-0.0161 0.008,-0.0162 0.008,-0.0156 0.008,-0.0153 0.009,-0.015 0.009,-0.0145 0.009,-0.0144 0.009,-0.0139 0.009,-0.0136 0.01,-0.0134 0.009,-0.0127 0.01,-0.0128 0.01,-0.0122 0.0102,-0.0119 0.0102,-0.0113 0.0105,-0.0113 0.0105,-0.0108 0.0108,-0.0105 0.011,-0.0102 0.0111,-0.01 0.0113,-0.009 0.0113,-0.009 0.0117,-0.009 0.0116,-0.008 0.0122,-0.008 0.0119,-0.008 0.0125,-0.007 0.0124,-0.007 0.0125,-0.007 0.0128,-0.006 0.013,-0.006 0.013,-0.006 0.0134,-0.005 0.0133,-0.005 0.0136,-0.005 0.0139,-0.004 0.0139,-0.004 0.0141,-0.004 0.0142,-0.003 0.0145,-0.003 0.0147,-0.003 0.0148,-0.002 0.015,-0.002 0.015,-0.001 0.0153,-10e-4 0.0153,-0.001 0.0156,-3e-4 0.0159,-3e-4 m 0,3.1156 -0.0159,-3e-4 -0.0156,-5e-4 -0.0153,-9e-4 -0.0153,-10e-4 -0.015,-0.001 -0.015,-0.002 -0.0148,-0.002 -0.0147,-0.003 -0.0145,-0.003 -0.0142,-0.003 -0.0141,-0.004 -0.0139,-0.004 -0.0139,-0.004 -0.0136,-0.005 -0.0133,-0.005 -0.0134,-0.005 -0.013,-0.006 -0.013,-0.006 -0.0128,-0.006 -0.0125,-0.007 -0.0124,-0.007 -0.0125,-0.008 -0.0119,-0.008 -0.0122,-0.008 -0.0116,-0.008 -0.0117,-0.009 -0.0113,-0.009 -0.0113,-0.01 -0.0111,-0.01 -0.011,-0.0102 -0.0108,-0.0108 -0.0105,-0.0108 -0.0105,-0.0113 -0.0102,-0.0116 -0.0102,-0.0119 -0.01,-0.0122 -0.01,-0.0128 -0.009,-0.013 -0.01,-0.0133 -0.009,-0.0136 -0.009,-0.0139 -0.009,-0.0145 -0.009,-0.0147 -0.009,-0.0151 -0.008,-0.0153 -0.008,-0.0158 -0.008,-0.0162 -0.008,-0.0164 -0.008,-0.0168 -0.008,-0.017 -0.007,-0.0175 -0.007,-0.0179 -0.007,-0.0181 -0.007,-0.0185 -0.007,-0.019 -0.006,-0.019 -0.006,-0.0195 -0.006,-0.0201 -0.006,-0.0202 -0.006,-0.0207 -0.006,-0.0206 -0.006,-0.0216 -0.005,-0.0215 -0.005,-0.0219 -0.005,-0.0224 -0.005,-0.0226 -0.005,-0.023 -0.005,-0.0235 -0.004,-0.0235 -0.004,-0.0241 -0.004,-0.0244 -0.004,-0.025 -0.004,-0.0249 -0.004,-0.0255 -0.003,-0.0258 -0.003,-0.0261 -0.003,-0.0264 -0.003,-0.0269 -0.003,-0.0272 -0.003,-0.0275 -0.003,-0.0278 -0.002,-0.0283 -0.002,-0.0284 -0.002,-0.0289 -0.002,-0.0292 -0.002,-0.0297 -10e-4,-0.0298 -0.001,-0.0303 -10e-4,-0.0307 -9e-4,-0.0311 -8e-4,-0.0312 -6e-4,-0.0318 -3e-4,-0.032 -3e-4,-0.0323 -3e-4,-0.0326 m 3.5975,-4.6695 v 0.0365 l 3e-4,0.0363 8e-4,0.036 9e-4,0.036 10e-4,0.0355 10e-4,0.0351 0.002,0.0349 0.002,0.0348 0.002,0.0343 0.002,0.0343 0.003,0.0338 0.003,0.0337 0.003,0.0335 0.003,0.0328 0.004,0.0329 0.004,0.0326 0.004,0.0323 0.005,0.0321 0.005,0.0317 0.005,0.0315 0.005,0.0312 0.005,0.0309 0.006,0.0309 0.006,0.0303 0.006,0.03 0.007,0.0301 0.006,0.0295 0.007,0.0294 0.007,0.029 0.007,0.0289 0.008,0.0283 0.008,0.0284 0.008,0.028 0.008,0.0278 0.009,0.0275 0.009,0.0272 0.009,0.0269 0.01,0.0267 0.01,0.0264 0.01,0.026 0.0102,0.0258 0.0105,0.0255 0.0108,0.0255 0.011,0.025 0.0111,0.0249 0.0116,0.0244 0.0116,0.0244 0.0119,0.0238 0.0125,0.0238 0.0125,0.0235 0.0127,0.023 0.0131,0.023 0.013,0.0226 0.0136,0.0224 0.0136,0.0221 0.0142,0.0219 0.0142,0.0215 0.0144,0.0213 0.0151,0.0212 0.0147,0.0207 0.0153,0.0204 0.0156,0.0204 0.0159,0.0199 0.0159,0.0195 0.0161,0.0196 0.0165,0.019 0.0164,0.0187 0.0167,0.0187 0.0167,0.0182 0.017,0.0175 0.0173,0.0176 0.017,0.0173 0.0176,0.017 0.0176,0.0164 0.0179,0.0165 0.0178,0.0159 0.0179,0.0156 0.0184,0.0153 0.0184,0.0153 0.0184,0.0147 0.0188,0.0142 0.0187,0.0142 0.019,0.0138 0.0192,0.0137 0.0193,0.013 0.0196,0.0127 0.0195,0.0128 0.0199,0.0122 0.0198,0.0119 0.0201,0.0116 0.0202,0.0114 0.0204,0.011 0.0207,0.0108 0.0207,0.0102 0.0207,0.0102 0.0209,0.01 0.0213,0.01 0.0212,0.009 0.0216,0.009 0.0218,0.008 0.0216,0.008 0.0221,0.008 0.0221,0.008 0.0224,0.007 0.0224,0.007 0.0224,0.007 0.0229,0.006 0.0227,0.006 0.0232,0.006 0.023,0.005 0.0235,0.005 0.0236,0.005 0.0235,0.005 0.0238,0.004 0.0241,0.004 0.0241,0.004 0.0244,0.003 0.0243,0.003 0.0247,0.002 0.0247,0.002 0.0249,0.002 0.0252,0.002 0.0253,0.001 0.0252,8e-4 0.0258,9e-4 0.0255,5e-4 h 0.0261 m 0,-4.8401 h -0.0264 l -0.0258,5e-4 -0.0258,9e-4 -0.0255,0.001 -0.0255,0.001 -0.0252,0.002 -0.0252,0.002 -0.025,0.002 -0.0249,0.003 -0.0247,0.003 -0.0244,0.003 -0.0244,0.003 -0.0241,0.004 -0.024,0.004 -0.0239,0.005 -0.0235,0.005 -0.0235,0.005 -0.0235,0.005 -0.023,0.006 -0.0232,0.006 -0.0227,0.007 -0.0227,0.006 -0.0227,0.007 -0.0224,0.007 -0.0221,0.008 -0.0221,0.008 -0.0218,0.008 -0.0218,0.009 -0.0216,0.009 -0.0215,0.009 -0.0213,0.01 -0.021,0.01 -0.0209,0.0102 -0.0207,0.0102 -0.0207,0.0107 -0.0204,0.0114 -0.0202,0.0113 -0.0201,0.0116 -0.0201,0.0119 -0.0196,0.0125 -0.0198,0.0125 -0.0193,0.013 -0.0193,0.0133 -0.0192,0.0137 -0.019,0.0138 -0.0187,0.0142 -0.0188,0.0145 -0.0184,0.0147 -0.0184,0.0153 -0.0181,0.0153 -0.0182,0.0159 -0.0178,0.0162 -0.0176,0.0164 -0.0176,0.0164 -0.0173,0.017 -0.0173,0.0176 -0.017,0.0176 -0.017,0.0179 -0.0164,0.0184 -0.0168,0.0184 -0.0164,0.019 -0.0162,0.019 -0.0161,0.0195 -0.0159,0.0199 -0.0156,0.0201 -0.0153,0.0204 -0.0153,0.0207 -0.0147,0.0207 -0.0148,0.0213 -0.0144,0.0212 -0.0142,0.0219 -0.0139,0.0218 -0.0136,0.0224 -0.0133,0.0224 -0.0133,0.0226 -0.0128,0.023 -0.0128,0.0235 -0.0121,0.0236 -0.0122,0.0238 -0.0119,0.0238 -0.0117,0.0244 -0.0116,0.0246 -0.011,0.025 -0.0108,0.0252 -0.0108,0.0252 -0.0105,0.0258 -0.01,0.0258 -0.01,0.0264 -0.01,0.0263 -0.009,0.0267 -0.009,0.0272 -0.009,0.0272 -0.009,0.0275 -0.008,0.0278 -0.008,0.0281 -0.008,0.0283 -0.008,0.0286 -0.007,0.0289 -0.007,0.029 -0.007,0.0294 -0.007,0.0298 -0.006,0.0298 -0.006,0.0303 -0.006,0.0303 -0.005,0.0309 -0.005,0.0309 -0.005,0.0312 -0.005,0.0315 -0.005,0.032 -0.005,0.032 -0.004,0.0323 -0.004,0.0326 -0.004,0.0329 -0.003,0.0329 -0.003,0.0335 -0.003,0.0337 -0.002,0.0337 -0.003,0.0343 -0.002,0.0346 -0.002,0.0346 -0.002,0.0348 -10e-4,0.0355 -10e-4,0.0354 -9e-4,0.0357 -8e-4,0.036 -3e-4,0.0363 v 0.0366 m 3.6825,0 v -0.0366 l -3e-4,-0.0363 -8e-4,-0.036 -9e-4,-0.0357 -10e-4,-0.0354 -10e-4,-0.0355 -0.001,-0.0348 -0.002,-0.0346 -0.002,-0.0346 -0.003,-0.0343 -0.003,-0.0337 -0.003,-0.0337 -0.003,-0.0335 -0.003,-0.0329 -0.004,-0.0329 -0.004,-0.0326 -0.004,-0.0323 -0.005,-0.032 -0.005,-0.032 -0.005,-0.0315 -0.005,-0.0312 -0.005,-0.0309 -0.006,-0.0309 -0.006,-0.0303 -0.006,-0.0303 -0.006,-0.0298 -0.007,-0.0298 -0.007,-0.0294 -0.007,-0.029 -0.007,-0.0289 -0.008,-0.0286 -0.008,-0.0283 -0.008,-0.0281 -0.008,-0.0278 -0.009,-0.0275 -0.009,-0.0272 -0.009,-0.0272 -0.01,-0.0267 -0.01,-0.0263 -0.01,-0.0264 -0.01,-0.0258 -0.0105,-0.0258 -0.0108,-0.0252 -0.0108,-0.0252 -0.011,-0.025 -0.0117,-0.0246 -0.0116,-0.0244 -0.0119,-0.0238 -0.0119,-0.0238 -0.0125,-0.0236 -0.0127,-0.0235 -0.0128,-0.023 -0.0133,-0.0226 -0.0133,-0.0224 -0.0136,-0.0224 -0.0139,-0.0218 -0.0142,-0.0219 -0.0144,-0.0212 -0.0148,-0.0213 -0.0147,-0.0207 -0.0153,-0.0207 -0.0153,-0.0204 -0.0156,-0.0201 -0.0159,-0.0199 -0.0162,-0.0195 -0.0161,-0.019 -0.0165,-0.019 -0.0164,-0.0184 -0.0167,-0.0184 -0.017,-0.0179 -0.017,-0.0176 -0.0173,-0.0176 -0.0173,-0.017 -0.0176,-0.0164 -0.0176,-0.0164 -0.0178,-0.0162 -0.0182,-0.0159 -0.0181,-0.0153 -0.0184,-0.0153 -0.0185,-0.0147 -0.0187,-0.0145 -0.0187,-0.0142 -0.019,-0.0138 -0.019,-0.0137 -0.0195,-0.0133 -0.0193,-0.013 -0.0196,-0.0125 -0.0198,-0.0125 -0.0201,-0.0119 -0.0202,-0.0116 -0.0201,-0.0113 -0.0204,-0.0114 -0.0207,-0.0107 -0.0207,-0.0102 -0.021,-0.0102 -0.0209,-0.01 -0.0213,-0.01 -0.0215,-0.009 -0.0216,-0.009 -0.0218,-0.009 -0.0218,-0.008 -0.0221,-0.008 -0.0221,-0.008 -0.0224,-0.007 -0.0227,-0.007 -0.0227,-0.006 -0.0227,-0.007 -0.0232,-0.006 -0.023,-0.006 -0.0235,-0.005 -0.0235,-0.005 -0.0236,-0.005 -0.0238,-0.005 -0.0241,-0.004 -0.0241,-0.004 -0.0243,-0.003 -0.0244,-0.003 -0.0247,-0.003 -0.0249,-0.003 -0.025,-0.002 -0.0252,-0.002 -0.0252,-0.002 -0.0255,-0.001 -0.0255,-0.001 -0.0258,-9e-4 -0.0258,-5e-4 h -0.0261 m 0,4.8401 h 0.0258 l 0.0255,-5e-4 0.0258,-9e-4 0.0252,-0.001 0.0252,-0.001 0.0253,-0.002 0.0249,-0.002 0.0247,-0.002 0.0246,-0.002 0.0244,-0.003 0.0244,-0.003 0.0241,-0.004 0.0241,-0.004 0.0238,-0.004 0.0235,-0.005 0.0235,-0.005 0.0236,-0.005 0.0229,-0.005 0.0233,-0.006 0.0229,-0.006 0.0227,-0.006 0.0224,-0.007 0.0227,-0.007 0.0221,-0.007 0.0221,-0.008 0.0221,-0.008 0.0216,-0.008 0.0218,-0.008 0.0215,-0.009 0.0213,-0.009 0.0213,-0.01 0.0209,-0.01 0.0207,-0.01 0.0207,-0.0104 0.0207,-0.0108 0.0204,-0.0111 0.0201,-0.0113 0.0202,-0.0119 0.0201,-0.0119 0.0196,-0.0125 0.0198,-0.0125 0.0193,-0.013 0.0192,-0.0133 0.0193,-0.0136 0.019,-0.0139 0.0187,-0.0142 0.0187,-0.0145 0.0187,-0.0147 0.0182,-0.0153 0.0184,-0.0153 0.0179,-0.0159 0.0178,-0.0161 0.0179,-0.0162 0.0176,-0.0167 0.0175,-0.017 0.0173,-0.0173 0.017,-0.0179 0.017,-0.0178 0.0168,-0.0182 0.0167,-0.0187 0.0164,-0.0187 0.0165,-0.0193 0.0161,-0.0195 0.0159,-0.0199 0.0159,-0.0201 0.0156,-0.0204 0.0153,-0.0204 0.015,-0.021 0.0147,-0.021 0.0145,-0.0215 0.0142,-0.0216 0.0141,-0.0221 0.0136,-0.0221 0.0137,-0.0224 0.013,-0.0227 0.013,-0.0229 0.0128,-0.0233 0.0125,-0.0235 0.0124,-0.0238 0.0119,-0.0238 0.0117,-0.0244 0.0116,-0.0246 0.011,-0.0247 0.0111,-0.0252 0.0108,-0.0253 0.0105,-0.0255 0.0102,-0.0258 0.01,-0.0261 0.01,-0.0263 0.01,-0.0267 0.009,-0.0269 0.009,-0.0272 0.009,-0.0275 0.008,-0.0275 0.008,-0.0281 0.008,-0.0283 0.008,-0.0283 0.007,-0.0287 0.007,-0.0292 0.007,-0.0292 0.007,-0.0295 0.006,-0.0297 0.006,-0.0301 0.006,-0.0303 0.006,-0.0306 0.005,-0.0306 0.005,-0.0312 0.005,-0.0315 0.005,-0.0314 0.005,-0.0321 0.004,-0.032 0.004,-0.0323 0.004,-0.0329 0.003,-0.0329 0.003,-0.0331 0.003,-0.0335 0.003,-0.0337 0.002,-0.034 0.002,-0.0341 0.002,-0.0345 10e-4,-0.0349 10e-4,-0.0349 10e-4,-0.0354 9e-4,-0.0354 8e-4,-0.0358 3e-4,-0.0362 v -0.0363 m -8.3676,4.6771 3e-4,0.0363 3e-4,0.0363 5e-4,0.0357 9e-4,0.0355 10e-4,0.0354 10e-4,0.0349 0.002,0.0348 0.002,0.0346 0.002,0.034 0.002,0.034 0.003,0.0338 0.003,0.0334 0.003,0.0332 0.003,0.0329 0.004,0.0329 0.004,0.0323 0.004,0.032 0.004,0.032 0.005,0.0315 0.005,0.0315 0.005,0.0311 0.005,0.0307 0.006,0.0306 0.006,0.0303 0.006,0.03 0.007,0.0298 0.006,0.0295 0.007,0.0292 0.007,0.0292 0.007,0.0286 0.008,0.0284 0.008,0.0283 0.008,0.0281 0.008,0.0275 0.009,0.0275 0.009,0.0272 0.009,0.0269 0.009,0.0267 0.01,0.0263 0.01,0.0261 0.0102,0.0258 0.0105,0.0255 0.0105,0.0252 0.011,0.0253 0.0111,0.0246 0.0113,0.0247 0.0117,0.0244 0.0119,0.0238 0.0122,0.0238 0.0124,0.0235 0.0125,0.0233 0.013,0.0229 0.0131,0.0227 0.0136,0.0224 0.0136,0.0221 0.0139,0.0221 0.0142,0.0215 0.0144,0.0216 0.0145,0.021 0.015,0.0209 0.015,0.0205 0.0156,0.0204 0.0156,0.0201 0.0159,0.0198 0.0161,0.0196 0.0162,0.0193 0.0164,0.0187 0.0165,0.0187 0.0167,0.0181 0.017,0.0179 0.017,0.0178 0.017,0.0173 0.0176,0.017 0.0173,0.0168 0.0178,0.0161 0.0179,0.0162 0.0179,0.0159 0.0181,0.0153 0.0184,0.0153 0.0184,0.0147 0.0188,0.0145 0.0189,0.0141 0.019,0.0139 0.019,0.0136 0.0193,0.0134 0.0196,0.013 0.0195,0.0125 0.0199,0.0124 0.0198,0.0119 0.0201,0.012 0.0204,0.0113 0.0205,0.011 0.0206,0.0108 0.0207,0.0105 0.021,0.01 0.021,0.01 0.0213,0.01 0.0215,0.009 0.0215,0.009 0.0216,0.008 0.0221,0.008 0.0218,0.008 0.0224,0.008 0.0224,0.007 0.0224,0.007 0.0227,0.007 0.0229,0.006 0.023,0.006 0.0232,0.006 0.0233,0.005 0.0235,0.005 0.0238,0.005 0.0238,0.005 0.0241,0.004 0.0241,0.004 0.0244,0.004 0.0244,0.003 0.0246,0.003 0.0247,0.003 0.0252,0.002 0.025,0.002 0.0252,0.002 0.0255,0.001 0.0258,0.001 0.0258,8e-4 0.0258,6e-4 h 0.0261 m 0,-4.8402 h -0.0258 l -0.0258,6e-4 -0.0255,9e-4 -0.0255,8e-4 -0.0253,0.001 -0.0249,0.002 -0.025,0.002 -0.0246,0.002 -0.0247,0.002 -0.0244,0.003 -0.0243,0.004 -0.0241,0.003 -0.0241,0.004 -0.0238,0.004 -0.0238,0.005 -0.0236,0.005 -0.0232,0.005 -0.0233,0.005 -0.0229,0.006 -0.023,0.006 -0.0227,0.006 -0.0226,0.007 -0.0224,0.007 -0.0221,0.007 -0.0221,0.008 -0.0222,0.008 -0.0218,0.008 -0.0215,0.008 -0.0216,0.009 -0.0212,0.009 -0.0213,0.01 -0.021,0.01 -0.0209,0.0102 -0.0207,0.0102 -0.0204,0.0108 -0.0205,0.011 -0.0204,0.0114 -0.0201,0.0116 -0.0198,0.0119 -0.0199,0.0122 -0.0195,0.0127 -0.0196,0.0128 -0.0193,0.013 -0.019,0.0136 -0.019,0.0139 -0.0189,0.0142 -0.0188,0.0142 -0.0184,0.0147 -0.0184,0.015 -0.0181,0.0156 -0.0182,0.0156 -0.0178,0.0159 -0.0176,0.0164 -0.0176,0.0165 -0.0176,0.017 -0.0173,0.0173 -0.017,0.0175 -0.017,0.0176 -0.0167,0.0182 -0.0167,0.0187 -0.0165,0.0187 -0.0164,0.019 -0.0162,0.0192 -0.0161,0.0199 -0.0156,0.0198 -0.0156,0.0204 -0.0153,0.0204 -0.015,0.021 -0.0148,0.021 -0.0144,0.0213 -0.0145,0.0215 -0.0139,0.0218 -0.0136,0.0224 -0.0136,0.0224 -0.0133,0.0227 -0.0131,0.023 -0.0127,0.0232 -0.0125,0.0232 -0.0122,0.0239 -0.0119,0.024 -0.0119,0.0244 -0.0113,0.0247 -0.0114,0.0247 -0.011,0.0252 -0.0105,0.0255 -0.0105,0.0255 -0.0102,0.0261 -0.0102,0.0261 -0.01,0.0266 -0.009,0.0267 -0.009,0.0272 -0.009,0.0272 -0.009,0.0275 -0.009,0.0278 -0.008,0.0283 -0.008,0.0283 -0.008,0.0287 -0.007,0.0289 -0.007,0.0292 -0.007,0.0295 -0.007,0.0297 -0.006,0.0301 -0.006,0.0303 -0.006,0.0306 -0.006,0.0306 -0.005,0.0312 -0.005,0.0315 -0.005,0.0314 -0.005,0.0321 -0.005,0.0323 -0.004,0.0323 -0.004,0.0329 -0.003,0.0329 -0.003,0.0334 -0.003,0.0335 -0.003,0.0337 -0.002,0.0343 -0.003,0.0343 -0.002,0.0346 -0.002,0.0348 -0.002,0.0352 -10e-4,0.0354 -10e-4,0.0357 -9e-4,0.036 -5e-4,0.0363 -3e-4,0.0366 -3e-4,0.0368 m 3.6828,0 v -0.0365 l -6e-4,-0.0363 -6e-4,-0.036 -8e-4,-0.0357 -0.001,-0.0357 -10e-4,-0.0352 -0.002,-0.0349 -0.002,-0.0348 -0.002,-0.0343 -0.002,-0.0343 -0.003,-0.0337 -0.003,-0.0338 -0.003,-0.0334 -0.003,-0.0332 -0.003,-0.0329 -0.004,-0.0326 -0.004,-0.0323 -0.004,-0.032 -0.005,-0.0318 -0.005,-0.0314 -0.005,-0.0312 -0.005,-0.0312 -0.006,-0.0306 -0.006,-0.0303 -0.006,-0.0304 -0.006,-0.0297 -0.006,-0.0298 -0.007,-0.0295 -0.007,-0.0292 -0.007,-0.0286 -0.008,-0.0286 -0.008,-0.0284 -0.008,-0.028 -0.009,-0.0278 -0.008,-0.0275 -0.009,-0.0275 -0.009,-0.0269 -0.009,-0.0267 -0.01,-0.0266 -0.01,-0.0261 -0.0102,-0.0258 -0.0103,-0.0258 -0.0107,-0.0255 -0.0108,-0.025 -0.0113,-0.0249 -0.0114,-0.0247 -0.0116,-0.0243 -0.0119,-0.0241 -0.0122,-0.0239 -0.0125,-0.0235 -0.0124,-0.0232 -0.0131,-0.023 -0.013,-0.0227 -0.0133,-0.0226 -0.0139,-0.0222 -0.0139,-0.0218 -0.0142,-0.0218 -0.0142,-0.0213 -0.0147,-0.0212 -0.015,-0.021 -0.015,-0.0204 -0.0154,-0.0204 -0.0158,-0.0201 -0.0159,-0.0199 -0.0159,-0.0195 -0.0164,-0.0193 -0.0162,-0.0187 -0.0167,-0.0187 -0.0167,-0.0182 -0.0167,-0.0178 -0.0171,-0.0179 -0.0172,-0.0173 -0.0173,-0.017 -0.0176,-0.0167 -0.0179,-0.0165 -0.0178,-0.0158 -0.0179,-0.0159 -0.0181,-0.0153 -0.0185,-0.0153 -0.0184,-0.0148 -0.0187,-0.0144 -0.0187,-0.0142 -0.019,-0.0139 -0.0193,-0.0136 -0.0192,-0.0133 -0.0196,-0.0131 -0.0196,-0.0124 -0.0198,-0.0125 -0.0198,-0.0119 -0.0202,-0.0119 -0.0204,-0.0113 -0.0204,-0.0111 -0.0204,-0.0108 -0.021,-0.0105 -0.0207,-0.0102 -0.0212,-0.01 -0.0213,-0.01 -0.0212,-0.009 -0.0216,-0.009 -0.0218,-0.008 -0.0218,-0.008 -0.0222,-0.008 -0.0221,-0.008 -0.0224,-0.007 -0.0226,-0.007 -0.0227,-0.007 -0.023,-0.006 -0.0229,-0.006 -0.0233,-0.006 -0.0232,-0.005 -0.0236,-0.005 -0.0238,-0.005 -0.0238,-0.005 -0.0238,-0.004 -0.0244,-0.004 -0.0241,-0.004 -0.0246,-0.003 -0.0247,-0.003 -0.0246,-0.002 -0.025,-0.002 -0.0252,-0.002 -0.0252,-0.002 -0.0256,-0.001 -0.0255,-0.001 -0.0258,-9e-4 -0.026,-6e-4 h -0.0261 m 0,4.8402 h 0.0258 l 0.0258,-6e-4 0.0255,-8e-4 0.0255,-9e-4 0.0252,-0.001 0.025,-0.002 0.0249,-0.002 0.025,-0.002 0.0243,-0.003 0.0247,-0.003 0.0241,-0.003 0.0244,-0.003 0.0238,-0.004 0.0238,-0.004 0.0238,-0.005 0.0235,-0.005 0.0233,-0.005 0.0232,-0.005 0.023,-0.006 0.0229,-0.006 0.0227,-0.006 0.0227,-0.007 0.0224,-0.007 0.0224,-0.007 0.0221,-0.008 0.0218,-0.008 0.0218,-0.008 0.0216,-0.009 0.0215,-0.009 0.0216,-0.009 0.021,-0.009 0.0209,-0.01 0.021,-0.01 0.0207,-0.0102 0.0207,-0.0108 0.0204,-0.0108 0.0201,-0.0113 0.0202,-0.0116 0.0198,-0.0119 0.0198,-0.0122 0.0196,-0.0125 0.0196,-0.0127 0.0192,-0.0131 0.019,-0.0133 0.019,-0.0139 0.019,-0.0139 0.0187,-0.0144 0.0184,-0.0148 0.0185,-0.0147 0.0181,-0.0153 0.0181,-0.0156 0.0179,-0.0159 0.0179,-0.0162 0.0175,-0.0164 0.0173,-0.017 0.0173,-0.017 0.0173,-0.0173 0.0167,-0.0179 0.017,-0.0181 0.0165,-0.0181 0.0167,-0.0187 0.0162,-0.019 0.0161,-0.0193 0.0162,-0.0196 0.0159,-0.0198 0.0153,-0.0201 0.0153,-0.0205 0.015,-0.0206 0.0147,-0.021 0.0145,-0.0213 0.0145,-0.0215 0.0138,-0.0216 0.0139,-0.0221 0.0134,-0.0224 0.0133,-0.0224 0.013,-0.0229 0.0128,-0.0233 0.0124,-0.0232 0.0122,-0.0238 0.0119,-0.0238 0.0119,-0.0244 0.0114,-0.0244 0.0113,-0.0249 0.0111,-0.025 0.0107,-0.0252 0.0105,-0.0258 0.0102,-0.0258 0.01,-0.0261 0.01,-0.0263 0.009,-0.0267 0.009,-0.0272 0.009,-0.0272 0.009,-0.0275 0.009,-0.0278 0.008,-0.0281 0.008,-0.0283 0.008,-0.0286 0.008,-0.0287 0.007,-0.0292 0.007,-0.0294 0.007,-0.0298 0.007,-0.03 0.006,-0.0301 0.006,-0.0306 0.006,-0.0309 0.006,-0.0309 0.005,-0.0315 0.005,-0.0314 0.005,-0.0321 0.004,-0.032 0.004,-0.0326 0.004,-0.0326 0.004,-0.0329 0.003,-0.0334 0.003,-0.0335 0.003,-0.0337 0.003,-0.0343 0.003,-0.0343 0.002,-0.0346 0.002,-0.0349 0.002,-0.0351 10e-4,-0.0354 0.001,-0.0358 8e-4,-0.036 6e-4,-0.0362 6e-4,-0.0366 v -0.0369"
         style="fill:none;stroke:#ed1c24;stroke-width:0.283465;stroke-linecap:butt;stroke-linejoin:bevel;stroke-miterlimit:2.61313;stroke-dasharray:none;stroke-opacity:1"
         id="path376" />
      <path
         d="m 659.0407,202.2973 h -3.4572 v -8.4594 h 3.4572 l -4.1658,-11.4452 -4.1658,11.4452 h 3.4571 v 8.4594 h -3.4571 l 4.1658,11.4455 z"
         style="fill:none;stroke:#ed1c24;stroke-width:0.283465;stroke-linecap:butt;stroke-linejoin:bevel;stroke-miterlimit:2.61313;stroke-dasharray:none;stroke-opacity:1"
         id="path378" />
      <path
         d="m 652.7333,203.7146 h 4.2831 l -2.1415,5.8842 z"
         style="fill:none;stroke:#ed1c24;stroke-width:0.283465;stroke-linecap:butt;stroke-linejoin:bevel;stroke-miterlimit:2.61313;stroke-dasharray:none;stroke-opacity:1"
         id="path380" />
      <path
         d="m 652.7333,192.4206 2.1416,-5.8839 2.1415,5.8839 z"
         style="fill:none;stroke:#ed1c24;stroke-width:0.283465;stroke-linecap:butt;stroke-linejoin:bevel;stroke-miterlimit:2.61313;stroke-dasharray:none;stroke-opacity:1"
         id="path382" />
      <path
         d="m 734.7257,202.2973 h -3.4571 v -8.4594 h 3.4571 l -4.1658,-11.4452 -4.1658,11.4452 h 3.4571 v 8.4594 h -3.4571 l 4.1658,11.4452 z"
         style="fill:none;stroke:#ed1c24;stroke-width:0.283465;stroke-linecap:butt;stroke-linejoin:bevel;stroke-miterlimit:2.61313;stroke-dasharray:none;stroke-opacity:1"
         id="path384" />
      <path
         d="m 728.4183,203.7146 h 4.2832 l -2.1416,5.8839 z"
         style="fill:none;stroke:#ed1c24;stroke-width:0.283465;stroke-linecap:butt;stroke-linejoin:bevel;stroke-miterlimit:2.61313;stroke-dasharray:none;stroke-opacity:1"
         id="path386" />
      <path
         d="m 730.5599,186.5367 2.1416,5.8839 h -4.2832 z"
         style="fill:none;stroke:#ed1c24;stroke-width:0.283465;stroke-linecap:butt;stroke-linejoin:bevel;stroke-miterlimit:2.61313;stroke-dasharray:none;stroke-opacity:1"
         id="path388" />
      <text
         xml:space="preserve"
         transform="matrix(1,0,0,-1,723.075,222.1622)"
         style="font-variant:normal;font-weight:normal;font-size:9px;font-family:'MS 33558';-inkscape-font-specification:MS33558;writing-mode:lr-tb;fill:none;stroke:#ed1c24;stroke-width:0.283465;stroke-linecap:butt;stroke-linejoin:miter;stroke-miterlimit:2.61313;stroke-dasharray:none;stroke-opacity:1"
         id="text392"><tspan
           x="0 7.335"
           y="0"
           sodipodi:role="line"
           id="tspan390">on</tspan></text>
      <text
         xml:space="preserve"
         transform="matrix(1,0,0,-1,717.3179,164.946)"
         style="font-variant:normal;font-weight:normal;font-size:9px;font-family:'MS 33558';-inkscape-font-specification:MS33558;writing-mode:lr-tb;fill:none;stroke:#ed1c24;stroke-width:0.283465;stroke-linecap:butt;stroke-linejoin:miter;stroke-miterlimit:2.61313;stroke-dasharray:none;stroke-opacity:1"
         id="text396"><tspan
           x="0 7.335 14.058"
           y="0"
           sodipodi:role="line"
           id="tspan394">off</tspan></text>
      <text
         xml:space="preserve"
         transform="matrix(1,0,0,-1,648.9901,222.1622)"
         style="font-variant:normal;font-weight:normal;font-size:9px;font-family:'MS 33558';-inkscape-font-specification:MS33558;writing-mode:lr-tb;fill:none;stroke:#ed1c24;stroke-width:0.283465;stroke-linecap:butt;stroke-linejoin:miter;stroke-miterlimit:2.61313;stroke-dasharray:none;stroke-opacity:1"
         id="text400"><tspan
           x="0 2.664 9.2700005"
           y="0"
           sodipodi:role="line"
           id="tspan398">100</tspan></text>
      <text
         xml:space="preserve"
         transform="matrix(1,0,0,-1,648.9417,164.956)"
         style="font-variant:normal;font-weight:normal;font-size:9px;font-family:'MS 33558';-inkscape-font-specification:MS33558;writing-mode:lr-tb;fill:none;stroke:#ed1c24;stroke-width:0.283465;stroke-linecap:butt;stroke-linejoin:miter;stroke-miterlimit:2.61313;stroke-dasharray:none;stroke-opacity:1"
         id="text404"><tspan
           x="0 7.335 14.67 21.834 29.438999 37.133999"
           y="0"
           sodipodi:role="line"
           id="tspan402">normal</tspan></text>
      <text
         xml:space="preserve"
         transform="matrix(1,0,0,-1,665.7698,191.6657)"
         style="font-variant:normal;font-weight:normal;font-size:12px;font-family:'MS 33558';-inkscape-font-specification:MS33558;writing-mode:lr-tb;fill:none;stroke:#ed1c24;stroke-width:0.283465;stroke-linecap:butt;stroke-linejoin:miter;stroke-miterlimit:2.61313;stroke-dasharray:none;stroke-opacity:1"
         id="text408"><tspan
           x="0 9.0879002 18.1758 27.5613 36.9468 46.256302"
           y="0"
           sodipodi:role="line"
           id="tspan406">supply</tspan></text>
    </g>
    <path
       d="m 554.6344,296.0396 h -22.6771 c -4.051,0 -7.7942,-2.1611 -9.8195,-5.6693 -2.0254,-3.5081 -2.0254,-7.8304 0,-11.3386 2.0253,-3.5081 5.7685,-5.6692 9.8195,-5.6692 h 22.6771 c 4.051,0 7.7942,2.1611 9.8195,5.6692 2.0254,3.5082 2.0254,7.8305 0,11.3386 -2.0253,3.5082 -5.7685,5.6693 -9.8195,5.6693 z"
       style="display:inline;stroke-width:0.70866144;stroke-dasharray:none;fill:none;stroke:#53fe6a;stroke-linecap:butt;stroke-linejoin:bevel;stroke-miterlimit:2.61313;stroke-opacity:1"
       id="path410" />
  </g>
  <g
     id="g1658"
     transform="matrix(1.3333333,0,0,-1.3333333,0.721964,785.05544)"
     inkscape:label="Bottom">
    <path
       d="m 624.2607,439.4239 c 9.3932,0 17.0079,-7.6147 17.0079,-17.0078 0,-9.3932 -7.6147,-17.0079 -17.0079,-17.0079 -9.3932,0 -17.0079,7.6147 -17.0079,17.0079 0,9.3931 7.6147,17.0078 17.0079,17.0078 z"
       style="fill:none;stroke:#231f20;stroke-width:0.708661;stroke-linecap:butt;stroke-linejoin:miter;stroke-miterlimit:2.61313;stroke-dasharray:none;stroke-opacity:1"
       id="path158" />
    <path
       d="m 501.2371,439.4239 c 9.3931,0 17.0078,-7.6147 17.0078,-17.0078 0,-9.3932 -7.6147,-17.0079 -17.0078,-17.0079 -9.3932,0 -17.0079,7.6147 -17.0079,17.0079 0,9.3931 7.6147,17.0078 17.0079,17.0078 z"
       style="fill:none;stroke:#231f20;stroke-width:0.708661;stroke-linecap:butt;stroke-linejoin:miter;stroke-miterlimit:2.61313;stroke-dasharray:none;stroke-opacity:1"
       id="path160" />
    <path
       d="m 760.6071,439.4239 c 9.3932,0 17.0079,-7.6147 17.0079,-17.0078 0,-9.3932 -7.6147,-17.0079 -17.0079,-17.0079 -9.3931,0 -17.0078,7.6147 -17.0078,17.0079 0,9.3931 7.6147,17.0078 17.0078,17.0078 z"
       style="fill:none;stroke:#231f20;stroke-width:0.708661;stroke-linecap:butt;stroke-linejoin:miter;stroke-miterlimit:2.61313;stroke-dasharray:none;stroke-opacity:1"
       id="path162" />
    <path
       d="m 531.9573,520.3879 c -4.051,0 -7.7942,-2.1611 -9.8195,-5.6693 -2.0254,-3.5081 -2.0254,-7.8304 0,-11.3385 2.0253,-3.5082 5.7685,-5.6693 9.8195,-5.6693 h 22.6771 c 4.0507,0 7.7942,2.1611 9.8195,5.6693 2.0254,3.5081 2.0254,7.8304 0,11.3385 -2.0253,3.5082 -5.7688,5.6693 -9.8195,5.6693 z"
       style="fill:none;stroke:#231f20;stroke-width:0.708661;stroke-linecap:butt;stroke-linejoin:bevel;stroke-miterlimit:2.61313;stroke-dasharray:none;stroke-opacity:1"
       id="path186" />
    <path
       d="m 435.2961,399.1365 c -3.9138,0 -7.0866,3.1729 -7.0866,7.0866 0,3.9138 3.1728,7.0867 7.0866,7.0867 3.9138,0 7.0866,-3.1726 7.0866,-7.0867 0,-3.9137 -3.1725,-7.0866 -7.0866,-7.0866 z"
       style="fill:none;stroke:#231f20;stroke-width:0.708661;stroke-linecap:butt;stroke-linejoin:bevel;stroke-miterlimit:2.61313;stroke-dasharray:none;stroke-opacity:1"
       id="path188" />
    <path
       d="m 822.2961,399.1365 c -3.9138,0 -7.0866,3.1729 -7.0866,7.0866 0,3.9138 3.1728,7.0867 7.0866,7.0867 3.9138,0 7.0866,-3.1726 7.0866,-7.0867 0,-3.9137 -3.1725,-7.0866 -7.0866,-7.0866 z"
       style="fill:none;stroke:#231f20;stroke-width:0.708661;stroke-linecap:butt;stroke-linejoin:bevel;stroke-miterlimit:2.61313;stroke-dasharray:none;stroke-opacity:1"
       id="path190" />
    <path
       d="m 435.2961,534.1365 c -3.9138,0 -7.0866,3.1729 -7.0866,7.0866 0,3.9138 3.1728,7.0867 7.0866,7.0867 3.9138,0 7.0866,-3.1726 7.0866,-7.0867 0,-3.9137 -3.1725,-7.0866 -7.0866,-7.0866 z"
       style="fill:none;stroke:#231f20;stroke-width:0.708661;stroke-linecap:butt;stroke-linejoin:bevel;stroke-miterlimit:2.61313;stroke-dasharray:none;stroke-opacity:1"
       id="path192" />
    <path
       d="m 822.2961,534.1365 c -3.9138,0 -7.0866,3.1729 -7.0866,7.0866 0,3.9138 3.1728,7.0867 7.0866,7.0867 3.9138,0 7.0866,-3.1726 7.0866,-7.0867 0,-3.9137 -3.1725,-7.0866 -7.0866,-7.0866 z"
       style="fill:none;stroke:#231f20;stroke-width:0.708661;stroke-linecap:butt;stroke-linejoin:bevel;stroke-miterlimit:2.61313;stroke-dasharray:none;stroke-opacity:1"
       id="path194" />
    <path
       id="path196"
       style="fill:none;stroke:#231f20;stroke-width:0.708661;stroke-linecap:butt;stroke-linejoin:bevel;stroke-miterlimit:2.61313;stroke-dasharray:none;stroke-opacity:1"
       d="m 793.29297,560.97852 c -3.45128,0.25185 -6.40606,3.31716 -6.4956,6.78204 -0.25251,3.43631 2.34794,6.76145 5.73013,7.38327 3.216,0.7034 6.73106,-1.12972 7.99789,-4.16727 1.39176,-3.06741 0.24489,-6.99821 -2.59319,-8.81881 -1.35324,-0.91011 -3.01653,-1.32468 -4.63923,-1.17923 z" />
    <path
       id="path198"
       style="fill:none;stroke:#231f20;stroke-width:0.708661;stroke-linecap:butt;stroke-linejoin:bevel;stroke-miterlimit:2.61313;stroke-dasharray:none;stroke-opacity:1"
       d="m 462.98633,560.97852 c -3.45204,0.25147 -6.40532,3.31768 -6.49756,6.78204 -0.25061,3.43595 2.34966,6.76175 5.73209,7.38327 3.21475,0.70325 6.72713,-1.12835 7.99594,-4.16336 1.39442,-3.06694 0.24864,-6.99895 -2.58907,-8.8211 -1.35342,-0.9114 -3.01789,-1.32632 -4.6414,-1.18085 z" />
    <path
       id="path200"
       style="fill:none;stroke:#231f20;stroke-width:0.708661;stroke-linecap:butt;stroke-linejoin:bevel;stroke-miterlimit:2.61313;stroke-dasharray:none;stroke-opacity:1"
       d="m 793.29018,372.19141 c -3.45193,0.24981 -6.40744,3.3175 -6.49755,6.78204 -0.26204,3.52164 2.48719,6.92862 5.98237,7.42199 3.37074,0.63643 6.95526,-1.54098 7.97514,-4.80992 1.09964,-3.14504 -0.34876,-6.91177 -3.28166,-8.49772 -1.25954,-0.71573 -2.73676,-1.02341 -4.1783,-0.89639 z" />
    <path
       d="m 831.5442,581.7231 c 1.1284,-5e-4 2.2104,-0.4495 3.0078,-1.248 0.7974,-0.7983 1.245,-1.8754 1.2441,-3.0039 V 369.9751 c -5e-4,-1.1282 -0.4495,-2.2102 -1.2481,-3.0075 -0.7982,-0.7974 -1.8754,-1.245 -3.0038,-1.2445 H 426.0481 c -1.1282,9e-4 -2.2102,0.4499 -3.0076,1.2481 -0.7974,0.7986 -1.2449,1.8757 -1.2444,3.0039 v 207.4961 c 9e-4,1.1285 0.4499,2.2104 1.2481,3.0078 0.7985,0.7974 1.8757,1.245 3.0039,1.2441 z"
       style="fill:none;stroke:#231f20;stroke-width:0.708661;stroke-linecap:butt;stroke-linejoin:bevel;stroke-miterlimit:2.61313;stroke-dasharray:none;stroke-opacity:1"
       id="path202" />
    <path
       id="path224"
       style="fill:none;stroke:#231f20;stroke-width:0.708661;stroke-linecap:butt;stroke-linejoin:bevel;stroke-miterlimit:2.61313;stroke-dasharray:none;stroke-opacity:1"
       d="m 462.98693,372.19141 c -3.45194,0.24981 -6.40745,3.3175 -6.49756,6.78204 -0.26203,3.52164 2.4872,6.92862 5.98237,7.42199 3.37081,0.6365 6.95525,-1.54094 7.97515,-4.80992 1.09925,-3.14439 -0.34787,-6.9116 -3.28118,-8.49656 -1.25878,-0.71762 -2.73725,-1.02417 -4.17878,-0.89755 z" />
    <path
       d="m 771.2753,548.301 c 3.1312,0 5.6693,-2.5382 5.6693,-5.6693 0,-3.1312 -2.5381,-5.6693 -5.6693,-5.6693 -3.1311,0 -5.6693,2.5381 -5.6693,5.6693 0,3.1311 2.5382,5.6693 5.6693,5.6693 z"
       style="fill:none;stroke:#231f20;stroke-width:0.708661;stroke-linecap:butt;stroke-linejoin:miter;stroke-miterlimit:2.61313;stroke-dasharray:none;stroke-opacity:1"
       id="path234" />
    <path
       d="m 660.7242,548.301 c 3.1311,0 5.6692,-2.5382 5.6692,-5.6693 0,-3.1312 -2.5381,-5.6693 -5.6692,-5.6693 -3.1312,0 -5.6693,2.5381 -5.6693,5.6693 0,3.1311 2.5381,5.6693 5.6693,5.6693 z"
       style="fill:none;stroke:#231f20;stroke-width:0.708661;stroke-linecap:butt;stroke-linejoin:miter;stroke-miterlimit:2.61313;stroke-dasharray:none;stroke-opacity:1"
       id="path236" />
    <path
       d="m 660.7242,480.2695 c 3.1311,0 5.6692,-2.5382 5.6692,-5.6693 0,-3.1312 -2.5381,-5.6693 -5.6692,-5.6693 -3.1312,0 -5.6693,2.5381 -5.6693,5.6693 0,3.1311 2.5381,5.6693 5.6693,5.6693 z"
       style="fill:none;stroke:#231f20;stroke-width:0.708661;stroke-linecap:butt;stroke-linejoin:miter;stroke-miterlimit:2.61313;stroke-dasharray:none;stroke-opacity:1"
       id="path238" />
    <path
       d="m 771.2753,480.2695 c 3.1312,0 5.6693,-2.5382 5.6693,-5.6693 0,-3.1312 -2.5381,-5.6693 -5.6693,-5.6693 -3.1311,0 -5.6693,2.5381 -5.6693,5.6693 0,3.1311 2.5382,5.6693 5.6693,5.6693 z"
       style="fill:none;stroke:#231f20;stroke-width:0.708661;stroke-linecap:butt;stroke-linejoin:miter;stroke-miterlimit:2.61313;stroke-dasharray:none;stroke-opacity:1"
       id="path240" />
    <path
       d="m 715.9997,558.2222 c 27.3969,0 49.6063,-22.2097 49.6063,-49.6063 0,-27.3965 -22.2094,-49.6063 -49.6063,-49.6063 -27.3968,0 -49.6063,22.2098 -49.6063,49.6063 0,27.3966 22.2095,49.6063 49.6063,49.6063 z"
       style="fill:none;stroke:#231f20;stroke-width:0.708661;stroke-linecap:butt;stroke-linejoin:miter;stroke-miterlimit:2.61313;stroke-dasharray:none;stroke-opacity:1"
       id="path258" />
  </g>
  <g
     id="g8706"
     style="display:inline"
     inkscape:label="Oxygen Supply Pressure Parts">
    <path
       d="m 814.83181,630.88544 h 36.54573 c 4.15707,0 7.55867,3.4016 7.55867,7.55907 v 98.26773 c 0,4.15747 -3.4016,7.55907 -7.55867,7.55907 h -36.54573 c -11.5068,8.32293 -25.64747,13.2284 -40.93453,13.2284 -15.28707,0 -29.42787,-4.90547 -40.93453,-13.2284 h -36.54614 c -4.1572,0 -7.55906,-3.4016 -7.55906,-7.55907 v -98.26773 c 0,-4.15747 3.40186,-7.55907 7.55906,-7.55907 h 36.54614 c 11.50666,-8.3228 25.64746,-13.22826 40.93453,-13.22826 15.28706,0 29.42773,4.90546 40.93453,13.22826 z"
       style="fill:none;stroke:#231f20;stroke-width:0.944881;stroke-linecap:butt;stroke-linejoin:miter;stroke-miterlimit:2.61313;stroke-dasharray:none;stroke-opacity:1"
       id="path252" />
    <path
       d="m 599.65875,683.79891 c -2.08707,0 -3.77947,1.692 -3.77947,3.77947 0,2.08706 1.6924,3.7796 3.77947,3.7796 2.08747,0 3.7796,-1.69254 3.7796,-3.7796 0,-2.08747 -1.69213,-3.77947 -3.7796,-3.77947 z"
       style="fill:none;stroke:#52ff6c;stroke-width:0.944881;stroke-linecap:butt;stroke-linejoin:bevel;stroke-miterlimit:2.61313;stroke-dasharray:none;stroke-opacity:1"
       id="path172" />
    <path
       d="m 599.65875,621.43664 c 36.5288,0 66.14173,29.61267 66.14173,66.14174 0,36.52919 -29.61293,66.14173 -66.14173,66.14173 -36.5288,0 -66.14173,-29.61254 -66.14173,-66.14173 0,-36.52907 29.61293,-66.14174 66.14173,-66.14174 z"
       style="fill:none;stroke:#5bf66f;stroke-width:0.944881;stroke-linecap:butt;stroke-linejoin:miter;stroke-miterlimit:2.61313;stroke-dasharray:none;stroke-opacity:1"
       id="path184" />
    <path
       d="m 262.37449,660.91758 c 6.0764,0 11.6912,3.24173 14.7292,8.504 3.0384,5.26226 3.0384,11.7456 0,17.00786 -3.038,5.26227 -8.6528,8.50387 -14.7292,8.50387 h -30.23627 c -6.07626,0 -11.69119,-3.2416 -14.72919,-8.50387 -3.03827,-5.26226 -3.03827,-11.7456 0,-17.00786 3.038,-5.26227 8.65293,-8.504 14.72919,-8.504 z"
       style="fill:none;stroke:#52ff7d;stroke-width:0.944881;stroke-linecap:butt;stroke-linejoin:bevel;stroke-miterlimit:2.61313;stroke-dasharray:none;stroke-opacity:1"
       id="path204" />
    <path
       d="m 773.89728,684.17678 c -1.8784,0 -3.4016,1.5228 -3.4016,3.4016 0,1.8784 1.5232,3.4016 3.4016,3.4016 1.8788,0 3.4016,-1.5232 3.4016,-3.4016 0,-1.8788 -1.5228,-3.4016 -3.4016,-3.4016 z"
       style="fill:none;stroke:#231f20;stroke-width:0.944881;stroke-linecap:butt;stroke-linejoin:bevel;stroke-miterlimit:2.61313;stroke-dasharray:none;stroke-opacity:1"
       id="path242" />
    <path
       d="m 700.19608,634.66504 c 4.17493,0 7.55907,3.38414 7.55907,7.55907 0,4.1748 -3.38414,7.55907 -7.55907,7.55907 -4.1748,0 -7.55907,-3.38427 -7.55907,-7.55907 0,-4.17493 3.38427,-7.55907 7.55907,-7.55907 z"
       style="fill:none;stroke:#231f20;stroke-width:0.944881;stroke-linecap:butt;stroke-linejoin:miter;stroke-miterlimit:2.61313;stroke-dasharray:none;stroke-opacity:1"
       id="path244" />
    <path
       d="m 847.59768,725.37371 c 4.1748,0 7.55906,3.38413 7.55906,7.55906 0,4.1748 -3.38426,7.55907 -7.55906,7.55907 -4.17494,0 -7.55907,-3.38427 -7.55907,-7.55907 0,-4.17493 3.38413,-7.55906 7.55907,-7.55906 z"
       style="fill:none;stroke:#231f20;stroke-width:0.944881;stroke-linecap:butt;stroke-linejoin:miter;stroke-miterlimit:2.61313;stroke-dasharray:none;stroke-opacity:1"
       id="path246" />
    <path
       d="m 700.19608,725.37371 c 4.17493,0 7.55907,3.38413 7.55907,7.55906 0,4.1748 -3.38414,7.55907 -7.55907,7.55907 -4.1748,0 -7.55907,-3.38427 -7.55907,-7.55907 0,-4.17493 3.38427,-7.55906 7.55907,-7.55906 z"
       style="fill:none;stroke:#231f20;stroke-width:0.944881;stroke-linecap:butt;stroke-linejoin:miter;stroke-miterlimit:2.61313;stroke-dasharray:none;stroke-opacity:1"
       id="path248" />
    <path
       d="m 847.59768,634.66504 c 4.1748,0 7.55906,3.38414 7.55906,7.55907 0,4.1748 -3.38426,7.55907 -7.55906,7.55907 -4.17494,0 -7.55907,-3.38427 -7.55907,-7.55907 0,-4.17493 3.38413,-7.55907 7.55907,-7.55907 z"
       style="fill:none;stroke:#231f20;stroke-width:0.944881;stroke-linecap:butt;stroke-linejoin:miter;stroke-miterlimit:2.61313;stroke-dasharray:none;stroke-opacity:1"
       id="path250" />
    <path
       d="m 448.99169,625.43731 c 36.52906,0 66.14173,29.61293 66.14173,66.14173 0,36.5288 -29.61267,66.14173 -66.14173,66.14173 -36.5292,0 -66.14174,-29.61293 -66.14174,-66.14173 0,-36.5288 29.61254,-66.14173 66.14174,-66.14173 z"
       style="fill:none;stroke:#5252ff;stroke-width:0.944881;stroke-linecap:butt;stroke-linejoin:miter;stroke-miterlimit:2.61313;stroke-dasharray:none;stroke-opacity:1"
       id="path260" />
    <path
       d="m 348.14822,678.48331 c 3.9692,1.1192 6.87907,4.7676 6.87907,9.09507 0,3.99573 -2.4804,7.412 -5.9848,8.79346 l 2.20613,44.12 h -11.33866 l 2.20613,-44.1192 c -3.50507,-1.38146 -5.986,-4.79813 -5.986,-8.79426 0,-4.32787 2.91027,-7.97627 6.88027,-9.09547 l 2.56893,-51.37693 z"
       style="fill:none;stroke:#52ff7e;stroke-width:0.944881;stroke-linecap:butt;stroke-linejoin:miter;stroke-miterlimit:22.9256;stroke-dasharray:none;stroke-opacity:1"
       id="path272" />
    <path
       d="m 345.57929,684.74371 c 1.56507,0 2.83467,1.2692 2.83467,2.83467 0,1.56546 -1.2696,2.83466 -2.83467,2.83466 -1.56507,0 -2.83467,-1.2692 -2.83467,-2.83466 0,-1.56547 1.2696,-2.83467 2.83467,-2.83467 z"
       style="fill:none;stroke:#52ff7e;stroke-width:0.944881;stroke-linecap:butt;stroke-linejoin:miter;stroke-miterlimit:22.9256;stroke-dasharray:none;stroke-opacity:1"
       id="path274" />
    <path
       d="m 987.46101,708.54118 v -44.5984 h -85.03947 v 44.5984 z"
       style="fill:none;stroke:#231f20;stroke-width:0.944881;stroke-linecap:butt;stroke-linejoin:miter;stroke-miterlimit:2.61313;stroke-dasharray:none;stroke-opacity:1"
       id="path464" />
    <g
       id="g10698"
       style="display:inline"
       inkscape:label="Text">
      <path
         d="m 548.06328,662.87958 1.28694,-2.52547 5.48973,2.7972 c -0.4524,0.8296 -0.88133,1.67213 -1.28693,2.52547 z"
         style="fill:none;stroke:#ed1c24;stroke-width:0.377953;stroke-linecap:butt;stroke-linejoin:bevel;stroke-miterlimit:2.61313;stroke-dasharray:none;stroke-opacity:1"
         id="path280" />
      <path
         d="m 659.22941,677.17411 c -0.16253,-0.93093 -0.34693,-1.858 -0.55293,-2.78027 l -6.46987,1.28694 c -0.57026,-2.51907 -1.32053,-4.99307 -2.24573,-7.404 l 6.09453,-2.5244 c -0.34133,-0.88134 -0.70306,-1.7544 -1.0852,-2.6188 l -6.094,2.52426 c -2.49146,-5.5932 -5.91653,-10.71986 -10.13066,-15.16146 l 4.66426,-4.6648 c -0.6524,-0.6836 -1.32053,-1.35187 -2.00426,-2.00427 l -4.66467,4.6644 c -4.44213,-4.21427 -9.56786,-7.6396 -15.1616,-10.13067 l 2.5244,-6.09413 c -0.8644,-0.38213 -1.73746,-0.74387 -2.61893,-1.08507 l -2.52427,6.0944 c -5.71653,-2.1932 -11.76346,-3.39626 -17.8844,-3.5572 v -6.5964 c -0.94453,-0.0224 -1.88973,-0.0224 -2.83466,0 v 6.5964 c -1.87574,0.0491 -3.74774,0.19654 -5.608,0.44147 l -0.52054,-3.2848 -2.79946,0.44333 0.52013,3.2848 c -1.8452,0.342 -3.67067,0.7804 -5.47013,1.31334 l -2.03827,-6.2736 c -0.9056,0.27053 -1.8044,0.56266 -2.696,0.87573 l 2.03827,6.2736 c -1.7688,0.62667 -3.5036,1.34507 -5.1972,2.1528 l -1.50987,-2.9632 -2.52587,1.28693 1.50987,2.9632 c -1.64893,0.89574 -3.25,1.87694 -4.79653,2.93934 l -3.87747,-5.33667 c -0.77707,0.53747 -1.5416,1.09307 -2.29307,1.6664 l 3.87747,5.33667 c -1.4888,1.14253 -2.91667,2.36186 -4.278,3.65333 l -2.35173,-2.35173 -2.00427,2.00466 4.35667,4.35667 c 1.8376,-1.94267 3.82533,-3.73787 5.94413,-5.3688 l 2.29293,-1.6664 c 14.32867,-9.8468 32.68694,-11.71467 48.70494,-4.95573 16.01839,6.75893 27.51573,21.3688 30.45919,38.5036 z"
         style="fill:none;stroke:#ed1c24;stroke-width:0.377953;stroke-linecap:butt;stroke-linejoin:bevel;stroke-miterlimit:2.61313;stroke-dasharray:none;stroke-opacity:1"
         id="path282" />
      <path
         d="m 549.04182,680.99638 -6.08574,-0.96374 0.4436,-2.8 6.08547,0.96387 c -0.17387,0.92893 -0.3216,1.86253 -0.44333,2.79987 z"
         style="fill:none;stroke:#ed1c24;stroke-width:0.377953;stroke-linecap:butt;stroke-linejoin:bevel;stroke-miterlimit:2.61313;stroke-dasharray:none;stroke-opacity:1"
         id="path284" />
      <path
         d="m 548.63515,688.99571 v -2.83467 h -9.43213 c -0.022,0.94454 -0.022,1.88987 0,2.83467 z"
         style="fill:none;stroke:#ed1c24;stroke-width:0.377953;stroke-linecap:butt;stroke-linejoin:bevel;stroke-miterlimit:2.61313;stroke-dasharray:none;stroke-opacity:1"
         id="path286" />
      <path
         d="m 551.58208,650.89664 c -0.57306,0.75134 -1.12866,1.51587 -1.666,2.29334 l 7.6308,5.54386 c 0.534,-0.77973 1.0896,-1.5444 1.666,-2.29306 z"
         style="fill:none;stroke:#ed1c24;stroke-width:0.377953;stroke-linecap:butt;stroke-linejoin:bevel;stroke-miterlimit:2.61313;stroke-dasharray:none;stroke-opacity:1"
         id="path288" />
      <path
         d="m 542.59995,667.54838 c -0.31293,0.8916 -0.60507,1.7904 -0.876,2.696 l 8.97067,2.9148 c 0.2668,-0.9068 0.55893,-1.80547 0.87613,-2.696 z"
         style="fill:none;stroke:#ed1c24;stroke-width:0.377953;stroke-linecap:butt;stroke-linejoin:bevel;stroke-miterlimit:2.61313;stroke-dasharray:none;stroke-opacity:1"
         id="path290" />
      <text
         xml:space="preserve"
         style="font-variant:normal;font-weight:normal;font-size:6.66667px;font-family:'MS 33558';-inkscape-font-specification:MS33558;writing-mode:lr-tb;fill:none;stroke:#ed1c24;stroke-width:0.377953;stroke-linecap:butt;stroke-linejoin:miter;stroke-miterlimit:2.61313;stroke-dasharray:none;stroke-opacity:1"
         id="text294"
         x="552.11877"
         y="690.91199"><tspan
           x="552.11877"
           y="690.91199"
           id="tspan292"
           style="stroke-width:0.377953;stroke-dasharray:none">0</tspan></text>
      <text
         xml:space="preserve"
         style="font-variant:normal;font-weight:normal;font-size:9.33333px;font-family:'MS 33558';-inkscape-font-specification:MS33558;writing-mode:lr-tb;fill:none;stroke:#ed1c24;stroke-width:0.377953;stroke-linecap:butt;stroke-linejoin:miter;stroke-miterlimit:2.61313;stroke-dasharray:none;stroke-opacity:1"
         id="text302"
         x="578.06183"
         y="710.604"><tspan
           x="578.06183 585.66846 593.21918 600.99384 607.96582 614.93781"
           y="710.604"
           sodipodi:role="line"
           id="tspan296"
           style="stroke-width:0.377953;stroke-dasharray:none">oxygen</tspan><tspan
           x="577.94916 585.20117 592.45312 599.93848 607.42383 614.85315"
           y="721.45996"
           sodipodi:role="line"
           id="tspan298"
           style="stroke-width:0.377953;stroke-dasharray:none">supply</tspan><tspan
           x="571.27185 578.75714 586.18652 593.15851 600.41046 607.66248 614.91449 622.34381"
           y="732.31598"
           sodipodi:role="line"
           id="tspan300"
           style="stroke-width:0.377953;stroke-dasharray:none">pressure</tspan></text>
      <text
         xml:space="preserve"
         style="font-variant:normal;font-weight:normal;font-size:6.66667px;font-family:'MS 33558';-inkscape-font-specification:MS33558;writing-mode:lr-tb;fill:none;stroke:#ed1c24;stroke-width:0.377953;stroke-linecap:butt;stroke-linejoin:miter;stroke-miterlimit:2.61313;stroke-dasharray:none;stroke-opacity:1"
         id="text306"
         x="553.06555"
         y="675.67169"><tspan
           x="553.06555 557.83887"
           y="675.67169"
           sodipodi:role="line"
           id="tspan304"
           style="stroke-width:0.377953;stroke-dasharray:none">20</tspan></text>
      <text
         xml:space="preserve"
         style="font-variant:normal;font-weight:normal;font-size:6.66667px;font-family:'MS 33558';-inkscape-font-specification:MS33558;writing-mode:lr-tb;fill:none;stroke:#ed1c24;stroke-width:0.377953;stroke-linecap:butt;stroke-linejoin:miter;stroke-miterlimit:2.61313;stroke-dasharray:none;stroke-opacity:1"
         id="text310"
         x="559.10327"
         y="663.82745"><tspan
           x="559.10327 564.82324"
           y="663.82745"
           sodipodi:role="line"
           id="tspan308"
           style="stroke-width:0.377953;stroke-dasharray:none">40</tspan></text>
      <text
         xml:space="preserve"
         style="font-variant:normal;font-weight:normal;font-size:6.66667px;font-family:'MS 33558';-inkscape-font-specification:MS33558;writing-mode:lr-tb;fill:none;stroke:#ed1c24;stroke-width:0.377953;stroke-linecap:butt;stroke-linejoin:miter;stroke-miterlimit:2.61313;stroke-dasharray:none;stroke-opacity:1"
         id="text314"
         x="568.37"
         y="654.14441"><tspan
           x="568.37 573.59662"
           y="654.14441"
           sodipodi:role="line"
           id="tspan312"
           style="stroke-width:0.377953;stroke-dasharray:none">60</tspan></text>
      <text
         xml:space="preserve"
         style="font-variant:normal;font-weight:normal;font-size:6.66667px;font-family:'MS 33558';-inkscape-font-specification:MS33558;writing-mode:lr-tb;fill:none;stroke:#ed1c24;stroke-width:0.377953;stroke-linecap:butt;stroke-linejoin:miter;stroke-miterlimit:2.61313;stroke-dasharray:none;stroke-opacity:1"
         id="text318"
         x="581.19849"
         y="647.83209"><tspan
           x="581.19849 585.93182"
           y="647.83209"
           sodipodi:role="line"
           id="tspan316"
           style="stroke-width:0.377953;stroke-dasharray:none">80</tspan></text>
      <text
         xml:space="preserve"
         style="font-variant:normal;font-weight:normal;font-size:6.66667px;font-family:'MS 33558';-inkscape-font-specification:MS33558;writing-mode:lr-tb;fill:none;stroke:#ed1c24;stroke-width:0.377953;stroke-linecap:butt;stroke-linejoin:miter;stroke-miterlimit:2.61313;stroke-dasharray:none;stroke-opacity:1"
         id="text322"
         x="594.35303"
         y="644.99371"><tspan
           x="594.35303 596.32635 601.21967"
           y="644.99371"
           sodipodi:role="line"
           id="tspan320"
           style="stroke-width:0.377953;stroke-dasharray:none">100</tspan></text>
      <text
         xml:space="preserve"
         style="font-variant:normal;font-weight:normal;font-size:6.66667px;font-family:'MS 33558';-inkscape-font-specification:MS33558;writing-mode:lr-tb;fill:none;stroke:#ed1c24;stroke-width:0.377953;stroke-linecap:butt;stroke-linejoin:miter;stroke-miterlimit:2.61313;stroke-dasharray:none;stroke-opacity:1"
         id="text326"
         x="608.61847"
         y="648.77997"><tspan
           x="608.61847 613.39178 618.28516"
           y="648.77997"
           sodipodi:role="line"
           id="tspan324"
           style="stroke-width:0.377953;stroke-dasharray:none">200</tspan></text>
      <text
         xml:space="preserve"
         style="font-variant:normal;font-weight:normal;font-size:6.66667px;font-family:'MS 33558';-inkscape-font-specification:MS33558;writing-mode:lr-tb;fill:none;stroke:#ed1c24;stroke-width:0.377953;stroke-linecap:butt;stroke-linejoin:miter;stroke-miterlimit:2.61313;stroke-dasharray:none;stroke-opacity:1"
         id="text330"
         x="622.31207"
         y="659.27277"><tspan
           x="622.31207 627.65875 632.55206"
           y="659.27277"
           sodipodi:role="line"
           id="tspan328"
           style="stroke-width:0.377953;stroke-dasharray:none">300</tspan></text>
      <text
         xml:space="preserve"
         style="font-variant:normal;font-weight:normal;font-size:6.66667px;font-family:'MS 33558';-inkscape-font-specification:MS33558;writing-mode:lr-tb;fill:none;stroke:#ed1c24;stroke-width:0.377953;stroke-linecap:butt;stroke-linejoin:miter;stroke-miterlimit:2.61313;stroke-dasharray:none;stroke-opacity:1"
         id="text334"
         x="631.0769"
         y="673.24225"><tspan
           x="631.0769 636.79688 641.69019"
           y="673.24225"
           sodipodi:role="line"
           id="tspan332"
           style="stroke-width:0.377953;stroke-dasharray:none">400</tspan></text>
      <text
         xml:space="preserve"
         style="font-variant:normal;font-weight:normal;font-size:6.66667px;font-family:'MS 33558';-inkscape-font-specification:MS33558;writing-mode:lr-tb;fill:none;stroke:#ed1c24;stroke-width:0.377953;stroke-linecap:butt;stroke-linejoin:miter;stroke-miterlimit:2.61313;stroke-dasharray:none;stroke-opacity:1"
         id="text338"
         x="635.42328"
         y="686.05676"><tspan
           x="635.42328 640.4433 645.33661"
           y="686.05676"
           sodipodi:role="line"
           id="tspan336"
           style="stroke-width:0.377953;stroke-dasharray:none">500</tspan></text>
      <text
         xml:space="preserve"
         style="font-variant:normal;font-weight:normal;font-size:9.33333px;font-family:'MS 33558';-inkscape-font-specification:MS33558;writing-mode:lr-tb;fill:none;stroke:#ed1c24;stroke-width:0.377953;stroke-linecap:butt;stroke-linejoin:miter;stroke-miterlimit:2.61313;stroke-dasharray:none;stroke-opacity:1"
         id="text342"
         x="591.64087"
         y="677.06824"><tspan
           x="591.64087 599.12622 606.37823"
           y="677.06824"
           sodipodi:role="line"
           id="tspan340"
           style="stroke-width:0.377953;stroke-dasharray:none">psi</tspan></text>
    </g>
    <path
       d="m 1001.8227,686.24198 c 0,-2.60934 -2.1153,-4.7244 -4.72436,-4.7244 -2.60893,0 -4.7244,2.11506 -4.7244,4.7244 0,2.60933 2.11547,4.7244 4.7244,4.7244 2.60906,0 4.72436,-2.11507 4.72436,-4.7244 z"
       style="fill:none;stroke:#231f20;stroke-width:0.944881;stroke-linecap:butt;stroke-linejoin:miter;stroke-miterlimit:2.61313;stroke-dasharray:none;stroke-opacity:1"
       id="path466" />
    <path
       d="m 897.50861,686.24198 c 0,-2.60934 -2.11547,-4.7244 -4.7244,-4.7244 -2.60907,0 -4.7244,2.11506 -4.7244,4.7244 0,2.60933 2.11533,4.7244 4.7244,4.7244 2.60893,0 4.7244,-2.11507 4.7244,-4.7244 z"
       style="fill:none;stroke:#231f20;stroke-width:0.944881;stroke-linecap:butt;stroke-linejoin:miter;stroke-miterlimit:2.61313;stroke-dasharray:none;stroke-opacity:1"
       id="path468" />
    <path
       d="m 891.46061,633.32931 c 4.1748,0 7.55906,3.38427 7.55906,7.55907 0,4.17493 -3.38426,7.55906 -7.55906,7.55906 -4.17493,0 -7.55907,-3.38413 -7.55907,-7.55906 0,-4.1748 3.38414,-7.55907 7.55907,-7.55907 z"
       style="fill:none;stroke:#231f20;stroke-width:0.944881;stroke-linecap:butt;stroke-linejoin:miter;stroke-miterlimit:2.61313;stroke-dasharray:none;stroke-opacity:1"
       id="path470" />
    <path
       d="m 1038.8622,724.03797 c 4.1748,0 7.5591,3.38427 7.5591,7.55907 0,4.17493 -3.3843,7.55907 -7.5591,7.55907 -4.1749,0 -7.5591,-3.38414 -7.5591,-7.55907 0,-4.1748 3.3842,-7.55907 7.5591,-7.55907 z"
       style="fill:none;stroke:#231f20;stroke-width:0.944881;stroke-linecap:butt;stroke-linejoin:miter;stroke-miterlimit:2.61313;stroke-dasharray:none;stroke-opacity:1"
       id="path472" />
    <path
       d="m 891.46061,724.03797 c 4.1748,0 7.55906,3.38427 7.55906,7.55907 0,4.17493 -3.38426,7.55907 -7.55906,7.55907 -4.17493,0 -7.55907,-3.38414 -7.55907,-7.55907 0,-4.1748 3.38414,-7.55907 7.55907,-7.55907 z"
       style="fill:none;stroke:#231f20;stroke-width:0.944881;stroke-linecap:butt;stroke-linejoin:miter;stroke-miterlimit:2.61313;stroke-dasharray:none;stroke-opacity:1"
       id="path474" />
    <path
       d="m 1038.8622,633.32931 c 4.1748,0 7.5591,3.38427 7.5591,7.55907 0,4.17493 -3.3843,7.55906 -7.5591,7.55906 -4.1749,0 -7.5591,-3.38413 -7.5591,-7.55906 0,-4.1748 3.3842,-7.55907 7.5591,-7.55907 z"
       style="fill:none;stroke:#231f20;stroke-width:0.944881;stroke-linecap:butt;stroke-linejoin:miter;stroke-miterlimit:2.61313;stroke-dasharray:none;stroke-opacity:1"
       id="path476" />
    <path
       d="m 1006.0963,629.54984 h 36.5458 c 4.157,0 7.5586,3.4016 7.5586,7.55907 v 98.26773 c 0,4.15747 -3.4016,7.55893 -7.5586,7.55893 h -36.5458 c -11.50676,8.32294 -25.64756,13.2284 -40.93449,13.2284 -15.28707,0 -29.42787,-4.90546 -40.93467,-13.2284 h -36.54613 c -4.15707,0 -7.55907,-3.40146 -7.55907,-7.55893 v -98.26773 c 0,-4.15747 3.402,-7.55907 7.55907,-7.55907 h 36.54613 c 11.5068,-8.32293 25.6476,-13.2284 40.93467,-13.2284 15.28693,0 29.42773,4.90547 40.93449,13.2284 z"
       style="fill:none;stroke:#231f20;stroke-width:0.944881;stroke-linecap:butt;stroke-linejoin:miter;stroke-miterlimit:2.61313;stroke-dasharray:none;stroke-opacity:1"
       id="path478" />
  </g>
</svg>
